<svg width="480" height="391" viewBox="0 0 480 391" fill="none" xmlns="http://www.w3.org/2000/svg">
<g clip-path="url(#clip0)">
<rect width="480" height="390" transform="translate(0 0.134766)" fill="white"/>
<path d="M0 102.334V102.424L0.04 102.364C0.03 102.354 0.02 102.344 0 102.334ZM11.78 106.834L6.96 119.384L0 116.704V118.374L7.99 121.444L13.37 107.444L11.78 106.834ZM2.32 103.194L0 109.234V113.984L3.91 103.804L2.32 103.194ZM20.18 110.064L19.62 111.514L26.85 114.294L24.85 119.504L19.83 117.574L19.27 119.034L24.29 120.964L22.59 125.384L15.55 122.684L14.99 124.134L23.62 127.454L29 113.444L20.18 110.064ZM43.71 122.914C43.54 121.604 43.06 120.444 42.27 119.424C41.47 118.414 40.41 117.664 39.09 117.154C37.76 116.644 36.46 116.494 35.19 116.704C33.92 116.934 32.79 117.474 31.8 118.344C30.81 119.204 30.06 120.314 29.53 121.684C29 123.054 28.82 124.394 28.97 125.694C29.13 127.014 29.6 128.174 30.4 129.174C31.2 130.184 32.26 130.944 33.6 131.454C34.92 131.964 36.22 132.104 37.5 131.884C38.77 131.674 39.9 131.134 40.89 130.274C41.87 129.404 42.63 128.294 43.16 126.924C43.68 125.554 43.87 124.214 43.71 122.914ZM41.51 126.294C41.09 127.404 40.5 128.304 39.75 128.994C38.98 129.694 38.12 130.124 37.17 130.304C36.2 130.484 35.2 130.374 34.16 129.984C33.14 129.584 32.33 129.004 31.74 128.214C31.13 127.434 30.79 126.544 30.69 125.524C30.59 124.494 30.75 123.424 31.17 122.314C31.6 121.214 32.19 120.314 32.96 119.624C33.71 118.924 34.57 118.484 35.54 118.304C36.51 118.124 37.5 118.234 38.52 118.634C39.56 119.024 40.37 119.614 40.98 120.384C41.56 121.164 41.91 122.074 42.01 123.094C42.11 124.124 41.94 125.184 41.51 126.294ZM55.94 123.804L53.4 130.424L51.4 129.664L48.7 121.014L46.79 120.284L49.73 129.924L41.56 134.344L43.49 135.084L50.77 131.114L52.83 131.904L50.56 137.804L52.15 138.414L57.53 124.414L55.94 123.804ZM70.83 129.524L67.14 133.654L61.58 131.514L61.6 125.974L59.92 125.334V141.394L61.68 142.074L72.41 130.134L70.83 129.524ZM61.53 139.934L61.56 133.164L66.04 134.884L61.53 139.934ZM77.88 132.234L76.3 131.624L71.48 144.164L66.98 142.434L66.42 143.894L76.99 147.954L77.54 146.494L73.06 144.774L77.88 132.234ZM99.43 144.324C99.26 143.014 98.78 141.854 97.98 140.834C97.19 139.824 96.13 139.064 94.81 138.564C93.48 138.054 92.18 137.904 90.91 138.114C89.64 138.344 88.51 138.884 87.52 139.744C86.53 140.614 85.77 141.724 85.25 143.094C84.72 144.464 84.53 145.804 84.69 147.104C84.84 148.414 85.32 149.574 86.12 150.584C86.92 151.594 87.98 152.354 89.31 152.864C90.63 153.374 91.93 153.514 93.22 153.294C94.49 153.084 95.61 152.544 96.6 151.674C97.59 150.814 98.35 149.704 98.87 148.334C99.4 146.964 99.59 145.624 99.43 144.324ZM97.23 147.704C96.81 148.804 96.22 149.704 95.46 150.404C94.7 151.094 93.84 151.534 92.88 151.704C91.91 151.894 90.91 151.784 89.88 151.384C88.86 150.994 88.05 150.404 87.45 149.624C86.85 148.844 86.5 147.944 86.41 146.924C86.3 145.904 86.46 144.834 86.89 143.724C87.31 142.614 87.91 141.714 88.68 141.024C89.43 140.334 90.29 139.894 91.26 139.704C92.23 139.534 93.22 139.644 94.24 140.034C95.27 140.434 96.09 141.024 96.69 141.794C97.28 142.574 97.62 143.484 97.73 144.504C97.82 145.524 97.66 146.594 97.23 147.704ZM108.62 144.044L107.04 143.434L102.22 155.974L97.72 154.244L97.16 155.704L107.72 159.764L108.28 158.304L103.8 156.584L108.62 144.044ZM122.01 156.644C121.41 155.594 120.33 154.774 118.76 154.174C118.16 153.944 117.55 153.774 116.91 153.674C116.28 153.574 115.58 153.514 114.82 153.494L117.19 147.334L115.6 146.724L110.22 160.724L111.81 161.334L114.27 154.934C115 154.924 115.66 154.974 116.25 155.074C116.82 155.174 117.4 155.344 117.97 155.564C119.17 156.024 119.98 156.624 120.38 157.364C120.77 158.104 120.75 159.034 120.31 160.164L118.83 164.034L120.41 164.644L122.03 160.424C122.6 158.954 122.59 157.694 122.01 156.644ZM134.44 150.744L131.19 154.854L132.96 155.534L135.63 151.204L134.44 150.744ZM148.98 159.544L144.45 171.344L141.95 163.184L141.59 163.054L134.24 167.464L138.79 155.634L137.26 155.044L131.88 169.044L133.57 169.694L140.9 165.244L143.43 173.484L145.13 174.134L150.51 160.134L148.98 159.544ZM165.23 169.604C165.06 168.294 164.58 167.134 163.78 166.114C162.98 165.104 161.93 164.354 160.61 163.844C159.27 163.334 157.97 163.184 156.71 163.394C155.44 163.624 154.3 164.164 153.32 165.024C152.33 165.894 151.57 167.004 151.04 168.374C150.52 169.744 150.33 171.084 150.49 172.384C150.64 173.694 151.12 174.854 151.92 175.864C152.71 176.874 153.78 177.634 155.11 178.144C156.43 178.654 157.73 178.794 159.02 178.574C160.28 178.364 161.41 177.824 162.4 176.964C163.39 176.094 164.15 174.984 164.67 173.614C165.2 172.244 165.38 170.904 165.23 169.604ZM163.03 172.984C162.6 174.084 162.02 174.994 161.26 175.684C160.5 176.374 159.64 176.814 158.68 176.984C157.71 177.174 156.71 177.064 155.68 176.664C154.66 176.274 153.85 175.684 153.25 174.904C152.65 174.124 152.3 173.224 152.21 172.204C152.1 171.184 152.26 170.114 152.69 169.004C153.11 167.894 153.71 166.994 154.47 166.304C155.23 165.614 156.09 165.174 157.06 164.984C158.03 164.814 159.02 164.924 160.04 165.314C161.07 165.714 161.89 166.304 162.49 167.074C163.08 167.854 163.42 168.764 163.53 169.784C163.62 170.804 163.46 171.874 163.03 172.984ZM174.42 169.324L172.84 168.714L168.01 181.254L163.52 179.534L162.96 180.984L173.52 185.044L174.08 183.594L169.6 181.864L174.42 169.324ZM195.97 181.414C195.8 180.104 195.32 178.944 194.52 177.924C193.72 176.914 192.66 176.164 191.34 175.654C190.01 175.144 188.71 174.994 187.45 175.204C186.17 175.434 185.04 175.974 184.06 176.834C183.07 177.704 182.31 178.814 181.78 180.184C181.26 181.554 181.07 182.894 181.23 184.194C181.38 185.504 181.86 186.674 182.65 187.674C183.45 188.684 184.52 189.444 185.85 189.954C187.17 190.464 188.47 190.604 189.76 190.384C191.02 190.174 192.15 189.634 193.14 188.774C194.13 187.904 194.89 186.794 195.41 185.424C195.94 184.054 196.12 182.714 195.97 181.414ZM193.77 184.794C193.34 185.894 192.75 186.804 192 187.494C191.24 188.184 190.38 188.624 189.42 188.794C188.45 188.984 187.45 188.874 186.42 188.474C185.4 188.084 184.59 187.494 183.99 186.714C183.39 185.934 183.04 185.034 182.95 184.014C182.84 182.994 183 181.924 183.43 180.814C183.85 179.704 184.45 178.814 185.21 178.114C185.97 177.424 186.83 176.984 187.8 176.794C188.76 176.624 189.76 176.734 190.78 177.124C191.81 177.524 192.63 178.114 193.23 178.884C193.82 179.664 194.16 180.574 194.27 181.594C194.36 182.614 194.19 183.684 193.77 184.794ZM216.79 185.434C215.91 185.094 215.1 185.144 214.37 185.594C213.64 186.054 212.87 186.974 212.07 188.354C211.66 189.054 211.22 189.904 210.75 190.904C210.27 191.924 209.75 193.104 209.19 194.444L208.24 196.714L202.21 194.394L207.03 181.854L205.44 181.244L200.06 195.244L209.23 198.764L210.61 195.394C211.15 194.104 211.64 192.974 212.08 192.014C212.5 191.054 212.9 190.244 213.27 189.584C213.62 188.934 213.93 188.414 214.21 188.014C214.49 187.624 214.75 187.344 214.99 187.174C215.46 186.844 215.93 186.774 216.42 186.954C216.53 187.004 216.68 187.084 216.86 187.214L217.64 185.964C217.4 185.734 217.12 185.554 216.79 185.434ZM229.55 190.504L225.87 194.634L220.3 192.504L220.33 186.964L218.65 186.314V202.384L220.4 203.054L231.14 191.114L229.55 190.504ZM220.26 200.924L220.29 194.144L224.77 195.864L220.26 200.924ZM245.26 196.544L240.73 208.344L238.23 200.184L237.87 200.044L230.52 204.464L235.07 192.624L233.54 192.034L228.16 206.034L229.86 206.694L237.18 202.244L239.71 210.474L241.41 211.134L246.79 197.124L245.26 196.544ZM257.4 201.204L255.72 200.564L243.64 211.984L245.32 212.634L252.75 205.614L253.87 215.914L255.63 216.594L254.3 204.144L257.4 201.204ZM275.17 204.174L273.88 207.534L263.14 203.414L264.44 200.054L262.9 199.464L261.05 204.274L262.83 204.964L258.01 217.504L267.04 220.974L268.42 217.604C268.86 216.564 269.25 215.634 269.62 214.834C269.97 214.024 270.31 213.324 270.62 212.734C270.92 212.144 271.2 211.644 271.47 211.234C271.73 210.834 271.98 210.504 272.22 210.244C272.42 210.004 272.65 209.794 272.89 209.594C273.13 209.424 273.38 209.254 273.64 209.114L274.85 209.584L276.7 204.764L275.17 204.174ZM270.58 209.824C270.13 210.364 269.67 211.064 269.2 211.904C268.88 212.484 268.54 213.164 268.18 213.954C267.82 214.744 267.43 215.644 267.02 216.644L266.07 218.934L260.14 216.654L264.4 205.564L272.01 208.494C271.51 208.834 271.03 209.284 270.58 209.824ZM292.19 218.384C292.03 217.074 291.54 215.914 290.75 214.894C289.95 213.884 288.89 213.134 287.57 212.624C286.24 212.114 284.94 211.964 283.67 212.174C282.4 212.404 281.27 212.944 280.28 213.814C279.29 214.674 278.54 215.784 278.01 217.154C277.49 218.524 277.3 219.864 277.46 221.164C277.61 222.484 278.08 223.644 278.88 224.644C279.68 225.654 280.75 226.414 282.08 226.924C283.4 227.434 284.7 227.574 285.98 227.354C287.25 227.144 288.38 226.604 289.37 225.744C290.36 224.874 291.11 223.764 291.64 222.394C292.17 221.024 292.35 219.684 292.19 218.384ZM290 221.764C289.57 222.874 288.98 223.774 288.23 224.464C287.46 225.164 286.6 225.594 285.65 225.774C284.68 225.954 283.68 225.844 282.64 225.454C281.62 225.054 280.82 224.474 280.22 223.684C279.62 222.904 279.27 222.014 279.17 220.994C279.07 219.964 279.23 218.894 279.65 217.784C280.08 216.684 280.68 215.784 281.44 215.094C282.19 214.394 283.06 213.954 284.03 213.774C284.99 213.594 285.99 213.704 287.01 214.104C288.04 214.494 288.86 215.084 289.46 215.854C290.04 216.634 290.39 217.544 290.5 218.564C290.59 219.594 290.42 220.654 290 221.764ZM302.07 218.364L297.25 230.914L290.46 228.304L289.9 229.754L298.28 232.974L303.66 218.974L302.07 218.364ZM318.38 228.444C318.21 227.134 317.72 225.974 316.93 224.954C316.13 223.944 315.07 223.194 313.75 222.684C312.42 222.174 311.12 222.024 309.86 222.234C308.58 222.464 307.45 223.004 306.46 223.864C305.48 224.734 304.72 225.844 304.19 227.214C303.67 228.584 303.48 229.924 303.64 231.224C303.79 232.544 304.26 233.704 305.06 234.704C305.86 235.714 306.93 236.474 308.26 236.984C309.58 237.494 310.88 237.634 312.17 237.414C313.43 237.204 314.56 236.664 315.55 235.804C316.54 234.934 317.29 233.824 317.82 232.454C318.35 231.084 318.53 229.744 318.38 228.444ZM316.18 231.824C315.75 232.924 315.16 233.834 314.41 234.524C313.64 235.214 312.78 235.654 311.83 235.824C310.86 236.014 309.86 235.904 308.83 235.514C307.81 235.114 307 234.524 306.4 233.744C305.8 232.964 305.45 232.074 305.36 231.044C305.25 230.024 305.41 228.954 305.84 227.844C306.26 226.744 306.86 225.844 307.62 225.144C308.37 224.454 309.24 224.014 310.21 223.824C311.17 223.654 312.17 223.764 313.19 224.154C314.22 224.554 315.04 225.144 315.64 225.914C316.23 226.694 316.57 227.604 316.68 228.624C316.77 229.644 316.6 230.714 316.18 231.824ZM333.41 230.404L330.84 237.114L322.73 233.994L325.31 227.294L323.72 226.684L318.34 240.684L319.93 241.294L322.18 235.454L330.28 238.564L328.03 244.414L329.62 245.024L335 231.014L333.41 230.404ZM350.99 237.164L346.46 248.964L343.96 240.804L343.6 240.664L336.25 245.084L340.8 233.244L339.26 232.654L333.88 246.664L335.58 247.314L342.91 242.864L345.44 251.104L347.14 251.754L352.52 237.754L350.99 237.164ZM366.36 250.434C366.02 250.064 365.61 249.744 365.14 249.474L371.54 245.054L369.73 244.364L363.44 248.714L360.2 247.474L362.46 241.574L360.88 240.964L355.5 254.964L361.17 257.144C361.82 257.394 362.45 257.524 363.06 257.524C363.66 257.524 364.22 257.424 364.75 257.214C365.25 257.004 365.71 256.694 366.11 256.274C366.51 255.864 366.83 255.354 367.06 254.754C367.27 254.204 367.38 253.674 367.4 253.154C367.4 252.634 367.31 252.144 367.15 251.684C366.97 251.224 366.7 250.814 366.36 250.434ZM365.42 254.124C365.12 254.904 364.63 255.444 363.96 255.734C363.28 256.014 362.53 255.994 361.71 255.684L357.64 254.114L359.64 248.924L363.74 250.504C364.54 250.814 365.1 251.294 365.41 251.964C365.72 252.614 365.72 253.344 365.42 254.124Z" fill="#010202"/>
<path d="M370.73 4.70398C370.66 4.36398 370.49 4.11398 370.23 3.95398C369.98 3.77398 369.68 3.73399 369.34 3.80399C369.01 3.88399 368.77 4.05399 368.61 4.32399C368.45 4.57399 368.41 4.87398 368.49 5.21398C368.57 5.55398 368.73 5.80398 368.99 5.97398C369.25 6.14398 369.54 6.18398 369.86 6.10398C370.2 6.03398 370.45 5.86399 370.61 5.61399C370.77 5.34399 370.81 5.03398 370.73 4.70398ZM372.86 14.044C372.6 12.914 372.17 11.944 371.56 11.134C370.94 10.324 370.18 9.70399 369.3 9.29399C368.41 8.87399 367.43 8.65399 366.36 8.65399L366.33 10.424C367.12 10.384 367.85 10.504 368.53 10.804C369.22 11.094 369.81 11.554 370.3 12.164C370.78 12.784 371.12 13.524 371.32 14.394C371.57 15.484 371.53 16.494 371.19 17.414C370.84 18.344 370.27 19.124 369.47 19.764C368.65 20.394 367.7 20.844 366.59 21.094C365.5 21.344 364.46 21.354 363.46 21.124C362.45 20.894 361.59 20.434 360.89 19.744C360.17 19.064 359.69 18.184 359.45 17.104C359.16 15.854 359.28 14.734 359.79 13.764C360.29 12.784 361.1 12.044 362.2 11.534L361.39 9.97398C360.45 10.404 359.67 10.994 359.07 11.754C358.46 12.494 358.05 13.354 357.85 14.324C357.63 15.304 357.65 16.344 357.9 17.454C358.21 18.804 358.82 19.944 359.71 20.874C360.6 21.794 361.69 22.424 362.98 22.774C364.24 23.114 365.58 23.124 366.98 22.804C368.4 22.484 369.61 21.904 370.62 21.054C371.62 20.204 372.32 19.164 372.73 17.954C373.13 16.724 373.18 15.424 372.86 14.044ZM376.36 29.414C376.11 28.284 375.67 27.314 375.07 26.504C374.44 25.694 373.69 25.074 372.8 24.664C371.91 24.234 370.93 24.024 369.86 24.024L369.84 25.794C370.62 25.744 371.35 25.874 372.04 26.174C372.72 26.464 373.31 26.924 373.8 27.534C374.28 28.144 374.62 28.894 374.82 29.764C375.07 30.854 375.03 31.864 374.69 32.784C374.34 33.714 373.77 34.494 372.97 35.124C372.16 35.764 371.2 36.204 370.09 36.464C369 36.704 367.96 36.724 366.96 36.494C365.95 36.264 365.1 35.804 364.39 35.114C363.68 34.424 363.19 33.544 362.95 32.464C362.66 31.224 362.78 30.104 363.29 29.124C363.8 28.154 364.6 27.404 365.7 26.894L364.89 25.334C363.95 25.774 363.18 26.364 362.57 27.114C361.96 27.864 361.55 28.714 361.35 29.694C361.14 30.674 361.16 31.714 361.41 32.814C361.72 34.174 362.32 35.314 363.21 36.244C364.11 37.164 365.19 37.794 366.48 38.144C367.75 38.484 369.08 38.494 370.48 38.174C371.9 37.854 373.12 37.264 374.13 36.424C375.12 35.564 375.82 34.534 376.23 33.314C376.63 32.094 376.68 30.784 376.36 29.414ZM378.18 38.174L376.66 38.524L378.38 46.064L372.93 47.304L371.74 42.064L370.22 42.404L371.41 47.654L366.79 48.704L365.12 41.354L363.6 41.704L365.65 50.714L380.27 47.374L378.18 38.174ZM384.8 51.044L384.44 49.464L379.41 50.614L379.83 52.444L366.73 55.434L367.1 57.094L380.21 54.104L382.02 62.064L368.92 65.044L369.29 66.704L383.92 63.374L381.29 51.844L384.8 51.044ZM386.47 73.824C386.15 72.434 385.55 71.264 384.67 70.334C383.77 69.404 382.69 68.764 381.42 68.424C380.15 68.084 378.8 68.084 377.37 68.404C375.94 68.734 374.73 69.324 373.74 70.174C372.73 71.034 372.03 72.074 371.64 73.304C371.25 74.524 371.21 75.834 371.53 77.224C371.84 78.604 372.45 79.764 373.35 80.704C374.23 81.644 375.31 82.284 376.57 82.624C377.84 82.964 379.19 82.964 380.62 82.644C382.05 82.314 383.26 81.724 384.26 80.864C385.25 80.004 385.95 78.954 386.35 77.724C386.74 76.504 386.78 75.204 386.47 73.824ZM384.83 77.184C384.51 78.114 383.95 78.904 383.16 79.564C382.36 80.204 381.39 80.664 380.23 80.924C379.07 81.184 377.99 81.204 377 80.964C376 80.714 375.16 80.244 374.48 79.544C373.78 78.844 373.31 77.954 373.07 76.874C372.83 75.804 372.86 74.804 373.19 73.874C373.49 72.944 374.04 72.154 374.84 71.504C375.63 70.844 376.61 70.384 377.77 70.124C378.92 69.854 380 69.854 381 70.104C382 70.344 382.85 70.814 383.54 71.514C384.22 72.224 384.68 73.104 384.92 74.174C385.17 75.254 385.14 76.254 384.83 77.184ZM390.29 91.304L384.51 92.624L383.68 88.974C383.52 88.264 383.26 87.634 382.91 87.104C382.54 86.554 382.11 86.124 381.63 85.794C381.13 85.474 380.58 85.254 379.98 85.144C379.38 85.034 378.77 85.054 378.14 85.194C377.51 85.334 376.95 85.584 376.47 85.944C375.97 86.294 375.58 86.724 375.29 87.244C374.99 87.744 374.8 88.314 374.71 88.954C374.63 89.584 374.66 90.264 374.83 90.994L376.04 96.294L390.66 92.964L390.29 91.304ZM377.18 94.294L376.35 90.644C376.13 89.674 376.22 88.854 376.61 88.184C376.99 87.514 377.63 87.074 378.53 86.874C379.4 86.674 380.17 86.794 380.84 87.224C381.5 87.644 381.94 88.344 382.16 89.324L382.99 92.974L377.18 94.294ZM393.93 107.284L380.82 110.274L378.95 102.044L392.05 99.054L391.67 97.394L377.05 100.734L379.68 112.274L394.31 108.944L393.93 107.284ZM397.83 123.674C397.51 122.284 396.91 121.124 396.03 120.184C395.13 119.254 394.05 118.624 392.78 118.284C391.52 117.944 390.17 117.934 388.74 118.264C387.31 118.584 386.1 119.174 385.1 120.034C384.09 120.894 383.39 121.934 383 123.154C382.61 124.384 382.57 125.684 382.89 127.084C383.21 128.454 383.81 129.614 384.71 130.564C385.59 131.494 386.67 132.134 387.94 132.474C389.2 132.814 390.55 132.824 391.98 132.494C393.41 132.174 394.62 131.574 395.62 130.724C396.61 129.854 397.31 128.804 397.71 127.574C398.1 126.354 398.14 125.054 397.83 123.674ZM396.2 127.044C395.87 127.964 395.31 128.754 394.52 129.414C393.72 130.064 392.75 130.514 391.59 130.784C390.43 131.044 389.36 131.054 388.36 130.814C387.36 130.564 386.52 130.094 385.84 129.404C385.15 128.704 384.68 127.804 384.43 126.724C384.19 125.664 384.23 124.664 384.55 123.724C384.85 122.794 385.41 122.004 386.2 121.364C387 120.704 387.97 120.244 389.13 119.974C390.29 119.714 391.36 119.704 392.37 119.954C393.36 120.194 394.21 120.664 394.9 121.364C395.58 122.074 396.04 122.964 396.29 124.024C396.53 125.104 396.5 126.114 396.2 127.044ZM400.97 138.204L400.6 136.544L387.49 139.534L386.42 134.834L384.9 135.174L387.42 146.214L388.94 145.864L387.87 141.184L400.97 138.204ZM404.03 150.794C403.78 149.704 403.37 148.774 402.8 147.994C402.22 147.224 401.54 146.624 400.74 146.184C399.94 145.744 399.05 145.464 398.07 145.364C397.08 145.264 396.04 145.334 394.96 145.574C393.88 145.824 392.93 146.204 392.09 146.724C391.24 147.234 390.56 147.854 390.03 148.594C389.5 149.324 389.14 150.164 388.96 151.094C388.77 152.024 388.81 153.034 389.06 154.124C389.24 154.944 389.53 155.684 389.93 156.344C390.32 156.994 390.8 157.554 391.36 158.014C391.91 158.474 392.53 158.824 393.22 159.064C393.9 159.304 394.62 159.414 395.38 159.394L395.42 157.764C394.82 157.774 394.27 157.694 393.75 157.524C393.22 157.364 392.74 157.104 392.32 156.764C391.9 156.424 391.54 156.004 391.24 155.514C390.93 155.014 390.71 154.444 390.56 153.804C390.38 153.024 390.36 152.304 390.48 151.644C390.59 150.974 390.82 150.374 391.18 149.844C391.53 149.304 391.99 148.834 392.56 148.444C393.12 148.044 393.77 147.724 394.5 147.494L395.89 153.614L397.41 153.264L396.01 147.124C396.81 146.994 397.56 146.994 398.26 147.104C398.97 147.204 399.61 147.414 400.18 147.754C400.74 148.074 401.23 148.524 401.63 149.084C402.03 149.634 402.32 150.304 402.5 151.104C402.81 152.464 402.72 153.634 402.23 154.594C401.73 155.534 400.92 156.244 399.78 156.724L400.56 158.254C402.02 157.594 403.07 156.624 403.69 155.344C404.32 154.064 404.43 152.544 404.03 150.794ZM401.57 163.864L400.11 164.194L404.38 182.914L405.84 182.584L401.57 163.864ZM414.11 195.854L407.19 197.434L406.72 195.344L412.39 188.284L411.94 186.294L405.57 194.104L397.35 189.784L397.81 191.794L405.16 195.634L405.65 197.784L399.49 199.184L399.87 200.844L414.49 197.514L414.11 195.854ZM416.81 206.854C416.55 205.724 416.12 204.754 415.51 203.944C414.88 203.134 414.13 202.514 413.24 202.104C412.35 201.684 411.37 201.464 410.31 201.464L410.28 203.234C411.06 203.194 411.79 203.314 412.48 203.614C413.16 203.904 413.75 204.364 414.24 204.974C414.73 205.594 415.07 206.334 415.27 207.204C415.51 208.294 415.47 209.304 415.13 210.224C414.78 211.154 414.21 211.934 413.41 212.574C412.6 213.204 411.64 213.654 410.54 213.904C409.44 214.154 408.4 214.164 407.41 213.934C406.39 213.704 405.54 213.244 404.83 212.554C404.12 211.874 403.64 210.984 403.39 209.914C403.11 208.664 403.22 207.544 403.74 206.574C404.24 205.594 405.04 204.854 406.14 204.344L405.33 202.784C404.39 203.214 403.62 203.804 403.01 204.564C402.4 205.304 401.99 206.164 401.79 207.134C401.58 208.114 401.6 209.154 401.85 210.264C402.16 211.614 402.76 212.754 403.66 213.684C404.55 214.604 405.64 215.234 406.92 215.584C408.19 215.924 409.52 215.934 410.93 215.614C412.34 215.294 413.56 214.714 414.57 213.864C415.56 213.004 416.26 211.974 416.67 210.764C417.07 209.534 417.12 208.234 416.81 206.854ZM418.62 215.614L417.1 215.964L418.82 223.504L413.38 224.744L412.18 219.504L410.66 219.844L411.86 225.094L407.23 226.144L405.56 218.794L404.04 219.144L406.09 228.154L420.72 224.814L418.62 215.614ZM424.58 241.034C424.37 240.114 423.87 239.474 423.09 239.114C422.3 238.764 421.11 238.634 419.52 238.744C418.71 238.784 417.76 238.894 416.66 239.064C415.55 239.234 414.28 239.464 412.86 239.744L410.44 240.214L409 233.914L422.11 230.934L421.73 229.274L407.11 232.604L409.29 242.184L412.85 241.444C414.23 241.174 415.44 240.954 416.48 240.784C417.52 240.604 418.41 240.484 419.16 240.424C419.9 240.344 420.51 240.324 420.99 240.334C421.47 240.344 421.85 240.404 422.12 240.504C422.66 240.714 422.98 241.064 423.1 241.574C423.13 241.694 423.14 241.864 423.13 242.084L424.6 242.034C424.66 241.704 424.65 241.374 424.58 241.034ZM427.43 254.274L414.33 257.264L412.45 249.034L425.55 246.044L425.18 244.394L410.55 247.724L413.18 259.264L427.81 255.934L427.43 254.274Z" fill="#010202"/>
<path d="M263.58 74.1748L259.17 76.7148L260 77.6848L264.82 75.6248L263.58 74.1748ZM265.73 56.6748L264.54 57.6848L267.66 61.3348L257.44 70.0648L258.54 71.3548L268.76 62.6248L271.89 66.2948L273.08 65.2748L265.73 56.6748ZM258.74 48.4948L247.34 58.2348L253.47 65.4148L254.65 64.3948L249.63 58.5148L253.87 54.8848L257.36 58.9748L258.55 57.9648L255.05 53.8748L258.66 50.7948L263.56 56.5348L264.74 55.5148L258.74 48.4948ZM252.05 40.6548L236.92 46.0348L238.02 47.3248L243.23 45.4548L247.1 49.9848L244.44 54.8348L245.61 56.2048L253.27 42.0848L252.05 40.6548ZM247.9 48.5448L244.78 44.8948L251.16 42.6048L247.9 48.5448ZM246.12 33.7148L239.83 26.3548L237.01 28.6548C236.13 29.3648 235.34 29.9948 234.64 30.5248C233.94 31.0648 233.32 31.5248 232.76 31.8948C232.22 32.2648 231.73 32.5648 231.29 32.8048C230.88 33.0348 230.5 33.2048 230.16 33.3248C229.87 33.4348 229.57 33.5148 229.26 33.5648C228.97 33.6048 228.67 33.6248 228.38 33.6348L227.53 32.6448L223.61 35.9948L224.67 37.2448L227.41 34.9048L234.88 43.6548L232.14 45.9848L233.21 47.2348L237.13 43.8848L235.9 42.4448L246.12 33.7148ZM234.81 41.1648L229.51 34.9548C230.12 34.8948 230.75 34.7248 231.4 34.4648C232.06 34.2048 232.79 33.8148 233.61 33.2948C234.17 32.9448 234.79 32.5048 235.49 31.9848C236.18 31.4548 236.95 30.8548 237.79 30.1748L239.71 28.6148L243.84 33.4448L234.81 41.1648ZM234.59 20.4348C234.34 19.8248 233.95 19.2248 233.44 18.6248C233.02 18.1248 232.55 17.7148 232.04 17.3748C231.53 17.0348 231.01 16.7948 230.46 16.6448C229.93 16.5048 229.37 16.4748 228.8 16.5448C228.24 16.6048 227.67 16.7748 227.1 17.0748L227.86 18.5248C228.64 18.0848 229.42 17.9748 230.19 18.1948C230.95 18.4148 231.65 18.8948 232.27 19.6248C232.96 20.4248 233.32 21.2048 233.38 21.9648C233.43 22.7248 233.15 23.3648 232.55 23.8848C231.94 24.4048 231.31 24.6248 230.65 24.5348C230.01 24.4548 229.38 24.0648 228.79 23.3648L227.36 21.6948L226.17 22.7048L227.65 24.4348C228.33 25.2248 228.66 25.9748 228.64 26.6748C228.64 27.3748 228.32 27.9948 227.67 28.5548C226.96 29.1648 226.19 29.3648 225.35 29.1648C224.52 28.9748 223.75 28.4548 223.02 27.6048C222.28 26.7448 221.88 25.8848 221.8 25.0148C221.74 24.1548 222.05 23.3148 222.73 22.4948L221.33 21.5048C220.41 22.6048 220.01 23.7648 220.13 24.9948C220.26 26.2348 220.82 27.4348 221.82 28.6048C222.35 29.2248 222.91 29.7148 223.5 30.0848C224.11 30.4648 224.71 30.7048 225.32 30.8248C225.92 30.9348 226.52 30.9148 227.11 30.7648C227.7 30.6148 228.25 30.3248 228.75 29.8848C229.42 29.3148 229.85 28.6648 230.04 27.9448C230.24 27.2148 230.18 26.4548 229.87 25.6748C230.57 25.9648 231.25 26.0648 231.91 25.9848C232.58 25.8848 233.2 25.5948 233.75 25.1148C234.2 24.7348 234.53 24.2948 234.75 23.7948C234.97 23.2848 235.07 22.7548 235.04 22.1848C235 21.6148 234.86 21.0248 234.59 20.4348ZM225.49 10.8248C225.27 9.55477 224.7 8.38477 223.77 7.29477C222.85 6.22477 221.78 5.47477 220.54 5.05477C219.33 4.64477 218.08 4.57477 216.8 4.86477C215.52 5.15477 214.32 5.77477 213.2 6.72477C212.09 7.67477 211.29 8.76477 210.81 9.98477C210.33 11.2148 210.2 12.4648 210.41 13.7348C210.63 15.0048 211.2 16.1748 212.12 17.2448C213.05 18.3348 214.12 19.0848 215.33 19.5048C216.56 19.9148 217.81 19.9748 219.09 19.6848C220.37 19.3948 221.57 18.7748 222.69 17.8248C223.8 16.8748 224.6 15.7848 225.09 14.5648C225.58 13.3348 225.72 12.0948 225.49 10.8248ZM223.49 13.9048C223.1 14.8548 222.45 15.7148 221.54 16.4848C220.64 17.2548 219.69 17.7648 218.69 18.0048C217.69 18.2548 216.72 18.2348 215.78 17.9348C214.85 17.6248 214.03 17.0548 213.32 16.2248C212.6 15.3848 212.16 14.4748 212 13.5048C211.86 12.5448 211.99 11.5848 212.39 10.6348C212.79 9.68477 213.45 8.83477 214.35 8.06477C215.25 7.29477 216.2 6.77477 217.19 6.52477C218.2 6.28477 219.16 6.31477 220.08 6.61477C221.02 6.91477 221.85 7.48477 222.57 8.32477C223.28 9.15477 223.71 10.0648 223.86 11.0348C224.02 12.0048 223.9 12.9648 223.49 13.9048ZM213.49 0.134766C213.37 0.964766 213.02 1.75477 212.44 2.50477L213.88 3.51477C214.51 2.69477 214.92 1.80477 215.11 0.854766C215.16 0.614766 215.2 0.374766 215.21 0.134766H213.49V0.134766ZM209.29 5.40477C208.62 5.80477 207.91 6.03477 207.17 6.09477C206.43 6.14477 205.69 6.01477 204.97 5.70477C204.26 5.38477 203.61 4.88477 203.03 4.20477C202.3 3.35477 201.88 2.44477 201.74 1.46477C201.69 1.01477 201.69 0.574766 201.75 0.134766H200.07C200.03 0.654766 200.05 1.17477 200.14 1.70477C200.35 2.98477 200.91 4.15477 201.83 5.23477C202.58 6.11477 203.42 6.76477 204.33 7.20477C205.26 7.63477 206.21 7.82477 207.19 7.78477C208.18 7.74477 209.14 7.48477 210.09 6.98477L209.29 5.40477Z" fill="#010202"/>
<path d="M122.37 0.134766L121.4 5.40477L122.89 6.55477L124.08 0.134766H122.37V0.134766ZM139.14 0.134766H136.68L138.61 1.62477L135 6.30477L131.94 3.95477C131.18 3.36477 130.74 2.69477 130.62 1.92477C130.52 1.32477 130.64 0.724766 130.98 0.134766H129.11C129.1 0.164766 129.09 0.204766 129.08 0.234766C128.9 0.784766 128.86 1.34477 128.94 1.91477C129.01 2.47477 129.22 3.03477 129.57 3.59477C129.92 4.14477 130.41 4.66477 131.06 5.16477L134.08 7.49477L131.32 11.0748L125.4 6.51477L124.45 7.74477L131.72 13.3548L140.87 1.46477L139.14 0.134766ZM155.37 13.6748C154.89 12.4748 154.09 11.4548 152.97 10.5848C151.84 9.71477 150.64 9.20477 149.36 9.04477C148.08 8.89477 146.84 9.09477 145.65 9.64477C144.45 10.1848 143.41 11.0348 142.51 12.2048C141.62 13.3648 141.06 14.5848 140.84 15.8848C140.61 17.1848 140.73 18.4348 141.21 19.6248C141.69 20.8248 142.49 21.8548 143.62 22.7248C144.74 23.5848 145.95 24.0948 147.24 24.2548C148.52 24.4048 149.75 24.2148 150.94 23.6748C152.14 23.1248 153.18 22.2748 154.08 21.1148C154.97 19.9448 155.53 18.7248 155.75 17.4248C155.97 16.1248 155.84 14.8748 155.37 13.6748ZM154.07 17.1148C153.87 18.1248 153.41 19.0948 152.68 20.0348C151.96 20.9748 151.14 21.6748 150.22 22.1248C149.28 22.5648 148.34 22.7348 147.37 22.6348C146.39 22.5348 145.46 22.1448 144.58 21.4748C143.72 20.8048 143.11 20.0048 142.76 19.0848C142.41 18.1748 142.33 17.2148 142.53 16.2048C142.72 15.1948 143.18 14.2148 143.91 13.2748C144.63 12.3348 145.46 11.6448 146.39 11.1948C147.31 10.7448 148.26 10.5748 149.25 10.6748C150.22 10.7848 151.14 11.1748 152.01 11.8348C152.88 12.5148 153.5 13.3148 153.86 14.2248C154.19 15.1448 154.27 16.1048 154.07 17.1148ZM169.6 23.6048L165.22 29.2948L158.35 23.9948L162.73 18.3048L161.38 17.2748L152.23 29.1548L153.57 30.1948L157.39 25.2348L164.27 30.5248L160.45 35.4848L161.79 36.5248L170.95 24.6448L169.6 23.6048ZM181.96 34.1648C181.48 32.9748 180.68 31.9448 179.57 31.0848C178.44 30.2148 177.23 29.6948 175.96 29.5348C174.67 29.3948 173.43 29.5848 172.24 30.1348C171.05 30.6748 170 31.5348 169.11 32.6948C168.21 33.8548 167.65 35.0848 167.43 36.3748C167.2 37.6748 167.32 38.9248 167.8 40.1248C168.28 41.3148 169.08 42.3448 170.21 43.2148C171.33 44.0748 172.54 44.5848 173.83 44.7448C175.11 44.9048 176.34 44.7048 177.54 44.1648C178.73 43.6148 179.78 42.7648 180.67 41.6048C181.57 40.4448 182.13 39.2148 182.35 37.9248C182.56 36.6248 182.43 35.3648 181.96 34.1648ZM180.67 37.6148C180.47 38.6148 180 39.5848 179.28 40.5248C178.55 41.4648 177.73 42.1648 176.81 42.6148C175.88 43.0648 174.93 43.2348 173.97 43.1248C172.99 43.0248 172.06 42.6448 171.18 41.9648C170.31 41.2948 169.71 40.5048 169.36 39.5748C169 38.6648 168.92 37.7048 169.13 36.6948C169.32 35.6848 169.78 34.7048 170.5 33.7648C171.23 32.8248 172.05 32.1348 172.98 31.6948C173.91 31.2348 174.86 31.0648 175.84 31.1648C176.81 31.2748 177.73 31.6648 178.6 32.3348C179.48 33.0048 180.09 33.8048 180.45 34.7148C180.79 35.6348 180.86 36.5948 180.67 37.6148ZM201.43 48.1248L193.71 58.1448L193.65 49.6048L193.35 49.3748L185.04 51.5048L192.78 41.4648L191.48 40.4648L182.32 52.3448L183.77 53.4548L192.05 51.2848L192.13 59.9048L193.57 61.0148L202.73 49.1348L201.43 48.1248ZM214.44 58.1548L200.09 62.7548L207.66 52.9348L206.34 51.9148L197.19 63.7948L198.47 64.7848L212.83 60.1748L205.25 70.0148L206.57 71.0248L215.72 59.1448L214.44 58.1548ZM225.44 66.6348L221.1 72.2548L219.41 70.9448L219.29 61.8948L217.68 60.6448L217.74 70.7248L208.65 72.6248L210.28 73.8848L218.4 72.1648L220.14 73.5048L216.28 78.5148L217.63 79.5448L226.79 67.6648L225.44 66.6348ZM238.07 76.3648L233.35 79.2648L228.63 75.6348L230.24 70.3348L228.82 69.2348L224.22 84.6348L225.71 85.7748L239.42 77.4048L238.07 76.3648ZM226.18 83.6948L228.15 77.2048L231.96 80.1348L226.18 83.6948ZM247.98 83.9948L243.65 89.6248L241.95 88.3148L241.83 79.2648L240.22 78.0148L240.28 88.0948L231.19 89.9948L232.82 91.2548L240.94 89.5348L242.68 90.8748L238.82 95.8848L240.17 96.9148L249.33 85.0348L247.98 83.9948Z" fill="#010202"/>
<path d="M230.11 0.134766L296.72 79.1748L254.58 120.805" stroke="#010202"/>
<path d="M96.88 0.134766L254.23 120.535" stroke="#010202"/>
<path d="M342.88 0.134766L400.34 246.835L0 93.2848" stroke="#010202"/>
</g>
<defs>
<clipPath id="clip0">
<rect width="480" height="390" fill="white" transform="translate(0 0.134766)"/>
</clipPath>
</defs>
</svg>
