<svg width="162" height="40" viewBox="0 0 162 40" fill="none" xmlns="http://www.w3.org/2000/svg">
<rect width="162" height="40" fill="white"/>
<rect x="69.5" y="5" width="23" height="6" fill="white"/>
<rect x="14" y="11" width="5" height="19" fill="white"/>
<path d="M19.1 26.44H20.4C20.5867 26.2133 20.76 25.9733 20.92 25.72C21.08 25.4533 21.2133 25.1733 21.32 24.88C21.4533 24.5467 21.5667 24.1467 21.66 23.68C21.7667 23.2 21.8533 22.6333 21.92 21.98C22 21.3133 22.06 20.54 22.1 19.66C22.1533 18.78 22.1933 17.7733 22.22 16.64L22.3 13H31.98V26.44H33.88V31.6H32.24V28H20.74V31.6H19.1V26.44ZM30.3 26.44V14.56H23.94L23.88 17.04C23.8533 18.12 23.8133 19.0933 23.76 19.96C23.7067 20.8267 23.6333 21.5867 23.54 22.24C23.4067 23.2 23.2267 24.0133 23 24.68C22.7733 25.3467 22.4867 25.9333 22.14 26.44H30.3ZM36.8269 13H42.5269C43.1669 13 43.7402 13.0933 44.2469 13.28C44.7669 13.4533 45.2069 13.7067 45.5669 14.04C45.9402 14.36 46.2269 14.7533 46.4269 15.22C46.6269 15.6867 46.7269 16.2067 46.7269 16.78C46.7269 17.58 46.5402 18.26 46.1669 18.82C45.7935 19.38 45.2669 19.8067 44.5869 20.1C45.5069 20.3667 46.2069 20.82 46.6869 21.46C47.1802 22.0867 47.4269 22.8733 47.4269 23.82C47.4269 24.46 47.3202 25.04 47.1069 25.56C46.8935 26.0667 46.5869 26.5067 46.1869 26.88C45.7869 27.24 45.3069 27.52 44.7469 27.72C44.1869 27.9067 43.5535 28 42.8469 28H36.8269V13ZM42.7669 26.52C43.6869 26.52 44.4069 26.28 44.9269 25.8C45.4469 25.32 45.7069 24.66 45.7069 23.82C45.7069 22.9667 45.4402 22.2867 44.9069 21.78C44.3735 21.26 43.6602 21 42.7669 21H38.5269V26.52H42.7669ZM42.4669 19.5C43.2669 19.5 43.8935 19.2733 44.3469 18.82C44.8002 18.3667 45.0269 17.74 45.0269 16.94C45.0269 16.18 44.7869 15.58 44.3069 15.14C43.8402 14.7 43.2002 14.48 42.3869 14.48H38.5269V19.5H42.4669ZM50.8308 13H52.4908V25.42L61.0508 13H62.6708V28H61.0108V15.6L52.4508 28H50.8308V13ZM70.497 20.1L65.337 13H67.277L71.897 19.32H73.937V13H75.617V19.32H77.677L82.257 13H84.217L79.057 20.06L84.377 28H82.397L77.597 20.9H75.617V28H73.937V20.9H71.917L67.077 28H65.157L70.497 20.1ZM96.2036 13V14.56H88.6636V19.3H94.0436V20.86H88.6636V26.44H96.4036V28H86.9636V13H96.2036ZM101.007 13V19.26H109.687V13H111.387V28H109.687V20.82H101.007V28H99.3073V13H101.007ZM115.928 13H117.588V25.42L126.148 13H127.768V28H126.108V15.6L117.548 28H115.928V13ZM141.575 13V14.56H134.035V19.3H139.415V20.86H134.035V26.44H141.775V28H132.335V13H141.575Z" fill="black"/>
<rect x="143" y="11" width="5" height="19" fill="white"/>
</svg>
