<svg width="112" height="40" viewBox="0 0 112 40" fill="none" xmlns="http://www.w3.org/2000/svg">
<rect width="112" height="40" fill="white"/>
<rect x="44.5" y="5" width="23" height="6" fill="white"/>
<rect x="14" y="11" width="5" height="19" fill="white"/>
<path d="M21.28 28V13H30.26V14.56H22.98V28H21.28ZM41.9653 13V14.56H34.4253V19.3H39.8053V20.86H34.4253V26.44H42.1653V28H32.7253V13H41.9653ZM46.7691 13V19.26H55.4491V13H57.1491V28H55.4491V20.82H46.7691V28H45.0691V13H46.7691ZM61.6902 13H63.3502V25.42L71.9102 13H73.5302V28H71.8702V15.6L63.3102 28H61.6902V13ZM78.0964 28V13H79.7564V25.42L88.3164 13H89.9364V28H88.2764V15.6L79.7164 28H78.0964ZM82.4364 9.3C82.4364 9.80667 82.5897 10.2 82.8964 10.48C83.2164 10.76 83.6297 10.9 84.1364 10.9C84.6431 10.9 85.0564 10.76 85.3764 10.48C85.7097 10.2 85.8764 9.80667 85.8764 9.3H87.3564C87.3564 10.22 87.0564 10.94 86.4564 11.46C85.8564 11.98 85.0831 12.24 84.1364 12.24C83.1764 12.24 82.4031 11.98 81.8164 11.46C81.2297 10.94 80.9364 10.22 80.9364 9.3H82.4364Z" fill="black"/>
<rect x="93" y="11" width="5" height="19" fill="white"/>
</svg>
