<svg width="115" height="40" viewBox="0 0 115 40" fill="none" xmlns="http://www.w3.org/2000/svg">
<rect width="115" height="40" fill="white"/>
<rect x="46" y="5" width="23" height="6" fill="white"/>
<rect x="14" y="11" width="5" height="19" fill="white"/>
<path d="M19.34 28L24.52 20.32L19.38 13H21.38L25.64 19.06L29.78 13H31.7L26.58 20.4L31.92 28H29.92L25.48 21.68L21.2 28H19.34ZM43.8598 13V14.56H36.3198V19.3H41.6998V20.86H36.3198V26.44H44.0598V28H34.6198V13H43.8598ZM46.9636 13H52.4036C53.1503 13 53.8236 13.1133 54.4236 13.34C55.0236 13.5667 55.5369 13.88 55.9636 14.28C56.4036 14.68 56.7369 15.16 56.9636 15.72C57.2036 16.2667 57.3236 16.8667 57.3236 17.52C57.3236 18.16 57.2036 18.76 56.9636 19.32C56.7236 19.88 56.3903 20.3667 55.9636 20.78C55.5369 21.18 55.0169 21.5 54.4036 21.74C53.8036 21.9667 53.1369 22.08 52.4036 22.08H48.6636V28H46.9636V13ZM52.4036 20.52C53.4036 20.52 54.1836 20.2467 54.7436 19.7C55.3169 19.14 55.6036 18.4133 55.6036 17.52C55.6036 16.6 55.3169 15.88 54.7436 15.36C54.1836 14.8267 53.4036 14.56 52.4036 14.56H48.6636V20.52H52.4036ZM62.062 13V19.26H70.742V13H72.442V28H70.742V20.82H62.062V28H60.362V13H62.062ZM79.6831 21.58C79.1498 21.5 78.6565 21.3467 78.2031 21.12C77.7498 20.8933 77.3565 20.6 77.0231 20.24C76.7031 19.8667 76.4498 19.44 76.2631 18.96C76.0898 18.4667 76.0031 17.9267 76.0031 17.34C76.0031 16.7 76.1165 16.1133 76.3431 15.58C76.5698 15.0467 76.8831 14.5933 77.2831 14.22C77.6965 13.8333 78.1831 13.5333 78.7431 13.32C79.3165 13.1067 79.9498 13 80.6431 13H86.7231V28H85.0231V21.68H81.5431L77.2431 28H75.3031L79.6831 21.58ZM77.7631 17.34C77.7631 18.18 78.0231 18.8533 78.5431 19.36C79.0765 19.8667 79.7698 20.12 80.6231 20.12H85.0231V14.56H80.6631C79.7831 14.56 79.0765 14.8133 78.5431 15.32C78.0231 15.8267 77.7631 16.5 77.7631 17.34ZM91.26 13H93.1L92.84 23.5H91.52L91.26 13ZM92.18 28.18C91.8333 28.18 91.5467 28.0733 91.32 27.86C91.1067 27.6467 91 27.3667 91 27.02C91 26.6867 91.1067 26.4133 91.32 26.2C91.5467 25.9867 91.8333 25.88 92.18 25.88C92.5267 25.88 92.8067 25.9867 93.02 26.2C93.2467 26.4133 93.36 26.6867 93.36 27.02C93.36 27.3667 93.2467 27.6467 93.02 27.86C92.8067 28.0733 92.5267 28.18 92.18 28.18Z" fill="black"/>
<rect x="96" y="11" width="5" height="19" fill="white"/>
</svg>
