<svg width="91" height="38" viewBox="0 0 91 38" fill="none" xmlns="http://www.w3.org/2000/svg">
<path d="M91 17.7019L78.5213 17.1601C78.0249 17.3085 74.7561 17.244 72.0644 16.986C70.8394 17.1343 68.7666 17.0892 67.0645 16.7828C67.0194 16.7957 66.9775 16.8118 66.9388 16.828C65.5558 17.3665 62.9318 17.4923 61.3006 16.6925C61.0299 16.8183 60.7591 16.9312 60.4915 17.0376C57.7095 18.1212 55.0823 18.1244 54.963 14.3609C54.963 14.3157 54.9598 14.2738 54.9598 14.2319L50.682 16.0185C50.6723 15.7186 50.7723 15.4122 50.9205 15.1091L50.1114 15.28L50.1404 15.4122L40.721 17.4052L37.2652 18.9178L31.1532 21.8299L24.332 25.2871L16.7113 29.3377L8.54263 33.8398L8.4975 33.8623L1.21853 38L9.18414 29.9859L11.2698 27.8864L0.912289 33.1496L7.47239 25.3871L0.609267 28.2992L4.88381 22.075L0.303022 23.4489L2.96574 18.3115L0 18.5985L2.66917 10.7327L5.34156 2.86701L11.8565 1.43189L18.3747 0L17.3657 3.49911L22.0529 1.48672L21.0987 5.89205L25.7311 2.97666L24.88 8.18501L29.4092 4.46338L28.6839 10.378L33.0874 5.95332L32.7908 9.24926L35.1763 6.93694L34.8894 10.1265L37.2652 7.92379L36.9912 10.9746L39.3574 8.90741L39.0962 11.7938L41.4463 9.89425L41.2077 12.5613L43.5352 10.8779L43.3224 13.2708L45.6273 11.8647L45.5177 13.0934L49.4731 12.2582L49.6053 12.887C49.86 12.7774 50.2404 12.6484 50.3209 12.5839C50.5466 12.4001 51.9263 12.0066 52.1487 11.8841C52.4324 11.726 53.3447 11.4777 53.9959 11.3068C54.0862 11.2294 54.1667 11.1552 54.2344 11.0875C54.444 10.8746 54.9694 10.6167 55.1886 10.4361C55.3563 10.3038 55.598 10.1619 55.8592 10.0233C56.5458 8.62361 57.5548 7.51099 58.6283 6.64024C60.6334 5.01163 62.8706 4.22796 63.6732 3.98286C63.8409 3.93126 64.0182 4.02478 64.073 4.19248L64.0214 4.49885C64.6822 4.30213 65.4881 4.16991 66.3102 4.07638C66.4101 3.86031 66.51 3.70873 66.6068 3.63133C66.9581 3.34753 68.2637 3.28626 69.8336 3.32496C69.9207 2.89926 70.0012 2.63159 70.0689 2.57676C70.2301 2.44454 71.6066 2.55741 73.399 2.77026L73.486 1.43512L90.1973 4.5182L80.8778 11.0262L91 17.7019Z" fill="white"/>
</svg>
