<svg width="134" height="40" viewBox="0 0 134 40" fill="none" xmlns="http://www.w3.org/2000/svg">
<rect width="134" height="40" fill="white"/>
<rect x="55.5" y="5" width="23" height="6" fill="white"/>
<rect x="14" y="11" width="5" height="19" fill="white"/>
<path d="M19.44 26.52C19.6533 26.5733 19.82 26.6 19.94 26.6C20.46 26.6 20.88 26.36 21.2 25.88C21.36 25.64 21.5 25.2867 21.62 24.82C21.74 24.3533 21.8467 23.7533 21.94 23.02C22.0467 22.2733 22.1267 21.3733 22.18 20.32C22.2467 19.2667 22.3 18.04 22.34 16.64L22.42 13H32.24V28H30.54V14.56H24.08L24 17.02C23.96 18.4733 23.9 19.76 23.82 20.88C23.74 21.9867 23.6333 22.94 23.5 23.74C23.2467 25.3133 22.86 26.4467 22.34 27.14C21.82 27.82 21.0867 28.16 20.14 28.16C19.7933 28.16 19.4667 28.0933 19.16 27.96L19.44 26.52ZM38.5073 13V19.36H41.3073C41.4273 18.4 41.6873 17.5267 42.0873 16.74C42.4873 15.94 43.0007 15.2533 43.6273 14.68C44.2673 14.0933 45.0007 13.64 45.8273 13.32C46.6673 13 47.574 12.84 48.5473 12.84C49.6273 12.84 50.614 13.0333 51.5073 13.42C52.4007 13.7933 53.1673 14.32 53.8073 15C54.4473 15.68 54.9473 16.4933 55.3073 17.44C55.6673 18.3733 55.8473 19.3933 55.8473 20.5C55.8473 21.6067 55.6673 22.6267 55.3073 23.56C54.9473 24.4933 54.4473 25.3 53.8073 25.98C53.1673 26.66 52.4007 27.1933 51.5073 27.58C50.614 27.9667 49.6273 28.16 48.5473 28.16C47.5207 28.16 46.5673 27.98 45.6873 27.62C44.8207 27.26 44.0673 26.76 43.4273 26.12C42.7873 25.48 42.274 24.72 41.8873 23.84C41.514 22.9467 41.3007 21.9733 41.2473 20.92H38.5073V28H36.8073V13H38.5073ZM43.0073 20.5C43.0073 21.3933 43.1407 22.2133 43.4073 22.96C43.674 23.7067 44.0473 24.3467 44.5273 24.88C45.0207 25.4133 45.6073 25.8333 46.2873 26.14C46.9673 26.4333 47.7207 26.58 48.5473 26.58C49.374 26.58 50.1273 26.4333 50.8073 26.14C51.4873 25.8333 52.0673 25.4133 52.5473 24.88C53.0407 24.3467 53.4207 23.7067 53.6873 22.96C53.954 22.2133 54.0873 21.3933 54.0873 20.5C54.0873 19.6067 53.954 18.7867 53.6873 18.04C53.4207 17.2933 53.0407 16.6533 52.5473 16.12C52.0673 15.5867 51.4873 15.1733 50.8073 14.88C50.1273 14.5733 49.374 14.42 48.5473 14.42C47.7207 14.42 46.9673 14.5733 46.2873 14.88C45.6073 15.1733 45.0207 15.5867 44.5273 16.12C44.0473 16.6533 43.674 17.2933 43.4073 18.04C43.1407 18.7867 43.0073 19.6067 43.0073 20.5ZM59.3073 13H68.4873V14.56H61.0073V19.08H64.8273C65.6407 19.08 66.354 19.1933 66.9673 19.42C67.5807 19.6467 68.0873 19.96 68.4873 20.36C68.9007 20.76 69.2073 21.2333 69.4073 21.78C69.6207 22.3267 69.7273 22.9133 69.7273 23.54C69.7273 24.2333 69.614 24.8533 69.3873 25.4C69.1607 25.9467 68.834 26.4133 68.4073 26.8C67.994 27.1867 67.4807 27.4867 66.8673 27.7C66.2673 27.9 65.5873 28 64.8273 28H59.3073V13ZM64.8673 26.5C65.8273 26.5 66.5873 26.24 67.1473 25.72C67.7073 25.1867 67.9873 24.46 67.9873 23.54C67.9873 22.62 67.7073 21.9 67.1473 21.38C66.5873 20.8467 65.8273 20.58 64.8673 20.58H61.0073V26.5H64.8673ZM84.563 20.5C84.563 19.3133 84.3296 18.26 83.863 17.34C83.4096 16.42 82.763 15.7067 81.923 15.2C81.083 14.68 80.1163 14.42 79.023 14.42C77.9163 14.42 76.943 14.68 76.103 15.2C75.2763 15.7067 74.6296 16.42 74.163 17.34C73.7096 18.26 73.483 19.3133 73.483 20.5C73.483 21.6867 73.7096 22.74 74.163 23.66C74.6296 24.58 75.2763 25.3 76.103 25.82C76.943 26.3267 77.9163 26.58 79.023 26.58C80.1163 26.58 81.083 26.3267 81.923 25.82C82.763 25.3 83.4096 24.58 83.863 23.66C84.3296 22.74 84.563 21.6867 84.563 20.5ZM71.723 20.5C71.723 19.0333 72.0296 17.72 72.643 16.56C73.2563 15.4 74.1163 14.4933 75.223 13.84C76.343 13.1733 77.6096 12.84 79.023 12.84C80.4496 12.84 81.7163 13.1667 82.823 13.82C83.9296 14.4733 84.7896 15.3867 85.403 16.56C86.0163 17.72 86.323 19.0333 86.323 20.5C86.323 21.9667 86.0163 23.28 85.403 24.44C84.7896 25.6 83.9296 26.5133 82.823 27.18C81.7163 27.8333 80.4496 28.16 79.023 28.16C77.6096 28.16 76.3496 27.8333 75.243 27.18C74.1363 26.5133 73.2696 25.6 72.643 24.44C72.0296 23.28 71.723 21.9667 71.723 20.5ZM89.7761 13H95.4761C96.1161 13 96.6894 13.0933 97.1961 13.28C97.7161 13.4533 98.1561 13.7067 98.5161 14.04C98.8894 14.36 99.1761 14.7533 99.3761 15.22C99.5761 15.6867 99.6761 16.2067 99.6761 16.78C99.6761 17.58 99.4894 18.26 99.1161 18.82C98.7428 19.38 98.2161 19.8067 97.5361 20.1C98.4561 20.3667 99.1561 20.82 99.6361 21.46C100.129 22.0867 100.376 22.8733 100.376 23.82C100.376 24.46 100.269 25.04 100.056 25.56C99.8428 26.0667 99.5361 26.5067 99.1361 26.88C98.7361 27.24 98.2561 27.52 97.6961 27.72C97.1361 27.9067 96.5028 28 95.7961 28H89.7761V13ZM95.7161 26.52C96.6361 26.52 97.3561 26.28 97.8761 25.8C98.3961 25.32 98.6561 24.66 98.6561 23.82C98.6561 22.9667 98.3894 22.2867 97.8561 21.78C97.3228 21.26 96.6094 21 95.7161 21H91.4761V26.52H95.7161ZM95.4161 19.5C96.2161 19.5 96.8428 19.2733 97.2961 18.82C97.7494 18.3667 97.9761 17.74 97.9761 16.94C97.9761 16.18 97.7361 15.58 97.2561 15.14C96.7894 14.7 96.1494 14.48 95.3361 14.48H91.4761V19.5H95.4161ZM103.78 28V13H105.48V18.42H108.56C109.453 18.42 110.227 18.5467 110.88 18.8C111.547 19.04 112.1 19.38 112.54 19.82C112.98 20.2467 113.307 20.7533 113.52 21.34C113.747 21.9133 113.86 22.5333 113.86 23.2C113.86 23.9333 113.733 24.5933 113.48 25.18C113.24 25.7667 112.893 26.2733 112.44 26.7C111.987 27.1133 111.433 27.4333 110.78 27.66C110.127 27.8867 109.387 28 108.56 28H103.78ZM108.62 26.44C109.7 26.44 110.553 26.1533 111.18 25.58C111.807 24.9933 112.12 24.2 112.12 23.2C112.12 22.2 111.8 21.4133 111.16 20.84C110.533 20.2667 109.68 19.98 108.6 19.98H105.48V26.44H108.62Z" fill="black"/>
<rect x="115" y="11" width="5" height="19" fill="white"/>
</svg>
