<svg width="184" height="40" viewBox="0 0 184 40" fill="none" xmlns="http://www.w3.org/2000/svg">
<rect width="184" height="40" fill="white"/>
<rect x="80.5" y="5" width="23" height="6" fill="white"/>
<rect x="14" y="11" width="5" height="19" fill="white"/>
<path d="M21.28 13H23.1L28.42 19.78L33.66 13H35.48V28H33.84V15.32L28.56 22.08H28.18L22.92 15.36V28H21.28V13ZM38.0495 28L43.7895 13H45.6695L51.4295 28H49.6295L47.6695 22.82H41.7095L39.7495 28H38.0495ZM42.2895 21.28H47.0895L44.6895 14.94L42.2895 21.28ZM52.7798 26.52C52.9932 26.5733 53.1598 26.6 53.2798 26.6C53.7998 26.6 54.2198 26.36 54.5398 25.88C54.6998 25.64 54.8398 25.2867 54.9598 24.82C55.0798 24.3533 55.1865 23.7533 55.2798 23.02C55.3865 22.2733 55.4665 21.3733 55.5198 20.32C55.5865 19.2667 55.6398 18.04 55.6798 16.64L55.7598 13H65.5798V28H63.8798V14.56H57.4198L57.3398 17.02C57.2998 18.4733 57.2398 19.76 57.1598 20.88C57.0798 21.9867 56.9732 22.94 56.8398 23.74C56.5865 25.3133 56.1998 26.4467 55.6798 27.14C55.1598 27.82 54.4265 28.16 53.4798 28.16C53.1332 28.16 52.8065 28.0933 52.4998 27.96L52.7798 26.52ZM81.8872 20.5C81.8872 19.3133 81.6539 18.26 81.1872 17.34C80.7339 16.42 80.0872 15.7067 79.2472 15.2C78.4072 14.68 77.4405 14.42 76.3472 14.42C75.2405 14.42 74.2672 14.68 73.4272 15.2C72.6005 15.7067 71.9539 16.42 71.4872 17.34C71.0339 18.26 70.8072 19.3133 70.8072 20.5C70.8072 21.6867 71.0339 22.74 71.4872 23.66C71.9539 24.58 72.6005 25.3 73.4272 25.82C74.2672 26.3267 75.2405 26.58 76.3472 26.58C77.4405 26.58 78.4072 26.3267 79.2472 25.82C80.0872 25.3 80.7339 24.58 81.1872 23.66C81.6539 22.74 81.8872 21.6867 81.8872 20.5ZM69.0472 20.5C69.0472 19.0333 69.3539 17.72 69.9672 16.56C70.5805 15.4 71.4405 14.4933 72.5472 13.84C73.6672 13.1733 74.9339 12.84 76.3472 12.84C77.7739 12.84 79.0405 13.1667 80.1472 13.82C81.2539 14.4733 82.1139 15.3867 82.7272 16.56C83.3405 17.72 83.6472 19.0333 83.6472 20.5C83.6472 21.9667 83.3405 23.28 82.7272 24.44C82.1139 25.6 81.2539 26.5133 80.1472 27.18C79.0405 27.8333 77.7739 28.16 76.3472 28.16C74.9339 28.16 73.6739 27.8333 72.5672 27.18C71.4605 26.5133 70.5939 25.6 69.9672 24.44C69.3539 23.28 69.0472 21.9667 69.0472 20.5ZM84.8813 26.44H86.1813C86.3679 26.2133 86.5413 25.9733 86.7013 25.72C86.8613 25.4533 86.9946 25.1733 87.1013 24.88C87.2346 24.5467 87.3479 24.1467 87.4413 23.68C87.5479 23.2 87.6346 22.6333 87.7013 21.98C87.7813 21.3133 87.8413 20.54 87.8813 19.66C87.9346 18.78 87.9746 17.7733 88.0013 16.64L88.0813 13H97.7613V26.44H99.6613V31.6H98.0213V28H86.5213V31.6H84.8813V26.44ZM96.0812 26.44V14.56H89.7213L89.6613 17.04C89.6346 18.12 89.5946 19.0933 89.5413 19.96C89.4879 20.8267 89.4146 21.5867 89.3213 22.24C89.1879 23.2 89.0079 24.0133 88.7813 24.68C88.5546 25.3467 88.2679 25.9333 87.9213 26.44H96.0812ZM100.311 13H102.191L106.931 22.22L111.351 13H113.151L105.971 28H104.171L106.011 24.14L100.311 13ZM117.238 13V26.44H123.418V13H125.118V26.44H131.298V13H132.998V28H115.538V13H117.238ZM137.55 13H139.21V25.42L147.77 13H149.39V28H147.73V15.6L139.17 28H137.55V13ZM163.196 13V14.56H155.656V19.3H161.036V20.86H155.656V26.44H163.396V28H153.956V13H163.196Z" fill="black"/>
<rect x="165" y="11" width="5" height="19" fill="white"/>
</svg>
