<svg width="226" height="40" viewBox="0 0 226 40" fill="none" xmlns="http://www.w3.org/2000/svg">
<rect width="226" height="40" fill="white"/>
<rect x="101.5" y="5" width="23" height="6" fill="white"/>
<rect x="14" y="11" width="5" height="19" fill="white"/>
<path d="M22.98 13V19.26H31.66V13H33.36V28H31.66V20.82H22.98V28H21.28V13H22.98ZM35.9011 28L41.6411 13H43.5211L49.2811 28H47.4811L45.5211 22.82H39.5611L37.6011 28H35.9011ZM40.1411 21.28H44.9411L42.5411 14.94L40.1411 21.28ZM49.5759 13H51.2759V17.14C51.2759 18.3533 51.5893 19.2333 52.2159 19.78C52.8559 20.3267 53.8226 20.6 55.1159 20.6C55.7293 20.6 56.3226 20.5467 56.8959 20.44C57.4826 20.32 58.1159 20.1267 58.7959 19.86V13H60.4959V28H58.7959V21.4C58.0759 21.6533 57.4026 21.8467 56.7759 21.98C56.1493 22.1133 55.5159 22.18 54.8759 22.18C53.1959 22.18 51.8893 21.8 50.9559 21.04C50.0359 20.2667 49.5759 19.0933 49.5759 17.52V13ZM63.0495 28L68.7895 13H70.6695L76.4295 28H74.6295L72.6695 22.82H66.7095L64.7495 28H63.0495ZM67.2895 21.28H72.0895L69.6895 14.94L67.2895 21.28ZM77.7798 26.52C77.9932 26.5733 78.1598 26.6 78.2798 26.6C78.7998 26.6 79.2198 26.36 79.5398 25.88C79.6998 25.64 79.8398 25.2867 79.9598 24.82C80.0798 24.3533 80.1865 23.7533 80.2798 23.02C80.3865 22.2733 80.4665 21.3733 80.5198 20.32C80.5865 19.2667 80.6398 18.04 80.6798 16.64L80.7598 13H90.5798V28H88.8798V14.56H82.4198L82.3398 17.02C82.2998 18.4733 82.2398 19.76 82.1598 20.88C82.0798 21.9867 81.9732 22.94 81.8398 23.74C81.5865 25.3133 81.1998 26.4467 80.6798 27.14C80.1598 27.82 79.4265 28.16 78.4798 28.16C78.1332 28.16 77.8065 28.0933 77.4998 27.96L77.7798 26.52ZM106.887 20.5C106.887 19.3133 106.654 18.26 106.187 17.34C105.734 16.42 105.087 15.7067 104.247 15.2C103.407 14.68 102.441 14.42 101.347 14.42C100.241 14.42 99.2672 14.68 98.4272 15.2C97.6005 15.7067 96.9539 16.42 96.4872 17.34C96.0339 18.26 95.8072 19.3133 95.8072 20.5C95.8072 21.6867 96.0339 22.74 96.4872 23.66C96.9539 24.58 97.6005 25.3 98.4272 25.82C99.2672 26.3267 100.241 26.58 101.347 26.58C102.441 26.58 103.407 26.3267 104.247 25.82C105.087 25.3 105.734 24.58 106.187 23.66C106.654 22.74 106.887 21.6867 106.887 20.5ZM94.0472 20.5C94.0472 19.0333 94.3539 17.72 94.9672 16.56C95.5805 15.4 96.4405 14.4933 97.5472 13.84C98.6672 13.1733 99.9339 12.84 101.347 12.84C102.774 12.84 104.041 13.1667 105.147 13.82C106.254 14.4733 107.114 15.3867 107.727 16.56C108.341 17.72 108.647 19.0333 108.647 20.5C108.647 21.9667 108.341 23.28 107.727 24.44C107.114 25.6 106.254 26.5133 105.147 27.18C104.041 27.8333 102.774 28.16 101.347 28.16C99.9339 28.16 98.6739 27.8333 97.5672 27.18C96.4605 26.5133 95.5939 25.6 94.9672 24.44C94.3539 23.28 94.0472 21.9667 94.0472 20.5ZM118.195 13V19.26H126.875V13H128.575V28H126.875V20.82H118.195V28H116.495V13H118.195ZM144.856 20.5C144.856 19.3133 144.623 18.26 144.156 17.34C143.703 16.42 143.056 15.7067 142.216 15.2C141.376 14.68 140.409 14.42 139.316 14.42C138.209 14.42 137.236 14.68 136.396 15.2C135.569 15.7067 134.923 16.42 134.456 17.34C134.003 18.26 133.776 19.3133 133.776 20.5C133.776 21.6867 134.003 22.74 134.456 23.66C134.923 24.58 135.569 25.3 136.396 25.82C137.236 26.3267 138.209 26.58 139.316 26.58C140.409 26.58 141.376 26.3267 142.216 25.82C143.056 25.3 143.703 24.58 144.156 23.66C144.623 22.74 144.856 21.6867 144.856 20.5ZM132.016 20.5C132.016 19.0333 132.323 17.72 132.936 16.56C133.549 15.4 134.409 14.4933 135.516 13.84C136.636 13.1733 137.903 12.84 139.316 12.84C140.743 12.84 142.009 13.1667 143.116 13.82C144.223 14.4733 145.083 15.3867 145.696 16.56C146.309 17.72 146.616 19.0333 146.616 20.5C146.616 21.9667 146.309 23.28 145.696 24.44C145.083 25.6 144.223 26.5133 143.116 27.18C142.009 27.8333 140.743 28.16 139.316 28.16C137.903 28.16 136.643 27.8333 135.536 27.18C134.429 26.5133 133.563 25.6 132.936 24.44C132.323 23.28 132.016 21.9667 132.016 20.5ZM150.069 13H155.769C156.409 13 156.982 13.0933 157.489 13.28C158.009 13.4533 158.449 13.7067 158.809 14.04C159.182 14.36 159.469 14.7533 159.669 15.22C159.869 15.6867 159.969 16.2067 159.969 16.78C159.969 17.58 159.782 18.26 159.409 18.82C159.036 19.38 158.509 19.8067 157.829 20.1C158.749 20.3667 159.449 20.82 159.929 21.46C160.422 22.0867 160.669 22.8733 160.669 23.82C160.669 24.46 160.562 25.04 160.349 25.56C160.136 26.0667 159.829 26.5067 159.429 26.88C159.029 27.24 158.549 27.52 157.989 27.72C157.429 27.9067 156.796 28 156.089 28H150.069V13ZM156.009 26.52C156.929 26.52 157.649 26.28 158.169 25.8C158.689 25.32 158.949 24.66 158.949 23.82C158.949 22.9667 158.682 22.2867 158.149 21.78C157.616 21.26 156.902 21 156.009 21H151.769V26.52H156.009ZM155.709 19.5C156.509 19.5 157.136 19.2733 157.589 18.82C158.042 18.3667 158.269 17.74 158.269 16.94C158.269 16.18 158.029 15.58 157.549 15.14C157.082 14.7 156.442 14.48 155.629 14.48H151.769V19.5H155.709ZM175.813 20.5C175.813 19.3133 175.58 18.26 175.113 17.34C174.66 16.42 174.013 15.7067 173.173 15.2C172.333 14.68 171.366 14.42 170.273 14.42C169.166 14.42 168.193 14.68 167.353 15.2C166.526 15.7067 165.88 16.42 165.413 17.34C164.96 18.26 164.733 19.3133 164.733 20.5C164.733 21.6867 164.96 22.74 165.413 23.66C165.88 24.58 166.526 25.3 167.353 25.82C168.193 26.3267 169.166 26.58 170.273 26.58C171.366 26.58 172.333 26.3267 173.173 25.82C174.013 25.3 174.66 24.58 175.113 23.66C175.58 22.74 175.813 21.6867 175.813 20.5ZM162.973 20.5C162.973 19.0333 163.28 17.72 163.893 16.56C164.506 15.4 165.366 14.4933 166.473 13.84C167.593 13.1733 168.86 12.84 170.273 12.84C171.7 12.84 172.966 13.1667 174.073 13.82C175.18 14.4733 176.04 15.3867 176.653 16.56C177.266 17.72 177.573 19.0333 177.573 20.5C177.573 21.9667 177.266 23.28 176.653 24.44C176.04 25.6 175.18 26.5133 174.073 27.18C172.966 27.8333 171.7 28.16 170.273 28.16C168.86 28.16 167.6 27.8333 166.493 27.18C165.386 26.5133 164.52 25.6 163.893 24.44C163.28 23.28 162.973 21.9667 162.973 20.5ZM181.026 28V13H190.006V14.56H182.726V28H181.026ZM203.86 20.5C203.86 19.3133 203.627 18.26 203.16 17.34C202.707 16.42 202.06 15.7067 201.22 15.2C200.38 14.68 199.413 14.42 198.32 14.42C197.213 14.42 196.24 14.68 195.4 15.2C194.573 15.7067 193.927 16.42 193.46 17.34C193.007 18.26 192.78 19.3133 192.78 20.5C192.78 21.6867 193.007 22.74 193.46 23.66C193.927 24.58 194.573 25.3 195.4 25.82C196.24 26.3267 197.213 26.58 198.32 26.58C199.413 26.58 200.38 26.3267 201.22 25.82C202.06 25.3 202.707 24.58 203.16 23.66C203.627 22.74 203.86 21.6867 203.86 20.5ZM191.02 20.5C191.02 19.0333 191.327 17.72 191.94 16.56C192.553 15.4 193.413 14.4933 194.52 13.84C195.64 13.1733 196.907 12.84 198.32 12.84C199.747 12.84 201.013 13.1667 202.12 13.82C203.227 14.4733 204.087 15.3867 204.7 16.56C205.313 17.72 205.62 19.0333 205.62 20.5C205.62 21.9667 205.313 23.28 204.7 24.44C204.087 25.6 203.227 26.5133 202.12 27.18C201.013 27.8333 199.747 28.16 198.32 28.16C196.907 28.16 195.647 27.8333 194.54 27.18C193.433 26.5133 192.567 25.6 191.94 24.44C191.327 23.28 191.02 21.9667 191.02 20.5Z" fill="black"/>
<rect x="207" y="11" width="5" height="19" fill="white"/>
</svg>
