<svg width="169" height="40" viewBox="0 0 169 40" fill="none" xmlns="http://www.w3.org/2000/svg">
<rect width="169" height="40" fill="white"/>
<rect x="73" y="5" width="23" height="6" fill="white"/>
<rect x="14" y="11" width="5" height="19" fill="white"/>
<path d="M22.98 13V19.26H31.66V13H33.36V28H31.66V20.82H22.98V28H21.28V13H22.98ZM47.1411 13V14.56H39.6011V19.3H44.9811V20.86H39.6011V26.44H47.3411V28H37.9011V13H47.1411ZM51.9448 13V19.26H60.6248V13H62.3248V28H60.6248V20.82H51.9448V28H50.2448V13H51.9448ZM64.8659 28L70.6059 13H72.4859L78.2459 28H76.4459L74.4859 22.82H68.5259L66.5659 28H64.8659ZM69.1059 21.28H73.9059L71.5059 14.94L69.1059 21.28ZM80.8113 13H86.5113C87.1513 13 87.7246 13.0933 88.2313 13.28C88.7513 13.4533 89.1913 13.7067 89.5512 14.04C89.9246 14.36 90.2113 14.7533 90.4113 15.22C90.6113 15.6867 90.7113 16.2067 90.7113 16.78C90.7113 17.58 90.5246 18.26 90.1513 18.82C89.7779 19.38 89.2513 19.8067 88.5713 20.1C89.4913 20.3667 90.1913 20.82 90.6713 21.46C91.1646 22.0867 91.4113 22.8733 91.4113 23.82C91.4113 24.46 91.3046 25.04 91.0913 25.56C90.8779 26.0667 90.5713 26.5067 90.1713 26.88C89.7713 27.24 89.2913 27.52 88.7313 27.72C88.1713 27.9067 87.5379 28 86.8313 28H80.8113V13ZM86.7513 26.52C87.6713 26.52 88.3913 26.28 88.9113 25.8C89.4313 25.32 89.6913 24.66 89.6913 23.82C89.6913 22.9667 89.4246 22.2867 88.8913 21.78C88.3579 21.26 87.6446 21 86.7513 21H82.5113V26.52H86.7513ZM86.4513 19.5C87.2513 19.5 87.8779 19.2733 88.3313 18.82C88.7846 18.3667 89.0113 17.74 89.0113 16.94C89.0113 16.18 88.7713 15.58 88.2913 15.14C87.8246 14.7 87.1846 14.48 86.3713 14.48H82.5113V19.5H86.4513ZM94.8152 13H96.4752V25.42L105.035 13H106.655V28H104.995V15.6L96.4352 28H94.8152V13ZM110.121 20.5C110.121 19.06 110.428 17.76 111.041 16.6C111.668 15.4267 112.528 14.5067 113.621 13.84C114.728 13.1733 115.975 12.84 117.361 12.84C118.495 12.84 119.515 13.0533 120.421 13.48C121.328 13.8933 122.075 14.48 122.661 15.24C123.261 16 123.668 16.8867 123.881 17.9L122.181 18.34C121.928 17.1533 121.381 16.2067 120.541 15.5C119.701 14.78 118.641 14.42 117.361 14.42C116.255 14.42 115.288 14.6933 114.461 15.24C113.635 15.7733 112.995 16.5067 112.541 17.44C112.101 18.36 111.881 19.38 111.881 20.5C111.881 21.6333 112.101 22.6667 112.541 23.6C112.981 24.52 113.615 25.2533 114.441 25.8C115.268 26.3333 116.241 26.6 117.361 26.6C118.255 26.6 119.055 26.4333 119.761 26.1C120.468 25.7533 121.041 25.28 121.481 24.68C121.921 24.08 122.208 23.3933 122.341 22.62L124.061 23.04C123.821 24.08 123.395 24.9867 122.781 25.76C122.181 26.5333 121.415 27.1333 120.481 27.56C119.561 27.9733 118.521 28.18 117.361 28.18C115.948 28.18 114.688 27.8467 113.581 27.18C112.488 26.5133 111.635 25.6 111.021 24.44C110.421 23.2667 110.121 21.9533 110.121 20.5ZM131.545 14.56V28H129.845V14.56H125.045V13H136.365V14.56H131.545ZM139.053 28V13H140.753V18.42H143.833C144.727 18.42 145.5 18.5467 146.153 18.8C146.82 19.04 147.373 19.38 147.813 19.82C148.253 20.2467 148.58 20.7533 148.793 21.34C149.02 21.9133 149.133 22.5333 149.133 23.2C149.133 23.9333 149.007 24.5933 148.753 25.18C148.513 25.7667 148.167 26.2733 147.713 26.7C147.26 27.1133 146.707 27.4333 146.053 27.66C145.4 27.8867 144.66 28 143.833 28H139.053ZM143.893 26.44C144.973 26.44 145.827 26.1533 146.453 25.58C147.08 24.9933 147.393 24.2 147.393 23.2C147.393 22.2 147.073 21.4133 146.433 20.84C145.807 20.2667 144.953 19.98 143.873 19.98H140.753V26.44H143.893Z" fill="black"/>
<rect x="150" y="11" width="5" height="19" fill="white"/>
</svg>
