<svg width="91" height="39" viewBox="0 0 91 39" fill="none" xmlns="http://www.w3.org/2000/svg">
<g clip-path="url(#clip0)">
<path d="M91 18.2019L78.5213 17.6601C78.0249 17.8085 74.7561 17.744 72.0644 17.486C70.8394 17.6343 68.7666 17.5892 67.0645 17.2828C67.0194 17.2957 66.9775 17.3118 66.9388 17.328C65.5558 17.8665 62.9318 17.9923 61.3006 17.1925C61.0299 17.3183 60.7591 17.4312 60.4915 17.5376C57.7095 18.6212 55.0823 18.6244 54.963 14.8609C54.963 14.8157 54.9598 14.7738 54.9598 14.7319L50.682 16.5185C50.6723 16.2186 50.7723 15.9122 50.9205 15.6091L50.1114 15.78L50.1404 15.9122L40.721 17.9052L37.2652 19.4178L31.1532 22.3299L24.332 25.7871L16.7113 29.8377L8.54263 34.3398L8.4975 34.3623L1.21853 38.5L9.18414 30.4859L11.2698 28.3864L0.912289 33.6496L7.47239 25.8871L0.609267 28.7992L4.88381 22.575L0.303022 23.9489L2.96574 18.8115L0 19.0985L2.66917 11.2327L5.34156 3.36701L11.8565 1.93189L18.3747 0.5L17.3657 3.99911L22.0529 1.98672L21.0987 6.39205L25.7311 3.47666L24.88 8.68501L29.4092 4.96338L28.6839 10.878L33.0874 6.45332L32.7908 9.74926L35.1763 7.43694L34.8894 10.6265L37.2652 8.42379L36.9912 11.4746L39.3574 9.40741L39.0962 12.2938L41.4463 10.3943L41.2077 13.0613L43.5352 11.3779L43.3224 13.7708L45.6273 12.3647L45.5177 13.5934L49.4731 12.7582L49.6053 13.387C49.86 13.2774 50.2404 13.1484 50.3209 13.0839C50.5466 12.9001 51.9263 12.5066 52.1488 12.3841C52.4324 12.226 53.3447 11.9777 53.9959 11.8068C54.0862 11.7294 54.1667 11.6552 54.2344 11.5875C54.444 11.3747 54.9694 11.1167 55.1886 10.9361C55.3563 10.8038 55.598 10.6619 55.8591 10.5233C56.5458 9.12361 57.5548 8.01099 58.6283 7.14024C60.6334 5.51163 62.8706 4.72796 63.6732 4.48286C63.8409 4.43126 64.0182 4.52478 64.073 4.69248L64.0214 4.99885C64.6822 4.80213 65.4882 4.66991 66.3102 4.57638C66.4101 4.36031 66.51 4.20873 66.6068 4.13133C66.9581 3.84753 68.2637 3.78626 69.8336 3.82496C69.9206 3.39926 70.0012 3.13159 70.0689 3.07676C70.2301 2.94454 71.6066 3.05741 73.3989 3.27026L73.486 1.93512L90.1973 5.0182L80.8778 11.5262L91 18.2019Z" fill="white"/>
</g>
<defs>
<clipPath id="clip0">
<rect width="91" height="38" fill="white" transform="translate(0 0.5)"/>
</clipPath>
</defs>
</svg>
