<svg width="112" height="40" viewBox="0 0 112 40" fill="none" xmlns="http://www.w3.org/2000/svg">
<rect width="112" height="40" fill="white"/>
<rect x="44.5" y="5" width="23" height="6" fill="white"/>
<rect x="14" y="11" width="5" height="19" fill="white"/>
<path d="M21.28 13H33.12V28H31.42V14.56H22.98V28H21.28V13ZM35.8267 26.52C36.0401 26.5733 36.2067 26.6 36.3267 26.6C36.8467 26.6 37.2667 26.36 37.5867 25.88C37.7467 25.64 37.8867 25.2867 38.0067 24.82C38.1267 24.3533 38.2334 23.7533 38.3267 23.02C38.4334 22.2733 38.5134 21.3733 38.5667 20.32C38.6334 19.2667 38.6867 18.04 38.7267 16.64L38.8067 13H48.6267V28H46.9267V14.56H40.4667L40.3867 17.02C40.3467 18.4733 40.2867 19.76 40.2067 20.88C40.1267 21.9867 40.0201 22.94 39.8867 23.74C39.6334 25.3133 39.2467 26.4467 38.7267 27.14C38.2067 27.82 37.4734 28.16 36.5267 28.16C36.1801 28.16 35.8534 28.0933 35.5467 27.96L35.8267 26.52ZM62.4341 13V14.56H54.8941V19.3H60.2741V20.86H54.8941V26.44H62.6341V28H53.1941V13H62.4341ZM64.3402 20.5C64.3402 19.06 64.6468 17.76 65.2602 16.6C65.8868 15.4267 66.7468 14.5067 67.8402 13.84C68.9468 13.1733 70.1935 12.84 71.5802 12.84C72.7135 12.84 73.7335 13.0533 74.6402 13.48C75.5468 13.8933 76.2935 14.48 76.8802 15.24C77.4802 16 77.8868 16.8867 78.1002 17.9L76.4002 18.34C76.1468 17.1533 75.6002 16.2067 74.7602 15.5C73.9202 14.78 72.8602 14.42 71.5802 14.42C70.4735 14.42 69.5068 14.6933 68.6802 15.24C67.8535 15.7733 67.2135 16.5067 66.7602 17.44C66.3202 18.36 66.1002 19.38 66.1002 20.5C66.1002 21.6333 66.3202 22.6667 66.7602 23.6C67.2002 24.52 67.8335 25.2533 68.6602 25.8C69.4868 26.3333 70.4602 26.6 71.5802 26.6C72.4735 26.6 73.2735 26.4333 73.9802 26.1C74.6868 25.7533 75.2602 25.28 75.7002 24.68C76.1402 24.08 76.4268 23.3933 76.5602 22.62L78.2802 23.04C78.0402 24.08 77.6135 24.9867 77.0002 25.76C76.4002 26.5333 75.6335 27.1333 74.7002 27.56C73.7802 27.9733 72.7402 28.18 71.5802 28.18C70.1668 28.18 68.9068 27.8467 67.8002 27.18C66.7068 26.5133 65.8535 25.6 65.2402 24.44C64.6402 23.2667 64.3402 21.9533 64.3402 20.5ZM82.9019 13V19.32H85.1019L90.4819 13H92.5419L86.5019 20.06L92.7019 28H90.6619L85.0419 20.9H82.9019V28H81.2019V13H82.9019Z" fill="black"/>
<rect x="93" y="11" width="5" height="19" fill="white"/>
</svg>
