<svg width="118" height="40" viewBox="0 0 118 40" fill="none" xmlns="http://www.w3.org/2000/svg">
<rect width="118" height="40" fill="white"/>
<rect x="47.5" y="5" width="23" height="6" fill="white"/>
<rect x="14" y="11" width="5" height="19" fill="white"/>
<path d="M21.28 13H33.12V28H31.42V14.56H22.98V28H21.28V13ZM49.4067 20.5C49.4067 19.3133 49.1734 18.26 48.7067 17.34C48.2534 16.42 47.6067 15.7067 46.7667 15.2C45.9267 14.68 44.9601 14.42 43.8667 14.42C42.7601 14.42 41.7867 14.68 40.9467 15.2C40.1201 15.7067 39.4734 16.42 39.0067 17.34C38.5534 18.26 38.3267 19.3133 38.3267 20.5C38.3267 21.6867 38.5534 22.74 39.0067 23.66C39.4734 24.58 40.1201 25.3 40.9467 25.82C41.7867 26.3267 42.7601 26.58 43.8667 26.58C44.9601 26.58 45.9267 26.3267 46.7667 25.82C47.6067 25.3 48.2534 24.58 48.7067 23.66C49.1734 22.74 49.4067 21.6867 49.4067 20.5ZM36.5667 20.5C36.5667 19.0333 36.8734 17.72 37.4867 16.56C38.1001 15.4 38.9601 14.4933 40.0667 13.84C41.1867 13.1733 42.4534 12.84 43.8667 12.84C45.2934 12.84 46.5601 13.1667 47.6667 13.82C48.7734 14.4733 49.6334 15.3867 50.2467 16.56C50.8601 17.72 51.1667 19.0333 51.1667 20.5C51.1667 21.9667 50.8601 23.28 50.2467 24.44C49.6334 25.6 48.7734 26.5133 47.6667 27.18C46.5601 27.8333 45.2934 28.16 43.8667 28.16C42.4534 28.16 41.1934 27.8333 40.0867 27.18C38.9801 26.5133 38.1134 25.6 37.4867 24.44C36.8734 23.28 36.5667 21.9667 36.5667 20.5ZM54.6198 13H56.2798V25.42L64.8398 13H66.4598V28H64.7998V15.6L56.2398 28H54.6198V13ZM69.9261 20.5C69.9261 19.06 70.2328 17.76 70.8461 16.6C71.4728 15.4267 72.3328 14.5067 73.4261 13.84C74.5328 13.1733 75.7794 12.84 77.1661 12.84C78.2994 12.84 79.3194 13.0533 80.2261 13.48C81.1328 13.8933 81.8794 14.48 82.4661 15.24C83.0661 16 83.4728 16.8867 83.6861 17.9L81.9861 18.34C81.7328 17.1533 81.1861 16.2067 80.3461 15.5C79.5061 14.78 78.4461 14.42 77.1661 14.42C76.0594 14.42 75.0928 14.6933 74.2661 15.24C73.4394 15.7733 72.7994 16.5067 72.3461 17.44C71.9061 18.36 71.6861 19.38 71.6861 20.5C71.6861 21.6333 71.9061 22.6667 72.3461 23.6C72.7861 24.52 73.4194 25.2533 74.2461 25.8C75.0728 26.3333 76.0461 26.6 77.1661 26.6C78.0594 26.6 78.8594 26.4333 79.5661 26.1C80.2728 25.7533 80.8461 25.28 81.2861 24.68C81.7261 24.08 82.0128 23.3933 82.1461 22.62L83.8661 23.04C83.6261 24.08 83.1994 24.9867 82.5861 25.76C81.9861 26.5333 81.2194 27.1333 80.2861 27.56C79.3661 27.9733 78.3261 28.18 77.1661 28.18C75.7528 28.18 74.4928 27.8467 73.3861 27.18C72.2928 26.5133 71.4394 25.6 70.8261 24.44C70.2261 23.2667 69.9261 21.9533 69.9261 20.5ZM88.4878 13V19.32H90.6878L96.0678 13H98.1278L92.0878 20.06L98.2878 28H96.2478L90.6278 20.9H88.4878V28H86.7878V13H88.4878Z" fill="black"/>
<rect x="99" y="11" width="5" height="19" fill="white"/>
</svg>
