<svg width="145" height="40" viewBox="0 0 145 40" fill="none" xmlns="http://www.w3.org/2000/svg">
<rect width="145" height="40" fill="white"/>
<rect x="61" y="5" width="23" height="6" fill="white"/>
<rect x="14" y="11" width="5" height="19" fill="white"/>
<path d="M21.28 13H33.12V28H31.42V14.56H22.98V28H21.28V13ZM37.6667 13H43.1067C43.8534 13 44.5267 13.1133 45.1267 13.34C45.7267 13.5667 46.2401 13.88 46.6667 14.28C47.1067 14.68 47.4401 15.16 47.6667 15.72C47.9067 16.2667 48.0267 16.8667 48.0267 17.52C48.0267 18.16 47.9067 18.76 47.6667 19.32C47.4267 19.88 47.0934 20.3667 46.6667 20.78C46.2401 21.18 45.7201 21.5 45.1067 21.74C44.5067 21.9667 43.8401 22.08 43.1067 22.08H39.3667V28H37.6667V13ZM43.1067 20.52C44.1067 20.52 44.8867 20.2467 45.4467 19.7C46.0201 19.14 46.3067 18.4133 46.3067 17.52C46.3067 16.6 46.0201 15.88 45.4467 15.36C44.8867 14.8267 44.1067 14.56 43.1067 14.56H39.3667V20.52H43.1067ZM62.8052 20.5C62.8052 19.3133 62.5718 18.26 62.1052 17.34C61.6518 16.42 61.0052 15.7067 60.1652 15.2C59.3252 14.68 58.3585 14.42 57.2652 14.42C56.1585 14.42 55.1852 14.68 54.3452 15.2C53.5185 15.7067 52.8718 16.42 52.4052 17.34C51.9518 18.26 51.7252 19.3133 51.7252 20.5C51.7252 21.6867 51.9518 22.74 52.4052 23.66C52.8718 24.58 53.5185 25.3 54.3452 25.82C55.1852 26.3267 56.1585 26.58 57.2652 26.58C58.3585 26.58 59.3252 26.3267 60.1652 25.82C61.0052 25.3 61.6518 24.58 62.1052 23.66C62.5718 22.74 62.8052 21.6867 62.8052 20.5ZM49.9652 20.5C49.9652 19.0333 50.2718 17.72 50.8852 16.56C51.4985 15.4 52.3585 14.4933 53.4652 13.84C54.5852 13.1733 55.8518 12.84 57.2652 12.84C58.6918 12.84 59.9585 13.1667 61.0652 13.82C62.1718 14.4733 63.0318 15.3867 63.6452 16.56C64.2585 17.72 64.5652 19.0333 64.5652 20.5C64.5652 21.9667 64.2585 23.28 63.6452 24.44C63.0318 25.6 62.1718 26.5133 61.0652 27.18C59.9585 27.8333 58.6918 28.16 57.2652 28.16C55.8518 28.16 54.5918 27.8333 53.4852 27.18C52.3785 26.5133 51.5118 25.6 50.8852 24.44C50.2718 23.28 49.9652 21.9667 49.9652 20.5ZM68.0183 13H69.7183V26.44H77.8783V13H79.5783V26.44H81.4583V31.6H79.8383V28H68.0183V13ZM93.6645 13V14.56H86.1245V19.3H91.5045V20.86H86.1245V26.44H93.8645V28H84.4245V13H93.6645ZM95.5706 20.5C95.5706 19.06 95.8773 17.76 96.4906 16.6C97.1173 15.4267 97.9773 14.5067 99.0706 13.84C100.177 13.1733 101.424 12.84 102.811 12.84C103.944 12.84 104.964 13.0533 105.871 13.48C106.777 13.8933 107.524 14.48 108.111 15.24C108.711 16 109.117 16.8867 109.331 17.9L107.631 18.34C107.377 17.1533 106.831 16.2067 105.991 15.5C105.151 14.78 104.091 14.42 102.811 14.42C101.704 14.42 100.737 14.6933 99.9106 15.24C99.084 15.7733 98.444 16.5067 97.9906 17.44C97.5506 18.36 97.3306 19.38 97.3306 20.5C97.3306 21.6333 97.5506 22.6667 97.9906 23.6C98.4306 24.52 99.064 25.2533 99.8906 25.8C100.717 26.3333 101.691 26.6 102.811 26.6C103.704 26.6 104.504 26.4333 105.211 26.1C105.917 25.7533 106.491 25.28 106.931 24.68C107.371 24.08 107.657 23.3933 107.791 22.62L109.511 23.04C109.271 24.08 108.844 24.9867 108.231 25.76C107.631 26.5333 106.864 27.1333 105.931 27.56C105.011 27.9733 103.971 28.18 102.811 28.18C101.397 28.18 100.137 27.8467 99.0306 27.18C97.9373 26.5133 97.084 25.6 96.4706 24.44C95.8706 23.2667 95.5706 21.9533 95.5706 20.5ZM111.332 20.5C111.332 19.06 111.639 17.76 112.252 16.6C112.879 15.4267 113.739 14.5067 114.832 13.84C115.939 13.1733 117.186 12.84 118.572 12.84C119.706 12.84 120.726 13.0533 121.632 13.48C122.539 13.8933 123.286 14.48 123.872 15.24C124.472 16 124.879 16.8867 125.092 17.9L123.392 18.34C123.139 17.1533 122.592 16.2067 121.752 15.5C120.912 14.78 119.852 14.42 118.572 14.42C117.466 14.42 116.499 14.6933 115.672 15.24C114.846 15.7733 114.206 16.5067 113.752 17.44C113.312 18.36 113.092 19.38 113.092 20.5C113.092 21.6333 113.312 22.6667 113.752 23.6C114.192 24.52 114.826 25.2533 115.652 25.8C116.479 26.3333 117.452 26.6 118.572 26.6C119.466 26.6 120.266 26.4333 120.972 26.1C121.679 25.7533 122.252 25.28 122.692 24.68C123.132 24.08 123.419 23.3933 123.552 22.62L125.272 23.04C125.032 24.08 124.606 24.9867 123.992 25.76C123.392 26.5333 122.626 27.1333 121.692 27.56C120.772 27.9733 119.732 28.18 118.572 28.18C117.159 28.18 115.899 27.8467 114.792 27.18C113.699 26.5133 112.846 25.6 112.232 24.44C111.632 23.2667 111.332 21.9533 111.332 20.5Z" fill="black"/>
<rect x="126" y="11" width="5" height="19" fill="white"/>
</svg>
