<svg width="480" height="391" viewBox="0 0 480 391" fill="none" xmlns="http://www.w3.org/2000/svg">
<path d="M0 390.75L480 390.75L480 0.75L3.40949e-05 0.749958L0 390.75Z" fill="white"/>
<path d="M272.96 325.16C273.27 326.4 273.89 327.5 274.83 328.45C275.75 329.38 276.9 330.06 278.27 330.49C279.66 330.92 281 331.03 282.3 330.81C283.59 330.57 284.72 330.03 285.68 329.18C286.65 328.33 287.34 327.22 287.77 325.87C288.11 324.77 288.23 323.71 288.11 322.71C287.98 321.69 287.63 320.78 287.08 319.98C286.52 319.16 285.78 318.49 284.86 317.95L283.95 319.46C284.65 319.82 285.22 320.3 285.66 320.9C286.1 321.5 286.38 322.19 286.5 322.96C286.61 323.74 286.53 324.55 286.26 325.4C285.92 326.47 285.38 327.32 284.62 327.95C283.85 328.58 282.97 328.96 281.96 329.11C280.93 329.25 279.88 329.15 278.8 328.81C277.73 328.48 276.82 327.96 276.08 327.27C275.32 326.56 274.81 325.73 274.55 324.78C274.28 323.83 274.3 322.82 274.63 321.76C275.02 320.54 275.68 319.64 276.62 319.05C277.54 318.46 278.61 318.22 279.82 318.34L279.9 316.58C278.87 316.48 277.9 316.61 277 316.95C276.1 317.28 275.32 317.82 274.65 318.56C273.97 319.3 273.47 320.21 273.13 321.29C272.71 322.62 272.66 323.91 272.96 325.16ZM277.06 314.47L278.5 309.89L291.32 313.91L291.83 312.29L279 308.27L280.44 303.67L278.96 303.21L275.57 314.01L277.06 314.47ZM281.11 299.12C281.41 300.37 282.01 301.46 282.94 302.4C283.86 303.33 285.02 304.01 286.42 304.45C287.82 304.89 289.17 304.99 290.46 304.75C291.75 304.5 292.88 303.94 293.85 303.09C294.8 302.23 295.49 301.12 295.91 299.77C296.34 298.41 296.41 297.1 296.11 295.85C295.81 294.6 295.19 293.5 294.27 292.57C293.35 291.64 292.18 290.96 290.78 290.52C289.39 290.08 288.04 289.98 286.75 290.22C285.45 290.45 284.32 291 283.36 291.86C282.41 292.72 281.72 293.83 281.29 295.2C280.87 296.54 280.81 297.85 281.11 299.12ZM282.8 295.67C283.13 294.62 283.67 293.78 284.41 293.13C285.15 292.48 286.02 292.08 287.03 291.92C288.05 291.75 289.13 291.84 290.26 292.2C291.39 292.55 292.33 293.09 293.07 293.81C293.81 294.52 294.3 295.35 294.55 296.31C294.78 297.26 294.73 298.26 294.41 299.3C294.08 300.36 293.54 301.21 292.81 301.86C292.07 302.49 291.19 302.9 290.17 303.07C289.16 303.22 288.08 303.13 286.95 302.77C285.82 302.42 284.88 301.89 284.14 301.18C283.4 300.46 282.91 299.63 282.67 298.69C282.43 297.73 282.47 296.72 282.8 295.67ZM288.4 285.21C289.73 285.66 290.88 286.08 291.87 286.46C292.86 286.82 293.69 287.17 294.37 287.49C295.04 287.8 295.58 288.08 295.99 288.34C296.4 288.59 296.7 288.83 296.88 289.05C297.24 289.5 297.35 289.98 297.19 290.47C297.16 290.59 297.08 290.74 296.97 290.92L298.26 291.62C298.47 291.37 298.64 291.08 298.74 290.75C299.02 289.84 298.92 289.04 298.42 288.34C297.92 287.64 296.95 286.93 295.52 286.22C294.8 285.85 293.92 285.47 292.89 285.06C291.85 284.65 290.64 284.21 289.26 283.74L286.94 282.92L288.87 276.76L301.69 280.77L302.2 279.15L287.89 274.67L284.95 284.04L288.4 285.21ZM303.56 274.79L304.99 270.23C305.24 269.44 305.35 268.7 305.33 268.01C305.31 267.32 305.17 266.7 304.91 266.14C304.64 265.58 304.26 265.1 303.77 264.69C303.29 264.28 302.69 263.96 301.99 263.74C301.36 263.54 300.73 263.46 300.12 263.51C299.49 263.54 298.91 263.7 298.37 263.99C297.82 264.28 297.33 264.7 296.91 265.27C296.47 265.82 296.12 266.52 295.85 267.37L294.93 270.31L289.76 268.69L289.25 270.31L303.56 274.79ZM297.35 267.8C297.67 266.77 298.2 266.04 298.94 265.61C299.67 265.17 300.52 265.1 301.47 265.4C302.43 265.7 303.09 266.23 303.47 267.01C303.83 267.78 303.84 268.68 303.52 269.71L302.58 272.7L296.42 270.77L297.35 267.8ZM294.47 253.63L308.79 258.11L309.28 256.54L297.21 252.77L305.2 249.76L305.31 249.39L300.44 242.34L312.54 246.12L313.03 244.56L298.71 240.08L298.17 241.81L303.07 248.84L295.01 251.89L294.47 253.63ZM300.08 235.72L314.39 240.2L314.88 238.65L305.6 226.78L317.43 230.48L317.93 228.9L303.61 224.42L303.13 225.96L312.43 237.84L300.57 234.13L300.08 235.72ZM304.98 220.06L319.29 224.54L319.78 222.97L307.72 219.2L315.7 216.19L315.82 215.82L310.94 208.77L323.04 212.55L323.53 210.99L309.22 206.51L308.67 208.24L313.58 215.27L305.52 218.32L304.98 220.06ZM312.1 200.11C312.39 201.36 313 202.45 313.93 203.38C314.85 204.31 316.01 205 317.41 205.44C318.81 205.87 320.16 205.97 321.45 205.73C322.74 205.48 323.87 204.93 324.84 204.07C325.79 203.21 326.48 202.11 326.9 200.76C327.33 199.4 327.4 198.09 327.1 196.84C326.8 195.58 326.18 194.49 325.26 193.56C324.33 192.63 323.17 191.94 321.77 191.5C320.37 191.06 319.03 190.96 317.74 191.2C316.43 191.44 315.31 191.99 314.35 192.85C313.4 193.71 312.71 194.82 312.28 196.18C311.86 197.53 311.8 198.84 312.1 200.11ZM313.79 196.65C314.12 195.61 314.65 194.77 315.4 194.12C316.13 193.47 317.01 193.06 318.02 192.91C319.04 192.74 320.11 192.83 321.25 193.18C322.38 193.54 323.32 194.07 324.05 194.79C324.8 195.5 325.29 196.33 325.54 197.29C325.77 198.24 325.72 199.24 325.39 200.29C325.06 201.34 324.53 202.19 323.8 202.85C323.05 203.48 322.17 203.88 321.16 204.05C320.14 204.21 319.07 204.11 317.94 203.76C316.81 203.4 315.87 202.87 315.13 202.16C314.39 201.44 313.9 200.61 313.66 199.67C313.42 198.72 313.46 197.71 313.79 196.65ZM319.39 186.19C320.71 186.65 321.87 187.07 322.85 187.44C323.84 187.81 324.68 188.15 325.36 188.48C326.03 188.79 326.57 189.07 326.98 189.32C327.39 189.58 327.69 189.82 327.87 190.04C328.23 190.49 328.33 190.96 328.18 191.46C328.14 191.57 328.07 191.72 327.95 191.91L329.24 192.61C329.46 192.35 329.62 192.06 329.73 191.73C330.01 190.83 329.9 190.03 329.41 189.33C328.9 188.62 327.94 187.92 326.51 187.21C325.79 186.84 324.91 186.45 323.88 186.05C322.83 185.63 321.62 185.19 320.25 184.72L317.92 183.91L319.85 177.74L332.68 181.76L333.19 180.14L318.87 175.66L315.94 185.03L319.39 186.19ZM334.55 175.78L337.37 166.77L335.88 166.3L333.57 173.69L328.25 172.02L329.85 166.89L328.36 166.42L326.76 171.56L322.23 170.14L324.49 162.95L323 162.48L320.24 171.3L334.55 175.78ZM324.94 161.5L326.37 156.92L339.2 160.93L339.71 159.31L326.88 155.29L328.32 150.69L326.83 150.23L323.45 161.03L324.94 161.5ZM328.14 146.04L327.63 147.66L341.95 152.14L342.46 150.52L335.61 148.38L338.2 140.09L345.05 142.24L345.56 140.61L331.24 136.13L330.73 137.76L336.71 139.63L334.12 147.91L328.14 146.04ZM346.32 138.19L346.82 136.57L342.47 133.15L344.25 127.46L349.78 127.14L350.31 125.42L334.28 126.44L333.72 128.23L346.32 138.19ZM342.6 127.55L341.17 132.14L335.84 127.95L342.6 127.55ZM353.44 125.47L353.82 124.25L349.52 121.27L348.95 123.08L353.44 125.47ZM339.89 108.52L339.38 110.14L353.69 114.62L354.2 113L347.35 110.85L349.94 102.57L356.79 104.71L357.3 103.09L342.99 98.6095L342.48 100.23L348.45 102.1L345.86 110.39L339.89 108.52ZM345.86 92.2395C346.15 93.4895 346.76 94.5795 347.69 95.5095C348.61 96.4495 349.77 97.1295 351.17 97.5695C352.57 98.0095 353.92 98.1095 355.21 97.8695C356.5 97.6195 357.63 97.0596 358.6 96.1996C359.55 95.3396 360.24 94.2396 360.66 92.8896C361.09 91.5296 361.15 90.2195 360.86 88.9695C360.56 87.7095 359.94 86.6195 359.02 85.6895C358.09 84.7595 356.93 84.0695 355.53 83.6295C354.13 83.1995 352.79 83.0995 351.5 83.3395C350.19 83.5695 349.07 84.1195 348.11 84.9795C347.16 85.8395 346.47 86.9495 346.04 88.3095C345.62 89.6595 345.56 90.9695 345.86 92.2395ZM347.55 88.7895C347.88 87.7395 348.41 86.8995 349.16 86.2495C349.89 85.5995 350.77 85.1995 351.78 85.0395C352.8 84.8695 353.87 84.9595 355.01 85.3095C356.14 85.6695 357.07 86.2095 357.81 86.9295C358.56 87.6295 359.05 88.4696 359.29 89.4196C359.53 90.3796 359.48 91.3696 359.15 92.4196C358.82 93.4696 358.29 94.3296 357.56 94.9796C356.81 95.6096 355.93 96.0095 354.92 96.1795C353.9 96.3395 352.83 96.2396 351.7 95.8896C350.56 95.5296 349.63 94.9995 348.88 94.2995C348.15 93.5795 347.66 92.7495 347.42 91.8095C347.18 90.8495 347.22 89.8395 347.55 88.7895ZM351.65 76.1696L353.08 71.5795L365.91 75.5995L366.41 73.9796L353.59 69.9595L355.03 65.3595L353.54 64.8995L350.16 75.6996L351.65 76.1696ZM367.66 69.9995L368.16 68.3795L363.81 64.9595L365.59 59.2795L371.11 58.9496L371.65 57.2395L355.62 58.2495L355.05 60.0495L367.66 69.9995ZM363.94 59.3695L362.51 63.9496L357.18 59.7695L363.94 59.3695ZM358.61 48.6795L358.1 50.3095L372.42 54.7895L372.93 53.1595L366.15 51.0395L366.79 48.9995L375.24 45.7596L375.85 43.8095L366.42 47.3595L361.49 39.4796L360.88 41.4496L365.3 48.4695L364.64 50.5695L358.61 48.6795ZM365.11 30.7495C365.4 31.9995 366.01 33.0895 366.93 34.0195C367.85 34.9495 369.02 35.6395 370.42 36.0795C371.82 36.5095 373.16 36.6095 374.45 36.3695C375.75 36.1195 376.88 35.5695 377.84 34.7095C378.8 33.8495 379.48 32.7495 379.91 31.3995C380.33 30.0395 380.4 28.7296 380.11 27.4796C379.8 26.2196 379.19 25.1296 378.26 24.1996C377.34 23.2696 376.18 22.5796 374.78 22.1396C373.38 21.6996 372.03 21.5995 370.74 21.8395C369.44 22.0795 368.31 22.6295 367.36 23.4895C366.4 24.3495 365.71 25.4595 365.29 26.8195C364.86 28.1695 364.8 29.4795 365.11 30.7495ZM366.79 27.2895C367.12 26.2495 367.66 25.3996 368.4 24.7596C369.14 24.1096 370.01 23.6995 371.03 23.5495C372.04 23.3795 373.12 23.4695 374.25 23.8195C375.38 24.1795 376.32 24.7095 377.06 25.4295C377.8 26.1395 378.29 26.9695 378.54 27.9295C378.77 28.8795 378.73 29.8796 378.4 30.9196C378.07 31.9796 377.54 32.8296 376.8 33.4796C376.06 34.1196 375.18 34.5195 374.16 34.6895C373.15 34.8495 372.07 34.7495 370.94 34.3995C369.81 34.0395 368.87 33.5095 368.13 32.7995C367.39 32.0795 366.9 31.2495 366.67 30.3095C366.42 29.3595 366.46 28.3495 366.79 27.2895ZM382.97 21.0895L383.47 19.4595L370.65 15.4496L372.82 8.49954L371.33 8.03955L368.65 16.6095L382.97 21.0895ZM388.89 2.14954L389.33 0.749542L384.43 0.749542L388.89 2.14954ZM375.6 6.57953C376.93 7.03953 378.08 7.44953 379.07 7.82953C380.06 8.19953 380.89 8.53954 381.57 8.86954C382.24 9.16954 382.78 9.45953 383.19 9.70953C383.6 9.95953 383.9 10.1995 384.08 10.4295C384.44 10.8795 384.55 11.3495 384.39 11.8395C384.36 11.9595 384.28 12.1095 384.17 12.2995L385.46 12.9995C385.68 12.7395 385.84 12.4495 385.94 12.1195C386.22 11.2195 386.12 10.4095 385.62 9.71954C385.12 9.00954 384.15 8.29954 382.73 7.58954C382 7.22954 381.12 6.83953 380.09 6.42953C379.05 6.01953 377.84 5.57953 376.46 5.10953L374.14 4.29953L375.25 0.749541L373.61 0.749541L372.15 5.41955L375.6 6.57953Z" fill="#010202"/>
<path d="M4.46988 61.3008L5.87988 60.4908L7.11987 45.4808L13.2999 56.2308L14.7399 55.4008L7.25989 42.3908L5.85986 43.2008L4.62988 58.2408L-0.000121098 50.1808L-0.000121389 53.5108L4.46988 61.3008ZM18.6999 53.1208L20.1199 52.3108L13.8199 41.3508L21.7299 44.5508L22.0599 44.3608L23.2699 35.8708L29.5899 46.8708L31.0099 46.0508L23.5299 33.0408L21.9599 33.9508L20.7899 42.4408L12.7999 39.2108L11.2199 40.1208L18.6999 53.1208ZM25.6099 31.8508L36.0999 38.6708L36.4299 42.9308L37.9899 42.0408L36.7399 25.4508L35.1799 26.3508L35.9399 36.5508L27.2399 30.9208L25.6099 31.8508ZM46.2799 37.2708L47.7599 36.4208L44.2299 30.2808L46.5999 28.9208C47.1799 29.8108 47.8499 30.5408 48.6099 31.1308C49.3899 31.7008 50.2099 32.1108 51.0899 32.3408C51.9599 32.5808 52.8599 32.6408 53.7899 32.5208C54.7299 32.3908 55.6499 32.0708 56.5399 31.5608C57.4799 31.0208 58.2399 30.3608 58.8199 29.5808C59.3999 28.8008 59.7999 27.9608 60.0199 27.0508C60.2299 26.1408 60.2599 25.1908 60.1099 24.2008C59.9599 23.2108 59.6099 22.2408 59.0499 21.2808C58.4999 20.3208 57.8399 19.5308 57.0599 18.9008C56.2799 18.2608 55.4399 17.8008 54.5399 17.5308C53.6499 17.2608 52.7199 17.1808 51.7599 17.3008C50.7999 17.4108 49.8399 17.7408 48.9099 18.2808C48.0599 18.7608 47.3599 19.3508 46.7899 20.0508C46.2299 20.7408 45.8199 21.5008 45.5599 22.3208C45.2999 23.1308 45.1999 23.9808 45.2499 24.8808C45.2999 25.7608 45.4999 26.6508 45.8799 27.5408L43.4499 28.9308L40.2799 23.4208L38.8099 24.2708L46.2799 37.2708ZM47.0599 23.1208C47.2199 22.4208 47.5199 21.7608 47.9599 21.1708C48.3999 20.5708 48.9799 20.0608 49.6899 19.6508C50.4099 19.2308 51.1399 18.9908 51.8799 18.9208C52.6199 18.8308 53.3299 18.9008 54.0099 19.1308C54.6999 19.3408 55.3499 19.7108 55.9599 20.2208C56.5599 20.7408 57.0799 21.3808 57.5299 22.1608C57.9699 22.9308 58.2699 23.7108 58.4099 24.4908C58.5499 25.2708 58.5399 26.0108 58.3799 26.7208C58.2199 27.4208 57.9299 28.0808 57.4899 28.6808C57.0499 29.2808 56.4699 29.7808 55.7499 30.1908C55.0399 30.6008 54.3099 30.8508 53.5799 30.9308C52.8299 31.0108 52.1199 30.9408 51.4199 30.7208C50.7399 30.5008 50.0999 30.1308 49.4899 29.6108C48.8899 29.1008 48.3699 28.4508 47.9199 27.6808C47.4799 26.9008 47.1799 26.1308 47.0399 25.3508C46.8999 24.5708 46.9099 23.8308 47.0599 23.1208ZM69.5999 23.8708L71.0699 23.0208L64.3799 11.3708L70.6899 7.74078L69.9099 6.39081L62.1299 10.8608L69.5999 23.8708ZM79.5199 18.1708L80.9999 17.3208L78.0499 12.1908L81.2899 10.3208C81.9299 9.9608 82.4499 9.53079 82.8599 9.03079C83.2699 8.52079 83.5599 7.98081 83.7299 7.42081C83.8899 6.85081 83.9399 6.2608 83.8699 5.6608C83.7999 5.0508 83.5999 4.47081 83.2799 3.92081C82.9599 3.35081 82.5599 2.8908 82.0799 2.5408C81.5999 2.1608 81.0699 1.9108 80.4899 1.7908C79.9199 1.6508 79.3199 1.64078 78.6899 1.74078C78.0499 1.84078 77.4099 2.0808 76.7699 2.4508L72.0499 5.16079L79.5199 18.1708ZM77.5399 3.80078C78.4099 3.30078 79.2199 3.15078 79.9699 3.33078C80.7299 3.50078 81.3299 3.98078 81.7899 4.77078C82.2399 5.55078 82.3499 6.32079 82.1299 7.09079C81.9199 7.85079 81.3799 8.47079 80.5099 8.97079L77.2699 10.8308L74.2999 5.6708L77.5399 3.80078ZM88.8299 12.8208L90.2999 11.9708L89.4199 6.50079L94.5899 3.53079L98.8699 7.05078L100.43 6.15079L93.7799 0.750793L91.1999 0.750792L93.3199 2.49078L89.1599 4.8808L88.4899 0.750792L86.9299 0.750792L88.8299 12.8208ZM102.66 4.87079L104.13 4.03079L102.25 0.750793L100.29 0.750793L102.66 4.87079Z" fill="#010202"/>
<path d="M259.36 328.75L361.92 0.75L360.87 0.75L258.62 327.75L-6.09477e-05 327.75L-6.10352e-05 328.75L259.36 328.75ZM128.64 0.74998L126.62 0.749979L-3.87109e-05 73.39L-3.88123e-05 74.55L128.64 0.74998Z" fill="#010202"/>
<path d="M0.000183574 348.57L4.26019 348.57L6.22018 353.75L8.02017 353.75L2.26019 338.75L0.380189 338.75L0.000184346 339.74L0.000183967 344.07L1.28018 340.69L3.68018 347.03L0.000183709 347.03L0.000183574 348.57ZM12.1602 340.31L12.1602 353.75L13.8602 353.75L13.8602 340.31L18.6802 340.31L18.6802 338.75L7.36017 338.75L7.36017 340.31L12.1602 340.31ZM26.1502 353.75C26.9702 353.75 27.7102 353.64 28.3702 353.41C29.0202 353.18 29.5702 352.86 30.0302 352.45C30.4802 352.02 30.8302 351.52 31.0702 350.93C31.3202 350.34 31.4502 349.68 31.4502 348.95C31.4502 348.28 31.3302 347.66 31.1102 347.09C30.8902 346.5 30.5702 346 30.1302 345.57C29.6902 345.13 29.1302 344.79 28.4702 344.55C27.8102 344.3 27.0402 344.17 26.1502 344.17L23.0702 344.17L23.0702 338.75L21.3702 338.75L21.3702 353.75L26.1502 353.75ZM23.0702 345.73L26.1902 345.73C27.2702 345.73 28.1202 346.02 28.7502 346.59C29.3902 347.16 29.7102 347.95 29.7102 348.95C29.7102 349.95 29.3902 350.74 28.7702 351.33C28.1402 351.9 27.2902 352.19 26.2102 352.19L23.0702 352.19L23.0702 345.73ZM38.6502 350.19C39.2602 351.35 40.1102 352.26 41.2102 352.93C42.3102 353.6 43.5702 353.93 44.9902 353.93C46.1502 353.93 47.1902 353.72 48.1102 353.31C49.0402 352.88 49.8102 352.28 50.4102 351.51C51.0202 350.74 51.4502 349.83 51.6902 348.79L49.9702 348.37C49.8302 349.14 49.5502 349.83 49.1102 350.43C48.6702 351.03 48.0902 351.5 47.3902 351.85C46.6802 352.18 45.8802 352.35 44.9902 352.35C43.8702 352.35 42.8902 352.08 42.0702 351.55C41.2402 351 40.6102 350.27 40.1702 349.35C39.7302 348.42 39.5102 347.38 39.5102 346.25C39.5102 345.13 39.7302 344.11 40.1702 343.19C40.6202 342.26 41.2602 341.52 42.0902 340.99C42.9102 340.44 43.8802 340.17 44.9902 340.17C46.2702 340.17 47.3302 340.53 48.1702 341.25C49.0102 341.96 49.5502 342.9 49.8102 344.09L51.5102 343.65C51.2902 342.64 50.8902 341.75 50.2902 340.99C49.7002 340.23 48.9502 339.64 48.0502 339.23C47.1402 338.8 46.1202 338.59 44.9902 338.59C43.6002 338.59 42.3502 338.92 41.2502 339.59C40.1502 340.26 39.2902 341.18 38.6702 342.35C38.0502 343.51 37.7502 344.81 37.7502 346.25C37.7502 347.7 38.0502 349.02 38.6502 350.19ZM58.8002 350.19C59.4202 351.35 60.2702 352.26 61.3602 352.93C62.4702 353.6 63.7302 353.93 65.1402 353.93C66.3002 353.93 67.3402 353.72 68.2602 353.31C69.2002 352.88 69.9602 352.28 70.5602 351.51C71.1802 350.74 71.6002 349.83 71.8402 348.79L70.1202 348.37C69.9902 349.14 69.7002 349.83 69.2602 350.43C68.8202 351.03 68.2502 351.5 67.5402 351.85C66.8402 352.18 66.0402 352.35 65.1402 352.35C64.0202 352.35 63.0502 352.08 62.2202 351.55C61.4002 351 60.7602 350.27 60.3202 349.35C59.8802 348.42 59.6602 347.38 59.6602 346.25C59.6602 345.13 59.8802 344.11 60.3202 343.19C60.7802 342.26 61.4202 341.52 62.2402 340.99C63.0702 340.44 64.0402 340.17 65.1402 340.17C66.4202 340.17 67.4802 340.53 68.3202 341.25C69.1602 341.96 69.7102 342.9 69.9602 344.09L71.6602 343.65C71.4502 342.64 71.0402 341.75 70.4402 340.99C69.8602 340.23 69.1102 339.64 68.2002 339.23C67.3002 338.8 66.2802 338.59 65.1402 338.59C63.7602 338.59 62.5102 338.92 61.4002 339.59C60.3102 340.26 59.4502 341.18 58.8202 342.35C58.2102 343.51 57.9002 344.81 57.9002 346.25C57.9002 347.7 58.2002 349.02 58.8002 350.19ZM76.3802 353.75L84.9402 341.35L84.9402 353.75L86.6002 353.75L86.6002 338.75L84.9802 338.75L76.4202 351.17L76.4202 338.75L74.7602 338.75L74.7602 353.75L76.3802 353.75ZM90.0302 353.91C90.9802 353.91 91.7102 353.57 92.2302 352.89C92.7502 352.2 93.1402 351.06 93.3902 349.49C93.5202 348.69 93.6302 347.74 93.7102 346.63C93.7902 345.51 93.8502 344.22 93.8902 342.77L93.9702 340.31L100.43 340.31L100.43 353.75L102.13 353.75L102.13 338.75L92.3102 338.75L92.2302 342.39C92.1902 343.79 92.1402 345.02 92.0702 346.07C92.0202 347.12 91.9402 348.02 91.8302 348.77C91.7402 349.5 91.6302 350.1 91.5102 350.57C91.3902 351.04 91.2502 351.39 91.0902 351.63C90.7702 352.11 90.3502 352.35 89.8302 352.35C89.7102 352.35 89.5402 352.32 89.3302 352.27L89.0502 353.71C89.3602 353.84 89.6802 353.91 90.0302 353.91ZM106.52 350.19C107.14 351.35 108.01 352.26 109.12 352.93C110.22 353.58 111.48 353.91 112.9 353.91C114.32 353.91 115.59 353.58 116.7 352.93C117.8 352.26 118.66 351.35 119.28 350.19C119.89 349.03 120.2 347.72 120.2 346.25C120.2 344.78 119.89 343.47 119.28 342.31C118.66 341.14 117.8 340.22 116.7 339.57C115.59 338.92 114.32 338.59 112.9 338.59C111.48 338.59 110.22 338.92 109.1 339.59C107.99 340.24 107.13 341.15 106.52 342.31C105.9 343.47 105.6 344.78 105.6 346.25C105.6 347.72 105.9 349.03 106.52 350.19ZM108.04 343.09C108.5 342.17 109.15 341.46 109.98 340.95C110.82 340.43 111.79 340.17 112.9 340.17C113.99 340.17 114.96 340.43 115.8 340.95C116.64 341.46 117.28 342.17 117.74 343.09C118.2 344.01 118.44 345.06 118.44 346.25C118.44 347.44 118.2 348.49 117.74 349.41C117.28 350.33 116.64 351.05 115.8 351.57C114.96 352.08 113.99 352.33 112.9 352.33C111.79 352.33 110.82 352.08 109.98 351.57C109.15 351.05 108.5 350.33 108.04 349.41C107.58 348.49 107.36 347.44 107.36 346.25C107.36 345.06 107.58 344.01 108.04 343.09ZM125.27 353.75L133.83 341.35L133.83 353.75L135.49 353.75L135.49 338.75L133.87 338.75L125.31 351.17L125.31 338.75L123.65 338.75L123.65 353.75L125.27 353.75ZM127.37 337.21C127.96 337.73 128.73 337.99 129.69 337.99C130.64 337.99 131.41 337.73 132.01 337.21C132.61 336.69 132.91 335.97 132.91 335.05L131.43 335.05C131.43 335.56 131.26 335.95 130.93 336.23C130.61 336.51 130.2 336.65 129.69 336.65C129.18 336.65 128.77 336.51 128.45 336.23C128.14 335.95 127.99 335.56 127.99 335.05L126.49 335.05C126.49 335.97 126.78 336.69 127.37 337.21ZM146.15 353.75L146.15 346.65L148.29 346.65L153.91 353.75L155.95 353.75L149.75 345.81L155.79 338.75L153.73 338.75L148.35 345.07L146.15 345.07L146.15 338.75L144.45 338.75L144.45 353.75L146.15 353.75ZM157.89 350.19C158.51 351.35 159.38 352.26 160.49 352.93C161.59 353.58 162.85 353.91 164.27 353.91C165.69 353.91 166.96 353.58 168.07 352.93C169.17 352.26 170.03 351.35 170.65 350.19C171.26 349.03 171.57 347.72 171.57 346.25C171.57 344.78 171.26 343.47 170.65 342.31C170.03 341.14 169.17 340.22 168.07 339.57C166.96 338.92 165.69 338.59 164.27 338.59C162.85 338.59 161.59 338.92 160.47 339.59C159.36 340.24 158.5 341.15 157.89 342.31C157.27 343.47 156.97 344.78 156.97 346.25C156.97 347.72 157.27 349.03 157.89 350.19ZM159.41 343.09C159.87 342.17 160.52 341.46 161.35 340.95C162.19 340.43 163.16 340.17 164.27 340.17C165.36 340.17 166.33 340.43 167.17 340.95C168.01 341.46 168.65 342.17 169.11 343.09C169.57 344.01 169.81 345.06 169.81 346.25C169.81 347.44 169.57 348.49 169.11 349.41C168.65 350.33 168.01 351.05 167.17 351.57C166.33 352.08 165.36 352.33 164.27 352.33C163.16 352.33 162.19 352.08 161.35 351.57C160.52 351.05 159.87 350.33 159.41 349.41C158.95 348.49 158.73 347.44 158.73 346.25C158.73 345.06 158.95 344.01 159.41 343.09ZM177.39 340.31L177.39 353.75L179.09 353.75L179.09 340.31L183.91 340.31L183.91 338.75L172.59 338.75L172.59 340.31L177.39 340.31ZM185.87 350.19C186.5 351.35 187.37 352.26 188.47 352.93C189.58 353.58 190.84 353.91 192.25 353.91C193.68 353.91 194.95 353.58 196.05 352.93C197.16 352.26 198.02 351.35 198.63 350.19C199.25 349.03 199.55 347.72 199.55 346.25C199.55 344.78 199.25 343.47 198.63 342.31C198.02 341.14 197.16 340.22 196.05 339.57C194.95 338.92 193.68 338.59 192.25 338.59C190.84 338.59 189.57 338.92 188.45 339.59C187.35 340.24 186.49 341.15 185.87 342.31C185.26 343.47 184.95 344.78 184.95 346.25C184.95 347.72 185.26 349.03 185.87 350.19ZM187.39 343.09C187.86 342.17 188.51 341.46 189.33 340.95C190.17 340.43 191.15 340.17 192.25 340.17C193.35 340.17 194.31 340.43 195.15 340.95C195.99 341.46 196.64 342.17 197.09 343.09C197.56 344.01 197.79 345.06 197.79 346.25C197.79 347.44 197.56 348.49 197.09 349.41C196.64 350.33 195.99 351.05 195.15 351.57C194.31 352.08 193.35 352.33 192.25 352.33C191.15 352.33 190.17 352.08 189.33 351.57C188.51 351.05 187.86 350.33 187.39 349.41C186.94 348.49 186.71 347.44 186.71 346.25C186.71 345.06 186.94 344.01 187.39 343.09ZM204.71 353.75L204.71 347.83L208.45 347.83C209.18 347.83 209.85 347.72 210.45 347.49C211.06 347.25 211.58 346.93 212.01 346.53C212.43 346.12 212.77 345.63 213.01 345.07C213.25 344.51 213.37 343.91 213.37 343.27C213.37 342.62 213.25 342.02 213.01 341.47C212.78 340.91 212.45 340.43 212.01 340.03C211.58 339.63 211.07 339.32 210.47 339.09C209.87 338.86 209.19 338.75 208.45 338.75L203.01 338.75L203.01 353.75L204.71 353.75ZM204.71 340.31L208.45 340.31C209.45 340.31 210.23 340.58 210.79 341.11C211.36 341.63 211.65 342.35 211.65 343.27C211.65 344.16 211.36 344.89 210.79 345.45C210.23 346 209.45 346.27 208.45 346.27L204.71 346.27L204.71 340.31ZM215.44 353.75L217.4 348.57L223.36 348.57L225.32 353.75L227.12 353.75L221.36 338.75L219.48 338.75L213.74 353.75L215.44 353.75ZM220.38 340.69L222.78 347.03L217.98 347.03L220.38 340.69ZM229.73 345.99C230.06 346.35 230.45 346.64 230.91 346.87C231.36 347.1 231.85 347.25 232.39 347.33L228.01 353.75L229.95 353.75L234.25 347.43L237.73 347.43L237.73 353.75L239.43 353.75L239.43 338.75L233.35 338.75C232.65 338.75 232.02 338.86 231.45 339.07C230.89 339.28 230.4 339.58 229.99 339.97C229.59 340.34 229.27 340.8 229.05 341.33C228.82 341.86 228.71 342.45 228.71 343.09C228.71 343.68 228.79 344.22 228.97 344.71C229.15 345.19 229.41 345.62 229.73 345.99ZM231.25 341.07C231.78 340.56 232.49 340.31 233.37 340.31L237.73 340.31L237.73 345.87L233.33 345.87C232.47 345.87 231.78 345.62 231.25 345.11C230.73 344.6 230.47 343.93 230.47 343.09C230.47 342.25 230.73 341.58 231.25 341.07Z" fill="#010202"/>
</svg>
