<svg width="480" height="391" viewBox="0 0 480 391" fill="none" xmlns="http://www.w3.org/2000/svg">
<path d="M0 390.75L480 390.75L480 0.75L3.40949e-05 0.749958L0 390.75Z" fill="white"/>
<path d="M294.53 7.97938C294.7 9.27938 295.18 10.4494 295.97 11.4694C296.77 12.4694 297.83 13.2294 299.15 13.7394C300.48 14.2494 301.78 14.3994 303.05 14.1894C304.32 13.9594 305.45 13.4194 306.44 12.5494C307.43 11.6894 308.18 10.5694 308.71 9.19939C309.24 7.83939 309.42 6.49939 309.27 5.19939C309.11 3.87939 308.64 2.71937 307.84 1.70937C307.56 1.35937 307.25 1.03938 306.9 0.749375L303.61 0.749375C303.77 0.799375 303.92 0.849379 304.08 0.909379C305.1 1.29938 305.91 1.88937 306.5 2.67937C307.11 3.44937 307.45 4.34937 307.55 5.36937C307.65 6.39937 307.49 7.46938 307.07 8.56938C306.64 9.67938 306.05 10.5794 305.28 11.2694C304.53 11.9694 303.67 12.4094 302.7 12.5894C301.73 12.7594 300.74 12.6494 299.72 12.2594C298.68 11.8694 297.87 11.2794 297.26 10.5094C296.68 9.71938 296.33 8.81938 296.23 7.78938C296.13 6.76938 296.3 5.70938 296.73 4.59938C297.15 3.48938 297.74 2.58939 298.49 1.88939C299.09 1.35939 299.74 0.979375 300.44 0.749375L297.21 0.749374C296.3 1.58937 295.58 2.66938 295.08 3.96938C294.56 5.33938 294.37 6.66938 294.53 7.97938ZM286.92 8.86937L290.04 0.749374L288.21 0.749373L285.33 8.25938L286.92 8.86937ZM278.36 5.57936L280.22 0.749373L278.39 0.749373L276.77 4.96937L278.36 5.57936ZM259.52 1.54936L260.15 0.749371L258.53 0.749371L258.32 1.08937L259.52 1.54936Z" fill="#010202"/>
<path d="M338.52 97.3096L339.69 95.8196L350.28 104.1L356.24 96.4796L353.43 94.1696C352.55 93.4496 351.78 92.7996 351.12 92.2196C350.45 91.6396 349.88 91.1196 349.41 90.6396C348.93 90.1896 348.54 89.7696 348.23 89.3896C347.92 89.0296 347.67 88.6896 347.49 88.3796C347.33 88.1196 347.19 87.8396 347.08 87.5496C346.98 87.2696 346.89 86.9896 346.83 86.6996L347.63 85.6696L343.57 82.4896L342.56 83.7896L345.39 85.9996L338.3 95.0596L335.47 92.8396L334.46 94.1296L338.52 97.3096ZM345.76 88.0696C345.94 88.6496 346.23 89.2396 346.61 89.8296C347 90.4196 347.53 91.0596 348.2 91.7596C348.66 92.2396 349.21 92.7596 349.86 93.3396C350.51 93.9096 351.25 94.5496 352.09 95.2296L354 96.8096L350.08 101.82L340.73 94.4996L345.76 88.0696ZM350.53 85.2096C351.07 86.4096 351.91 87.4596 353.07 88.3596C354.22 89.2696 355.45 89.8396 356.74 90.0696C358.04 90.3096 359.29 90.1896 360.49 89.7196C361.68 89.2496 362.72 88.4596 363.6 87.3396C364.47 86.2196 364.99 85.0196 365.15 83.7296C365.32 82.4496 365.14 81.2196 364.6 80.0196C364.07 78.8196 363.22 77.7696 362.07 76.8696C360.91 75.9596 359.69 75.3896 358.4 75.1596C357.1 74.9396 355.84 75.0596 354.64 75.5196C353.44 75.9896 352.41 76.7796 351.54 77.8896C350.66 79.0196 350.13 80.2196 349.97 81.4896C349.81 82.7696 350 84.0096 350.53 85.2096ZM351.59 81.6196C351.71 80.6496 352.11 79.7296 352.78 78.8696C353.46 77.9996 354.26 77.3896 355.18 77.0396C356.1 76.7096 357.06 76.6396 358.07 76.8396C359.08 77.0496 360.05 77.5196 360.98 78.2496C361.92 78.9796 362.61 79.8096 363.05 80.7296C363.49 81.6696 363.65 82.6196 363.54 83.5796C363.43 84.5596 363.04 85.4896 362.36 86.3596C361.68 87.2196 360.88 87.8196 359.95 88.1596C359.04 88.5096 358.08 88.5796 357.07 88.3696C356.06 88.1696 355.09 87.7096 354.15 86.9796C353.22 86.2496 352.53 85.4096 352.1 84.4796C351.65 83.5496 351.48 82.5996 351.59 81.6196ZM356.8 71.4296L366.07 71.9096L368.75 80.4996L369.93 78.9896L367.71 71.9896L375.11 72.3696L376.34 70.7996L367.41 70.3296L364.55 61.5196L363.4 62.9896L365.74 70.2496L358.03 69.8496L356.8 71.4296ZM377.97 68.7096L379.02 67.3696L367.21 58.1296L366.16 59.4596L377.97 68.7096ZM371.09 57.7396C371.4 58.2996 371.84 58.8096 372.42 59.2596C372.94 59.6696 373.5 59.9596 374.09 60.1396C374.68 60.3296 375.29 60.3796 375.89 60.2996C376.51 60.2296 377.12 59.9996 377.72 59.6196C378.32 59.2596 378.9 58.7296 379.45 58.0296L381.35 55.5996L385.61 58.9396L386.66 57.5996L374.85 48.3596L371.9 52.1296C371.39 52.7796 371.03 53.4296 370.8 54.0796C370.58 54.7396 370.49 55.3696 370.54 55.9796C370.59 56.5996 370.78 57.1896 371.09 57.7396ZM373.09 53.1296L375.03 50.6596L380.12 54.6396L378.19 57.0996C377.53 57.9496 376.78 58.4396 375.94 58.5896C375.09 58.7396 374.28 58.4996 373.49 57.8896C372.7 57.2696 372.27 56.5296 372.19 55.6796C372.13 54.8296 372.43 53.9796 373.09 53.1296ZM379.07 46.9296C379.34 47.4196 379.73 47.8596 380.24 48.2596C380.98 48.8396 381.76 49.1296 382.55 49.1296C383.35 49.1396 384.14 48.8696 384.92 48.3096C384.73 49.0296 384.74 49.7096 384.95 50.3396C385.16 50.9796 385.58 51.5496 386.21 52.0396C386.67 52.3996 387.14 52.6396 387.63 52.7696C388.12 52.8996 388.6 52.9096 389.09 52.8196C389.57 52.7396 390.04 52.5496 390.5 52.2496C390.96 51.9596 391.38 51.5696 391.78 51.0596L395.29 46.5796L383.48 37.3296L379.77 42.0696C379.33 42.6296 379.02 43.1896 378.82 43.7396C378.63 44.3096 378.56 44.8596 378.59 45.3896C378.64 45.9396 378.8 46.4496 379.07 46.9296ZM393.08 46.9996L390.7 50.0396C390.2 50.6796 389.63 51.0496 389 51.1496C388.35 51.2496 387.73 51.0696 387.14 50.6096C386.51 50.1096 386.15 49.5496 386.07 48.9096C386 48.2796 386.2 47.6396 386.7 47.0096L389.13 43.9096L393.08 46.9996ZM380.98 42.9196L383.6 39.5796L387.94 42.9796L385.33 46.3196C384.78 47.0296 384.14 47.4296 383.4 47.5296C382.67 47.6396 381.97 47.4296 381.3 46.8996C380.64 46.3796 380.28 45.7696 380.22 45.0696C380.16 44.3596 380.42 43.6496 380.98 42.9196ZM391.69 32.6196C392.22 33.8196 393.07 34.8696 394.22 35.7696C395.38 36.6796 396.6 37.2496 397.89 37.4796C399.19 37.7196 400.44 37.5996 401.64 37.1296C402.84 36.6696 403.87 35.8696 404.75 34.7496C405.62 33.6296 406.14 32.4296 406.31 31.1396C406.47 29.8596 406.29 28.6296 405.75 27.4296C405.22 26.2296 404.37 25.1796 403.22 24.2796C402.06 23.3696 400.84 22.7996 399.55 22.5696C398.25 22.3496 397 22.4696 395.79 22.9296C394.59 23.3996 393.56 24.1896 392.69 25.2996C391.81 26.4296 391.29 27.6296 391.12 28.8996C390.96 30.1796 391.15 31.4196 391.69 32.6196ZM392.74 29.0296C392.86 28.0596 393.26 27.1396 393.93 26.2796C394.61 25.4096 395.41 24.7996 396.33 24.4496C397.25 24.1196 398.21 24.0496 399.23 24.2496C400.23 24.4596 401.2 24.9296 402.13 25.6596C403.07 26.3896 403.76 27.2196 404.2 28.1396C404.64 29.0796 404.8 30.0296 404.69 30.9896C404.59 31.9696 404.19 32.8996 403.51 33.7696C402.83 34.6296 402.03 35.2296 401.11 35.5696C400.19 35.9196 399.23 35.9896 398.23 35.7796C397.21 35.5796 396.24 35.1196 395.31 34.3896C394.37 33.6596 393.69 32.8196 393.25 31.8896C392.8 30.9596 392.64 30.0096 392.74 29.0296ZM411.51 23.3196L408.54 27.1196L409.77 28.0796L416.74 19.1596L415.52 18.1996L412.56 21.9796L401.97 13.6996L400.92 15.0396L411.51 23.3196ZM418.39 17.0596L419.44 15.7196L414.04 11.4896C414.25 10.7896 414.48 10.1696 414.75 9.63962C415.02 9.11962 415.34 8.61962 415.72 8.13962C416.52 7.11962 417.33 6.51959 418.15 6.35959C418.97 6.19959 419.86 6.49959 420.81 7.23959L424.07 9.79959L425.12 8.45959L421.56 5.66962C420.32 4.69962 419.11 4.3396 417.94 4.5896C416.77 4.8596 415.66 5.6496 414.63 6.9696C414.23 7.4796 413.89 8.0196 413.61 8.5896C413.33 9.1696 413.07 9.81961 412.82 10.5396L407.63 6.4696L406.58 7.8096L418.39 17.0596Z" fill="#010202"/>
<path d="M480 53.5192L480 50.1792L478.44 47.4692L477 48.2992L480 53.5192ZM465.63 56.6292L469.79 54.2392L476.49 65.8892L477.96 65.0492L471.27 53.3892L475.44 50.9892L474.67 49.6392L464.85 55.2792L465.63 56.6292ZM453.28 61.9292L463.77 68.7492L464.1 73.0092L465.66 72.1092L464.41 55.5292L462.85 56.4292L463.61 66.6292L454.91 60.9892L453.28 61.9292ZM437.39 71.0592L435.92 71.9092L443.39 84.9092L458.76 76.0792L460.55 79.2092L461.97 78.3892L459.4 73.9092L457.75 74.8592L451.06 63.2092L449.58 64.0592L456.28 75.7092L450.92 78.7892L444.22 67.1392L442.75 67.9792L449.45 79.6392L444.09 82.7092L437.39 71.0592ZM424 87.4092C424.73 88.6792 425.65 89.6592 426.76 90.3592C427.88 91.0592 429.09 91.4192 430.38 91.4392C431.67 91.4592 432.92 91.1192 434.15 90.4092C435.39 89.6992 436.32 88.7892 436.95 87.6692C437.58 86.5392 437.87 85.3192 437.83 84.0092C437.78 82.6992 437.39 81.3992 436.66 80.1292C435.93 78.8592 435.01 77.8692 433.9 77.1692C432.78 76.4592 431.58 76.0992 430.3 76.0792C429.01 76.0692 427.75 76.4192 426.51 77.1292C425.29 77.8292 424.36 78.7492 423.72 79.8892C423.08 81.0092 422.79 82.2192 422.84 83.5292C422.88 84.8392 423.27 86.1392 424 87.4092ZM425.16 80.6292C425.63 79.7592 426.34 79.0492 427.3 78.4992C428.25 77.9492 429.22 77.6992 430.2 77.7292C431.19 77.7492 432.1 78.0492 432.95 78.6192C433.82 79.1792 434.54 79.9792 435.13 81.0092C435.73 82.0392 436.05 83.0692 436.1 84.0992C436.17 85.1192 435.97 86.0692 435.5 86.9392C435.02 87.7992 434.31 88.4992 433.36 89.0392C432.4 89.5892 431.43 89.8592 430.45 89.8392C429.47 89.7992 428.56 89.4992 427.69 88.9292C426.84 88.3592 426.12 87.5592 425.53 86.5292C424.94 85.4992 424.61 84.4792 424.54 83.4492C424.49 82.4192 424.69 81.4792 425.16 80.6292ZM411.06 103.499L412.53 102.649L411.65 97.1792L416.82 94.2092L421.1 97.7292L422.66 96.8292L410.19 86.6892L408.56 87.6292L411.06 103.499ZM415.55 93.1692L411.39 95.5592L410.31 88.8692L415.55 93.1692ZM394.82 99.7492L396.39 99.2592C396.1 98.4092 396.14 97.6292 396.5 96.9192C396.86 96.1992 397.45 95.6092 398.28 95.1292C399.2 94.5992 400.03 94.3892 400.79 94.4692C401.55 94.5592 402.13 94.9492 402.52 95.6492C402.92 96.3392 403.02 96.9992 402.81 97.6292C402.61 98.2492 402.11 98.7892 401.32 99.2492L399.41 100.339L400.19 101.689L402.16 100.559C403.07 100.039 403.86 99.8492 404.54 99.9992C405.23 100.129 405.79 100.559 406.21 101.299C406.68 102.109 406.74 102.909 406.39 103.689C406.05 104.469 405.4 105.139 404.42 105.689C403.44 106.259 402.52 106.499 401.65 106.409C400.8 106.319 400.03 105.859 399.34 105.039L398.11 106.229C399.02 107.339 400.1 107.939 401.33 108.049C402.57 108.149 403.85 107.819 405.18 107.059C405.89 106.649 406.48 106.189 406.95 105.669C407.43 105.149 407.79 104.599 408.01 104.029C408.23 103.449 408.32 102.859 408.28 102.249C408.24 101.649 408.06 101.059 407.72 100.479C407.28 99.7092 406.73 99.1692 406.05 98.8492C405.37 98.5192 404.62 98.4392 403.79 98.6092C404.21 97.9692 404.43 97.3192 404.46 96.6492C404.49 95.9792 404.32 95.3192 403.96 94.6792C403.66 94.1792 403.29 93.7692 402.84 93.4592C402.38 93.1492 401.87 92.9592 401.31 92.8792C400.74 92.8092 400.14 92.8492 399.5 92.9992C398.86 93.1392 398.2 93.3992 397.52 93.7892C396.95 94.1192 396.45 94.4992 396.03 94.9492C395.6 95.3792 395.27 95.8492 395.02 96.3592C394.79 96.8592 394.65 97.3992 394.61 97.9792C394.57 98.5392 394.64 99.1292 394.82 99.7492ZM379.35 108.619C379.89 109.619 380.35 110.509 380.75 111.299C381.15 112.079 381.48 112.779 381.75 113.399C382.01 113.999 382.22 114.529 382.37 114.999C382.52 115.449 382.62 115.859 382.67 116.209C382.72 116.519 382.75 116.829 382.74 117.139C382.73 117.439 382.7 117.729 382.65 118.019L381.52 118.669L384.09 123.149L385.52 122.329L383.72 119.209L393.69 113.479L395.49 116.599L396.91 115.779L394.34 111.309L392.69 112.249L385.99 100.599L377.6 105.419L379.35 108.619ZM385.31 102.789L391.23 113.089L384.16 117.159C384.21 116.539 384.16 115.889 384.03 115.199C383.89 114.509 383.64 113.719 383.28 112.819C383.04 112.199 382.72 111.509 382.33 110.729C381.95 109.949 381.5 109.089 380.98 108.139L379.8 105.959L385.31 102.789ZM364.84 121.409C365.57 122.679 366.49 123.669 367.6 124.369C368.72 125.059 369.92 125.419 371.22 125.449C372.5 125.459 373.76 125.119 374.98 124.419C376.22 123.699 377.15 122.789 377.79 121.669C378.42 120.539 378.71 119.319 378.66 118.009C378.61 116.699 378.22 115.409 377.49 114.139C376.76 112.859 375.84 111.879 374.73 111.179C373.62 110.469 372.42 110.099 371.13 110.089C369.85 110.069 368.58 110.419 367.35 111.129C366.12 111.839 365.19 112.759 364.55 113.889C363.92 115.009 363.62 116.229 363.67 117.539C363.72 118.849 364.1 120.139 364.84 121.409ZM365.99 114.629C366.46 113.759 367.18 113.049 368.13 112.499C369.08 111.959 370.05 111.699 371.04 111.729C372.02 111.749 372.93 112.049 373.79 112.619C374.65 113.189 375.38 113.979 375.97 115.009C376.56 116.039 376.88 117.069 376.94 118.099C377 119.129 376.8 120.069 376.33 120.939C375.85 121.799 375.14 122.499 374.19 123.049C373.23 123.599 372.26 123.859 371.28 123.839C370.31 123.799 369.39 123.499 368.53 122.939C367.67 122.359 366.95 121.559 366.36 120.529C365.77 119.509 365.44 118.479 365.38 117.459C365.32 116.429 365.53 115.479 365.99 114.629ZM357.43 125.459L356.77 134.699L358.38 133.769L358.94 126.159L365.94 129.429L367.68 128.429L359.26 124.499L360.01 115.529L358.35 116.489L357.78 123.809L351.06 120.679L349.33 121.669L357.43 125.459Z" fill="#010202"/>
<path d="M6.58027 240.08L5.47022 238.79L0.0802676 243.4L0.000250509 243.31L0.0002503 245.7L6.58027 240.08ZM0.430244 232.89L0.000251464 232.39L0.000251229 235.08L0.430244 232.89ZM3.19025 259.21L14.6002 249.47L8.46027 242.29L7.28028 243.3L12.3002 249.19L8.06025 252.81L4.57026 248.72L3.38025 249.74L6.88025 253.83L3.27027 256.9L0.000249655 253.08L0.000249446 255.47L3.19025 259.21ZM7.68024 264.03C7.87024 264.54 8.17027 265.04 8.58027 265.52L12.2803 269.86L23.6903 260.12L19.7803 255.54C19.3203 255 18.8403 254.58 18.3303 254.28C17.8203 253.98 17.2903 253.8 16.7603 253.73C16.2203 253.67 15.6802 253.72 15.1602 253.88C14.6202 254.06 14.1103 254.36 13.6303 254.77C12.9103 255.39 12.4702 256.08 12.3102 256.87C12.1402 257.65 12.2503 258.47 12.6403 259.35C11.9803 259.02 11.3103 258.9 10.6403 258.98C9.98026 259.06 9.34023 259.36 8.73023 259.88C8.29023 260.25 7.96024 260.66 7.74024 261.12C7.51024 261.57 7.40027 262.05 7.40027 262.54C7.38027 263.03 7.47024 263.53 7.68024 264.03ZM14.7402 256.08C15.3802 255.53 16.0503 255.3 16.7603 255.39C17.4603 255.47 18.1103 255.86 18.7103 256.56L21.4603 259.79L17.2603 263.37L14.5103 260.15C13.9303 259.47 13.6603 258.76 13.7103 258.01C13.7503 257.28 14.1002 256.63 14.7402 256.08ZM9.95026 261.06C10.5603 260.55 11.1903 260.31 11.8303 260.36C12.4603 260.41 13.0402 260.74 13.5602 261.35L16.1202 264.34L12.3102 267.6L9.80024 264.67C9.27024 264.05 9.02024 263.42 9.05024 262.78C9.08024 262.13 9.38026 261.56 9.95026 261.06ZM17.4202 274.61C17.6502 275.88 18.2203 277.05 19.1503 278.14C20.0603 279.21 21.1402 279.96 22.3702 280.38C23.5902 280.8 24.8402 280.86 26.1202 280.57C27.4002 280.29 28.6003 279.67 29.7103 278.72C30.8303 277.76 31.6302 276.68 32.1102 275.46C32.5902 274.23 32.7203 272.98 32.5103 271.7C32.2803 270.43 31.7102 269.26 30.8002 268.19C29.8702 267.11 28.8003 266.35 27.5803 265.94C26.3603 265.53 25.1003 265.47 23.8203 265.75C22.5403 266.04 21.3402 266.66 20.2302 267.61C19.1102 268.57 18.3103 269.65 17.8303 270.87C17.3403 272.1 17.2002 273.35 17.4202 274.61ZM19.4202 271.54C19.8202 270.58 20.4702 269.72 21.3702 268.95C22.2702 268.18 23.2302 267.67 24.2302 267.43C25.2202 267.18 26.1903 267.2 27.1303 267.5C28.0603 267.81 28.8803 268.38 29.5903 269.22C30.3103 270.06 30.7502 270.96 30.9102 271.93C31.0502 272.9 30.9303 273.86 30.5303 274.81C30.1203 275.75 29.4703 276.61 28.5703 277.38C27.6703 278.15 26.7202 278.66 25.7202 278.91C24.7202 279.16 23.7603 279.13 22.8403 278.83C21.9003 278.53 21.0702 277.95 20.3502 277.11C19.6402 276.28 19.2102 275.38 19.0602 274.4C18.9002 273.43 19.0202 272.48 19.4202 271.54ZM32.6403 293.69L35.4603 291.39C36.5503 290.51 37.5202 289.75 38.3602 289.12C39.2002 288.48 39.9303 287.95 40.5703 287.55C41.1903 287.14 41.7103 286.83 42.1503 286.62C42.5803 286.41 42.9402 286.29 43.2202 286.25C43.8002 286.18 44.2503 286.35 44.5903 286.74C44.6703 286.83 44.7602 286.98 44.8502 287.18L46.1303 286.45C46.0303 286.13 45.8703 285.84 45.6503 285.58C45.0303 284.86 44.3002 284.52 43.4402 284.57C42.5802 284.62 41.4602 285.06 40.1002 285.89C39.4102 286.31 38.6102 286.85 37.7202 287.51C36.8202 288.17 35.8002 288.96 34.6702 289.88L32.7502 291.41L28.5502 286.5L38.7703 277.77L37.6702 276.48L26.2603 286.22L32.6403 293.69ZM41.7803 304.39L53.1802 294.65L47.0502 287.47L45.8602 288.48L50.8903 294.37L46.6503 297.99L43.1503 293.9L41.9702 294.91L45.4603 299L41.8602 302.08L36.9603 296.35L35.7703 297.36L41.7803 304.39ZM45.8403 309.14L51.0502 304.69C51.7002 305.03 52.2602 305.39 52.7302 305.76C53.1802 306.12 53.6103 306.54 54.0103 307.01C54.8503 307.99 55.2703 308.9 55.2703 309.74C55.2603 310.58 54.7902 311.39 53.8702 312.17L50.7202 314.86L51.8203 316.16L55.2603 313.22C56.4603 312.2 57.0502 311.09 57.0402 309.88C57.0102 308.68 56.4502 307.44 55.3602 306.16C54.9502 305.68 54.4902 305.24 53.9802 304.85C53.4702 304.46 52.8802 304.07 52.2202 303.69L57.2402 299.4L56.1403 298.11L44.7302 307.85L45.8403 309.14Z" fill="#010202"/>
<path d="M282.79 326.179C283.06 326.399 283.35 326.479 283.65 326.439C283.96 326.409 284.22 326.259 284.43 325.989C284.63 325.719 284.71 325.439 284.66 325.129C284.62 324.829 284.46 324.569 284.19 324.359C283.92 324.149 283.62 324.059 283.31 324.089C283.01 324.129 282.76 324.279 282.56 324.549C282.35 324.819 282.26 325.109 282.3 325.409C282.35 325.709 282.51 325.969 282.79 326.179ZM280.63 324.289L281.58 323.059L275.45 318.329L278.85 313.909L283.12 317.199L284.07 315.959L279.81 312.679L282.7 308.919L288.67 313.529L289.62 312.289L282.31 306.649L273.15 318.529L280.63 324.289ZM261.44 309.509L275.79 304.909L268.22 314.729L269.53 315.749L278.69 303.859L277.41 302.869L263.04 307.489L270.62 297.649L269.31 296.639L260.15 308.519L261.44 309.509ZM248.34 299.409L252.72 293.719L259.59 299.019L255.21 304.709L256.56 305.749L265.71 293.869L264.37 292.829L260.55 297.789L253.67 292.489L257.49 287.529L256.14 286.489L246.99 298.369L248.34 299.409ZM244.69 296.599L245.64 295.369L239.51 290.639L242.92 286.219L247.18 289.509L248.13 288.269L243.87 284.989L246.76 281.229L252.73 285.829L253.69 284.599L246.37 278.959L237.21 290.839L244.69 296.599ZM230.89 285.969C231.45 286.399 232 286.709 232.56 286.899C233.13 287.089 233.68 287.159 234.22 287.119C234.76 287.069 235.27 286.899 235.75 286.629C236.24 286.349 236.68 285.959 237.07 285.449C237.64 284.699 237.93 283.929 237.92 283.129C237.93 282.329 237.65 281.539 237.09 280.769C237.8 280.949 238.48 280.939 239.12 280.719C239.76 280.509 240.32 280.079 240.81 279.449C241.16 278.989 241.4 278.519 241.52 278.029C241.65 277.539 241.66 277.049 241.56 276.569C241.48 276.079 241.29 275.619 240.98 275.159C240.69 274.699 240.3 274.279 239.79 273.889L235.27 270.409L226.12 282.289L230.89 285.969ZM235.72 272.619L238.77 274.979C239.42 275.469 239.79 276.039 239.89 276.669C240 277.309 239.83 277.929 239.36 278.539C238.88 279.169 238.31 279.529 237.68 279.609C237.04 279.689 236.41 279.489 235.77 278.999L232.65 276.599L235.72 272.619ZM235.1 280.369C235.8 280.919 236.21 281.559 236.31 282.299C236.43 283.019 236.22 283.729 235.7 284.399C235.19 285.069 234.58 285.429 233.88 285.489C233.17 285.559 232.46 285.309 231.73 284.749L228.37 282.159L231.74 277.779L235.1 280.369ZM215.11 272.769C215.58 273.959 216.38 274.989 217.5 275.859C218.63 276.729 219.84 277.239 221.11 277.399C222.39 277.549 223.63 277.349 224.83 276.799C226.02 276.259 227.07 275.409 227.96 274.239C228.86 273.079 229.41 271.849 229.64 270.559C229.87 269.259 229.74 268.009 229.27 266.819C228.79 265.619 227.98 264.589 226.85 263.719C225.73 262.859 224.53 262.349 223.23 262.189C221.96 262.039 220.72 262.229 219.53 262.769C218.34 263.319 217.29 264.169 216.4 265.329C215.5 266.489 214.94 267.719 214.72 269.009C214.51 270.319 214.64 271.569 215.11 272.769ZM216.4 269.319C216.6 268.319 217.07 267.349 217.79 266.409C218.51 265.469 219.34 264.769 220.26 264.319C221.19 263.869 222.14 263.699 223.1 263.809C224.08 263.909 225.01 264.299 225.89 264.969C226.76 265.639 227.36 266.429 227.71 267.359C228.07 268.269 228.14 269.229 227.94 270.239C227.75 271.249 227.29 272.229 226.57 273.169C225.84 274.109 225.01 274.799 224.08 275.249C223.16 275.699 222.21 275.869 221.23 275.769C220.25 275.659 219.33 275.269 218.47 274.599C217.59 273.929 216.97 273.129 216.62 272.219C216.28 271.299 216.21 270.339 216.4 269.319ZM200.87 262.839L205.25 257.149L212.13 262.449L207.75 268.139L209.09 269.169L218.25 257.289L216.9 256.249L213.08 261.209L206.2 255.909L210.03 250.959L208.68 249.919L199.52 261.799L200.87 262.839ZM188.97 253.669L196.22 251.269L195.88 258.989L197.46 260.209L197.87 250.929L206.44 248.199L204.92 247.019L197.94 249.299L198.27 241.899L196.68 240.679L196.29 249.609L187.5 252.529L188.97 253.669ZM178.39 244.479C178.87 245.679 179.67 246.699 180.79 247.569C181.92 248.439 183.12 248.949 184.4 249.109C185.68 249.259 186.92 249.059 188.11 248.509C189.31 247.969 190.35 247.119 191.25 245.949C192.14 244.789 192.7 243.569 192.92 242.269C193.15 240.969 193.03 239.719 192.55 238.529C192.07 237.329 191.27 236.299 190.14 235.429C189.02 234.569 187.81 234.059 186.52 233.899C185.24 233.749 184.01 233.939 182.82 234.479C181.62 235.029 180.58 235.879 179.68 237.039C178.79 238.209 178.23 239.429 178.01 240.729C177.79 242.029 177.92 243.279 178.39 244.479ZM179.69 241.039C179.89 240.029 180.35 239.059 181.08 238.119C181.8 237.179 182.62 236.479 183.54 236.029C184.48 235.589 185.42 235.419 186.39 235.519C187.37 235.619 188.3 236.009 189.18 236.679C190.04 237.349 190.65 238.149 191 239.069C191.35 239.979 191.43 240.939 191.23 241.949C191.04 242.959 190.58 243.939 189.85 244.879C189.13 245.819 188.3 246.509 187.37 246.959C186.45 247.409 185.5 247.579 184.52 247.479C183.54 247.369 182.62 246.979 181.75 246.319C180.88 245.639 180.26 244.839 179.9 243.929C179.57 243.009 179.49 242.049 179.69 241.039ZM161.08 236.719L163.28 233.869L172.39 240.889L170.19 243.739L171.49 244.739L174.64 240.659L173.14 239.499L181.34 228.849L173.67 222.939L171.39 225.779C170.67 226.659 170.03 227.429 169.45 228.099C168.88 228.769 168.36 229.339 167.89 229.819C167.44 230.299 167.02 230.699 166.65 231.009C166.29 231.319 165.95 231.569 165.64 231.759C165.38 231.919 165.1 232.059 164.81 232.179C164.53 232.279 164.25 232.359 163.96 232.429L162.93 231.639L159.78 235.719L161.08 236.719ZM167.1 232.619C167.68 232.229 168.32 231.699 169.01 231.019C169.49 230.559 170.01 229.999 170.58 229.349C171.15 228.689 171.78 227.949 172.46 227.109L174.02 225.179L179.06 229.059L171.8 238.469L165.34 233.489C165.92 233.299 166.51 233.009 167.1 232.619ZM157.38 229.329C157.94 229.759 158.5 230.069 159.06 230.269C159.62 230.449 160.18 230.519 160.71 230.479C161.26 230.429 161.77 230.269 162.25 229.999C162.73 229.709 163.17 229.319 163.56 228.809C164.14 228.059 164.43 227.289 164.42 226.489C164.43 225.689 164.15 224.909 163.58 224.129C164.3 224.319 164.98 224.299 165.62 224.079C166.25 223.869 166.82 223.439 167.31 222.809C167.65 222.359 167.89 221.879 168.02 221.389C168.15 220.899 168.16 220.409 168.06 219.929C167.98 219.449 167.78 218.979 167.48 218.519C167.19 218.069 166.79 217.639 166.29 217.249L161.77 213.769L152.61 225.649L157.38 229.329ZM162.21 215.979L165.27 218.339C165.92 218.839 166.29 219.399 166.39 220.029C166.5 220.669 166.32 221.299 165.86 221.899C165.37 222.529 164.81 222.889 164.17 222.969C163.54 223.059 162.9 222.849 162.27 222.359L159.15 219.959L162.21 215.979ZM161.59 223.739C162.3 224.279 162.71 224.919 162.81 225.659C162.92 226.389 162.72 227.089 162.2 227.759C161.69 228.429 161.08 228.789 160.37 228.859C159.67 228.919 158.95 228.669 158.22 228.109L154.86 225.519L158.23 221.149L161.59 223.739ZM141.84 217.349L143.19 218.389L151.39 207.739L155.21 210.689L156.16 209.449L147.19 202.539L146.24 203.779L150.04 206.709L141.84 217.349ZM136.99 213.619L137.95 212.379L131.82 207.659L135.22 203.239L139.48 206.519L140.43 205.289L136.17 201.999L139.07 198.249L145.04 202.849L145.99 201.609L138.67 195.969L129.52 207.859L136.99 213.619ZM118.16 199.099L122.87 196.189L127.59 199.829L125.98 205.129L127.41 206.229L132 190.829L130.51 189.689L116.81 198.059L118.16 199.099ZM130.04 191.769L128.07 198.259L124.27 195.329L130.04 191.769ZM112.07 194.409C112.63 194.839 113.19 195.159 113.74 195.349C114.31 195.529 114.86 195.599 115.4 195.559C115.94 195.509 116.45 195.349 116.93 195.079C117.42 194.799 117.86 194.399 118.25 193.899C118.83 193.149 119.11 192.369 119.1 191.579C119.11 190.779 118.83 189.989 118.27 189.219C118.99 189.399 119.66 189.379 120.3 189.169C120.94 188.949 121.5 188.529 121.99 187.889C122.34 187.439 122.58 186.969 122.7 186.469C122.83 185.979 122.84 185.499 122.74 185.009C122.66 184.529 122.47 184.059 122.16 183.609C121.87 183.149 121.48 182.729 120.97 182.329L116.46 178.859L107.3 190.739L112.07 194.409ZM116.9 181.069L119.96 183.419C120.6 183.919 120.97 184.479 121.07 185.119C121.19 185.759 121.01 186.379 120.55 186.979C120.06 187.619 119.5 187.969 118.86 188.059C118.22 188.139 117.59 187.939 116.96 187.449L113.83 185.039L116.9 181.069ZM116.28 188.819C116.99 189.359 117.39 189.999 117.5 190.739C117.61 191.469 117.41 192.169 116.89 192.849C116.37 193.509 115.76 193.879 115.06 193.939C114.35 193.999 113.64 193.749 112.91 193.189L109.55 190.599L112.92 186.229L116.28 188.819ZM103.69 187.959L112.85 176.079L111.5 175.039L102.35 186.919L103.69 187.959ZM96.3101 182.269C96.9701 182.769 97.6202 183.139 98.2802 183.359C98.9302 183.579 99.5701 183.659 100.18 183.609C100.8 183.549 101.38 183.359 101.93 183.039C102.49 182.729 102.99 182.279 103.44 181.699C103.85 181.169 104.13 180.609 104.31 180.019C104.49 179.429 104.54 178.829 104.46 178.219C104.38 177.599 104.15 176.999 103.76 176.399C103.4 175.799 102.87 175.229 102.16 174.679L99.7201 172.799L103.03 168.509L101.68 167.469L92.5202 179.349L96.3101 182.269ZM101.24 175.939C102.09 176.599 102.59 177.349 102.74 178.189C102.9 179.029 102.67 179.849 102.06 180.639C101.45 181.429 100.72 181.869 99.8601 181.949C99.0201 182.019 98.1701 181.729 97.3101 181.069L94.8201 179.149L98.7702 174.039L101.24 175.939ZM85.2301 173.729L86.5802 174.769L94.7802 164.119L98.6001 167.069L99.5501 165.829L90.5802 158.919L89.6301 160.159L93.4301 163.089L85.2301 173.729ZM71.2001 162.919L85.5501 158.329L77.9901 168.149L79.3001 169.159L88.4602 157.279L87.1701 156.289L72.8101 160.909L80.3902 151.069L79.0802 150.049L69.9201 161.939L71.2001 162.919ZM58.2901 152.969L66.4901 142.329L73.1801 147.479L64.9701 158.119L66.3201 159.159L75.4801 147.279L66.1001 140.049L56.9401 151.929L58.2901 152.969ZM50.6201 147.059C51.1801 147.489 51.7401 147.799 52.2901 147.999C52.8601 148.179 53.4101 148.249 53.9501 148.209C54.4901 148.159 55.0001 147.999 55.4801 147.729C55.9701 147.449 56.4101 147.049 56.8001 146.549C57.3701 145.799 57.6602 145.019 57.6502 144.219C57.6602 143.419 57.3801 142.639 56.8201 141.869C57.5401 142.049 58.2101 142.029 58.8501 141.819C59.4901 141.599 60.0501 141.179 60.5401 140.539C60.8901 140.089 61.1301 139.609 61.2501 139.119C61.3801 138.629 61.3901 138.139 61.2901 137.659C61.2101 137.179 61.0202 136.709 60.7102 136.259C60.4202 135.799 60.0302 135.369 59.5202 134.979L55.0001 131.499L45.8501 143.389L50.6201 147.059ZM55.4502 133.709L58.5001 136.069C59.1501 136.569 59.5201 137.129 59.6201 137.769C59.7301 138.409 59.5602 139.029 59.0902 139.629C58.6102 140.259 58.0401 140.619 57.4101 140.699C56.7701 140.789 56.1401 140.579 55.5001 140.099L52.3801 137.689L55.4502 133.709ZM54.8302 141.469C55.5302 142.009 55.9401 142.649 56.0501 143.389C56.1601 144.119 55.9501 144.819 55.4301 145.499C54.9201 146.159 54.3101 146.529 53.6101 146.589C52.9001 146.649 52.1902 146.399 51.4602 145.839L48.1001 143.249L51.4701 138.879L54.8302 141.469ZM33.2901 137.499L37.5802 134.489L36.0701 133.329L32.2702 136.709L33.2901 137.499ZM33.1402 133.589L34.0902 132.359L27.9602 127.629L31.3601 123.209L35.6301 126.499L36.5802 125.259L32.3201 121.979L35.2102 118.219L41.1801 122.819L42.1301 121.589L34.8101 115.949L25.6601 127.829L33.1402 133.589ZM15.8701 120.279L20.2002 114.659L21.8902 115.969L22.0101 125.019L23.6301 126.269L23.5601 116.189L32.6601 114.289L31.0302 113.029L22.9101 114.749L21.1601 113.409L25.0202 108.399L23.6801 107.359L14.5202 119.249L15.8701 120.279ZM3.51015 109.729C3.99015 110.919 4.78017 111.949 5.90017 112.809C7.03017 113.679 8.24015 114.189 9.51015 114.349C10.8002 114.499 12.0301 114.299 13.2301 113.759C14.4201 113.209 15.4701 112.359 16.3601 111.199C17.2601 110.039 17.8201 108.809 18.0401 107.519C18.2701 106.209 18.1401 104.959 17.6701 103.769C17.1901 102.579 16.3901 101.549 15.2501 100.669C14.1401 99.8093 12.9301 99.2993 11.6301 99.1493C10.3601 98.9893 9.12013 99.1793 7.93013 99.7293C6.74013 100.269 5.69013 101.119 4.80013 102.289C3.90013 103.449 3.34014 104.679 3.12014 105.969C2.91014 107.269 3.04015 108.519 3.51015 109.729ZM4.80013 106.279C5.00013 105.269 5.47014 104.299 6.19014 103.359C6.92014 102.419 7.74011 101.719 8.66011 101.269C9.59011 100.829 10.5401 100.659 11.5001 100.759C12.4801 100.859 13.4101 101.249 14.2901 101.929C15.1601 102.589 15.7601 103.389 16.1101 104.309C16.4701 105.229 16.5402 106.189 16.3402 107.189C16.1502 108.209 15.6901 109.179 14.9701 110.119C14.2401 111.059 13.4201 111.759 12.4801 112.199C11.5601 112.649 10.6101 112.829 9.63015 112.729C8.65015 112.609 7.73014 112.229 6.87014 111.559C5.99014 110.879 5.38016 110.089 5.02016 109.169C4.68016 108.259 4.61013 107.289 4.80013 106.279ZM0.000141962 98.9093L3.78017 93.9993L7.60012 96.9493L8.55013 95.7093L0.000142818 89.1193L0.000142645 91.0993L2.43014 92.9693L0.000142206 96.1193L0.000141962 98.9093V98.9093Z" fill="#010202"/>
<path d="M357.2 145L480 74.55L480 73.39L357.36 143.75L319.86 106.75L402.75 0.749993L401.49 0.749993L319.07 106.14L318.52 106.84L357.2 145ZM315.5 29.19L316.23 29.47L336.4 0.749987L335.18 0.749987L315.86 28.25L244.16 0.749979L241.35 0.749979L315.5 29.19ZM330.72 328.65L330.86 328.75L480 328.75L480 327.75L331.2 327.75L2.22421e-05 74.3299L2.2132e-05 75.59L330.72 328.65ZM46.86 328.75L4.86071e-06 273.15L4.7252e-06 274.7L44.71 327.75L8.74228e-08 327.75L0 328.75L46.86 328.75Z" fill="#010202"/>
<path d="M28.61 353.75L30.5701 348.57L36.5301 348.57L38.4901 353.75L40.29 353.75L34.5301 338.75L32.6501 338.75L26.91 353.75L28.61 353.75ZM33.55 340.69L35.9501 347.03L31.1501 347.03L33.55 340.69ZM20.92 353.75C21.63 353.75 22.2601 353.66 22.8201 353.47C23.3801 353.27 23.8601 352.99 24.2601 352.63C24.6601 352.26 24.9701 351.82 25.1801 351.31C25.4001 350.79 25.5001 350.21 25.5001 349.57C25.5001 348.63 25.2601 347.84 24.7601 347.21C24.2801 346.57 23.58 346.12 22.66 345.85C23.34 345.56 23.8701 345.13 24.2401 344.57C24.6201 344.01 24.8 343.33 24.8 342.53C24.8 341.96 24.7001 341.44 24.5001 340.97C24.3001 340.51 24.0201 340.11 23.6401 339.79C23.2801 339.46 22.8401 339.21 22.3201 339.03C21.8201 338.85 21.24 338.75 20.6 338.75L14.9001 338.75L14.9001 353.75L20.92 353.75ZM16.6 340.23L20.4601 340.23C21.2801 340.23 21.9201 340.45 22.3801 340.89C22.8601 341.33 23.1 341.93 23.1 342.69C23.1 343.49 22.88 344.12 22.42 344.57C21.97 345.03 21.34 345.25 20.54 345.25L16.6 345.25L16.6 340.23ZM16.6 346.75L20.8401 346.75C21.7401 346.75 22.45 347.01 22.98 347.53C23.52 348.04 23.7801 348.72 23.7801 349.57C23.7801 350.41 23.5201 351.07 23.0001 351.55C22.4801 352.03 21.7601 352.27 20.8401 352.27L16.6 352.27L16.6 346.75ZM5.70007 340.31L5.70007 353.75L7.40009 353.75L7.40009 340.31L12.22 340.31L12.22 338.75L0.900087 338.75L0.900087 340.31L5.70007 340.31Z" fill="#010202"/>
<path d="M476.34 353.75L478.3 348.57L480 348.57L480 347.03L478.88 347.03L480 344.07L480 339.74L474.64 353.75L476.34 353.75ZM460.01 357.35L460.01 353.75L471.51 353.75L471.51 357.35L473.15 357.35L473.15 352.19L471.25 352.19L471.25 338.75L461.57 338.75L461.49 342.39C461.46 343.53 461.42 344.53 461.37 345.41C461.33 346.29 461.27 347.07 461.19 347.73C461.12 348.39 461.03 348.95 460.93 349.43C460.83 349.9 460.72 350.3 460.59 350.63C460.48 350.93 460.35 351.21 460.19 351.47C460.03 351.73 459.85 351.97 459.67 352.19L458.37 352.19L458.37 357.35L460.01 357.35ZM462.27 350.43C462.49 349.77 462.67 348.95 462.81 347.99C462.9 347.34 462.97 346.58 463.03 345.71C463.08 344.85 463.12 343.87 463.15 342.79L463.21 340.31L469.57 340.31L469.57 352.19L461.41 352.19C461.75 351.69 462.04 351.1 462.27 350.43ZM446.05 353.75L448.01 348.57L453.97 348.57L455.93 353.75L457.73 353.75L451.97 338.75L450.09 338.75L444.35 353.75L446.05 353.75ZM450.99 340.69L453.39 347.03L448.59 347.03L450.99 340.69ZM429.68 353.91C430.63 353.91 431.36 353.57 431.88 352.89C432.4 352.2 432.79 351.07 433.04 349.49C433.17 348.69 433.28 347.74 433.36 346.63C433.44 345.51 433.5 344.23 433.54 342.77L433.62 340.31L440.08 340.31L440.08 353.75L441.78 353.75L441.78 338.75L431.96 338.75L431.88 342.39C431.84 343.79 431.79 345.02 431.72 346.07C431.67 347.13 431.59 348.03 431.48 348.77C431.39 349.51 431.28 350.11 431.16 350.57C431.04 351.04 430.9 351.39 430.74 351.63C430.42 352.11 430 352.35 429.48 352.35C429.36 352.35 429.19 352.33 428.98 352.27L428.7 353.71C429.01 353.85 429.33 353.91 429.68 353.91ZM422.84 353.75C423.54 353.75 424.18 353.66 424.74 353.47C425.3 353.27 425.78 352.99 426.18 352.63C426.58 352.26 426.88 351.82 427.1 351.31C427.31 350.79 427.42 350.21 427.42 349.57C427.42 348.63 427.17 347.84 426.68 347.21C426.2 346.57 425.5 346.12 424.58 345.85C425.26 345.56 425.78 345.13 426.16 344.57C426.53 344.01 426.72 343.33 426.72 342.53C426.72 341.96 426.62 341.44 426.42 340.97C426.22 340.51 425.93 340.11 425.56 339.79C425.2 339.46 424.76 339.21 424.24 339.03C423.73 338.85 423.16 338.75 422.52 338.75L416.82 338.75L416.82 353.75L422.84 353.75ZM418.52 340.23L422.38 340.23C423.19 340.23 423.83 340.45 424.3 340.89C424.78 341.33 425.02 341.93 425.02 342.69C425.02 343.49 424.79 344.12 424.34 344.57C423.88 345.03 423.26 345.25 422.46 345.25L418.52 345.25L418.52 340.23ZM418.52 346.75L422.76 346.75C423.65 346.75 424.36 347.01 424.9 347.53C425.43 348.04 425.7 348.72 425.7 349.57C425.7 350.41 425.44 351.07 424.92 351.55C424.4 352.03 423.68 352.27 422.76 352.27L418.52 352.27L418.52 346.75ZM399.68 350.19C400.31 351.35 401.18 352.27 402.28 352.93C403.39 353.59 404.65 353.91 406.06 353.91C407.49 353.91 408.76 353.59 409.86 352.93C410.97 352.27 411.83 351.35 412.44 350.19C413.06 349.03 413.36 347.72 413.36 346.25C413.36 344.79 413.06 343.47 412.44 342.31C411.83 341.14 410.97 340.23 409.86 339.57C408.76 338.92 407.49 338.59 406.06 338.59C404.65 338.59 403.38 338.93 402.26 339.59C401.16 340.25 400.3 341.15 399.68 342.31C399.07 343.47 398.76 344.79 398.76 346.25C398.76 347.72 399.07 349.03 399.68 350.19ZM401.2 343.09C401.67 342.17 402.32 341.46 403.14 340.95C403.98 340.43 404.96 340.17 406.06 340.17C407.16 340.17 408.12 340.43 408.96 340.95C409.8 341.46 410.45 342.17 410.9 343.09C411.37 344.01 411.6 345.07 411.6 346.25C411.6 347.44 411.37 348.49 410.9 349.41C410.45 350.33 409.8 351.05 408.96 351.57C408.12 352.08 407.16 352.33 406.06 352.33C404.96 352.33 403.98 352.08 403.14 351.57C402.32 351.05 401.67 350.33 401.2 349.41C400.75 348.49 400.52 347.44 400.52 346.25C400.52 345.07 400.75 344.01 401.2 343.09ZM383.9 350.19C384.51 351.35 385.37 352.27 386.46 352.93C387.57 353.6 388.83 353.93 390.24 353.93C391.4 353.93 392.44 353.73 393.36 353.31C394.29 352.89 395.06 352.29 395.66 351.51C396.27 350.74 396.7 349.83 396.94 348.79L395.22 348.37C395.09 349.15 394.8 349.83 394.36 350.43C393.92 351.03 393.35 351.51 392.64 351.85C391.93 352.19 391.13 352.35 390.24 352.35C389.12 352.35 388.15 352.09 387.32 351.55C386.49 351.01 385.86 350.27 385.42 349.35C384.98 348.42 384.76 347.39 384.76 346.25C384.76 345.13 384.98 344.11 385.42 343.19C385.87 342.26 386.51 341.53 387.34 340.99C388.17 340.45 389.13 340.17 390.24 340.17C391.52 340.17 392.58 340.53 393.42 341.25C394.26 341.96 394.81 342.91 395.06 344.09L396.76 343.65C396.55 342.64 396.14 341.75 395.54 340.99C394.95 340.23 394.21 339.65 393.3 339.23C392.39 338.81 391.37 338.59 390.24 338.59C388.85 338.59 387.61 338.93 386.5 339.59C385.41 340.26 384.55 341.18 383.92 342.35C383.31 343.51 383 344.81 383 346.25C383 347.71 383.3 349.02 383.9 350.19ZM367.44 353.75L367.44 346.65L369.58 346.65L375.2 353.75L377.24 353.75L371.04 345.81L377.08 338.75L375.02 338.75L369.64 345.07L367.44 345.07L367.44 338.75L365.74 338.75L365.74 353.75L367.44 353.75ZM351.5 353.75L353.46 348.57L359.42 348.57L361.38 353.75L363.18 353.75L357.42 338.75L355.54 338.75L349.8 353.75L351.5 353.75ZM356.44 340.69L358.84 347.03L354.04 347.03L356.44 340.69ZM338.98 353.75L338.98 346.65L341.12 346.65L346.74 353.75L348.78 353.75L342.58 345.81L348.62 338.75L346.56 338.75L341.18 345.07L338.98 345.07L338.98 338.75L337.28 338.75L337.28 353.75L338.98 353.75Z" fill="#010202"/>
</svg>
