<svg width="480" height="391" viewBox="0 0 480 391" fill="none" xmlns="http://www.w3.org/2000/svg">
<path d="M0 390.75L480 390.75L480 0.75L3.40949e-05 0.749958L0 390.75Z" fill="white"/>
<path d="M-6.08612e-05 114.75L4.19995 113.33L5.34995 116.74L6.90994 116.21L5.25995 111.32L3.45993 111.93L-5.97194e-05 101.69L-6.01802e-05 106.96L1.85992 112.47L-6.07169e-05 113.1L-6.08612e-05 114.75ZM8.54993 111.86L17.4899 108.84L16.9899 107.36L9.65994 109.84L7.86994 104.55L12.9699 102.83L12.4699 101.35L7.36994 103.07L5.85993 98.5802L12.9999 96.1702L12.4999 94.6902L3.74994 97.6503L8.54993 111.86ZM24.4099 106.5L26.0199 105.96L23.7199 99.1602L31.9399 96.3802L34.2399 103.18L35.8499 102.64L31.0499 88.4302L29.4399 88.9702L31.4399 94.9003L23.2199 97.6802L21.2199 91.7502L19.6099 92.2902L24.4099 106.5ZM39.8699 101.28L40.0699 95.7502L45.7199 93.8403L49.23 98.1202L50.9399 97.5502L40.6799 85.1802L38.8999 85.7803L38.26 101.83L39.8699 101.28ZM40.3699 87.3303L44.67 92.5702L40.1299 94.1002L40.3699 87.3303ZM49.42 90.1402C49.89 91.5202 50.5899 92.6703 51.5399 93.5903C52.4899 94.4903 53.5899 95.0802 54.8399 95.3602C56.0999 95.6402 57.3999 95.5502 58.7399 95.1002C59.8399 94.7302 60.7599 94.2002 61.4999 93.5102C62.2499 92.8102 62.7799 92.0002 63.0999 91.0702C63.4399 90.1402 63.5499 89.1503 63.4399 88.0903L61.6799 88.2402C61.7999 89.0102 61.7499 89.7602 61.5199 90.4702C61.2999 91.1802 60.9099 91.8102 60.3499 92.3602C59.7899 92.9002 59.0799 93.3202 58.2399 93.6002C57.1699 93.9602 56.1699 94.0203 55.2099 93.7803C54.2499 93.5303 53.4199 93.0302 52.7099 92.3002C51.9899 91.5602 51.4499 90.6503 51.0899 89.5803C50.7299 88.5203 50.6199 87.4802 50.7399 86.4702C50.8699 85.4402 51.2399 84.5403 51.8499 83.7703C52.4599 82.9903 53.2899 82.4202 54.3399 82.0602C55.5499 81.6502 56.67 81.6602 57.7 82.0702C58.72 82.4702 59.5399 83.1902 60.1599 84.2402L61.6299 83.2703C61.0999 82.3803 60.4299 81.6703 59.6199 81.1503C58.8199 80.6103 57.9299 80.3002 56.9399 80.1902C55.9399 80.0802 54.9099 80.2002 53.8299 80.5702C52.5199 81.0102 51.4399 81.7303 50.6099 82.7103C49.7899 83.6903 49.2699 84.8403 49.0499 86.1503C48.8399 87.4503 48.96 88.7802 49.42 90.1402ZM71.9599 90.4502L73.5699 89.9003L71.2799 83.1002L79.4999 80.3202L81.7999 87.1202L83.4099 86.5803L78.6099 72.3702L76.9999 72.9102L78.9999 78.8403L70.7799 81.6202L68.7699 75.6902L67.1599 76.2302L71.9599 90.4502ZM87.7099 85.1302L96.6499 82.1102L96.1599 80.6302L88.8199 83.1102L87.04 77.8202L92.1299 76.1002L91.6299 74.6202L86.54 76.3403L85.0199 71.8502L92.1599 69.4402L91.67 67.9603L82.9099 70.9202L87.7099 85.1302ZM93.5999 68.9503L98.1499 67.4202L102.45 80.1503L104.06 79.6102L99.76 66.8702L104.33 65.3303L103.83 63.8502L93.0999 67.4802L93.5999 68.9503ZM108.43 77.1002C108.54 77.4302 108.73 77.6602 109 77.7902C109.28 77.9202 109.59 77.9302 109.92 77.8202C110.25 77.7102 110.48 77.5202 110.61 77.2502C110.76 76.9702 110.77 76.6703 110.66 76.3403C110.56 76.0303 110.36 75.8002 110.08 75.6702C109.81 75.5402 109.51 75.5303 109.18 75.6403C108.85 75.7503 108.62 75.9402 108.47 76.2202C108.34 76.4902 108.32 76.7802 108.43 77.1002ZM118.32 74.7902L127.26 71.7703L126.76 70.2902L119.43 72.7703L117.64 67.4802L122.74 65.7603L122.24 64.2902L117.14 66.0102L115.63 61.5203L122.77 59.1002L122.27 57.6302L113.52 60.5803L118.32 74.7902ZM130.01 70.8403L146.8 65.1702L147.95 68.5903L149.51 68.0602L147.86 63.1702L146.06 63.7803L141.76 51.0502L140.14 51.5903L144.44 64.3202L138.59 66.3002L134.29 53.5702L132.68 54.1102L136.98 66.8403L131.12 68.8202L126.82 56.0903L125.21 56.6302L130.01 70.8403ZM151.16 63.7003L160.11 60.6802L159.61 59.2003L152.27 61.6802L150.49 56.3903L155.59 54.6702L155.09 53.1902L149.99 54.9202L148.47 50.4202L155.62 48.0103L155.12 46.5303L146.36 49.4902L151.16 63.7003ZM162.23 63.1302L163.44 62.7202L163.32 57.4902L161.52 58.0903L162.23 63.1302Z" fill="#010202"/>
<path d="M176.5 78.4193L175.46 79.7593L187.27 89.0093L191.02 84.2193C191.44 83.6693 191.75 83.1093 191.94 82.5193C192.11 81.9493 192.18 81.3793 192.13 80.8193C192.08 80.2793 191.92 79.7493 191.64 79.2393C191.35 78.7293 190.96 78.2793 190.46 77.8893C190 77.5293 189.52 77.2593 189.02 77.0993C188.53 76.9493 188.04 76.8793 187.55 76.9093C187.06 76.9493 186.58 77.0793 186.13 77.2893C185.67 77.5093 185.24 77.7993 184.85 78.1693L182.49 70.7693L181.3 72.2993L183.63 79.5793L181.48 82.3193L176.5 78.4193ZM185.42 79.8093C185.95 79.1393 186.57 78.7493 187.3 78.6493C188.02 78.5493 188.71 78.7593 189.37 79.2793C190.04 79.7893 190.41 80.4093 190.48 81.1293C190.55 81.8693 190.32 82.5793 189.78 83.2693L187.09 86.7093L182.71 83.2793L185.42 79.8093ZM163.69 94.7993L162.64 96.1393L174.46 105.379L181.75 96.0593L169.94 86.8093L168.89 88.1493L179.48 96.4293L174.28 103.079L163.69 94.7993ZM154.89 111.819C155.43 113.019 156.27 114.069 157.43 114.969C158.58 115.879 159.81 116.439 161.1 116.669C162.4 116.909 163.65 116.799 164.85 116.329C166.04 115.859 167.08 115.069 167.96 113.939C168.83 112.829 169.35 111.629 169.51 110.329C169.68 109.059 169.5 107.819 168.96 106.629C168.43 105.429 167.58 104.379 166.43 103.469C165.27 102.569 164.05 101.999 162.76 101.769C161.46 101.549 160.2 101.669 159 102.129C157.8 102.599 156.77 103.389 155.9 104.499C155.02 105.629 154.49 106.819 154.33 108.099C154.17 109.379 154.36 110.619 154.89 111.819ZM155.95 108.229C156.07 107.249 156.47 106.339 157.14 105.479C157.82 104.599 158.62 103.989 159.54 103.639C160.46 103.309 161.42 103.249 162.43 103.449C163.44 103.659 164.41 104.129 165.34 104.859C166.28 105.589 166.97 106.419 167.41 107.339C167.85 108.279 168.01 109.229 167.9 110.189C167.79 111.169 167.4 112.099 166.72 112.969C166.04 113.829 165.24 114.429 164.31 114.769C163.4 115.119 162.44 115.189 161.43 114.979C160.42 114.779 159.45 114.319 158.51 113.589C157.58 112.849 156.89 112.019 156.46 111.089C156.01 110.159 155.84 109.209 155.95 108.229ZM142.88 123.919L144.05 122.429L154.64 130.709L160.6 123.089L157.79 120.779C156.91 120.059 156.14 119.409 155.48 118.819C154.81 118.249 154.24 117.729 153.77 117.249C153.29 116.799 152.9 116.379 152.59 115.999C152.28 115.639 152.03 115.299 151.85 114.989C151.69 114.729 151.55 114.449 151.44 114.159C151.34 113.879 151.25 113.589 151.19 113.309L151.99 112.279L147.93 109.099L146.92 110.389L149.75 112.609L142.66 121.669L139.83 119.449L138.82 120.739L142.88 123.919ZM150.12 114.679C150.3 115.259 150.59 115.849 150.97 116.439C151.36 117.029 151.89 117.669 152.56 118.369C153.02 118.839 153.57 119.369 154.22 119.949C154.87 120.519 155.61 121.149 156.45 121.839L158.36 123.419L154.44 128.419L145.09 121.099L150.12 114.679ZM145.15 142.829L146.26 141.409L141.73 132.249L151.91 134.199L153.07 132.719L140.78 130.339L138.87 126.509L137.77 127.929L145.15 142.829ZM123.12 146.649L134.93 155.889L136.05 154.459L133.94 146.149L142.56 146.139L143.68 144.709L131.87 135.459L130.86 136.759L140.81 144.549L132.28 144.549L132.05 144.849L134.12 153.169L124.13 145.359L123.12 146.649ZM128.65 163.919L129.81 162.439L121.53 148.669L120.49 150.009L123.36 154.749L119.69 159.439L114.4 157.789L113.29 159.209L128.65 163.919ZM124.21 156.149L127.73 161.949L121.26 159.929L124.21 156.149ZM105.62 169.009L104.57 170.349L116.38 179.599L122.43 171.859L119.62 169.559C118.54 168.659 117.61 167.859 116.82 167.159C116.02 166.469 115.36 165.849 114.84 165.309C114.32 164.779 113.91 164.329 113.62 163.949C113.32 163.569 113.13 163.239 113.04 162.959C112.86 162.419 112.93 161.939 113.25 161.529C113.33 161.429 113.45 161.319 113.62 161.179L112.66 160.079C112.37 160.239 112.11 160.449 111.9 160.719C111.32 161.469 111.13 162.259 111.35 163.089C111.57 163.919 112.23 164.929 113.31 166.089C113.86 166.689 114.54 167.359 115.37 168.109C116.2 168.859 117.17 169.699 118.29 170.629L120.18 172.209L116.2 177.299L105.62 169.009ZM94.1002 189.509C94.6302 190.709 95.4802 191.759 96.6302 192.659C97.7902 193.569 99.0102 194.139 100.3 194.369C101.61 194.609 102.85 194.489 104.05 194.019C105.25 193.559 106.29 192.759 107.16 191.639C108.04 190.519 108.55 189.319 108.72 188.029C108.89 186.749 108.7 185.519 108.17 184.319C107.63 183.119 106.79 182.069 105.63 181.169C104.48 180.259 103.25 179.689 101.96 179.459C100.66 179.239 99.4102 179.359 98.2002 179.819C97.0002 180.289 95.9702 181.079 95.1002 182.189C94.2202 183.319 93.7002 184.519 93.5302 185.789C93.3702 187.069 93.5602 188.309 94.1002 189.509ZM95.1502 185.919C95.2702 184.949 95.6702 184.029 96.3402 183.169C97.0302 182.299 97.8202 181.689 98.7402 181.339C99.6602 181.009 100.63 180.939 101.64 181.139C102.64 181.349 103.61 181.819 104.55 182.549C105.48 183.279 106.17 184.109 106.62 185.029C107.05 185.969 107.22 186.919 107.11 187.879C107 188.859 106.6 189.789 105.92 190.659C105.25 191.519 104.45 192.119 103.52 192.459C102.6 192.809 101.64 192.879 100.64 192.669C99.6302 192.469 98.6502 192.009 97.7202 191.279C96.7802 190.549 96.1002 189.709 95.6602 188.779C95.2202 187.859 95.0502 186.899 95.1502 185.919ZM93.6302 206.139L90.6602 209.939L91.8902 210.899L98.8602 201.989L97.6302 201.019L94.6802 204.799L84.0902 196.519L83.0402 197.859L93.6302 206.139ZM73.8002 215.439C74.3402 216.639 75.1802 217.689 76.3402 218.599C77.4902 219.499 78.7202 220.069 80.0102 220.299C81.3102 220.539 82.5602 220.429 83.7602 219.959C84.9502 219.489 85.9902 218.689 86.8702 217.569C87.7402 216.459 88.2602 215.249 88.4302 213.959C88.5902 212.689 88.4102 211.449 87.8702 210.249C87.3402 209.049 86.4902 207.999 85.3402 207.099C84.1802 206.199 82.9602 205.629 81.6702 205.399C80.3702 205.169 79.1102 205.289 77.9102 205.749C76.7102 206.219 75.6802 207.009 74.8102 208.129C73.9302 209.249 73.4002 210.449 73.2402 211.719C73.0802 213.009 73.2702 214.249 73.8002 215.439ZM74.8602 211.849C74.9802 210.879 75.3802 209.959 76.0502 209.099C76.7302 208.229 77.5302 207.619 78.4502 207.269C79.3702 206.939 80.3302 206.869 81.3402 207.069C82.3502 207.279 83.3202 207.749 84.2502 208.489C85.1902 209.219 85.8802 210.039 86.3202 210.969C86.7602 211.899 86.9202 212.849 86.8102 213.809C86.7002 214.799 86.3102 215.719 85.6302 216.599C84.9502 217.459 84.1502 218.059 83.2302 218.399C82.3102 218.749 81.3502 218.819 80.3402 218.609C79.3302 218.409 78.3602 217.939 77.4202 217.209C76.4902 216.479 75.8002 215.649 75.3702 214.709C74.9202 213.789 74.7502 212.839 74.8602 211.849ZM59.5502 227.879L71.3702 237.119L72.4902 235.689L70.3802 227.379L79.0002 227.369L80.1202 225.939L68.3102 216.689L67.2902 217.989L77.2502 225.779L68.7202 225.779L68.4802 226.079L70.5502 234.399L60.5602 226.589L59.5502 227.879ZM57.6002 233.619L58.7702 232.129L55.4102 228.299L54.6202 229.309L57.6002 233.619ZM57.0702 255.389L58.1202 254.049L52.7202 249.829C52.9202 249.129 53.1602 248.509 53.4302 247.969C53.7002 247.459 54.0202 246.949 54.4002 246.469C55.2002 245.449 56.0102 244.859 56.8302 244.689C57.6502 244.539 58.5402 244.829 59.4902 245.579L62.7502 248.129L63.8002 246.789L60.2402 244.009C59.0002 243.039 57.7902 242.679 56.6202 242.919C55.4402 243.189 54.3402 243.989 53.3002 245.309C52.9102 245.809 52.5702 246.349 52.2902 246.929C52.0102 247.499 51.7502 248.149 51.5002 248.879L46.3002 244.809L45.2602 246.149L57.0702 255.389ZM50.1902 261.659L47.2202 265.449L48.4502 266.409L55.4202 257.499L54.1902 256.539L51.2402 260.319L40.6502 252.029L39.6002 253.369L50.1902 261.659ZM30.3602 270.959C30.9002 272.149 31.7502 273.209 32.9002 274.109C34.0602 275.009 35.2802 275.579 36.5702 275.809C37.8702 276.049 39.1202 275.939 40.3202 275.469C41.5102 274.999 42.5502 274.199 43.4302 273.079C44.3002 271.969 44.8202 270.769 44.9902 269.469C45.1502 268.199 44.9702 266.959 44.4302 265.759C43.9002 264.569 43.0502 263.519 41.9002 262.609C40.7402 261.709 39.5202 261.139 38.2302 260.909C36.9302 260.689 35.6702 260.809 34.4702 261.269C33.2702 261.739 32.2402 262.529 31.3702 263.639C30.4902 264.759 29.9602 265.959 29.8002 267.239C29.6402 268.519 29.8302 269.759 30.3602 270.959ZM31.4202 267.369C31.5402 266.389 31.9402 265.469 32.6102 264.609C33.2902 263.739 34.0902 263.129 35.0102 262.779C35.9302 262.449 36.8902 262.389 37.9102 262.589C38.9102 262.799 39.8802 263.269 40.8102 263.999C41.7502 264.729 42.4402 265.559 42.8802 266.479C43.3202 267.419 43.4802 268.359 43.3702 269.329C43.2602 270.309 42.8702 271.239 42.1902 272.109C41.5102 272.969 40.7102 273.569 39.7902 273.909C38.8702 274.259 37.9102 274.329 36.9102 274.119C35.8902 273.919 34.9202 273.449 33.9902 272.719C33.0502 271.989 32.3602 271.159 31.9302 270.219C31.4802 269.299 31.3102 268.349 31.4202 267.369ZM25.2102 273.359C25.4702 273.559 25.7602 273.639 26.0702 273.589C26.3702 273.559 26.6202 273.399 26.8402 273.129C27.0502 272.859 27.1402 272.559 27.1102 272.249C27.0802 271.949 26.9302 271.699 26.6702 271.499C26.3902 271.279 26.1102 271.189 25.8102 271.229C25.5002 271.279 25.2402 271.439 25.0302 271.709C24.8102 271.979 24.7202 272.269 24.7602 272.569C24.7902 272.879 24.9402 273.139 25.2102 273.359ZM22.4402 276.889C22.7102 277.099 22.9902 277.179 23.3002 277.129C23.6002 277.089 23.8502 276.939 24.0702 276.669C24.2802 276.389 24.3702 276.099 24.3502 275.789C24.3102 275.489 24.1602 275.239 23.9002 275.029C23.6202 274.819 23.3402 274.729 23.0402 274.769C22.7302 274.819 22.4702 274.979 22.2602 275.249C22.0402 275.519 21.9502 275.809 21.9902 276.109C22.0202 276.419 22.1702 276.679 22.4402 276.889ZM19.6802 280.429C19.9402 280.639 20.2202 280.719 20.5302 280.669C20.8302 280.629 21.0902 280.479 21.3002 280.199C21.5102 279.929 21.6102 279.639 21.5802 279.329C21.5402 279.029 21.3902 278.779 21.1302 278.569C20.8602 278.359 20.5702 278.269 20.2702 278.309C19.9602 278.349 19.7002 278.509 19.4902 278.789C19.2802 279.059 19.1902 279.349 19.2202 279.649C19.2502 279.959 19.4002 280.219 19.6802 280.429ZM7.88019 293.909L6.83017 295.249L18.6502 304.499L25.9402 295.169L14.1302 285.929L13.0802 287.269L23.6702 295.549L18.4602 302.199L7.88019 293.909ZM7.65018 303.819L5.34018 306.769C4.89018 307.339 4.57019 307.939 4.38019 308.549C4.19019 309.179 4.1202 309.789 4.1702 310.369C4.2302 310.959 4.4102 311.519 4.7002 312.059C5.0002 312.589 5.40018 313.059 5.90018 313.449C6.41018 313.849 6.96019 314.129 7.54019 314.279C8.12019 314.439 8.70019 314.479 9.29019 314.379C9.87019 314.289 10.4302 314.079 10.9802 313.739C11.5302 313.409 12.0302 312.949 12.4902 312.359L15.8402 308.079L4.03018 298.829L2.9802 300.169L7.65018 303.819ZM13.5702 308.449L11.2602 311.399C10.6502 312.189 9.96019 312.639 9.19019 312.749C8.43019 312.879 7.68018 312.659 6.96018 312.099C6.26018 311.549 5.86017 310.869 5.77017 310.069C5.69017 309.299 5.95019 308.509 6.57019 307.729L8.87018 304.779L13.5702 308.449ZM0.000183227 321.139L4.53018 322.529L5.69019 321.049L0.000184063 311.579L0.000183773 314.889L0.0901801 314.769L3.61017 320.559L0.000183376 319.439L0.000183227 321.139V321.139Z" fill="#010202"/>
<path d="M375.25 390.75L376.07 388.14L384.41 390.75L389.33 390.75L389.4 390.53L375.09 386.05L373.62 390.75L375.25 390.75V390.75ZM375.8 383.77L388.13 381.66L391.27 384.57L391.8 382.85L379.63 371.52L379.1 373.23L386.58 380.21L376.36 381.98L375.8 383.77ZM380.85 367.62L380.35 369.24L394.66 373.72L399.88 357.05L385.56 352.57L385.05 354.2L397.88 358.21L396.03 364.11L383.21 360.1L382.7 361.72L395.53 365.73L393.68 371.63L380.85 367.62ZM386.92 348.23L401.24 352.71L401.72 351.16L392.44 339.29L404.28 343L404.77 341.41L390.46 336.93L389.97 338.48L399.27 350.36L387.42 346.65L386.92 348.23ZM392.75 334.83L394.18 330.25L407.01 334.27L407.52 332.64L394.69 328.63L396.13 324.03L394.64 323.56L391.26 334.37L392.75 334.83ZM409.79 325.39L412.61 316.38L411.12 315.91L408.81 323.3L403.48 321.63L405.09 316.5L403.6 316.03L401.99 321.16L397.47 319.75L399.72 312.55L398.23 312.09L395.47 320.91L409.79 325.39ZM403.13 308.64C404.45 309.1 405.6 309.51 406.59 309.89C407.58 310.26 408.41 310.6 409.09 310.93C409.77 311.24 410.31 311.52 410.72 311.77C411.13 312.03 411.42 312.26 411.6 312.49C411.97 312.94 412.07 313.41 411.91 313.91C411.88 314.02 411.8 314.17 411.69 314.36L412.98 315.06C413.2 314.8 413.36 314.51 413.46 314.18C413.75 313.28 413.64 312.48 413.15 311.78C412.64 311.07 411.67 310.37 410.25 309.65C409.52 309.29 408.65 308.9 407.61 308.5C406.57 308.08 405.36 307.64 403.98 307.17L401.66 306.36L403.59 300.19L416.42 304.21L416.92 302.59L402.61 298.11L399.68 307.48L403.13 308.64ZM418.29 298.23L419.72 293.67C419.96 292.88 420.08 292.14 420.05 291.45C420.03 290.75 419.89 290.13 419.63 289.57C419.36 289.01 418.98 288.53 418.49 288.13C418.01 287.71 417.42 287.39 416.72 287.17C416.08 286.97 415.46 286.9 414.84 286.94C414.22 286.97 413.64 287.13 413.1 287.42C412.55 287.71 412.06 288.14 411.63 288.7C411.19 289.25 410.84 289.95 410.57 290.8L409.65 293.74L404.48 292.12L403.97 293.75L418.29 298.23ZM412.07 291.23C412.4 290.2 412.92 289.47 413.66 289.05C414.4 288.61 415.24 288.54 416.2 288.83C417.15 289.13 417.82 289.67 418.19 290.44C418.55 291.21 418.57 292.11 418.24 293.14L417.31 296.14L411.14 294.21L412.07 291.23ZM408.39 279.64L407.88 281.26L422.2 285.74L422.7 284.12L415.85 281.97L418.44 273.69L425.3 275.83L425.8 274.21L411.49 269.73L410.98 271.35L416.96 273.22L414.36 281.51L408.39 279.64ZM426.56 271.78L427.07 270.16L422.71 266.74L424.49 261.06L430.02 260.73L430.56 259.02L414.52 260.03L413.96 261.83L426.56 271.78ZM422.85 261.15L421.42 265.73L416.08 261.55L422.85 261.15ZM417.65 252.86C418.02 253.87 418.73 254.68 419.8 255.29L420.58 253.93C419.83 253.49 419.31 252.94 419.05 252.27C418.78 251.6 418.78 250.85 419.04 250.01C419.3 249.19 419.7 248.61 420.25 248.25C420.8 247.87 421.43 247.8 422.14 248.02C422.56 248.15 422.9 248.36 423.16 248.63C423.42 248.9 423.62 249.19 423.77 249.52C423.9 249.84 424.06 250.27 424.24 250.82C424.42 251.39 424.6 251.86 424.77 252.22C424.93 252.58 425.17 252.92 425.47 253.23C425.77 253.54 426.17 253.77 426.66 253.92L427.37 254.14L427.85 252.62L427.2 252.41C426.75 252.27 426.43 252.02 426.22 251.65C426.01 251.27 425.79 250.73 425.57 250.04C425.38 249.41 425.2 248.88 425.02 248.46C424.83 248.04 424.54 247.64 424.16 247.27C423.77 246.9 423.26 246.61 422.62 246.41C421.87 246.18 421.16 246.16 420.5 246.36C419.84 246.54 419.27 246.91 418.77 247.47C418.28 248.01 417.91 248.69 417.65 249.51C417.27 250.72 417.27 251.83 417.65 252.86ZM429.96 254.91C430.1 255.18 430.33 255.36 430.65 255.46C430.98 255.56 431.28 255.55 431.54 255.41C431.81 255.25 432 255.01 432.1 254.68C432.21 254.35 432.19 254.05 432.05 253.78C431.91 253.5 431.68 253.31 431.35 253.21C431.03 253.11 430.74 253.14 430.47 253.29C430.2 253.43 430.01 253.66 429.91 253.99C429.81 254.33 429.82 254.63 429.96 254.91Z" fill="#010202"/>
<path d="M86.9299 390.75L88.4899 390.75L88.0799 388.19L91.1999 390.75L93.7799 390.75L87.9599 386.02L86.3299 386.96L86.9299 390.75ZM100.29 390.75L102.25 390.75L100.55 387.8L108.08 383.48L111.66 389.7L113.13 388.86L105.65 375.85L104.18 376.7L107.3 382.13L99.7699 386.45L96.6599 381.02L95.1799 381.87L100.29 390.75ZM117.07 386.59L121.21 384.21C121.93 383.8 122.51 383.33 122.97 382.81C123.42 382.29 123.74 381.74 123.93 381.15C124.11 380.56 124.16 379.94 124.07 379.32C124 378.68 123.78 378.05 123.41 377.41C123.08 376.83 122.67 376.35 122.19 375.97C121.72 375.56 121.18 375.29 120.59 375.14C119.98 374.97 119.34 374.96 118.64 375.08C117.95 375.19 117.21 375.46 116.44 375.91L113.77 377.44L111.07 372.74L109.59 373.59L117.07 386.59ZM117.25 377.24C118.19 376.7 119.07 376.52 119.9 376.71C120.74 376.89 121.41 377.41 121.91 378.28C122.4 379.14 122.53 379.99 122.28 380.81C122.02 381.62 121.42 382.29 120.49 382.83L117.76 384.39L114.54 378.79L117.25 377.24ZM127.53 371.93C128.26 373.2 129.18 374.19 130.29 374.89C131.41 375.58 132.62 375.94 133.91 375.97C135.2 375.98 136.45 375.64 137.68 374.93C138.91 374.22 139.85 373.31 140.48 372.19C141.11 371.06 141.4 369.84 141.36 368.53C141.31 367.22 140.92 365.93 140.19 364.65C139.46 363.38 138.54 362.4 137.43 361.7C136.31 360.99 135.11 360.62 133.83 360.61C132.54 360.59 131.28 360.94 130.04 361.65C128.82 362.35 127.89 363.28 127.25 364.41C126.61 365.53 126.32 366.74 126.37 368.05C126.41 369.37 126.8 370.66 127.53 371.93ZM128.69 365.15C129.16 364.28 129.87 363.57 130.83 363.02C131.78 362.48 132.75 362.22 133.73 362.25C134.71 362.27 135.63 362.57 136.48 363.14C137.35 363.71 138.07 364.5 138.66 365.53C139.26 366.56 139.58 367.59 139.63 368.62C139.7 369.64 139.49 370.59 139.03 371.46C138.55 372.32 137.84 373.02 136.89 373.56C135.93 374.11 134.96 374.38 133.98 374.36C133 374.32 132.08 374.02 131.22 373.45C130.37 372.88 129.65 372.08 129.06 371.05C128.47 370.02 128.14 369 128.07 367.97C128.02 366.94 128.22 366 128.69 365.15ZM140.26 360.18L141.83 359.7C141.54 358.85 141.58 358.07 141.94 357.35C142.3 356.64 142.89 356.04 143.72 355.56C144.64 355.04 145.47 354.82 146.23 354.91C146.99 355 147.57 355.39 147.96 356.08C148.36 356.77 148.46 357.43 148.25 358.06C148.05 358.68 147.56 359.22 146.76 359.68L144.85 360.78L145.63 362.13L147.6 360.99C148.51 360.47 149.3 360.29 149.98 360.43C150.67 360.56 151.23 360.99 151.65 361.73C152.12 362.54 152.18 363.34 151.83 364.13C151.49 364.9 150.84 365.57 149.86 366.13C148.88 366.69 147.96 366.93 147.09 366.85C146.24 366.75 145.47 366.3 144.78 365.48L143.55 366.67C144.46 367.77 145.54 368.38 146.77 368.49C148.01 368.59 149.3 368.26 150.62 367.49C151.33 367.09 151.92 366.63 152.39 366.11C152.87 365.58 153.23 365.04 153.45 364.46C153.67 363.89 153.76 363.3 153.72 362.69C153.68 362.08 153.5 361.49 153.16 360.91C152.72 360.15 152.17 359.61 151.49 359.29C150.81 358.96 150.06 358.88 149.23 359.04C149.65 358.4 149.87 357.75 149.9 357.09C149.93 356.41 149.76 355.75 149.4 355.12C149.1 354.61 148.73 354.2 148.28 353.89C147.82 353.59 147.31 353.39 146.75 353.32C146.18 353.25 145.58 353.28 144.94 353.43C144.3 353.57 143.64 353.84 142.96 354.23C142.39 354.56 141.9 354.94 141.47 355.38C141.04 355.81 140.71 356.28 140.46 356.79C140.23 357.3 140.09 357.84 140.05 358.41C140.01 358.98 140.08 359.57 140.26 360.18ZM158.32 362.89L159.79 362.04L156.21 355.81L163.74 351.49L167.32 357.71L168.79 356.87L161.32 343.86L159.84 344.71L162.96 350.14L155.44 354.46L152.32 349.03L150.84 349.88L158.32 362.89ZM170.99 355.6L172.47 354.75L171.59 349.29L176.75 346.32L181.03 349.83L182.59 348.93L170.13 338.8L168.5 339.74L170.99 355.6ZM175.48 345.27L171.32 347.66L170.24 340.97L175.48 345.27ZM177.63 339.7C178.41 341.07 179.4 341.85 180.58 342.07C181.77 342.26 183.09 341.94 184.55 341.1C185.1 340.78 185.62 340.41 186.09 339.98C186.57 339.55 187.06 339.05 187.56 338.47L190.84 344.19L192.32 343.35L184.84 330.34L183.37 331.19L186.79 337.14C186.33 337.71 185.88 338.19 185.43 338.59C184.99 338.96 184.5 339.31 183.97 339.61C182.84 340.26 181.87 340.5 181.04 340.34C180.23 340.18 179.52 339.58 178.91 338.52L176.85 334.93L175.38 335.78L177.63 339.7ZM194.53 342.07L196.01 341.23L195.12 335.76L200.29 332.79L204.57 336.3L206.13 335.41L193.66 325.27L192.03 326.21L194.53 342.07ZM199.02 331.74L194.86 334.13L193.78 327.44L199.02 331.74ZM208.44 334.08L216.63 329.38L215.85 328.02L209.14 331.88L206.36 327.04L211.02 324.36L210.24 323.01L205.58 325.69L203.22 321.58L209.76 317.82L208.98 316.47L200.97 321.07L208.44 334.08ZM211.07 317.07L215.23 314.68L221.93 326.33L223.4 325.48L216.71 313.83L220.89 311.43L220.11 310.07L210.29 315.71L211.07 317.07ZM229.03 313.6C229.76 314.86 230.67 315.84 231.78 316.56C232.89 317.26 234.08 317.63 235.36 317.66C236.65 317.69 237.91 317.35 239.14 316.65C240.14 316.07 240.94 315.37 241.53 314.55C242.13 313.72 242.5 312.82 242.63 311.85C242.78 310.87 242.69 309.87 242.38 308.85L240.68 309.34C240.95 310.08 241.05 310.82 240.96 311.56C240.88 312.3 240.62 312.99 240.18 313.65C239.73 314.29 239.12 314.83 238.35 315.28C237.38 315.83 236.4 316.09 235.42 316.04C234.43 315.98 233.52 315.66 232.68 315.08C231.83 314.49 231.12 313.7 230.56 312.72C230 311.75 229.68 310.75 229.61 309.74C229.53 308.7 229.72 307.75 230.17 306.87C230.62 305.99 231.32 305.27 232.28 304.72C233.39 304.08 234.49 303.86 235.58 304.07C236.66 304.26 237.6 304.81 238.41 305.71L239.67 304.48C238.98 303.71 238.18 303.15 237.28 302.79C236.4 302.42 235.46 302.28 234.47 302.38C233.47 302.46 232.48 302.78 231.49 303.35C230.29 304.04 229.38 304.95 228.75 306.08C228.13 307.2 227.85 308.43 227.89 309.76C227.93 311.07 228.32 312.35 229.03 313.6ZM247.39 311.7L248.86 310.85L245.33 304.69L247.18 303.63L255.59 306.98L257.36 305.97L248.03 302.17L249.75 293.04L247.96 294.07L246.45 302.23L244.54 303.32L241.39 297.84L239.92 298.69L247.39 311.7ZM254.5 298.96C255.23 300.23 256.15 301.22 257.26 301.92C258.38 302.61 259.59 302.97 260.88 303C262.17 303.01 263.42 302.67 264.65 301.96C265.88 301.25 266.82 300.34 267.45 299.22C268.08 298.09 268.37 296.87 268.33 295.56C268.28 294.25 267.89 292.95 267.16 291.68C266.43 290.41 265.51 289.43 264.4 288.73C263.28 288.01 262.08 287.65 260.8 287.64C259.51 287.62 258.25 287.97 257.01 288.68C255.79 289.38 254.86 290.3 254.22 291.44C253.58 292.56 253.29 293.77 253.34 295.08C253.38 296.39 253.77 297.69 254.5 298.96ZM255.66 292.18C256.13 291.31 256.84 290.6 257.8 290.05C258.75 289.5 259.72 289.25 260.7 289.28C261.68 289.3 262.6 289.6 263.45 290.17C264.32 290.73 265.04 291.53 265.63 292.56C266.23 293.59 266.55 294.62 266.6 295.65C266.67 296.67 266.46 297.62 266 298.49C265.52 299.35 264.81 300.05 263.86 300.59C262.9 301.14 261.93 301.41 260.95 301.39C259.97 301.35 259.05 301.05 258.19 300.48C257.34 299.91 256.62 299.11 256.03 298.08C255.44 297.05 255.11 296.03 255.04 295C254.99 293.97 255.19 293.03 255.66 292.18ZM273.89 296.46L275.36 295.62L272.41 290.49L275.66 288.62C276.29 288.26 276.81 287.83 277.22 287.33C277.63 286.82 277.93 286.28 278.1 285.72C278.26 285.15 278.31 284.56 278.24 283.96C278.16 283.35 277.97 282.77 277.65 282.22C277.33 281.65 276.92 281.19 276.44 280.84C275.97 280.46 275.44 280.21 274.86 280.08C274.29 279.95 273.69 279.93 273.05 280.04C272.42 280.14 271.78 280.38 271.13 280.75L266.42 283.46L273.89 296.46ZM271.91 282.1C272.78 281.6 273.59 281.45 274.34 281.63C275.09 281.79 275.7 282.28 276.16 283.07C276.6 283.85 276.72 284.62 276.5 285.39C276.29 286.15 275.75 286.77 274.88 287.27L271.64 289.13L268.67 283.97L271.91 282.1ZM276.04 277.93L286.53 284.75L286.86 289.01L288.42 288.11L287.17 271.53L285.61 272.43L286.38 282.62L277.67 276.99L276.04 277.93ZM296.72 283.35L298.19 282.5L294.66 276.36L297.04 275C297.61 275.88 298.28 276.62 299.05 277.21C299.82 277.78 300.65 278.18 301.52 278.42C302.39 278.65 303.3 278.71 304.23 278.59C305.17 278.47 306.09 278.15 306.98 277.63C307.91 277.1 308.67 276.44 309.25 275.66C309.84 274.88 310.23 274.03 310.45 273.12C310.67 272.22 310.7 271.27 310.54 270.28C310.39 269.29 310.04 268.32 309.49 267.36C308.94 266.4 308.27 265.6 307.5 264.97C306.71 264.33 305.87 263.87 304.98 263.6C304.09 263.33 303.16 263.26 302.2 263.38C301.23 263.49 300.28 263.81 299.34 264.35C298.5 264.84 297.79 265.43 297.22 266.12C296.67 266.81 296.26 267.57 295.99 268.4C295.74 269.21 295.63 270.06 295.68 270.95C295.73 271.83 295.94 272.72 296.31 273.61L293.89 275.01L290.72 269.49L289.24 270.34L296.72 283.35ZM297.49 269.2C297.65 268.49 297.96 267.84 298.4 267.25C298.84 266.64 299.41 266.13 300.13 265.72C300.85 265.31 301.58 265.07 302.32 264.99C303.05 264.91 303.76 264.98 304.44 265.2C305.14 265.42 305.79 265.78 306.39 266.3C306.99 266.81 307.52 267.46 307.96 268.23C308.41 269.01 308.7 269.78 308.84 270.57C308.98 271.35 308.97 272.09 308.81 272.8C308.66 273.5 308.37 274.15 307.93 274.76C307.49 275.35 306.91 275.85 306.19 276.26C305.47 276.68 304.75 276.93 304.01 277.01C303.27 277.08 302.55 277.01 301.86 276.79C301.17 276.57 300.53 276.2 299.93 275.69C299.33 275.17 298.8 274.53 298.36 273.75C297.91 272.98 297.62 272.2 297.48 271.42C297.34 270.64 297.34 269.9 297.49 269.2ZM315.34 263.99C316.07 265.25 316.98 266.24 318.09 266.96C319.2 267.66 320.39 268.02 321.67 268.06C322.96 268.08 324.22 267.75 325.45 267.04C326.45 266.46 327.25 265.77 327.84 264.95C328.44 264.11 328.81 263.21 328.94 262.24C329.09 261.27 329.01 260.27 328.7 259.25L327 259.74C327.27 260.48 327.36 261.21 327.28 261.95C327.19 262.69 326.93 263.39 326.49 264.04C326.05 264.68 325.44 265.23 324.66 265.67C323.69 266.23 322.71 266.48 321.73 266.43C320.74 266.37 319.83 266.05 318.99 265.47C318.14 264.88 317.44 264.1 316.87 263.11C316.31 262.14 316 261.15 315.92 260.13C315.85 259.1 316.04 258.14 316.49 257.27C316.93 256.38 317.63 255.66 318.59 255.11C319.7 254.47 320.8 254.26 321.89 254.46C322.97 254.66 323.91 255.21 324.72 256.11L325.98 254.88C325.29 254.11 324.49 253.54 323.6 253.18C322.71 252.81 321.77 252.68 320.78 252.77C319.78 252.85 318.79 253.18 317.8 253.74C316.6 254.43 315.69 255.34 315.06 256.47C314.44 257.59 314.16 258.82 314.2 260.15C314.25 261.46 314.63 262.74 315.34 263.99ZM333.7 262.09L335.12 261.27L328.82 250.31L336.73 253.52L337.06 253.33L338.27 244.84L344.59 255.83L346.01 255.02L338.54 242.01L336.96 242.92L335.8 251.41L327.8 248.18L326.23 249.09L333.7 262.09ZM349.97 252.74L358.16 248.03L357.38 246.68L350.67 250.54L347.89 245.7L352.56 243.02L351.78 241.67L347.11 244.35L344.75 240.24L351.29 236.48L350.51 235.13L342.5 239.73L349.97 252.74ZM360.68 246.59L362.15 245.74L359.2 240.61L362.44 238.74C363.08 238.38 363.6 237.95 364.01 237.45C364.42 236.94 364.71 236.4 364.88 235.84C365.05 235.27 365.09 234.68 365.02 234.08C364.95 233.47 364.76 232.89 364.44 232.34C364.11 231.77 363.71 231.31 363.23 230.96C362.75 230.59 362.22 230.34 361.64 230.21C361.07 230.07 360.47 230.06 359.84 230.16C359.21 230.26 358.57 230.5 357.92 230.87L353.2 233.58L360.68 246.59ZM358.7 232.22C359.56 231.73 360.37 231.57 361.12 231.75C361.88 231.92 362.49 232.4 362.95 233.2C363.39 233.97 363.5 234.74 363.29 235.51C363.07 236.27 362.53 236.89 361.67 237.39L358.42 239.26L355.45 234.09L358.7 232.22ZM363.97 229.2L368.13 226.8L374.83 238.46L376.3 237.61L369.6 225.96L373.78 223.56L373 222.2L363.19 227.84L363.97 229.2ZM382.81 233.87L386.95 231.49C387.67 231.07 388.26 230.61 388.71 230.09C389.16 229.56 389.48 229.01 389.67 228.43C389.85 227.83 389.9 227.22 389.81 226.59C389.74 225.95 389.52 225.32 389.16 224.68C388.83 224.11 388.42 223.62 387.94 223.24C387.46 222.84 386.92 222.56 386.33 222.41C385.73 222.25 385.08 222.23 384.38 222.35C383.69 222.46 382.95 222.73 382.18 223.18L379.51 224.71L376.81 220.02L375.34 220.86L382.81 233.87ZM382.99 224.51C383.93 223.97 384.81 223.8 385.64 223.98C386.48 224.16 387.15 224.68 387.65 225.55C388.15 226.42 388.27 227.26 388.02 228.08C387.76 228.89 387.17 229.57 386.23 230.1L383.51 231.67L380.29 226.07L382.99 224.51ZM386.47 218.64L387.97 218.17C387.71 217.33 387.71 216.58 387.97 215.91C388.23 215.24 388.74 214.68 389.5 214.24C390.24 213.82 390.93 213.66 391.58 213.76C392.24 213.86 392.75 214.24 393.12 214.88C393.34 215.27 393.45 215.65 393.46 216.03C393.47 216.39 393.42 216.75 393.3 217.09C393.19 217.42 393.01 217.84 392.77 218.36C392.51 218.91 392.33 219.37 392.2 219.75C392.08 220.13 392.03 220.54 392.03 220.98C392.05 221.4 392.18 221.84 392.44 222.29L392.81 222.93L394.2 222.13L393.86 221.54C393.63 221.14 393.56 220.73 393.66 220.32C393.76 219.89 393.96 219.35 394.28 218.7C394.56 218.1 394.79 217.59 394.94 217.16C395.09 216.72 395.15 216.24 395.11 215.7C395.08 215.16 394.9 214.61 394.57 214.03C394.18 213.35 393.67 212.85 393.05 212.55C392.44 212.24 391.76 212.12 391.02 212.19C390.29 212.26 389.56 212.51 388.82 212.93C387.72 213.56 386.96 214.38 386.54 215.39C386.13 216.38 386.1 217.47 386.47 218.64ZM394.32 226.12C394.49 226.42 394.73 226.61 395.02 226.69C395.32 226.76 395.62 226.71 395.92 226.54C396.22 226.37 396.41 226.13 396.49 225.84C396.58 225.55 396.54 225.25 396.37 224.95C396.2 224.66 395.97 224.48 395.66 224.4C395.37 224.33 395.08 224.37 394.78 224.55C394.48 224.72 394.28 224.95 394.19 225.25C394.11 225.54 394.16 225.83 394.32 226.12Z" fill="#010202"/>
<path d="M177.84 64.56L178.86 63.25L-9.86384e-05 122.72L-9.87311e-05 123.78L176.03 65.25L-0.000113293 290.35L-0.000113435 291.97L177.84 64.56ZM128.64 390.75L411.64 228.39L360.87 390.75L361.92 390.75L413.36 226.25L126.62 390.75L128.64 390.75Z" fill="#010202"/>
</svg>
