<svg width="481" height="391" viewBox="0 0 481 391" fill="none" xmlns="http://www.w3.org/2000/svg">
<path d="M0 390.75L480 390.75L480 0.75L3.40949e-05 0.749958L0 390.75Z" fill="white"/>
<path d="M127.22 312.99L131.76 309.01L130.77 307.88L126.23 311.86L127.22 312.99ZM132.07 304.67C132.37 305.95 133.01 307.14 133.98 308.24C134.94 309.34 136.04 310.13 137.26 310.6C138.5 311.08 139.75 311.2 141.01 310.96C142.27 310.72 143.44 310.13 144.51 309.19C145.58 308.26 146.31 307.18 146.71 305.94C147.12 304.72 147.17 303.47 146.86 302.19C146.56 300.92 145.93 299.73 144.96 298.62C143.99 297.52 142.9 296.73 141.67 296.26C140.44 295.8 139.18 295.69 137.91 295.92C136.65 296.15 135.48 296.74 134.42 297.67C133.35 298.61 132.61 299.69 132.21 300.91C131.81 302.14 131.77 303.39 132.07 304.67ZM133.78 301.34C134.08 300.4 134.64 299.58 135.46 298.86C136.29 298.13 137.19 297.68 138.16 297.51C139.12 297.35 140.08 297.47 141.04 297.85C141.99 298.25 142.85 298.89 143.63 299.78C144.42 300.67 144.94 301.62 145.21 302.61C145.46 303.61 145.44 304.57 145.16 305.49C144.87 306.44 144.31 307.28 143.47 308.01C142.65 308.73 141.75 309.17 140.78 309.33C139.81 309.5 138.86 309.39 137.91 309C136.95 308.61 136.08 307.97 135.3 307.08C134.52 306.19 134 305.24 133.74 304.24C133.48 303.25 133.49 302.28 133.78 301.34ZM147.8 294.49C147.49 295.07 147.31 295.66 147.26 296.24C147.21 296.83 147.28 297.42 147.47 298C147.65 298.57 147.96 299.11 148.38 299.59C148.81 300.08 149.3 300.45 149.84 300.7C150.38 300.98 150.94 301.12 151.54 301.13C152.12 301.15 152.72 301.05 153.32 300.82C153.92 300.6 154.5 300.24 155.06 299.75L159.15 296.16L149.27 284.88L147.99 286L151.89 290.45L149.08 292.91C148.53 293.4 148.1 293.92 147.8 294.49ZM152.92 291.62L156.85 296.11L154.03 298.57C153.28 299.23 152.52 299.54 151.74 299.51C150.97 299.5 150.28 299.15 149.67 298.45C149.09 297.78 148.82 297.05 148.89 296.25C148.95 295.47 149.35 294.75 150.11 294.09L152.92 291.62ZM153.97 280.76L152.69 281.88L162.57 293.17L171.48 285.37L161.6 274.08L160.32 275.2L169.17 285.31L162.82 290.87L153.97 280.76ZM169.31 270.57C169.49 271.1 169.8 271.61 170.22 272.09C170.84 272.8 171.55 273.23 172.33 273.38C173.11 273.54 173.94 273.42 174.81 273.02C174.49 273.68 174.37 274.35 174.46 275.02C174.55 275.69 174.86 276.32 175.38 276.92C175.76 277.35 176.18 277.68 176.64 277.9C177.09 278.12 177.57 278.23 178.06 278.22C178.55 278.23 179.05 278.13 179.55 277.92C180.06 277.73 180.55 277.42 181.03 277L185.32 273.24L175.44 261.96L170.91 265.93C170.38 266.39 169.96 266.88 169.67 267.39C169.38 267.91 169.2 268.43 169.14 268.97C169.08 269.51 169.14 270.05 169.31 270.57ZM183.07 273.25L180.16 275.79C179.55 276.33 178.92 276.59 178.28 276.56C177.63 276.55 177.06 276.25 176.56 275.68C176.03 275.08 175.79 274.46 175.83 273.82C175.87 273.18 176.19 272.6 176.8 272.07L179.76 269.47L183.07 273.25ZM171.95 266.99L175.13 264.19L178.77 268.35L175.58 271.14C174.91 271.73 174.2 272 173.46 271.96C172.72 271.93 172.07 271.6 171.51 270.95C170.96 270.32 170.72 269.66 170.79 268.95C170.87 268.25 171.25 267.59 171.95 266.99Z" fill="#010202"/>
<path d="M163.77 234.96L169.25 235.72L170.58 241.53L165.96 244.59L166.36 246.35L179.71 237.4L179.29 235.57L163.39 233.3L163.77 234.96ZM177.6 236.87L171.95 240.62L170.88 235.94L177.6 236.87ZM162.06 227.47C162.22 228.16 162.45 228.75 162.75 229.26C163.07 229.76 163.45 230.17 163.89 230.48C164.35 230.78 164.84 230.98 165.39 231.08C165.94 231.17 166.53 231.15 167.15 231C168.08 230.79 168.79 230.38 169.29 229.76C169.81 229.15 170.09 228.37 170.15 227.41C170.59 228.01 171.12 228.43 171.75 228.66C172.38 228.9 173.08 228.94 173.86 228.76C174.42 228.63 174.91 228.42 175.32 228.12C175.73 227.82 176.05 227.45 176.28 227.02C176.52 226.59 176.67 226.11 176.72 225.56C176.79 225.03 176.76 224.45 176.61 223.82L175.35 218.27L160.72 221.6L162.06 227.47ZM174.28 220.25L175.14 224.01C175.32 224.81 175.25 225.48 174.92 226.03C174.6 226.6 174.07 226.97 173.33 227.14C172.55 227.31 171.89 227.23 171.34 226.89C170.8 226.55 170.44 225.99 170.26 225.21L169.39 221.37L174.28 220.25ZM167.92 221.7L168.87 225.83C169.07 226.71 168.97 227.46 168.58 228.09C168.21 228.73 167.6 229.14 166.77 229.33C165.95 229.51 165.25 229.41 164.67 229.01C164.08 228.61 163.69 227.96 163.48 227.06L162.54 222.93L167.92 221.7ZM158.68 212.62L159.05 214.28L172.16 211.29L173.23 215.99L174.75 215.64L172.23 204.61L170.71 204.95L171.78 209.63L158.68 212.62ZM155.73 200.49C155.98 201.62 156.42 202.59 157.02 203.39C157.65 204.21 158.4 204.82 159.29 205.24C160.18 205.66 161.16 205.88 162.23 205.88L162.25 204.11C161.47 204.15 160.74 204.02 160.05 203.73C159.37 203.43 158.78 202.98 158.29 202.37C157.81 201.75 157.47 201.01 157.27 200.14C157.02 199.05 157.06 198.04 157.4 197.11C157.75 196.19 158.32 195.4 159.12 194.77C159.93 194.14 160.89 193.69 162 193.44C163.09 193.19 164.13 193.18 165.13 193.4C166.14 193.64 166.99 194.1 167.7 194.79C168.41 195.47 168.9 196.35 169.14 197.43C169.43 198.68 169.31 199.79 168.8 200.77C168.29 201.75 167.49 202.49 166.39 203L167.2 204.56C168.14 204.13 168.91 203.53 169.52 202.78C170.13 202.04 170.54 201.18 170.74 200.21C170.95 199.23 170.93 198.18 170.68 197.08C170.37 195.73 169.77 194.59 168.88 193.66C167.98 192.74 166.9 192.1 165.61 191.75C164.34 191.41 163.01 191.4 161.61 191.72C160.19 192.05 158.97 192.63 157.96 193.48C156.97 194.33 156.27 195.37 155.86 196.58C155.46 197.81 155.41 199.11 155.73 200.49ZM153.91 191.73L155.43 191.38L153.71 183.83L159.16 182.59L160.35 187.84L161.87 187.49L160.68 182.25L165.3 181.19L166.97 188.54L168.49 188.2L166.44 179.19L151.82 182.52L153.91 191.73ZM155.85 173.12C156.12 173.7 156.45 174.31 156.86 174.96L150.43 176.43L150.8 178.08L165.43 174.75L165.05 173.09L158.36 174.62C157.95 174.01 157.62 173.44 157.37 172.89C157.14 172.36 156.96 171.79 156.82 171.19C156.54 169.93 156.59 168.93 156.98 168.18C157.37 167.45 158.16 166.95 159.34 166.68L163.38 165.76L163 164.1L158.6 165.11C157.06 165.46 156.02 166.17 155.47 167.23C154.94 168.31 154.86 169.67 155.23 171.31C155.37 171.93 155.58 172.54 155.85 173.12ZM146.01 157.04L151.78 155.73L152.61 159.37C152.77 160.09 153.03 160.71 153.39 161.25C153.76 161.79 154.19 162.23 154.67 162.56C155.17 162.88 155.72 163.1 156.32 163.21C156.92 163.32 157.53 163.3 158.15 163.16C158.79 163.01 159.35 162.76 159.83 162.41C160.32 162.06 160.72 161.63 161.01 161.11C161.3 160.61 161.49 160.04 161.58 159.4C161.67 158.77 161.63 158.08 161.46 157.36L160.26 152.05L145.63 155.39L146.01 157.04ZM159.11 154.06L159.94 157.7C160.17 158.68 160.08 159.5 159.68 160.16C159.3 160.84 158.67 161.28 157.77 161.48C156.9 161.68 156.13 161.56 155.45 161.13C154.79 160.7 154.36 160 154.13 159.03L153.3 155.38L159.11 154.06ZM143.09 144.94C143.4 146.33 144 147.49 144.89 148.42C145.78 149.36 146.86 149.99 148.13 150.33C149.4 150.67 150.75 150.68 152.18 150.35C153.61 150.03 154.82 149.44 155.81 148.58C156.82 147.72 157.52 146.68 157.91 145.46C158.3 144.23 158.34 142.92 158.02 141.53C157.71 140.16 157.1 138.99 156.2 138.05C155.32 137.12 154.25 136.48 152.98 136.14C151.71 135.8 150.36 135.79 148.93 136.12C147.5 136.44 146.29 137.03 145.29 137.89C144.3 138.76 143.61 139.81 143.2 141.03C142.81 142.26 142.77 143.56 143.09 144.94ZM144.72 141.57C145.04 140.65 145.6 139.86 146.39 139.2C147.19 138.55 148.17 138.1 149.32 137.83C150.48 137.57 151.56 137.56 152.56 137.79C153.56 138.05 154.39 138.52 155.07 139.21C155.77 139.91 156.24 140.81 156.48 141.88C156.72 142.95 156.69 143.95 156.37 144.89C156.06 145.82 155.51 146.61 154.71 147.25C153.92 147.91 152.94 148.37 151.79 148.64C150.63 148.9 149.55 148.91 148.55 148.66C147.55 148.42 146.71 147.95 146.01 147.24C145.33 146.54 144.87 145.65 144.63 144.59C144.38 143.51 144.41 142.5 144.72 141.57ZM140.09 131.07C140.25 131.76 140.48 132.36 140.78 132.86C141.1 133.36 141.48 133.77 141.92 134.08C142.38 134.39 142.87 134.59 143.42 134.68C143.97 134.78 144.56 134.75 145.18 134.61C146.11 134.4 146.82 133.98 147.32 133.36C147.84 132.75 148.12 131.97 148.18 131.01C148.62 131.61 149.15 132.03 149.78 132.27C150.41 132.51 151.11 132.54 151.89 132.36C152.45 132.23 152.94 132.02 153.35 131.72C153.76 131.42 154.08 131.06 154.31 130.62C154.55 130.2 154.7 129.71 154.75 129.17C154.82 128.63 154.79 128.05 154.64 127.43L153.38 121.87L138.75 125.2L140.09 131.07ZM152.31 123.86L153.17 127.62C153.35 128.41 153.28 129.09 152.95 129.64C152.63 130.2 152.1 130.57 151.36 130.74C150.58 130.92 149.92 130.84 149.37 130.5C148.83 130.15 148.47 129.59 148.29 128.81L147.42 124.97L152.31 123.86ZM145.95 125.31L146.9 129.44C147.1 130.31 147 131.06 146.61 131.7C146.24 132.33 145.63 132.74 144.8 132.93C143.98 133.12 143.28 133.01 142.7 132.61C142.11 132.21 141.72 131.56 141.51 130.67L140.57 126.53L145.95 125.31ZM136.71 116.22L137.08 117.88L150.19 114.9L151.26 119.59L152.78 119.25L150.26 108.21L148.74 108.56L149.81 113.24L136.71 116.22ZM132.77 99.7496C133.02 100.88 133.46 101.85 134.06 102.66C134.69 103.47 135.44 104.09 136.33 104.5C137.22 104.92 138.2 105.14 139.27 105.14L139.29 103.37C138.51 103.41 137.78 103.29 137.09 102.99C136.41 102.7 135.82 102.24 135.33 101.63C134.85 101.01 134.51 100.27 134.31 99.3996C134.06 98.3096 134.1 97.2996 134.44 96.3796C134.79 95.4496 135.36 94.6696 136.16 94.0296C136.97 93.3996 137.93 92.9496 139.04 92.6996C140.13 92.4496 141.17 92.4396 142.17 92.6696C143.18 92.8996 144.03 93.3596 144.74 94.0496C145.46 94.7296 145.94 95.6196 146.18 96.6896C146.47 97.9396 146.35 99.0596 145.84 100.03C145.33 101.01 144.53 101.75 143.43 102.26L144.24 103.82C145.18 103.39 145.95 102.8 146.56 102.04C147.17 101.3 147.58 100.44 147.78 99.4696C147.99 98.4896 147.97 97.4496 147.72 96.3396C147.41 94.9896 146.81 93.8496 145.92 92.9196C145.02 91.9996 143.94 91.3696 142.65 91.0196C141.39 90.6796 140.05 90.6696 138.65 90.9896C137.23 91.3096 136.01 91.8896 135 92.7396C134.01 93.5896 133.31 94.6296 132.9 95.8396C132.5 97.0696 132.45 98.3696 132.77 99.7496ZM129.26 84.3796C129.52 85.5196 129.95 86.4796 130.56 87.2896C131.19 88.0996 131.94 88.7196 132.83 89.1296C133.72 89.5596 134.7 89.7696 135.76 89.7696L135.79 87.9996C135.01 88.0496 134.27 87.9196 133.59 87.6196C132.91 87.3296 132.32 86.8696 131.83 86.2596C131.34 85.6496 131 84.8996 130.8 84.0296C130.56 82.9396 130.6 81.9296 130.94 81.0096C131.28 80.0796 131.86 79.2996 132.66 78.6696C133.47 78.0296 134.43 77.5896 135.53 77.3296C136.63 77.0896 137.67 77.0696 138.66 77.2996C139.68 77.5296 140.53 77.9896 141.24 78.6796C141.95 79.3696 142.43 80.2496 142.68 81.3296C142.96 82.5696 142.85 83.6896 142.33 84.6696C141.83 85.6396 141.03 86.3896 139.93 86.8996L140.74 88.4596C141.68 88.0196 142.45 87.4296 143.06 86.6796C143.67 85.9396 144.07 85.0796 144.28 84.0996C144.49 83.1196 144.47 82.0796 144.22 80.9796C143.91 79.6196 143.31 78.4796 142.41 77.5496C141.52 76.6296 140.43 75.9996 139.15 75.6496C137.88 75.3096 136.55 75.2996 135.14 75.6196C133.73 75.9396 132.51 76.5296 131.5 77.3696C130.51 78.2296 129.81 79.2596 129.4 80.4796C128.99 81.6996 128.95 83.0096 129.26 84.3796ZM127.45 75.6196L128.97 75.2796L127.25 67.7296L132.69 66.4896L133.89 71.7296L135.41 71.3896L134.21 66.1396L138.84 65.0896L140.51 72.4396L142.03 72.0896L139.98 63.0796L125.35 66.4196L127.45 75.6196ZM120.82 62.7496L121.18 64.3296L126.22 63.1796L125.8 61.3496L138.9 58.3596L138.52 56.6996L125.42 59.6896L123.61 51.7296L136.71 48.7496L136.33 47.0896L121.71 50.4196L124.33 61.9496L120.82 62.7496ZM119.16 39.9696C119.48 41.3596 120.08 42.5296 120.96 43.4596C121.86 44.3896 122.94 45.0296 124.21 45.3696C125.47 45.7096 126.82 45.7096 128.25 45.3896C129.68 45.0596 130.9 44.4696 131.89 43.6196C132.9 42.7596 133.6 41.7196 133.99 40.4896C134.38 39.2696 134.42 37.9596 134.1 36.5696C133.79 35.1896 133.18 34.0296 132.28 33.0896C131.4 32.1496 130.32 31.5096 129.05 31.1696C127.79 30.8296 126.44 30.8296 125.01 31.1496C123.58 31.4796 122.37 32.0696 121.37 32.9296C120.38 33.7896 119.68 34.8396 119.28 36.0696C118.89 37.2896 118.85 38.5896 119.16 39.9696ZM120.8 36.6096C121.12 35.6796 121.68 34.8896 122.47 34.2296C123.27 33.5896 124.24 33.1296 125.4 32.8696C126.56 32.6096 127.63 32.5896 128.63 32.8296C129.63 33.0796 130.47 33.5496 131.15 34.2496C131.84 34.9496 132.31 35.8396 132.56 36.9196C132.8 37.9896 132.76 38.9896 132.44 39.9196C132.14 40.8496 131.58 41.6396 130.79 42.2896C129.99 42.9496 129.02 43.4096 127.86 43.6696C126.7 43.9396 125.63 43.9396 124.63 43.6896C123.63 43.4496 122.78 42.9796 122.09 42.2796C121.41 41.5696 120.95 40.6896 120.7 39.6196C120.46 38.5396 120.49 37.5396 120.8 36.6096ZM115.34 22.4896L121.11 21.1696L121.94 24.8196C122.11 25.5296 122.37 26.1596 122.72 26.6896C123.09 27.2396 123.52 27.6696 124 27.9996C124.5 28.3196 125.05 28.5396 125.65 28.6496C126.25 28.7596 126.86 28.7396 127.48 28.5996C128.12 28.4596 128.68 28.2096 129.16 27.8496C129.65 27.4996 130.05 27.0696 130.34 26.5596C130.64 26.0496 130.83 25.4796 130.91 24.8396C131 24.2096 130.96 23.5296 130.8 22.7996L129.59 17.4996L114.96 20.8296L115.34 22.4896ZM128.45 19.4996L129.28 23.1496C129.5 24.1196 129.41 24.9396 129.02 25.6096C128.64 26.2796 128 26.7196 127.1 26.9196C126.23 27.1196 125.46 26.9996 124.78 26.5696C124.13 26.1496 123.69 25.4496 123.47 24.4696L122.63 20.8196L128.45 19.4996ZM111.7 6.50961L124.8 3.51959L126.68 11.7496L113.58 14.7396L113.95 16.3996L128.58 13.0596L125.95 1.51959L111.32 4.8496L111.7 6.50961Z" fill="#010202"/>
<path d="M264.68 0.750683C264.62 1.46068 264.69 2.17069 264.9 2.88069C265.16 3.85069 265.66 4.76068 266.4 5.62068C267.3 6.68068 268.36 7.41069 269.59 7.82069C270.81 8.21069 272.06 8.27069 273.36 7.98069C274.64 7.70069 275.83 7.09068 276.93 6.15068C278.03 5.21068 278.84 4.13069 279.34 2.91069C279.62 2.20069 279.79 1.48068 279.83 0.750684L278.14 0.750684C278.08 1.28068 277.94 1.79067 277.71 2.30067C277.29 3.24067 276.65 4.08068 275.78 4.81068C274.93 5.54068 274.01 6.04067 273.03 6.30067C272.02 6.56067 271.05 6.55067 270.11 6.27067C269.16 5.99067 268.32 5.44069 267.6 4.60069C266.77 3.62069 266.36 2.58069 266.36 1.48069C266.36 1.23069 266.37 0.990683 266.42 0.750683L264.68 0.750683ZM277.42 18.2707L282.18 14.2107L287.81 20.8107L283.05 24.8707L284.16 26.1707L295.56 16.4207L294.46 15.1307L289 19.8007L283.36 13.1907L288.82 8.53068L287.72 7.24068L276.31 16.9807L277.42 18.2707ZM289.3 30.9207C289.52 32.1907 290.09 33.3607 291.02 34.4507C291.94 35.5207 293.01 36.2707 294.25 36.6907C295.46 37.1007 296.71 37.1707 297.99 36.8807C299.27 36.6007 300.47 35.9807 301.59 35.0207C302.7 34.0707 303.5 32.9807 303.98 31.7607C304.46 30.5407 304.59 29.2807 304.38 28.0107C304.16 26.7407 303.59 25.5707 302.67 24.5007C301.74 23.4107 300.67 22.6607 299.46 22.2407C298.23 21.8407 296.98 21.7807 295.7 22.0607C294.42 22.3507 293.22 22.9707 292.1 23.9207C290.99 24.8707 290.19 25.9607 289.7 27.1807C289.21 28.4107 289.07 29.6607 289.3 30.9207ZM291.3 27.8407C291.69 26.8907 292.34 26.0307 293.25 25.2607C294.15 24.4907 295.1 23.9807 296.1 23.7407C297.1 23.4907 298.07 23.5107 299.01 23.8107C299.94 24.1207 300.76 24.6907 301.47 25.5207C302.19 26.3707 302.63 27.2707 302.79 28.2407C302.93 29.2007 302.8 30.1607 302.4 31.1207C302 32.0607 301.34 32.9107 300.44 33.6907C299.54 34.4607 298.59 34.9707 297.6 35.2207C296.6 35.4607 295.63 35.4307 294.71 35.1307C293.77 34.8307 292.94 34.2607 292.22 33.4207C291.51 32.5907 291.08 31.6907 290.93 30.7107C290.77 29.7407 290.89 28.7907 291.3 27.8407ZM303.16 47.1507C303.38 48.4207 303.96 49.6007 304.88 50.6807C305.8 51.7507 306.88 52.5007 308.11 52.9207C309.33 53.3407 310.58 53.4007 311.86 53.1207C313.14 52.8307 314.33 52.2107 315.45 51.2607C316.56 50.3007 317.36 49.2207 317.85 48.0007C318.32 46.7707 318.45 45.5207 318.24 44.2407C318.02 42.9807 317.45 41.8107 316.53 40.7307C315.61 39.6507 314.54 38.8907 313.32 38.4807C312.09 38.0707 310.84 38.0107 309.56 38.3007C308.28 38.5807 307.08 39.2007 305.97 40.1507C304.85 41.1107 304.05 42.1907 303.57 43.4107C303.08 44.6407 302.94 45.8907 303.16 47.1507ZM305.16 44.0807C305.56 43.1207 306.21 42.2607 307.11 41.4907C308.01 40.7207 308.97 40.2207 309.97 39.9707C310.96 39.7207 311.93 39.7407 312.87 40.0507C313.8 40.3507 314.62 40.9307 315.33 41.7607C316.05 42.6007 316.49 43.5007 316.65 44.4707C316.79 45.4407 316.66 46.4007 316.27 47.3507C315.86 48.2907 315.21 49.1507 314.31 49.9207C313.4 50.6907 312.46 51.2007 311.46 51.4507C310.46 51.7007 309.5 51.6707 308.57 51.3707C307.63 51.0707 306.8 50.5007 306.09 49.6507C305.38 48.8207 304.94 47.9207 304.79 46.9407C304.63 45.9707 304.76 45.0207 305.16 44.0807ZM313.09 60.0407L317.85 55.9707L323.48 62.5707L318.72 66.6407L319.83 67.9307L331.23 58.1907L330.13 56.9007L324.67 61.5607L319.03 54.9607L324.49 50.2907L323.39 49.0007L311.98 58.7407L313.09 60.0407ZM323.88 72.6807L328.64 68.6107L334.28 75.2107L329.52 79.2807L330.62 80.5707L342.03 70.8307L340.92 69.5307L335.46 74.2007L329.83 67.6007L335.29 62.9307L334.18 61.6407L322.78 71.3807L323.88 72.6807ZM338.64 89.9507L350.04 80.2107L343.91 73.0307L342.73 74.0507L347.75 79.9307L343.51 83.5607L340.02 79.4707L338.83 80.4807L342.32 84.5707L338.72 87.6507L333.82 81.9207L332.64 82.9307L338.64 89.9507ZM342.79 94.8107L351.35 94.3907L349.65 102.841L350.83 104.231L362.23 94.4907L361.17 93.2407L351.56 101.451L353.25 93.0807L353 92.7907L344.43 93.1707L354.08 84.9307L353.01 83.6907L341.61 93.4307L342.79 94.8107ZM354.85 108.931L369.85 107.371L360.4 115.441L361.48 116.701L372.89 106.961L371.84 105.731L356.85 107.271L366.28 99.2207L365.2 97.9607L353.79 107.701L354.85 108.931ZM369.48 124.801C369.7 126.061 370.27 127.241 371.2 128.321C372.12 129.401 373.19 130.151 374.43 130.561C375.64 130.981 376.89 131.051 378.17 130.761C379.45 130.471 380.65 129.851 381.76 128.901C382.88 127.951 383.68 126.861 384.16 125.641C384.64 124.411 384.77 123.161 384.56 121.891C384.34 120.621 383.77 119.451 382.85 118.381C381.92 117.291 380.85 116.541 379.63 116.121C378.41 115.711 377.16 115.651 375.88 115.941C374.6 116.231 373.4 116.851 372.28 117.801C371.17 118.751 370.37 119.841 369.88 121.061C369.39 122.291 369.25 123.531 369.48 124.801ZM371.48 121.721C371.87 120.771 372.52 119.911 373.43 119.141C374.33 118.371 375.28 117.861 376.28 117.621C377.28 117.361 378.24 117.391 379.19 117.691C380.12 118.001 380.94 118.571 381.65 119.401C382.37 120.241 382.8 121.151 382.96 122.121C383.11 123.081 382.98 124.041 382.58 124.991C382.18 125.941 381.52 126.791 380.62 127.561C379.72 128.331 378.77 128.841 377.78 129.101C376.77 129.341 375.81 129.311 374.89 129.011C373.95 128.711 373.12 128.141 372.4 127.301C371.69 126.471 371.26 125.561 371.11 124.591C370.95 123.621 371.07 122.661 371.48 121.721ZM384.09 143.171L385.28 142.161L382.16 138.511L392.38 129.781L391.27 128.491L381.05 137.221L377.92 133.551L376.74 134.561L384.09 143.171ZM386.93 146.501L392.15 142.041C392.79 142.391 393.35 142.741 393.82 143.111C394.27 143.481 394.7 143.891 395.1 144.361C395.94 145.341 396.36 146.261 396.36 147.101C396.35 147.931 395.88 148.741 394.96 149.531L391.81 152.221L392.92 153.511L396.35 150.571C397.55 149.551 398.14 148.441 398.14 147.241C398.11 146.031 397.55 144.791 396.46 143.521C396.04 143.031 395.58 142.591 395.07 142.201C394.56 141.811 393.98 141.431 393.32 141.041L398.34 136.761L397.23 135.461L385.83 145.201L386.93 146.501ZM408.29 151.491L412.7 148.961L411.87 147.991L407.06 150.051L408.29 151.491ZM406.15 169.001L407.33 167.991L404.22 164.341L414.44 155.611L413.33 154.311L403.11 163.041L399.98 159.381L398.8 160.391L406.15 169.001ZM413.13 177.181L424.54 167.441L418.41 160.261L417.22 161.271L422.25 167.161L418.01 170.781L414.51 166.691L413.33 167.701L416.82 171.791L413.22 174.871L408.32 169.141L407.13 170.151L413.13 177.181ZM419.82 185.011L434.96 179.641L433.85 178.341L428.64 180.221L424.77 175.681L427.44 170.831L426.27 169.461L418.6 183.581L419.82 185.011ZM423.98 177.131L427.09 180.781L420.71 183.071L423.98 177.131ZM426.31 192.601L431.07 188.541L436.7 195.141L431.94 199.201L433.05 200.501L444.45 190.751L443.35 189.461L437.89 194.121L432.25 187.521L437.71 182.861L436.61 181.571L425.2 191.311L426.31 192.601ZM437.62 205.641C437.88 206.251 438.26 206.851 438.77 207.451C439.2 207.941 439.67 208.361 440.18 208.691C440.68 209.031 441.21 209.281 441.75 209.431C442.29 209.561 442.85 209.601 443.42 209.531C443.98 209.471 444.55 209.291 445.12 209.001L444.35 207.551C443.57 207.991 442.8 208.091 442.03 207.871C441.26 207.651 440.57 207.181 439.94 206.451C439.26 205.651 438.89 204.861 438.84 204.101C438.78 203.341 439.06 202.701 439.67 202.181C440.28 201.661 440.91 201.451 441.56 201.541C442.21 201.621 442.83 202.011 443.43 202.711L444.86 204.381L446.05 203.371L444.56 201.631C443.89 200.841 443.56 200.101 443.58 199.401C443.58 198.701 443.9 198.071 444.55 197.521C445.26 196.911 446.03 196.711 446.87 196.911C447.69 197.091 448.47 197.611 449.2 198.461C449.93 199.331 450.34 200.191 450.41 201.061C450.48 201.911 450.17 202.751 449.49 203.581L450.89 204.571C451.81 203.471 452.21 202.301 452.08 201.071C451.96 199.841 451.39 198.631 450.4 197.471C449.87 196.851 449.31 196.351 448.71 195.991C448.11 195.611 447.5 195.361 446.9 195.251C446.29 195.131 445.69 195.151 445.11 195.311C444.52 195.461 443.97 195.751 443.46 196.181C442.79 196.751 442.36 197.401 442.17 198.121C441.97 198.861 442.03 199.611 442.35 200.391C441.64 200.101 440.96 200.001 440.3 200.091C439.63 200.191 439.02 200.481 438.46 200.951C438.02 201.331 437.68 201.781 437.46 202.281C437.24 202.781 437.15 203.321 437.18 203.891C437.21 204.461 437.36 205.041 437.62 205.641ZM452.45 223.221L463.86 213.481L457.73 206.301L456.54 207.311L461.57 213.201L457.33 216.821L453.83 212.731L452.65 213.741L456.14 217.831L452.54 220.911L447.64 215.181L446.45 216.191L452.45 223.221ZM456.51 227.961L461.27 223.901L466.91 230.501L462.14 234.561L463.25 235.861L474.66 226.121L473.55 224.821L468.09 229.491L462.45 222.891L467.91 218.221L466.81 216.931L455.4 226.671L456.51 227.961ZM469.15 242.761L477.45 242.751L478.87 244.421L474.07 248.531L475.17 249.821L480 245.701L480 243.301L478.69 241.771L480 235.081L480.43 232.881L480 232.381L479.11 231.331L477.1 241.201L467.81 241.191L469.15 242.761ZM480 255.471L480 253.071L478.37 251.161L477.19 252.181L480 255.471Z" fill="#010202"/>
<path d="M480 91.0906L480 89.1106L479.58 88.7906L478.63 90.0306L480 91.0906ZM475.58 104.641L480 98.9006L480 96.1206L474.23 103.611L475.58 104.641ZM461.34 92.6406C461.82 93.8306 462.61 94.8606 463.73 95.7206C464.86 96.5906 466.07 97.1106 467.34 97.2606C468.63 97.4106 469.86 97.2106 471.06 96.6706C472.25 96.1206 473.3 95.2706 474.19 94.1106C475.09 92.9506 475.65 91.7206 475.87 90.4306C476.1 89.1206 475.97 87.8706 475.5 86.6806C475.02 85.4906 474.21 84.4606 473.08 83.5906C471.97 82.7206 470.76 82.2106 469.46 82.0606C468.19 81.9006 466.95 82.0906 465.76 82.6406C464.57 83.1806 463.52 84.0406 462.63 85.2006C461.73 86.3606 461.17 87.5906 460.95 88.8806C460.74 90.1806 460.87 91.4306 461.34 92.6406ZM462.63 89.1906C462.83 88.1806 463.3 87.2106 464.02 86.2706C464.75 85.3306 465.57 84.6406 466.49 84.1806C467.42 83.7406 468.37 83.5706 469.33 83.6706C470.31 83.7706 471.24 84.1606 472.12 84.8406C472.99 85.5006 473.59 86.3006 473.94 87.2206C474.3 88.1406 474.37 89.1006 474.17 90.1006C473.98 91.1206 473.52 92.0906 472.8 93.0306C472.07 93.9706 471.25 94.6706 470.31 95.1106C469.39 95.5606 468.44 95.7406 467.46 95.6406C466.48 95.5306 465.56 95.1406 464.7 94.4706C463.82 93.7906 463.21 93.0006 462.85 92.0806C462.51 91.1706 462.44 90.2006 462.63 89.1906ZM447.29 82.8506L455.49 72.2006L462.18 77.3506L453.97 88.0006L455.32 89.0306L464.47 77.1506L455.1 69.9306L445.94 81.8106L447.29 82.8506ZM436.14 74.2506C436.69 74.6806 437.25 75.0006 437.81 75.1906C438.38 75.3706 438.93 75.4406 439.46 75.4006C440.01 75.3506 440.52 75.1906 441 74.9206C441.49 74.6406 441.92 74.2406 442.31 73.7406C442.89 72.9906 443.18 72.2106 443.17 71.4206C443.18 70.6206 442.9 69.8306 442.34 69.0606C443.05 69.2406 443.73 69.2206 444.37 69.0106C445.01 68.7906 445.57 68.3706 446.06 67.7306C446.41 67.2806 446.64 66.8106 446.77 66.3106C446.9 65.8206 446.91 65.3406 446.81 64.8506C446.73 64.3706 446.53 63.9006 446.23 63.4506C445.94 62.9906 445.54 62.5706 445.04 62.1806L440.52 58.7006L431.37 70.5806L436.14 74.2506ZM440.97 60.9106L444.02 63.2606C444.67 63.7606 445.04 64.3206 445.14 64.9606C445.25 65.6006 445.08 66.2206 444.61 66.8206C444.12 67.4606 443.56 67.8106 442.93 67.9006C442.29 67.9806 441.66 67.7806 441.02 67.2906L437.9 64.8806L440.97 60.9106ZM440.34 68.6606C441.05 69.2006 441.46 69.8506 441.56 70.5806C441.68 71.3106 441.47 72.0106 440.95 72.6906C440.44 73.3506 439.83 73.7206 439.13 73.7806C438.42 73.8406 437.7 73.5906 436.98 73.0306L433.62 70.4406L436.99 66.0706L440.34 68.6606ZM416.07 58.7906L420.45 53.1006L427.32 58.4006L422.94 64.0906L424.29 65.1206L433.44 53.2406L432.1 52.2006L428.28 57.1606L421.4 51.8706L425.22 46.9106L423.88 45.8706L414.72 57.7506L416.07 58.7906ZM403.71 48.2306C404.19 49.4206 404.99 50.4506 406.11 51.3106C407.24 52.1806 408.44 52.7006 409.71 52.8606C411 53.0006 412.24 52.8106 413.43 52.2606C414.62 51.7206 415.67 50.8606 416.56 49.7006C417.46 48.5406 418.02 47.3106 418.24 46.0206C418.47 44.7206 418.34 43.4706 417.87 42.2706C417.39 41.0806 416.59 40.0506 415.46 39.1806C414.34 38.3206 413.13 37.8106 411.84 37.6506C410.56 37.4906 409.33 37.6906 408.13 38.2306C406.94 38.7806 405.89 39.6306 405 40.7906C404.1 41.9506 403.54 43.1806 403.32 44.4706C403.11 45.7706 403.24 47.0306 403.71 48.2306ZM405 44.7806C405.21 43.7806 405.67 42.8106 406.39 41.8706C407.12 40.9306 407.94 40.2306 408.86 39.7806C409.79 39.3306 410.74 39.1606 411.7 39.2706C412.69 39.3706 413.62 39.7506 414.49 40.4306C415.36 41.1006 415.97 41.8906 416.31 42.8206C416.67 43.7306 416.75 44.6906 416.54 45.7006C416.35 46.7106 415.89 47.6906 415.17 48.6306C414.45 49.5706 413.62 50.2606 412.69 50.7006C411.77 51.1606 410.81 51.3306 409.83 51.2306C408.86 51.1206 407.94 50.7306 407.07 50.0606C406.19 49.3906 405.58 48.5906 405.22 47.6806C404.88 46.7606 404.81 45.8006 405 44.7806ZM390.63 39.4106C390.9 39.6306 391.19 39.7106 391.49 39.6706C391.8 39.6406 392.06 39.4906 392.27 39.2206C392.48 38.9506 392.55 38.6706 392.5 38.3606C392.47 38.0606 392.31 37.8006 392.03 37.5906C391.76 37.3806 391.47 37.2906 391.16 37.3206C390.86 37.3606 390.61 37.5106 390.4 37.7806C390.19 38.0506 390.11 38.3406 390.14 38.6406C390.19 38.9406 390.36 39.2006 390.63 39.4106ZM384.54 34.5006L385.89 35.5406L394.09 24.8906L397.91 27.8306L398.86 26.6006L389.9 19.6906L388.95 20.9206L392.75 23.8506L384.54 34.5006ZM379.7 30.7706L380.65 29.5306L374.52 24.8106L377.93 20.3906L382.19 23.6706L383.14 22.4306L378.88 19.1506L381.77 15.3906L387.74 20.0006L388.7 18.7606L381.38 13.1206L372.22 25.0006L379.7 30.7706ZM357.28 18.0406L359.48 15.1806L368.59 22.2006L366.39 25.0606L367.69 26.0606L370.84 21.9706L369.33 20.8106L377.54 10.1606L369.87 4.2506L367.59 7.0906C366.87 7.9706 366.23 8.7406 365.65 9.4106C365.08 10.0806 364.56 10.6606 364.09 11.1406C363.64 11.6106 363.22 12.0106 362.84 12.3206C362.49 12.6406 362.15 12.8806 361.84 13.0706C361.58 13.2306 361.3 13.3706 361.01 13.4906C360.73 13.5906 360.45 13.6806 360.16 13.7406L359.13 12.9506L355.98 17.0406L357.28 18.0406ZM363.3 13.9306C363.88 13.5406 364.52 13.0106 365.21 12.3306C365.69 11.8706 366.21 11.3106 366.78 10.6606C367.35 10.0106 367.98 9.26061 368.66 8.42061L370.22 6.49059L375.26 10.3706L368 19.7806L361.54 14.8006C362.12 14.6106 362.71 14.3206 363.3 13.9306ZM352.33 9.67061L367.17 2.18059L365.75 1.08059L356.62 5.68059L357.52 0.7506L355.81 0.750599L354.72 6.64061L350.9 8.58059L352.33 9.67061ZM343.39 2.79061C344 3.25061 344.6 3.59059 345.19 3.80059C345.81 4.00059 346.4 4.08059 346.96 4.02059C347.54 3.98059 348.08 3.81061 348.59 3.51061C349.11 3.22061 349.57 2.8006 350 2.2506C350.36 1.7806 350.62 1.2806 350.79 0.750599L348.92 0.750599C348.84 0.890599 348.74 1.0406 348.62 1.1906C348.06 1.9106 347.39 2.32059 346.62 2.40059C345.86 2.47059 345.1 2.2106 344.34 1.6306L343.2 0.750598L340.74 0.750598L343.39 2.79061Z" fill="#010202"/>
<path d="M480 274.7L480 273.15L250.44 0.74998L249.14 0.74998L480 274.7ZM480 74.33L383.83 0.749992L382.19 0.749991L480 75.59L480 74.33ZM199.86 272.74L137.36 328.75L480 328.75L480 327.75L139.98 327.75L200.52 273.49L200.96 273.1L200.84 272.52L137.54 0.74997L136.51 0.74997L199.86 272.74Z" fill="#010202"/>
<path d="M466.87 350.19C467.49 351.35 468.34 352.26 469.43 352.93C470.54 353.6 471.8 353.93 473.21 353.93C474.37 353.93 475.41 353.72 476.33 353.31C477.27 352.88 478.03 352.28 478.63 351.51C479.25 350.74 479.67 349.83 479.91 348.79L478.19 348.37C478.06 349.14 477.77 349.83 477.33 350.43C476.89 351.03 476.32 351.5 475.61 351.85C474.91 352.18 474.11 352.35 473.21 352.35C472.09 352.35 471.12 352.08 470.29 351.55C469.47 351 468.83 350.27 468.39 349.35C467.95 348.42 467.73 347.38 467.73 346.25C467.73 345.13 467.95 344.11 468.39 343.19C468.85 342.26 469.49 341.52 470.31 340.99C471.14 340.44 472.11 340.17 473.21 340.17C474.49 340.17 475.55 340.53 476.39 341.25C477.23 341.96 477.78 342.9 478.03 344.09L479.73 343.65C479.52 342.64 479.11 341.75 478.51 340.99C477.93 340.23 477.18 339.64 476.27 339.23C475.37 338.8 474.35 338.59 473.21 338.59C471.83 338.59 470.58 338.92 469.47 339.59C468.38 340.26 467.52 341.18 466.89 342.35C466.28 343.51 465.97 344.81 465.97 346.25C465.97 347.7 466.27 349.02 466.87 350.19ZM464.27 353.75L464.27 352.19L456.53 352.19L456.53 346.61L461.91 346.61L461.91 345.05L456.53 345.05L456.53 340.31L464.07 340.31L464.07 338.75L454.83 338.75L454.83 353.75L464.27 353.75ZM440.73 346.79C441.67 347.55 442.97 347.93 444.65 347.93C445.29 347.93 445.93 347.86 446.55 347.73C447.18 347.6 447.85 347.4 448.57 347.15L448.57 353.75L450.27 353.75L450.27 338.75L448.57 338.75L448.57 345.61C447.89 345.88 447.26 346.07 446.67 346.19C446.1 346.3 445.51 346.35 444.89 346.35C443.6 346.35 442.63 346.08 441.99 345.53C441.37 344.98 441.05 344.1 441.05 342.89L441.05 338.75L439.35 338.75L439.35 343.27C439.35 344.84 439.81 346.02 440.73 346.79ZM428.69 353.75L428.69 347.83L432.43 347.83C433.17 347.83 433.83 347.72 434.43 347.49C435.05 347.25 435.57 346.93 435.99 346.53C436.42 346.12 436.75 345.63 436.99 345.07C437.23 344.51 437.35 343.91 437.35 343.27C437.35 342.62 437.23 342.02 436.99 341.47C436.77 340.91 436.43 340.43 435.99 340.03C435.57 339.63 435.05 339.32 434.45 339.09C433.85 338.86 433.18 338.75 432.43 338.75L426.99 338.75L426.99 353.75L428.69 353.75ZM428.69 340.31L432.43 340.31C433.43 340.31 434.21 340.58 434.77 341.11C435.35 341.63 435.63 342.35 435.63 343.27C435.63 344.16 435.35 344.89 434.77 345.45C434.21 346 433.43 346.27 432.43 346.27L428.69 346.27L428.69 340.31ZM409.86 350.19C410.49 351.35 411.36 352.26 412.46 352.93C413.57 353.58 414.83 353.91 416.24 353.91C417.67 353.91 418.93 353.58 420.04 352.93C421.15 352.26 422.01 351.35 422.62 350.19C423.23 349.03 423.54 347.72 423.54 346.25C423.54 344.78 423.23 343.47 422.62 342.31C422.01 341.14 421.15 340.22 420.04 339.57C418.93 338.92 417.67 338.59 416.24 338.59C414.83 338.59 413.56 338.92 412.44 339.59C411.34 340.24 410.48 341.15 409.86 342.31C409.25 343.47 408.94 344.78 408.94 346.25C408.94 347.72 409.25 349.03 409.86 350.19ZM411.38 343.09C411.85 342.17 412.5 341.46 413.32 340.95C414.16 340.43 415.14 340.17 416.24 340.17C417.34 340.17 418.3 340.43 419.14 340.95C419.98 341.46 420.63 342.17 421.08 343.09C421.55 344.01 421.78 345.06 421.78 346.25C421.78 347.44 421.55 348.49 421.08 349.41C420.63 350.33 419.98 351.05 419.14 351.57C418.3 352.08 417.34 352.33 416.24 352.33C415.14 352.33 414.16 352.08 413.32 351.57C412.5 351.05 411.85 350.33 411.38 349.41C410.93 348.49 410.7 347.44 410.7 346.25C410.7 345.06 410.93 344.01 411.38 343.09ZM402.06 353.75C402.77 353.75 403.4 353.66 403.96 353.47C404.52 353.27 405 352.99 405.4 352.63C405.8 352.26 406.11 351.82 406.32 351.31C406.53 350.79 406.64 350.21 406.64 349.57C406.64 348.62 406.39 347.84 405.9 347.21C405.42 346.57 404.72 346.12 403.8 345.85C404.48 345.56 405.01 345.13 405.38 344.57C405.75 344.01 405.94 343.33 405.94 342.53C405.94 341.96 405.84 341.44 405.64 340.97C405.44 340.5 405.15 340.11 404.78 339.79C404.42 339.46 403.98 339.2 403.46 339.03C402.95 338.84 402.38 338.75 401.74 338.75L396.04 338.75L396.04 353.75L402.06 353.75ZM397.74 340.23L401.6 340.23C402.41 340.23 403.05 340.45 403.52 340.89C404 341.33 404.24 341.93 404.24 342.69C404.24 343.49 404.01 344.12 403.56 344.57C403.11 345.02 402.48 345.25 401.68 345.25L397.74 345.25L397.74 340.23V340.23ZM397.74 346.75L401.98 346.75C402.87 346.75 403.59 347.01 404.12 347.53C404.65 348.04 404.92 348.72 404.92 349.57C404.92 350.41 404.66 351.07 404.14 351.55C403.62 352.03 402.9 352.27 401.98 352.27L397.74 352.27L397.74 346.75ZM386.83 340.31L386.83 353.75L388.53 353.75L388.53 340.31L393.35 340.31L393.35 338.75L382.03 338.75L382.03 340.31L386.83 340.31ZM362.38 350.19C363.01 351.35 363.88 352.26 364.98 352.93C366.09 353.58 367.35 353.91 368.76 353.91C370.19 353.91 371.46 353.58 372.56 352.93C373.67 352.26 374.53 351.35 375.14 350.19C375.76 349.03 376.06 347.72 376.06 346.25C376.06 344.78 375.76 343.47 375.14 342.31C374.53 341.14 373.67 340.22 372.56 339.57C371.46 338.92 370.19 338.59 368.76 338.59C367.35 338.59 366.08 338.92 364.96 339.59C363.86 340.24 363 341.15 362.38 342.31C361.77 343.47 361.46 344.78 361.46 346.25C361.46 347.72 361.77 349.03 362.38 350.19ZM363.9 343.09C364.37 342.17 365.02 341.46 365.84 340.95C366.68 340.43 367.66 340.17 368.76 340.17C369.86 340.17 370.82 340.43 371.66 340.95C372.5 341.46 373.15 342.17 373.6 343.09C374.07 344.01 374.3 345.06 374.3 346.25C374.3 347.44 374.07 348.49 373.6 349.41C373.15 350.33 372.5 351.05 371.66 351.57C370.82 352.08 369.86 352.33 368.76 352.33C367.66 352.33 366.68 352.08 365.84 351.57C365.02 351.05 364.37 350.33 363.9 349.41C363.45 348.49 363.22 347.44 363.22 346.25C363.22 345.06 363.45 344.01 363.9 343.09ZM353.17 353.75L353.17 340.31L360.45 340.31L360.45 338.75L351.47 338.75L351.47 353.75L353.17 353.75ZM334.34 350.19C334.96 351.35 335.83 352.26 336.94 352.93C338.04 353.58 339.3 353.91 340.72 353.91C342.14 353.91 343.41 353.58 344.52 352.93C345.62 352.26 346.48 351.35 347.1 350.19C347.71 349.03 348.02 347.72 348.02 346.25C348.02 344.78 347.71 343.47 347.1 342.31C346.48 341.14 345.62 340.22 344.52 339.57C343.41 338.92 342.14 338.59 340.72 338.59C339.3 338.59 338.04 338.92 336.92 339.59C335.81 340.24 334.95 341.15 334.34 342.31C333.72 343.47 333.42 344.78 333.42 346.25C333.42 347.72 333.72 349.03 334.34 350.19ZM335.86 343.09C336.32 342.17 336.97 341.46 337.8 340.95C338.64 340.43 339.61 340.17 340.72 340.17C341.81 340.17 342.78 340.43 343.62 340.95C344.46 341.46 345.1 342.17 345.56 343.09C346.02 344.01 346.26 345.06 346.26 346.25C346.26 347.44 346.02 348.49 345.56 349.41C345.1 350.33 344.46 351.05 343.62 351.57C342.78 352.08 341.81 352.33 340.72 352.33C339.61 352.33 338.64 352.08 337.8 351.57C336.97 351.05 336.32 350.33 335.86 349.41C335.4 348.49 335.18 347.44 335.18 346.25C335.18 345.06 335.4 344.01 335.86 343.09ZM319.59 353.75L319.59 346.57L328.27 346.57L328.27 353.75L329.97 353.75L329.97 338.75L328.27 338.75L328.27 345.01L319.59 345.01L319.59 338.75L317.89 338.75L317.89 353.75L319.59 353.75ZM301.81 357.35L301.81 353.75L313.31 353.75L313.31 357.35L314.95 357.35L314.95 352.19L313.05 352.19L313.05 338.75L303.37 338.75L303.29 342.39C303.26 343.52 303.22 344.53 303.17 345.41C303.13 346.29 303.07 347.06 302.99 347.73C302.92 348.38 302.83 348.95 302.73 349.43C302.63 349.9 302.52 350.3 302.39 350.63C302.28 350.92 302.15 351.2 301.99 351.47C301.83 351.72 301.65 351.96 301.47 352.19L300.17 352.19L300.17 357.35L301.81 357.35ZM304.07 350.43C304.29 349.76 304.47 348.95 304.61 347.99C304.7 347.34 304.77 346.58 304.83 345.71C304.88 344.84 304.92 343.87 304.95 342.79L305.01 340.31L311.37 340.31L311.37 352.19L303.21 352.19C303.55 351.68 303.84 351.1 304.07 350.43ZM285.25 350.19C285.88 351.35 286.75 352.26 287.85 352.93C288.96 353.58 290.22 353.91 291.63 353.91C293.06 353.91 294.33 353.58 295.43 352.93C296.54 352.26 297.4 351.35 298.01 350.19C298.63 349.03 298.93 347.72 298.93 346.25C298.93 344.78 298.63 343.47 298.01 342.31C297.4 341.14 296.54 340.22 295.43 339.57C294.33 338.92 293.06 338.59 291.63 338.59C290.22 338.59 288.95 338.92 287.83 339.59C286.73 340.24 285.87 341.15 285.25 342.31C284.64 343.47 284.33 344.78 284.33 346.25C284.33 347.72 284.64 349.03 285.25 350.19ZM286.77 343.09C287.24 342.17 287.89 341.46 288.71 340.95C289.55 340.43 290.53 340.17 291.63 340.17C292.73 340.17 293.69 340.43 294.53 340.95C295.37 341.46 296.02 342.17 296.47 343.09C296.94 344.01 297.17 345.06 297.17 346.25C297.17 347.44 296.94 348.49 296.47 349.41C296.02 350.33 295.37 351.05 294.53 351.57C293.69 352.08 292.73 352.33 291.63 352.33C290.53 352.33 289.55 352.08 288.71 351.57C287.89 351.05 287.24 350.33 286.77 349.41C286.32 348.49 286.09 347.44 286.09 346.25C286.09 345.06 286.32 344.01 286.77 343.09ZM277.44 353.75C278.2 353.75 278.88 353.65 279.48 353.45C280.09 353.24 280.6 352.94 281.02 352.55C281.44 352.16 281.77 351.7 282 351.15C282.22 350.6 282.34 349.98 282.34 349.29C282.34 348.66 282.23 348.08 282.02 347.53C281.82 346.98 281.51 346.51 281.1 346.11C280.7 345.71 280.19 345.4 279.58 345.17C278.96 344.94 278.25 344.83 277.44 344.83L273.62 344.83L273.62 340.31L281.1 340.31L281.1 338.75L271.92 338.75L271.92 353.75L277.44 353.75ZM273.62 346.33L277.48 346.33C278.44 346.33 279.2 346.6 279.76 347.13C280.32 347.65 280.6 348.37 280.6 349.29C280.6 350.21 280.32 350.94 279.76 351.47C279.2 351.99 278.44 352.25 277.48 352.25L273.62 352.25L273.62 346.33ZM254.79 350.19C255.41 351.35 256.28 352.26 257.39 352.93C258.49 353.58 259.75 353.91 261.17 353.91C262.59 353.91 263.86 353.58 264.97 352.93C266.07 352.26 266.93 351.35 267.55 350.19C268.16 349.03 268.47 347.72 268.47 346.25C268.47 344.78 268.16 343.47 267.55 342.31C266.93 341.14 266.07 340.22 264.97 339.57C263.86 338.92 262.59 338.59 261.17 338.59C259.75 338.59 258.49 338.92 257.37 339.59C256.26 340.24 255.4 341.15 254.79 342.31C254.17 343.47 253.87 344.78 253.87 346.25C253.87 347.72 254.17 349.03 254.79 350.19ZM256.31 343.09C256.77 342.17 257.42 341.46 258.25 340.95C259.09 340.43 260.06 340.17 261.17 340.17C262.26 340.17 263.23 340.43 264.07 340.95C264.91 341.46 265.55 342.17 266.01 343.09C266.47 344.01 266.71 345.06 266.71 346.25C266.71 347.44 266.47 348.49 266.01 349.41C265.55 350.33 264.91 351.05 264.07 351.57C263.23 352.08 262.26 352.33 261.17 352.33C260.06 352.33 259.09 352.08 258.25 351.57C257.42 351.05 256.77 350.33 256.31 349.41C255.85 348.49 255.63 347.44 255.63 346.25C255.63 345.06 255.85 344.01 256.31 343.09ZM246.98 353.75C247.69 353.75 248.32 353.66 248.88 353.47C249.44 353.27 249.92 352.99 250.32 352.63C250.72 352.26 251.03 351.82 251.24 351.31C251.45 350.79 251.56 350.21 251.56 349.57C251.56 348.62 251.31 347.84 250.82 347.21C250.34 346.57 249.64 346.12 248.72 345.85C249.4 345.56 249.93 345.13 250.3 344.57C250.67 344.01 250.86 343.33 250.86 342.53C250.86 341.96 250.76 341.44 250.56 340.97C250.36 340.5 250.07 340.11 249.7 339.79C249.34 339.46 248.9 339.2 248.38 339.03C247.87 338.84 247.3 338.75 246.66 338.75L240.96 338.75L240.96 353.75L246.98 353.75ZM242.66 340.23L246.52 340.23C247.33 340.23 247.97 340.45 248.44 340.89C248.92 341.33 249.16 341.93 249.16 342.69C249.16 343.49 248.93 344.12 248.48 344.57C248.03 345.02 247.4 345.25 246.6 345.25L242.66 345.25L242.66 340.23V340.23ZM242.66 346.75L246.9 346.75C247.79 346.75 248.51 347.01 249.04 347.53C249.57 348.04 249.84 348.72 249.84 349.57C249.84 350.41 249.58 351.07 249.06 351.55C248.54 352.03 247.82 352.27 246.9 352.27L242.66 352.27L242.66 346.75ZM225 350.19C225.61 351.35 226.47 352.26 227.56 352.93C228.67 353.6 229.93 353.93 231.34 353.93C232.5 353.93 233.54 353.72 234.46 353.31C235.39 352.88 236.16 352.28 236.76 351.51C237.37 350.74 237.8 349.83 238.04 348.79L236.32 348.37C236.19 349.14 235.9 349.83 235.46 350.43C235.02 351.03 234.45 351.5 233.74 351.85C233.03 352.18 232.23 352.35 231.34 352.35C230.22 352.35 229.25 352.08 228.42 351.55C227.59 351 226.96 350.27 226.52 349.35C226.08 348.42 225.86 347.38 225.86 346.25C225.86 345.13 226.08 344.11 226.52 343.19C226.97 342.26 227.61 341.52 228.44 340.99C229.27 340.44 230.23 340.17 231.34 340.17C232.62 340.17 233.68 340.53 234.52 341.25C235.36 341.96 235.91 342.9 236.16 344.09L237.86 343.65C237.65 342.64 237.24 341.75 236.64 340.99C236.05 340.23 235.31 339.64 234.4 339.23C233.49 338.8 232.47 338.59 231.34 338.59C229.95 338.59 228.71 338.92 227.6 339.59C226.51 340.26 225.65 341.18 225.02 342.35C224.41 343.51 224.1 344.81 224.1 346.25C224.1 347.7 224.4 349.02 225 350.19ZM217.9 353.75L217.9 352.19L210.16 352.19L210.16 346.61L215.54 346.61L215.54 345.05L210.16 345.05L210.16 340.31L217.7 340.31L217.7 338.75L208.46 338.75L208.46 353.75L217.9 353.75ZM192.5 350.19C193.11 351.35 193.97 352.26 195.06 352.93C196.17 353.6 197.43 353.93 198.84 353.93C200 353.93 201.04 353.72 201.96 353.31C202.89 352.88 203.66 352.28 204.26 351.51C204.87 350.74 205.3 349.83 205.54 348.79L203.82 348.37C203.69 349.14 203.4 349.83 202.96 350.43C202.52 351.03 201.95 351.5 201.24 351.85C200.53 352.18 199.73 352.35 198.84 352.35C197.72 352.35 196.75 352.08 195.92 351.55C195.09 351 194.46 350.27 194.02 349.35C193.58 348.42 193.36 347.38 193.36 346.25C193.36 345.13 193.58 344.11 194.02 343.19C194.47 342.26 195.11 341.52 195.94 340.99C196.77 340.44 197.73 340.17 198.84 340.17C200.12 340.17 201.18 340.53 202.02 341.25C202.86 341.96 203.41 342.9 203.66 344.09L205.36 343.65C205.15 342.64 204.74 341.75 204.14 340.99C203.55 340.23 202.81 339.64 201.9 339.23C200.99 338.8 199.97 338.59 198.84 338.59C197.45 338.59 196.21 338.92 195.1 339.59C194.01 340.26 193.15 341.18 192.52 342.35C191.91 343.51 191.6 344.81 191.6 346.25C191.6 347.7 191.9 349.02 192.5 350.19ZM176.74 350.19C177.35 351.35 178.2 352.26 179.3 352.93C180.4 353.6 181.66 353.93 183.08 353.93C184.24 353.93 185.28 353.72 186.2 353.31C187.13 352.88 187.9 352.28 188.5 351.51C189.11 350.74 189.54 349.83 189.78 348.79L188.06 348.37C187.92 349.14 187.64 349.83 187.2 350.43C186.76 351.03 186.18 351.5 185.48 351.85C184.77 352.18 183.97 352.35 183.08 352.35C181.96 352.35 180.98 352.08 180.16 351.55C179.33 351 178.7 350.27 178.26 349.35C177.82 348.42 177.6 347.38 177.6 346.25C177.6 345.13 177.82 344.11 178.26 343.19C178.71 342.26 179.35 341.52 180.18 340.99C181 340.44 181.97 340.17 183.08 340.17C184.36 340.17 185.42 340.53 186.26 341.25C187.1 341.96 187.64 342.9 187.9 344.09L189.6 343.65C189.38 342.64 188.98 341.75 188.38 340.99C187.79 340.23 187.04 339.64 186.14 339.23C185.23 338.8 184.21 338.59 183.08 338.59C181.69 338.59 180.44 338.92 179.34 339.59C178.24 340.26 177.38 341.18 176.76 342.35C176.14 343.51 175.84 344.81 175.84 346.25C175.84 347.7 176.14 349.02 176.74 350.19ZM174.13 353.75L174.13 352.19L166.39 352.19L166.39 346.61L171.77 346.61L171.77 345.05L166.39 345.05L166.39 340.31L173.93 340.31L173.93 338.75L164.69 338.75L164.69 353.75L174.13 353.75ZM160.11 353.75L160.11 357.35L161.73 357.35L161.73 352.19L159.85 352.19L159.85 338.75L158.15 338.75L158.15 352.19L149.99 352.19L149.99 338.75L148.29 338.75L148.29 353.75L160.11 353.75Z" fill="#010202"/>
</svg>
