<svg width="480" height="391" viewBox="0 0 480 391" fill="none" xmlns="http://www.w3.org/2000/svg">
<path d="M0 390.75L480 390.75L480 0.75L3.40949e-05 0.749958L0 390.75Z" fill="white"/>
<path d="M113.53 140.45C113.87 140.83 114.28 141.15 114.75 141.41L108.36 145.84L110.17 146.53L116.45 142.18L119.7 143.42L117.43 149.32L119.02 149.93L124.4 135.93L118.72 133.75C118.08 133.5 117.45 133.37 116.83 133.37C116.24 133.37 115.67 133.47 115.15 133.68C114.64 133.89 114.19 134.2 113.78 134.62C113.38 135.03 113.06 135.54 112.84 136.14C112.62 136.68 112.51 137.22 112.5 137.74C112.5 138.26 112.58 138.75 112.75 139.21C112.93 139.67 113.19 140.08 113.53 140.45ZM114.48 136.77C114.78 135.98 115.26 135.45 115.93 135.16C116.61 134.88 117.36 134.9 118.18 135.21L122.25 136.78L120.26 141.97L116.15 140.39C115.35 140.08 114.8 139.6 114.48 138.93C114.18 138.27 114.18 137.55 114.48 136.77ZM128.91 153.73L133.44 141.93L135.94 150.09L136.29 150.23L143.65 145.81L139.1 157.65L140.63 158.24L146.01 144.23L144.31 143.58L136.99 148.03L134.45 139.79L132.75 139.14L127.37 153.14L128.91 153.73ZM146.48 160.48L149.06 153.78L157.16 156.9L154.58 163.6L156.17 164.21L161.55 150.21L159.96 149.6L157.72 155.44L149.62 152.33L151.86 146.48L150.28 145.87L144.9 159.87L146.48 160.48ZM161.52 162.45C161.69 163.76 162.17 164.92 162.96 165.94C163.76 166.95 164.82 167.7 166.14 168.21C167.47 168.72 168.77 168.87 170.04 168.66C171.31 168.43 172.44 167.89 173.43 167.02C174.42 166.16 175.18 165.05 175.7 163.68C176.23 162.31 176.41 160.97 176.26 159.67C176.11 158.35 175.63 157.19 174.83 156.19C174.03 155.18 172.97 154.42 171.64 153.91C170.32 153.4 169.01 153.26 167.73 153.48C166.46 153.69 165.33 154.23 164.35 155.09C163.36 155.96 162.6 157.07 162.07 158.44C161.55 159.81 161.36 161.15 161.52 162.45ZM163.72 159.07C164.14 157.96 164.73 157.06 165.48 156.37C166.25 155.67 167.11 155.24 168.06 155.06C169.03 154.88 170.04 154.99 171.07 155.38C172.09 155.78 172.9 156.36 173.5 157.15C174.1 157.93 174.45 158.82 174.54 159.84C174.65 160.87 174.49 161.94 174.06 163.05C173.63 164.15 173.04 165.05 172.27 165.74C171.52 166.44 170.66 166.88 169.69 167.06C168.72 167.24 167.73 167.13 166.71 166.73C165.67 166.34 164.86 165.75 164.25 164.98C163.67 164.2 163.32 163.29 163.22 162.27C163.12 161.24 163.29 160.18 163.72 159.07ZM177.82 172.53L182.64 159.98L189.44 162.59L190 161.13L181.62 157.91L176.24 171.92L177.82 172.53ZM187.7 172.51C187.87 173.81 188.35 174.98 189.14 176C189.94 177 191 177.76 192.32 178.27C193.65 178.78 194.95 178.93 196.22 178.72C197.49 178.49 198.62 177.95 199.61 177.08C200.6 176.22 201.36 175.1 201.88 173.74C202.41 172.37 202.59 171.03 202.44 169.73C202.29 168.41 201.81 167.25 201.01 166.24C200.21 165.24 199.15 164.48 197.82 163.97C196.5 163.46 195.2 163.32 193.91 163.54C192.64 163.75 191.52 164.29 190.53 165.15C189.54 166.01 188.78 167.13 188.25 168.5C187.73 169.87 187.54 171.2 187.7 172.51ZM189.9 169.13C190.32 168.02 190.91 167.12 191.67 166.42C192.43 165.73 193.29 165.3 194.24 165.12C195.21 164.94 196.22 165.05 197.25 165.44C198.27 165.83 199.08 166.42 199.68 167.21C200.28 167.98 200.63 168.88 200.72 169.9C200.83 170.93 200.67 172 200.24 173.1C199.81 174.21 199.22 175.11 198.45 175.8C197.7 176.5 196.84 176.94 195.87 177.12C194.9 177.3 193.91 177.19 192.89 176.79C191.86 176.4 191.04 175.81 190.44 175.04C189.85 174.25 189.5 173.35 189.4 172.32C189.31 171.3 189.47 170.24 189.9 169.13ZM204.72 186.72L206.02 183.36L216.75 187.48L215.46 190.84L216.99 191.43L218.84 186.61L217.07 185.93L221.89 173.39L212.85 169.92L211.47 173.28C211.04 174.33 210.64 175.26 210.28 176.06C209.92 176.87 209.59 177.57 209.28 178.16C208.98 178.75 208.69 179.25 208.42 179.65C208.17 180.06 207.92 180.39 207.68 180.65C207.47 180.89 207.25 181.1 207 181.29C206.76 181.47 206.51 181.63 206.26 181.78L205.04 181.31L203.19 186.13L204.72 186.72ZM209.32 181.07C209.77 180.53 210.23 179.83 210.69 178.99C211.02 178.41 211.36 177.73 211.72 176.94C212.08 176.15 212.46 175.25 212.88 174.25L213.82 171.96L219.76 174.24L215.5 185.33L207.88 182.4C208.39 182.05 208.86 181.61 209.32 181.07ZM222.49 189.69L224.17 190.33L236.25 178.91L234.57 178.26L227.14 185.28L226.02 174.98L224.27 174.3L225.59 186.74L222.49 189.69ZM234.63 194.35L239.17 182.55L241.67 190.71L242.02 190.85L249.37 186.43L244.83 198.27L246.36 198.86L251.74 184.86L250.04 184.2L242.71 188.65L240.18 180.42L238.48 179.76L233.1 193.76L234.63 194.35ZM250.34 200.39L254.03 196.26L259.59 198.39L259.56 203.93L261.24 204.58L261.25 188.51L259.49 187.84L248.76 199.78L250.34 200.39ZM259.64 189.97L259.6 196.75L255.12 195.03L259.64 189.97ZM263.1 205.46C263.99 205.8 264.79 205.75 265.52 205.3C266.25 204.84 267.02 203.92 267.82 202.54C268.23 201.84 268.68 200.99 269.15 199.99C269.62 198.97 270.14 197.79 270.7 196.45L271.66 194.18L277.69 196.5L272.87 209.04L274.45 209.65L279.83 195.65L270.67 192.13L269.29 195.5C268.75 196.79 268.26 197.92 267.82 198.88C267.39 199.84 266.99 200.65 266.63 201.31C266.27 201.96 265.96 202.48 265.68 202.88C265.4 203.27 265.14 203.55 264.91 203.71C264.44 204.05 263.96 204.12 263.47 203.93C263.36 203.89 263.22 203.81 263.04 203.68L262.26 204.92C262.5 205.16 262.78 205.34 263.1 205.46ZM283.93 209.48C284.1 210.79 284.58 211.95 285.37 212.97C286.17 213.98 287.23 214.73 288.55 215.24C289.88 215.75 291.18 215.9 292.45 215.69C293.72 215.46 294.85 214.92 295.84 214.06C296.83 213.19 297.59 212.08 298.11 210.71C298.64 209.34 298.82 208 298.67 206.7C298.51 205.38 298.04 204.22 297.24 203.22C296.44 202.21 295.38 201.45 294.04 200.94C292.72 200.43 291.42 200.29 290.14 200.51C288.87 200.72 287.74 201.26 286.75 202.12C285.77 202.99 285.01 204.1 284.48 205.47C283.96 206.84 283.77 208.18 283.93 209.48ZM286.13 206.1C286.55 204.99 287.14 204.09 287.89 203.4C288.66 202.71 289.52 202.27 290.47 202.09C291.44 201.91 292.44 202.02 293.48 202.41C294.5 202.81 295.31 203.4 295.9 204.18C296.51 204.96 296.85 205.85 296.95 206.88C297.05 207.9 296.89 208.97 296.47 210.08C296.04 211.18 295.45 212.08 294.68 212.78C293.93 213.47 293.07 213.91 292.1 214.1C291.13 214.27 290.14 214.16 289.12 213.76C288.08 213.37 287.27 212.78 286.66 212.01C286.08 211.23 285.73 210.32 285.63 209.3C285.53 208.27 285.7 207.21 286.13 206.1ZM305.47 221.57L307.06 222.18L311.88 209.63L316.38 211.36L316.94 209.91L306.37 205.85L305.81 207.3L310.29 209.02L305.47 221.57ZM314.67 221.29C314.84 222.6 315.32 223.76 316.11 224.78C316.91 225.79 317.97 226.54 319.29 227.05C320.62 227.56 321.92 227.71 323.19 227.5C324.46 227.27 325.59 226.73 326.58 225.87C327.57 225 328.32 223.89 328.85 222.52C329.38 221.15 329.56 219.81 329.4 218.51C329.25 217.19 328.78 216.03 327.98 215.03C327.18 214.02 326.11 213.26 324.78 212.75C323.46 212.24 322.16 212.1 320.88 212.32C319.61 212.53 318.48 213.07 317.49 213.93C316.5 214.8 315.75 215.91 315.22 217.28C314.7 218.65 314.51 219.99 314.67 221.29ZM316.86 217.91C317.29 216.81 317.88 215.9 318.63 215.21C319.4 214.52 320.26 214.08 321.21 213.91C322.18 213.72 323.18 213.83 324.22 214.22C325.24 214.62 326.05 215.21 326.64 215.99C327.25 216.77 327.59 217.66 327.69 218.69C327.79 219.71 327.63 220.78 327.21 221.89C326.78 222.99 326.19 223.89 325.42 224.59C324.67 225.28 323.81 225.72 322.83 225.91C321.87 226.08 320.88 225.97 319.86 225.58C318.82 225.18 318 224.59 317.4 223.82C316.82 223.04 316.47 222.13 316.37 221.11C316.27 220.09 316.44 219.02 316.86 217.91ZM330.91 231.35L335.45 219.55L337.95 227.71L338.3 227.84L345.66 223.43L341.11 235.26L342.64 235.85L348.02 221.85L346.32 221.2L339 225.65L336.46 217.41L334.76 216.76L329.38 230.76L330.91 231.35ZM345.46 240.15L348.7 236.04L346.93 235.36L344.26 239.69L345.46 240.15ZM357.89 234.25C358.48 235.3 359.57 236.12 361.14 236.72C361.73 236.95 362.35 237.12 362.98 237.22C363.61 237.32 364.31 237.38 365.08 237.4L362.71 243.56L364.3 244.17L369.67 230.17L368.09 229.56L365.63 235.96C364.9 235.97 364.24 235.92 363.65 235.82C363.07 235.72 362.5 235.55 361.93 235.33C360.72 234.87 359.92 234.27 359.51 233.53C359.13 232.79 359.15 231.86 359.58 230.73L361.07 226.86L359.48 226.25L357.86 230.47C357.3 231.94 357.3 233.2 357.89 234.25ZM371.27 246.85L372.86 247.46L377.68 234.92L382.18 236.64L382.74 235.19L372.17 231.13L371.61 232.58L376.09 234.31L371.27 246.85ZM380.47 246.57C380.63 247.88 381.12 249.04 381.91 250.06C382.71 251.07 383.77 251.82 385.09 252.33C386.42 252.84 387.72 252.99 388.99 252.78C390.26 252.55 391.39 252.01 392.38 251.15C393.37 250.28 394.12 249.17 394.65 247.8C395.17 246.43 395.36 245.09 395.2 243.79C395.05 242.48 394.58 241.31 393.78 240.31C392.98 239.3 391.91 238.54 390.58 238.03C389.26 237.52 387.96 237.38 386.68 237.6C385.41 237.81 384.28 238.35 383.29 239.21C382.3 240.08 381.55 241.19 381.02 242.56C380.49 243.93 380.31 245.27 380.47 246.57ZM382.66 243.19C383.09 242.09 383.68 241.18 384.43 240.49C385.2 239.8 386.06 239.36 387.01 239.19C387.98 239 388.98 239.11 390.02 239.51C391.04 239.9 391.84 240.49 392.44 241.27C393.04 242.05 393.39 242.95 393.49 243.97C393.59 244.99 393.43 246.06 393.01 247.17C392.58 248.28 391.98 249.17 391.22 249.87C390.47 250.56 389.6 251 388.63 251.19C387.67 251.36 386.67 251.25 385.65 250.86C384.62 250.46 383.8 249.87 383.2 249.1C382.62 248.32 382.27 247.41 382.16 246.39C382.07 245.37 382.24 244.3 382.66 243.19ZM402.01 258.66L403.6 259.27L408.42 246.73L412.92 248.45L413.48 247L402.91 242.94L402.35 244.39L406.83 246.12L402.01 258.66ZM409.07 261.37L412.76 257.24L418.32 259.38L418.29 264.92L419.97 265.56L419.97 249.49L418.22 248.82L407.48 260.76L409.07 261.37ZM418.36 250.95L418.33 257.73L413.85 256.01L418.36 250.95ZM423.95 267.09L426.5 260.46L428.5 261.23L431.2 269.88L433.1 270.61L430.16 260.97L438.33 256.55L436.41 255.81L429.12 259.78L427.06 258.99L429.33 253.09L427.74 252.48L422.36 266.48L423.95 267.09ZM436.18 267.98C436.35 269.28 436.83 270.45 437.63 271.47C438.42 272.47 439.48 273.23 440.8 273.74C442.13 274.25 443.43 274.4 444.7 274.19C445.97 273.96 447.1 273.42 448.09 272.55C449.08 271.69 449.84 270.57 450.36 269.21C450.89 267.84 451.07 266.5 450.92 265.2C450.77 263.88 450.29 262.72 449.49 261.71C448.69 260.71 447.63 259.95 446.3 259.44C444.98 258.93 443.68 258.79 442.39 259.01C441.12 259.22 440 259.76 439.01 260.62C438.02 261.48 437.26 262.6 436.74 263.97C436.21 265.34 436.02 266.67 436.18 267.98ZM438.38 264.6C438.8 263.49 439.39 262.59 440.15 261.89C440.91 261.2 441.77 260.77 442.72 260.59C443.7 260.41 444.7 260.52 445.73 260.91C446.75 261.3 447.56 261.89 448.16 262.68C448.76 263.45 449.11 264.35 449.2 265.37C449.31 266.4 449.15 267.47 448.72 268.57C448.3 269.68 447.7 270.58 446.93 271.27C446.18 271.97 445.32 272.41 444.35 272.59C443.38 272.77 442.39 272.66 441.37 272.26C440.34 271.87 439.52 271.28 438.92 270.51C438.33 269.72 437.99 268.82 437.88 267.79C437.79 266.77 437.95 265.71 438.38 264.6ZM459.71 280.83L460.27 279.37L453.04 276.6L455.05 271.39L460.07 273.32L460.63 271.86L455.6 269.93L457.3 265.51L464.34 268.21L464.9 266.76L456.28 263.44L450.9 277.45L459.71 280.83ZM468.11 284.06L472.93 271.51L480 274.23L480 272.56L471.9 269.45L466.52 283.45L468.11 284.06ZM477.57 287.69L480 281.37L480 276.65L475.99 287.09L477.57 287.69ZM480 288.65L480 288.29L479.85 288.53C479.9 288.58 479.95 288.62 480 288.65Z" fill="#010202"/>
<path d="M52.46 136.62L65.57 133.63L67.44 141.86L54.34 144.84L54.72 146.5L69.34 143.17L66.71 131.63L52.09 134.96L52.46 136.62ZM55.32 149.86C55.53 150.78 56.0201 151.42 56.8001 151.78C57.5901 152.13 58.78 152.26 60.38 152.15C61.18 152.11 62.14 152 63.23 151.83C64.34 151.66 65.6101 151.43 67.0401 151.15L69.45 150.68L70.8901 156.98L57.7901 159.96L58.1601 161.62L72.7901 158.29L70.61 148.71L67.0401 149.44C65.6701 149.72 64.4601 149.94 63.4201 150.11C62.3801 150.29 61.48 150.41 60.73 150.47C59.99 150.54 59.3901 150.57 58.9001 150.56C58.4201 150.55 58.0501 150.49 57.7801 150.39C57.2401 150.18 56.9101 149.82 56.8001 149.32C56.7701 149.2 56.7601 149.03 56.7601 148.81L55.3001 148.86C55.2301 149.19 55.24 149.52 55.32 149.86ZM61.2801 175.28L62.8001 174.93L61.08 167.39L66.5201 166.15L67.71 171.39L69.23 171.04L68.0401 165.8L72.6601 164.75L74.34 172.1L75.86 171.75L73.8001 162.74L59.1801 166.07L61.2801 175.28ZM63.09 184.04C63.35 185.17 63.7801 186.14 64.3901 186.94C65.0101 187.76 65.7701 188.37 66.6501 188.79C67.5401 189.21 68.52 189.43 69.59 189.43L69.62 187.66C68.83 187.7 68.1001 187.58 67.4201 187.28C66.7301 186.98 66.1501 186.53 65.6501 185.92C65.1701 185.3 64.83 184.56 64.63 183.69C64.38 182.6 64.42 181.59 64.76 180.66C65.11 179.74 65.68 178.96 66.48 178.32C67.3 177.69 68.25 177.24 69.36 176.99C70.45 176.74 71.49 176.73 72.49 176.95C73.5 177.19 74.3601 177.65 75.0601 178.34C75.7801 179.02 76.26 179.9 76.5 180.98C76.79 182.23 76.6701 183.34 76.1601 184.32C75.6601 185.3 74.85 186.04 73.75 186.55L74.5601 188.11C75.5001 187.68 76.28 187.09 76.88 186.33C77.49 185.59 77.9 184.73 78.1 183.76C78.32 182.78 78.3001 181.74 78.0501 180.63C77.7401 179.28 77.14 178.14 76.24 177.21C75.35 176.29 74.26 175.66 72.98 175.31C71.71 174.97 70.37 174.96 68.97 175.28C67.55 175.6 66.34 176.18 65.33 177.03C64.33 177.88 63.63 178.92 63.22 180.13C62.82 181.36 62.77 182.66 63.09 184.04ZM65.7801 195.04L72.7 193.46L73.1801 195.55L67.5 202.61L67.96 204.59L74.32 196.79L82.5501 201.11L82.09 199.1L74.73 195.26L74.24 193.11L80.4101 191.71L80.0301 190.05L65.4001 193.38L65.7801 195.04ZM78.32 227.03L79.7901 226.7L75.5201 207.98L74.0601 208.31L78.32 227.03ZM75.87 240.1C76.11 241.19 76.53 242.12 77.1 242.89C77.67 243.67 78.3501 244.27 79.1501 244.7C79.9501 245.15 80.84 245.43 81.82 245.53C82.82 245.63 83.8501 245.56 84.9301 245.31C86.0101 245.07 86.9701 244.69 87.8101 244.17C88.6501 243.66 89.34 243.04 89.87 242.3C90.4 241.57 90.75 240.73 90.94 239.8C91.12 238.87 91.09 237.86 90.84 236.77C90.65 235.95 90.36 235.21 89.96 234.55C89.57 233.9 89.1001 233.34 88.5401 232.88C87.9801 232.42 87.3601 232.07 86.6801 231.83C85.9901 231.59 85.27 231.48 84.51 231.5L84.47 233.13C85.07 233.12 85.6301 233.2 86.1501 233.37C86.6801 233.53 87.15 233.79 87.57 234.13C87.99 234.47 88.3501 234.89 88.6601 235.38C88.9601 235.88 89.19 236.45 89.33 237.09C89.51 237.87 89.5401 238.59 89.4101 239.25C89.3101 239.91 89.07 240.51 88.72 241.05C88.36 241.59 87.9 242.06 87.33 242.45C86.77 242.85 86.1201 243.17 85.4001 243.4L84 237.28L82.48 237.63L83.88 243.77C83.09 243.9 82.34 243.9 81.63 243.79C80.92 243.69 80.29 243.47 79.72 243.14C79.15 242.82 78.6701 242.37 78.2701 241.81C77.8701 241.26 77.5801 240.58 77.4001 239.79C77.0801 238.43 77.1701 237.26 77.6701 236.3C78.1601 235.36 78.98 234.64 80.11 234.17L79.34 232.64C77.87 233.3 76.83 234.27 76.2 235.55C75.58 236.83 75.47 238.34 75.87 240.1ZM78.9201 252.69L79.3001 254.35L92.4001 251.36L93.47 256.06L94.99 255.71L92.48 244.68L90.96 245.02L92.0201 249.7L78.9201 252.69ZM82.07 267.22C82.38 268.61 82.98 269.77 83.87 270.7C84.76 271.64 85.84 272.27 87.11 272.61C88.38 272.95 89.7301 272.96 91.1601 272.63C92.5901 272.31 93.8001 271.72 94.7901 270.86C95.8001 270 96.5 268.96 96.89 267.74C97.28 266.51 97.32 265.2 97 263.81C96.69 262.43 96.0801 261.27 95.1801 260.33C94.3001 259.4 93.23 258.76 91.96 258.42C90.69 258.08 89.3401 258.07 87.9101 258.4C86.4801 258.72 85.2701 259.31 84.2801 260.17C83.2801 261.04 82.5901 262.09 82.1801 263.31C81.7901 264.54 81.75 265.84 82.07 267.22ZM83.7 263.85C84.02 262.93 84.58 262.14 85.37 261.48C86.17 260.83 87.1501 260.38 88.3001 260.11C89.4601 259.85 90.5401 259.84 91.5401 260.07C92.5401 260.32 93.3801 260.8 94.0501 261.49C94.7501 262.19 95.22 263.08 95.46 264.16C95.71 265.23 95.67 266.23 95.35 267.16C95.04 268.1 94.49 268.89 93.69 269.53C92.9 270.19 91.92 270.65 90.77 270.92C89.61 271.18 88.5301 271.19 87.5301 270.94C86.5301 270.7 85.69 270.23 84.99 269.52C84.31 268.82 83.85 267.93 83.61 266.87C83.36 265.79 83.39 264.78 83.7 263.85ZM85.97 283.61L99.07 280.62L100.95 288.85L87.84 291.84L88.22 293.49L102.84 290.16L100.21 278.62L85.59 281.95L85.97 283.61ZM89.61 299.59L95.38 298.27L96.21 301.92C96.37 302.63 96.63 303.26 96.99 303.79C97.36 304.34 97.78 304.77 98.27 305.1C98.77 305.42 99.3201 305.64 99.9201 305.75C100.51 305.86 101.13 305.84 101.75 305.7C102.39 305.55 102.95 305.3 103.43 304.95C103.92 304.6 104.31 304.17 104.61 303.65C104.9 303.15 105.09 302.58 105.18 301.94C105.27 301.31 105.23 300.63 105.06 299.9L103.86 294.59L89.23 297.93L89.61 299.59ZM102.71 296.6L103.54 300.24C103.77 301.22 103.68 302.04 103.28 302.7C102.9 303.38 102.27 303.82 101.37 304.02C100.5 304.22 99.7301 304.1 99.0501 303.67C98.3901 303.24 97.95 302.54 97.73 301.57L96.9001 297.92L102.71 296.6ZM93.4301 317.07C93.7501 318.46 94.35 319.62 95.23 320.56C96.13 321.49 97.21 322.13 98.47 322.47C99.74 322.81 101.09 322.81 102.52 322.49C103.95 322.16 105.16 321.57 106.16 320.71C107.16 319.86 107.86 318.81 108.26 317.59C108.65 316.37 108.68 315.06 108.37 313.67C108.05 312.29 107.45 311.13 106.55 310.18C105.66 309.25 104.59 308.61 103.32 308.27C102.05 307.93 100.71 307.93 99.2801 308.25C97.8501 308.58 96.63 309.17 95.64 310.02C94.65 310.89 93.9501 311.94 93.5401 313.17C93.1501 314.39 93.1201 315.69 93.4301 317.07ZM95.0601 313.7C95.3901 312.78 95.94 311.99 96.74 311.33C97.53 310.69 98.5101 310.23 99.6701 309.97C100.82 309.7 101.9 309.69 102.9 309.93C103.9 310.18 104.74 310.65 105.42 311.34C106.11 312.05 106.58 312.94 106.83 314.02C107.07 315.08 107.03 316.08 106.71 317.02C106.4 317.95 105.85 318.74 105.05 319.39C104.26 320.05 103.29 320.51 102.13 320.77C100.97 321.03 99.89 321.04 98.89 320.79C97.89 320.55 97.05 320.08 96.36 319.38C95.67 318.67 95.21 317.79 94.97 316.72C94.72 315.64 94.7501 314.64 95.0601 313.7ZM95.09 339.84L95.45 341.42L100.48 340.28L100.06 338.44L113.17 335.46L112.79 333.8L99.69 336.79L97.87 328.83L110.98 325.84L110.6 324.19L95.97 327.52L98.6 339.04L95.09 339.84ZM101.72 352.72L103.24 352.37L101.52 344.83L106.96 343.59L108.16 348.83L109.68 348.49L108.48 343.24L113.1 342.19L114.78 349.54L116.3 349.19L114.25 340.18L99.62 343.52L101.72 352.72ZM103.53 361.48C103.79 362.61 104.22 363.58 104.83 364.39C105.45 365.2 106.21 365.82 107.09 366.23C107.99 366.66 108.96 366.87 110.03 366.87L110.06 365.1C109.27 365.14 108.54 365.02 107.86 364.72C107.18 364.43 106.59 363.97 106.09 363.36C105.61 362.75 105.27 362 105.07 361.13C104.82 360.04 104.87 359.03 105.2 358.11C105.55 357.18 106.13 356.4 106.93 355.77C107.74 355.13 108.7 354.68 109.8 354.43C110.89 354.18 111.94 354.17 112.93 354.4C113.94 354.63 114.8 355.09 115.5 355.78C116.22 356.46 116.7 357.35 116.95 358.42C117.23 359.67 117.12 360.79 116.6 361.77C116.1 362.74 115.3 363.48 114.2 364L115 365.56C115.94 365.12 116.72 364.53 117.33 363.77C117.94 363.03 118.34 362.18 118.54 361.2C118.76 360.22 118.74 359.18 118.49 358.07C118.18 356.72 117.58 355.58 116.68 354.65C115.79 353.73 114.7 353.1 113.42 352.75C112.15 352.41 110.81 352.4 109.41 352.72C107.99 353.04 106.78 353.62 105.77 354.47C104.77 355.33 104.07 356.36 103.67 357.57C103.26 358.8 103.22 360.1 103.53 361.48ZM107.03 376.85C107.29 377.98 107.72 378.95 108.33 379.75C108.95 380.57 109.71 381.18 110.6 381.6C111.49 382.02 112.47 382.24 113.53 382.24L113.56 380.47C112.78 380.51 112.04 380.39 111.36 380.09C110.68 379.79 110.09 379.34 109.59 378.73C109.11 378.11 108.77 377.37 108.57 376.5C108.33 375.41 108.37 374.4 108.71 373.47C109.05 372.55 109.63 371.77 110.43 371.13C111.24 370.5 112.2 370.05 113.3 369.8C114.4 369.55 115.44 369.54 116.43 369.76C117.44 370 118.3 370.46 119.01 371.15C119.72 371.83 120.2 372.71 120.45 373.79C120.73 375.04 120.62 376.15 120.1 377.13C119.6 378.11 118.8 378.85 117.7 379.36L118.51 380.92C119.45 380.49 120.22 379.9 120.83 379.14C121.44 378.4 121.84 377.54 122.05 376.57C122.26 375.59 122.24 374.55 121.99 373.44C121.68 372.09 121.08 370.95 120.18 370.02C119.29 369.1 118.2 368.47 116.92 368.12C115.65 367.77 114.32 367.76 112.91 368.08C111.5 368.41 110.28 368.99 109.27 369.84C108.28 370.69 107.58 371.73 107.17 372.94C106.76 374.17 106.72 375.47 107.03 376.85ZM109.16 386.19C109.24 386.53 109.41 386.78 109.66 386.94C109.92 387.11 110.22 387.16 110.56 387.09C110.88 387.01 111.12 386.84 111.28 386.57C111.44 386.32 111.48 386.02 111.41 385.68C111.33 385.34 111.16 385.09 110.9 384.91C110.65 384.75 110.36 384.71 110.03 384.78C109.69 384.86 109.44 385.03 109.28 385.28C109.13 385.55 109.09 385.85 109.16 386.19Z" fill="#010202"/>
<path d="M270.6 385.49C271.28 385.09 271.99 384.86 272.73 384.8C273.47 384.75 274.2 384.88 274.92 385.19C275.64 385.51 276.28 386.01 276.86 386.69C277.59 387.54 278.02 388.45 278.15 389.43C278.2 389.87 278.21 390.31 278.15 390.75L279.83 390.75C279.87 390.23 279.84 389.71 279.76 389.19C279.55 387.91 278.98 386.74 278.06 385.66C277.31 384.78 276.48 384.12 275.57 383.69C274.64 383.26 273.68 383.07 272.7 383.11C271.72 383.15 270.75 383.41 269.8 383.91L270.6 385.49ZM266.42 390.75C266.53 389.92 266.88 389.14 267.45 388.39L266.01 387.38C265.38 388.2 264.97 389.09 264.78 390.04C264.73 390.27 264.7 390.51 264.68 390.75L266.42 390.75ZM254.4 380.07C254.62 381.33 255.2 382.51 256.12 383.59C257.04 384.67 258.12 385.42 259.35 385.83C260.57 386.25 261.82 386.32 263.1 386.03C264.38 385.74 265.57 385.12 266.69 384.17C267.81 383.22 268.6 382.13 269.09 380.91C269.56 379.68 269.7 378.43 269.48 377.16C269.26 375.89 268.69 374.72 267.77 373.64C266.85 372.56 265.78 371.81 264.56 371.39C263.34 370.98 262.08 370.92 260.8 371.21C259.52 371.5 258.32 372.12 257.21 373.07C256.09 374.02 255.29 375.11 254.81 376.33C254.32 377.56 254.18 378.8 254.4 380.07ZM256.4 376.99C256.8 376.04 257.45 375.18 258.35 374.41C259.25 373.64 260.21 373.13 261.21 372.89C262.2 372.63 263.17 372.66 264.11 372.96C265.04 373.27 265.86 373.84 266.57 374.67C267.29 375.51 267.73 376.42 267.89 377.38C268.03 378.35 267.9 379.31 267.51 380.26C267.1 381.2 266.45 382.06 265.55 382.83C264.64 383.6 263.7 384.11 262.7 384.37C261.7 384.61 260.74 384.58 259.82 384.28C258.87 383.98 258.04 383.41 257.33 382.57C256.62 381.74 256.19 380.83 256.04 379.86C255.88 378.89 256 377.93 256.4 376.99ZM245.3 370.46C245.56 371.07 245.94 371.67 246.45 372.27C246.88 372.77 247.34 373.18 247.86 373.51C248.36 373.86 248.88 374.1 249.43 374.25C249.97 374.39 250.52 374.42 251.1 374.35C251.66 374.29 252.23 374.11 252.8 373.82L252.03 372.37C251.25 372.81 250.48 372.92 249.71 372.7C248.94 372.47 248.25 372 247.62 371.27C246.94 370.47 246.57 369.69 246.52 368.93C246.46 368.17 246.74 367.53 247.35 367.01C247.96 366.49 248.59 366.27 249.24 366.36C249.89 366.44 250.51 366.83 251.11 367.53L252.54 369.2L253.72 368.19L252.24 366.46C251.57 365.66 251.24 364.92 251.26 364.22C251.25 363.52 251.58 362.89 252.23 362.34C252.94 361.73 253.71 361.53 254.54 361.73C255.37 361.92 256.15 362.44 256.88 363.29C257.61 364.15 258.02 365.01 258.09 365.88C258.16 366.74 257.85 367.58 257.17 368.4L258.57 369.39C259.49 368.29 259.88 367.13 259.76 365.9C259.63 364.66 259.07 363.46 258.08 362.29C257.55 361.67 256.99 361.18 256.39 360.81C255.79 360.43 255.18 360.18 254.58 360.07C253.97 359.96 253.37 359.98 252.78 360.13C252.2 360.28 251.65 360.57 251.14 361.01C250.47 361.58 250.04 362.22 249.85 362.95C249.65 363.68 249.71 364.44 250.03 365.22C249.32 364.92 248.64 364.82 247.98 364.91C247.31 365.01 246.7 365.3 246.14 365.78C245.69 366.16 245.36 366.6 245.14 367.1C244.92 367.6 244.83 368.14 244.86 368.71C244.89 369.28 245.04 369.86 245.3 370.46ZM233.78 357.18L240.06 364.54L242.88 362.24C243.76 361.52 244.55 360.9 245.26 360.37C245.95 359.83 246.58 359.37 247.14 359C247.68 358.63 248.17 358.32 248.6 358.09C249.02 357.86 249.39 357.69 249.73 357.57C250.03 357.46 250.33 357.38 250.63 357.33C250.93 357.29 251.22 357.26 251.52 357.26L252.36 358.25L256.29 354.9L255.22 353.65L252.48 355.99L245.01 347.24L247.75 344.9L246.69 343.66L242.76 347.01L244 348.45L233.78 357.18ZM245.09 349.73L250.39 355.94C249.78 356 249.14 356.16 248.49 356.42C247.84 356.69 247.1 357.08 246.28 357.6C245.73 357.95 245.1 358.39 244.41 358.91C243.71 359.43 242.95 360.04 242.11 360.72L240.18 362.28L236.05 357.45L245.09 349.73ZM227.84 350.24L242.98 344.86L241.87 343.57L236.66 345.44L232.79 340.91L235.46 336.05L234.29 334.69L226.62 348.81L227.84 350.24ZM232 342.35L235.12 346L228.74 348.29L232 342.35ZM221.15 342.4L232.56 332.66L226.43 325.48L225.24 326.5L230.27 332.38L226.03 336L222.53 331.91L221.35 332.93L224.84 337.02L221.24 340.1L216.34 334.36L215.15 335.38L221.15 342.4ZM214.17 334.22L215.35 333.21L212.24 329.56L222.46 320.83L221.35 319.54L211.13 328.27L208 324.6L206.82 325.61L214.17 334.22ZM216.31 316.71L220.72 314.18L219.89 313.21L215.08 315.27L216.31 316.71Z" fill="#010202"/>
<path d="M231.92 306.89L236.25 301.27L237.94 302.58L238.06 311.63L239.68 312.88L239.61 302.8L248.71 300.9L247.07 299.64L238.96 301.36L237.21 300.02L241.07 295.01L239.72 293.98L230.57 305.86L231.92 306.89ZM241.83 314.53L246.54 311.62L251.26 315.26L249.65 320.56L251.08 321.66L255.67 306.26L254.18 305.12L240.48 313.49L241.83 314.53ZM253.71 307.2L251.74 313.69L247.94 310.76L253.71 307.2ZM254.46 324.26L258.79 318.64L260.49 319.95L260.6 329L262.22 330.25L262.15 320.17L271.25 318.27L269.62 317.01L261.5 318.73L259.75 317.39L263.61 312.38L262.27 311.34L253.11 323.23L254.46 324.26ZM265.45 332.74L279.8 328.14L272.24 337.96L273.55 338.98L282.71 327.09L281.42 326.11L267.06 330.72L274.64 320.88L273.33 319.87L264.17 331.75L265.45 332.74ZM278.47 342.76L286.18 332.75L286.25 341.29L286.55 341.52L294.86 339.39L287.12 349.43L288.42 350.43L297.57 338.55L296.13 337.44L287.84 339.61L287.76 330.99L286.32 329.88L277.17 341.76L278.47 342.76ZM297.93 356.73C298.41 357.92 299.21 358.95 300.33 359.81C301.46 360.68 302.66 361.2 303.94 361.36C305.22 361.5 306.46 361.3 307.65 360.76C308.85 360.22 309.89 359.36 310.79 358.2C311.68 357.04 312.24 355.81 312.46 354.52C312.69 353.21 312.57 351.97 312.09 350.77C311.61 349.58 310.81 348.55 309.68 347.68C308.56 346.82 307.35 346.31 306.06 346.15C304.78 345.99 303.55 346.19 302.36 346.73C301.16 347.27 300.12 348.13 299.22 349.29C298.33 350.45 297.77 351.68 297.55 352.97C297.33 354.27 297.46 355.53 297.93 356.73ZM299.23 353.28C299.43 352.28 299.89 351.3 300.62 350.36C301.34 349.42 302.16 348.73 303.08 348.28C304.02 347.83 304.96 347.66 305.93 347.76C306.91 347.87 307.84 348.25 308.72 348.93C309.58 349.6 310.19 350.39 310.54 351.32C310.89 352.23 310.97 353.19 310.77 354.2C310.58 355.21 310.12 356.19 309.39 357.13C308.67 358.07 307.84 358.76 306.91 359.2C305.99 359.65 305.04 359.83 304.06 359.73C303.08 359.62 302.16 359.23 301.29 358.56C300.42 357.89 299.8 357.09 299.44 356.18C299.11 355.26 299.03 354.3 299.23 353.28ZM310.29 367.29L314.67 361.6L321.55 366.9L317.17 372.59L318.51 373.62L327.67 361.74L326.32 360.7L322.5 365.66L315.63 360.36L319.45 355.41L318.1 354.37L308.95 366.25L310.29 367.29ZM324.53 377.22C325.01 378.42 325.81 379.44 326.92 380.31C328.05 381.18 329.26 381.69 330.53 381.85C331.82 382 333.05 381.8 334.25 381.25C335.44 380.71 336.49 379.86 337.38 378.69C338.28 377.53 338.84 376.3 339.06 375.01C339.29 373.71 339.17 372.46 338.69 371.27C338.21 370.07 337.41 369.04 336.28 368.17C335.16 367.31 333.95 366.8 332.65 366.64C331.38 366.49 330.14 366.68 328.95 367.22C327.76 367.77 326.71 368.62 325.82 369.78C324.92 370.94 324.36 372.17 324.14 373.46C323.93 374.77 324.06 376.02 324.53 377.22ZM325.82 373.77C326.02 372.77 326.49 371.8 327.21 370.86C327.94 369.92 328.76 369.22 329.68 368.77C330.61 368.32 331.56 368.15 332.52 368.26C333.5 368.36 334.43 368.75 335.31 369.42C336.18 370.09 336.78 370.89 337.13 371.81C337.49 372.72 337.56 373.68 337.36 374.69C337.17 375.7 336.71 376.68 335.99 377.62C335.26 378.56 334.44 379.25 333.51 379.7C332.58 380.15 331.63 380.32 330.65 380.22C329.68 380.11 328.75 379.72 327.89 379.05C327.01 378.38 326.4 377.58 326.04 376.67C325.7 375.75 325.63 374.79 325.82 373.77ZM340.74 390.75L343.2 390.75L341.28 389.27L344.9 384.58L347.95 386.94C348.71 387.53 349.15 388.2 349.27 388.97C349.37 389.57 349.26 390.16 348.92 390.75L350.79 390.75C350.8 390.72 350.81 390.69 350.82 390.66C350.99 390.11 351.04 389.54 350.96 388.98C350.88 388.41 350.67 387.86 350.33 387.3C349.98 386.75 349.48 386.22 348.84 385.73L345.81 383.4L348.57 379.82L354.5 384.38L355.45 383.15L348.18 377.54L339.02 389.42L340.74 390.75ZM357.53 390.75L358.49 385.49L357 384.34L355.81 390.75L357.53 390.75V390.75Z" fill="#010202"/>
<path d="M183.1 312.4L249.13 390.75L250.44 390.75L183.86 311.75L225.36 270.75L382.19 390.75L383.83 390.75L225.97 269.96L225.28 269.43L183.16 311.04L182.5 311.69L183.1 312.4ZM136.51 390.75L137.53 390.75L80.26 144.86L480 298.18L480 297.11L79.74 143.59L78.86 143.25L136.51 390.75Z" fill="#010202"/>
<path d="M99.6802 118.271L100.81 127.901L109.12 132.891L100.31 136.941L98.1301 146.391L91.5602 139.261L81.9001 140.111L86.6501 131.651L82.8601 122.721L92.3601 124.631L99.6802 118.271Z" fill="#010202"/>
</svg>
