<svg width="481" height="391" viewBox="0 0 481 391" fill="none" xmlns="http://www.w3.org/2000/svg">
<path d="M1 390.75L481 390.75L481 0.75L1.00003 0.749958L1 390.75Z" fill="white"/>
<path d="M301.44 390.75C301.65 390.68 301.86 390.63 302.07 390.59C302.89 390.44 303.75 390.49 304.62 390.75L307.9 390.75C307.26 390.21 306.51 389.77 305.64 389.43C304.33 388.93 303.02 388.78 301.74 389C300.47 389.22 299.34 389.76 298.36 390.62C298.31 390.66 298.26 390.7 298.22 390.75L301.44 390.75ZM291.15 385.71L289.21 390.75L291.04 390.75L292.74 386.32L297.24 388.05L297.8 386.59L287.23 382.53L286.67 383.99L291.15 385.71ZM272.95 385.66C273.55 386.7 274.63 387.52 276.2 388.13C276.8 388.36 277.41 388.52 278.04 388.62C278.68 388.72 279.38 388.78 280.14 388.8L279.39 390.75L281.21 390.75L284.74 381.57L283.15 380.96L280.69 387.37C279.96 387.37 279.3 387.33 278.71 387.23C278.14 387.12 277.56 386.96 276.99 386.74C275.78 386.27 274.98 385.67 274.58 384.93C274.19 384.2 274.21 383.26 274.65 382.13L276.13 378.27L274.54 377.66L272.92 381.88C272.36 383.34 272.37 384.6 272.95 385.66ZM261.15 390.75L263.77 387.44L261.99 386.76L259.53 390.75L261.15 390.75ZM247.67 379.59C247.84 380.89 248.32 382.06 249.11 383.08C249.91 384.08 250.97 384.84 252.29 385.35C253.62 385.86 254.92 386.01 256.19 385.8C257.46 385.57 258.59 385.03 259.58 384.16C260.57 383.3 261.33 382.18 261.85 380.82C262.38 379.45 262.56 378.11 262.41 376.81C262.26 375.49 261.78 374.33 260.98 373.32C260.18 372.32 259.12 371.56 257.79 371.05C256.47 370.54 255.16 370.4 253.88 370.62C252.61 370.83 251.49 371.37 250.5 372.23C249.51 373.09 248.75 374.21 248.22 375.58C247.7 376.95 247.51 378.28 247.67 379.59ZM249.87 376.21C250.29 375.1 250.88 374.2 251.64 373.5C252.4 372.81 253.26 372.38 254.21 372.2C255.18 372.02 256.19 372.12 257.22 372.52C258.24 372.91 259.05 373.5 259.65 374.29C260.25 375.06 260.6 375.96 260.69 376.98C260.8 378.01 260.64 379.08 260.21 380.18C259.78 381.29 259.19 382.19 258.42 382.88C257.67 383.58 256.81 384.02 255.84 384.2C254.87 384.37 253.88 384.26 252.86 383.87C251.83 383.48 251.01 382.89 250.41 382.12C249.82 381.33 249.47 380.43 249.37 379.4C249.28 378.38 249.44 377.32 249.87 376.21ZM238.48 379.87L240.06 380.48L244.88 367.93L249.38 369.66L249.94 368.2L239.37 364.14L238.82 365.6L243.3 367.32L238.48 379.87ZM223.89 374.27C224.67 374.56 225.4 374.72 226.09 374.74C226.78 374.77 227.41 374.67 227.98 374.44C228.56 374.21 229.06 373.86 229.5 373.4C229.95 372.94 230.3 372.37 230.56 371.69C230.8 371.06 230.92 370.44 230.91 369.83C230.92 369.2 230.8 368.61 230.54 368.06C230.29 367.49 229.9 366.97 229.36 366.51C228.84 366.04 228.16 365.64 227.33 365.32L224.46 364.22L226.4 359.16L224.81 358.55L219.43 372.55L223.89 374.27ZM226.81 366.79C227.82 367.18 228.51 367.75 228.89 368.51C229.28 369.28 229.3 370.13 228.94 371.06C228.58 371.99 228 372.62 227.21 372.95C226.42 373.26 225.52 373.22 224.51 372.83L221.58 371.7L223.9 365.67L226.81 366.79ZM210.84 369.25L212.42 369.86L217.24 357.31L221.74 359.04L222.3 357.58L211.74 353.52L211.18 354.98L215.66 356.7L210.84 369.25ZM194.31 362.9L206.75 354.39L202.3 365.97L203.85 366.56L209.23 352.56L207.72 351.98L195.27 360.5L199.73 348.91L198.18 348.31L192.8 362.32L194.31 362.9ZM178.87 356.97L181.44 350.26L189.54 353.38L186.97 360.08L188.56 360.69L193.94 346.69L192.35 346.08L190.1 351.92L182 348.81L184.25 342.96L182.66 342.35L177.28 356.36L178.87 356.97ZM163.66 347.31C163.81 348.61 164.28 349.77 165.06 350.78C165.86 351.8 166.91 352.57 168.23 353.07C169.32 353.49 170.36 353.67 171.37 353.61C172.39 353.55 173.32 353.26 174.16 352.76C175.01 352.26 175.73 351.56 176.33 350.68L174.88 349.67C174.48 350.34 173.96 350.88 173.34 351.28C172.71 351.69 172 351.92 171.22 351.99C170.44 352.05 169.63 351.92 168.8 351.6C167.76 351.2 166.94 350.6 166.36 349.8C165.79 349 165.46 348.09 165.38 347.07C165.3 346.04 165.47 345 165.87 343.94C166.27 342.89 166.85 342.02 167.59 341.32C168.34 340.61 169.21 340.15 170.17 339.95C171.14 339.74 172.14 339.83 173.17 340.23C174.36 340.69 175.22 341.4 175.75 342.38C176.28 343.34 176.45 344.42 176.26 345.62L178.01 345.82C178.17 344.79 178.11 343.82 177.82 342.89C177.55 341.97 177.06 341.16 176.36 340.45C175.67 339.72 174.79 339.16 173.74 338.75C172.44 338.26 171.16 338.12 169.89 338.35C168.63 338.58 167.49 339.13 166.49 340C165.5 340.86 164.75 341.96 164.23 343.31C163.71 344.66 163.52 346 163.66 347.31ZM152.83 339.59C153.17 339.96 153.58 340.28 154.04 340.55L147.65 344.97L149.46 345.67L155.74 341.31L158.99 342.56L156.73 348.46L158.31 349.07L163.69 335.07L158.02 332.89C157.37 332.64 156.74 332.51 156.13 332.5C155.53 332.5 154.97 332.61 154.44 332.82C153.94 333.02 153.48 333.34 153.08 333.75C152.68 334.17 152.36 334.68 152.13 335.27C151.92 335.82 151.81 336.36 151.79 336.88C151.79 337.39 151.88 337.88 152.04 338.35C152.22 338.8 152.49 339.22 152.83 339.59ZM153.77 335.9C154.07 335.12 154.56 334.58 155.23 334.3C155.91 334.02 156.66 334.03 157.48 334.35L161.55 335.91L159.55 341.1L155.45 339.52C154.65 339.22 154.09 338.73 153.78 338.07C153.47 337.41 153.47 336.69 153.77 335.9ZM141.52 342.62C142.29 342.91 143.03 343.07 143.72 343.1C144.41 343.12 145.04 343.02 145.61 342.8C146.19 342.56 146.69 342.21 147.13 341.75C147.57 341.29 147.93 340.72 148.19 340.04C148.43 339.41 148.55 338.8 148.54 338.18C148.55 337.55 148.43 336.96 148.17 336.41C147.92 335.84 147.52 335.32 146.99 334.86C146.47 334.39 145.79 333.99 144.96 333.67L142.08 332.57L144.03 327.51L142.44 326.9L137.06 340.9L141.52 342.62ZM144.44 335.15C145.44 335.53 146.14 336.11 146.52 336.87C146.91 337.63 146.93 338.48 146.57 339.41C146.21 340.35 145.63 340.97 144.84 341.3C144.05 341.61 143.15 341.57 142.14 341.18L139.21 340.06L141.52 334.03L144.44 335.15ZM129.6 338.04C130.31 338.31 130.98 338.46 131.61 338.49C132.26 338.51 132.84 338.41 133.37 338.2C133.91 337.99 134.38 337.67 134.79 337.24C135.19 336.81 135.52 336.28 135.77 335.63C136 335.04 136.11 334.46 136.1 333.87C136.11 333.29 136 332.74 135.75 332.22C135.52 331.7 135.16 331.22 134.67 330.79C134.18 330.36 133.56 330 132.8 329.71L129.23 328.34L130.85 324.12L137.83 326.8L138.39 325.35L129.82 322.05L124.44 336.06L129.6 338.04ZM132.3 331.12C133.19 331.47 133.81 331.99 134.14 332.69C134.47 333.37 134.48 334.15 134.15 335.01C133.82 335.86 133.29 336.44 132.58 336.74C131.87 337.02 131.07 336.99 130.17 336.65L126.57 335.26L128.69 329.74L132.3 331.12ZM109.73 326.59C109.9 327.89 110.38 329.06 111.17 330.08C111.97 331.08 113.03 331.84 114.35 332.35C115.68 332.86 116.98 333.01 118.25 332.8C119.52 332.57 120.65 332.03 121.64 331.16C122.63 330.3 123.38 329.18 123.91 327.82C124.44 326.45 124.62 325.11 124.47 323.81C124.31 322.49 123.84 321.33 123.04 320.32C122.24 319.32 121.18 318.56 119.84 318.05C118.52 317.54 117.22 317.4 115.94 317.62C114.67 317.83 113.54 318.37 112.55 319.23C111.57 320.09 110.81 321.21 110.28 322.58C109.76 323.95 109.57 325.28 109.73 326.59ZM111.93 323.21C112.35 322.1 112.94 321.2 113.69 320.5C114.46 319.81 115.32 319.38 116.27 319.2C117.24 319.02 118.24 319.13 119.28 319.52C120.3 319.91 121.11 320.5 121.7 321.29C122.31 322.06 122.65 322.96 122.75 323.98C122.85 325.01 122.69 326.08 122.27 327.18C121.84 328.29 121.25 329.19 120.48 329.88C119.73 330.58 118.87 331.02 117.9 331.2C116.93 331.38 115.94 331.27 114.92 330.87C113.88 330.48 113.07 329.89 112.46 329.12C111.88 328.33 111.53 327.43 111.43 326.4C111.33 325.38 111.5 324.32 111.93 323.21ZM93.0699 324L95.6099 317.37L97.6099 318.14L100.31 326.78L102.22 327.51L99.2799 317.88L107.45 313.46L105.52 312.72L98.2299 316.69L96.1799 315.9L98.4499 310L96.8599 309.39L91.4799 323.39L93.0699 324ZM78.1799 318.28L81.8699 314.15L87.4299 316.29L87.4099 321.82L89.0899 322.47L89.0899 306.4L87.3299 305.73L76.5999 317.67L78.1799 318.28ZM87.4799 307.86L87.4499 314.64L82.9599 312.92L87.4799 307.86ZM66.4999 313.79L69.0499 307.17L71.0499 307.93L73.7499 316.58L75.6499 317.31L72.7099 307.67L80.8799 303.25L78.9599 302.51L71.6699 306.48L69.6199 305.69L71.8799 299.79L70.2999 299.18L64.9199 313.18L66.4999 313.79ZM55.8299 309.54C55.9699 309.82 56.1999 310.03 56.5199 310.15C56.8399 310.28 57.1399 310.28 57.4199 310.15C57.7099 310.04 57.9099 309.81 58.0399 309.49C58.1599 309.18 58.1499 308.88 58.0099 308.6C57.8899 308.33 57.6699 308.13 57.3399 308C57.0199 307.88 56.7199 307.88 56.4299 307.99C56.1499 308.12 55.9499 308.33 55.8299 308.64C55.7099 308.97 55.7099 309.27 55.8299 309.54ZM45.0499 305.55L47.5899 298.92L49.5899 299.69L52.2899 308.33L54.1899 309.06L51.2499 299.43L59.4199 295L57.4999 294.27L50.2099 298.24L48.1599 297.45L50.4299 291.55L48.8399 290.94L43.4599 304.94L45.0499 305.55ZM29.8399 295.89C29.9899 297.19 30.4599 298.35 31.2399 299.37C32.0399 300.39 33.0899 301.15 34.4099 301.66C35.4999 302.07 36.5399 302.25 37.5499 302.2C38.5699 302.13 39.4999 301.85 40.3399 301.34C41.1899 300.84 41.9099 300.15 42.5099 299.26L41.0599 298.25C40.6499 298.93 40.1399 299.46 39.5099 299.87C38.8899 300.27 38.1799 300.51 37.3999 300.58C36.6199 300.63 35.8099 300.5 34.9799 300.18C33.9299 299.78 33.1199 299.18 32.5399 298.39C31.9599 297.58 31.6399 296.67 31.5599 295.65C31.4799 294.62 31.6399 293.58 32.0499 292.52C32.4499 291.48 33.0199 290.6 33.7599 289.9C34.5199 289.19 35.3799 288.74 36.3499 288.54C37.3099 288.32 38.3099 288.42 39.3499 288.81C40.5399 289.27 41.3999 289.99 41.9299 290.96C42.4599 291.92 42.6299 293 42.4399 294.2L44.1899 294.4C44.3499 293.38 44.2899 292.4 43.9999 291.48C43.7299 290.56 43.2399 289.74 42.5399 289.03C41.8499 288.31 40.9699 287.74 39.9099 287.34C38.6199 286.84 37.3399 286.7 36.0599 286.93C34.7999 287.16 33.6699 287.71 32.6699 288.58C31.6799 289.44 30.9199 290.55 30.4099 291.89C29.8899 293.25 29.6999 294.58 29.8399 295.89ZM26.1299 298.28L26.6899 296.82L19.4599 294.05L21.4599 288.84L26.4799 290.77L27.0399 289.31L22.0199 287.38L23.7199 282.96L30.7599 285.66L31.3199 284.21L22.6899 280.89L17.3099 294.89L26.1299 298.28ZM0.999887 288.64C1.19989 288.83 1.4299 288.97 1.6999 289.07C2.5799 289.41 3.38988 289.35 4.11988 288.9C4.84988 288.44 5.61987 287.52 6.41987 286.15C6.82987 285.45 7.26988 284.59 7.73988 283.59C8.21988 282.57 8.73988 281.39 9.29988 280.05L10.2499 277.78L16.2799 280.1L11.4599 292.65L13.0499 293.26L18.4299 279.25L9.2599 275.73L7.87989 279.1C7.33989 280.39 6.84986 281.52 6.40986 282.48C5.98986 283.44 5.58986 284.25 5.21986 284.91C4.86986 285.56 4.55992 286.09 4.27992 286.48C3.99992 286.87 3.7399 287.15 3.5099 287.32C3.0299 287.65 2.55989 287.72 2.06989 287.54C1.95989 287.5 1.80989 287.41 1.62989 287.28L0.999887 288.3L0.859872 288.53C0.899872 288.57 0.949887 288.62 0.999887 288.64ZM0.999887 281.39L3.95991 273.69L0.999888 272.56L0.999888 274.23L1.80989 274.54L0.999888 276.65L0.999887 281.39Z" fill="#010202"/>
<path d="M5.67995 152.14C6.17995 153.32 7.00993 154.34 8.15993 155.18C9.28993 156.02 10.51 156.51 11.81 156.64C13.09 156.77 14.32 156.55 15.5 155.98C16.68 155.41 17.71 154.54 18.58 153.36C19.45 152.18 19.98 150.94 20.18 149.64C20.37 148.34 20.2099 147.09 19.7199 145.89C19.2099 144.71 18.39 143.7 17.26 142.86C16.11 142.01 14.9 141.52 13.62 141.39C12.33 141.27 11.0999 141.49 9.91994 142.06C8.72994 142.63 7.70998 143.51 6.82998 144.69C5.95998 145.87 5.42994 147.11 5.22994 148.4C5.02994 149.71 5.17995 150.96 5.67995 152.14ZM6.93996 148.69C7.10996 147.67 7.54996 146.69 8.24996 145.73C8.95996 144.78 9.76996 144.07 10.69 143.61C11.6 143.13 12.55 142.94 13.53 143.02C14.51 143.11 15.44 143.48 16.32 144.13C17.21 144.79 17.8399 145.57 18.2199 146.48C18.5699 147.39 18.6699 148.35 18.4899 149.37C18.3099 150.38 17.8699 151.36 17.1599 152.31C16.4599 153.27 15.6499 153.98 14.7399 154.45C13.8199 154.91 12.8699 155.1 11.9099 155.02C10.9199 154.94 9.98993 154.57 9.09993 153.91C8.21993 153.26 7.58994 152.48 7.22994 151.56C6.84994 150.66 6.75996 149.7 6.93996 148.69ZM18.26 162.45L21.9799 157.41L28.96 162.57L25.2399 167.6L26.6099 168.61L35.52 156.54L34.15 155.53L29.89 161.31L22.9099 156.15L27.1699 150.38L25.7999 149.37L16.89 161.44L18.26 162.45ZM30.32 171.35L37.76 168.98L39.4199 170.21L35.6599 175.29L37.01 176.29L40.77 171.21L42.4099 172.42L42.37 180.25L43.9299 181.4L44 172.62L52.9899 169.44L51.44 168.3L43.33 171.13L41.71 169.94L45.9199 164.22L44.57 163.23L40.3499 168.94L38.76 167.76L39.12 159.2L37.52 158.02L37.09 167.57L28.7399 170.18L30.32 171.35ZM48.25 183.57C48.75 184.75 49.5799 185.76 50.7199 186.61C51.8599 187.45 53.08 187.94 54.37 188.06C55.65 188.2 56.88 187.98 58.07 187.41C59.25 186.84 60.27 185.97 61.15 184.79C62.02 183.61 62.55 182.37 62.75 181.07C62.93 179.76 62.78 178.51 62.28 177.32C61.78 176.14 60.96 175.13 59.82 174.29C58.68 173.44 57.46 172.95 56.18 172.82C54.9 172.7 53.6599 172.92 52.4799 173.49C51.2999 174.06 50.27 174.93 49.4 176.11C48.53 177.29 47.9999 178.53 47.7999 179.83C47.5999 181.14 47.75 182.38 48.25 183.57ZM49.5 180.12C49.67 179.1 50.11 178.11 50.82 177.16C51.52 176.2 52.33 175.5 53.26 175.03C54.17 174.56 55.1199 174.37 56.0999 174.45C57.0799 174.54 58 174.91 58.88 175.56C59.77 176.22 60.41 177 60.78 177.9C61.14 178.81 61.23 179.78 61.06 180.79C60.88 181.8 60.4299 182.79 59.7299 183.74C59.0299 184.69 58.22 185.41 57.31 185.88C56.38 186.34 55.4399 186.53 54.4699 186.45C53.4899 186.37 52.5499 186 51.6599 185.34C50.7799 184.69 50.1599 183.91 49.7899 182.99C49.4199 182.08 49.32 181.13 49.5 180.12ZM60.95 193.96L69.19 191.62L69.44 200.23L70.9099 201.31L79.82 189.25L78.5 188.27L70.9899 198.44L70.75 189.91L70.44 189.69L62.1799 191.99L69.71 181.79L68.39 180.81L59.4799 192.88L60.95 193.96ZM80.52 207.39C81.02 208.58 81.85 209.59 83 210.44C84.13 211.28 85.35 211.76 86.65 211.89C87.93 212.02 89.16 211.81 90.34 211.24C91.52 210.67 92.5499 209.79 93.4199 208.61C94.2899 207.43 94.82 206.2 95.02 204.9C95.2 203.59 95.05 202.34 94.56 201.15C94.05 199.97 93.2299 198.95 92.0999 198.12C90.9499 197.27 89.74 196.78 88.46 196.65C87.17 196.53 85.94 196.75 84.75 197.32C83.57 197.89 82.5499 198.76 81.6699 199.94C80.7999 201.12 80.27 202.36 80.07 203.66C79.87 204.97 80.02 206.21 80.52 207.39ZM81.78 203.95C81.95 202.93 82.39 201.94 83.09 200.99C83.79 200.03 84.61 199.32 85.53 198.86C86.44 198.39 87.39 198.19 88.37 198.28C89.35 198.37 90.2799 198.74 91.1599 199.39C92.0499 200.04 92.68 200.83 93.06 201.73C93.41 202.64 93.5 203.61 93.33 204.62C93.15 205.63 92.71 206.61 92 207.57C91.3 208.52 90.49 209.24 89.58 209.71C88.66 210.17 87.71 210.36 86.75 210.28C85.76 210.2 84.83 209.83 83.94 209.17C83.06 208.52 82.43 207.74 82.07 206.82C81.69 205.91 81.59 204.95 81.78 203.95ZM93.0999 217.7L96.82 212.67L103.8 217.82L100.08 222.86L101.45 223.87L110.36 211.8L108.99 210.79L104.73 216.57L97.75 211.41L102.01 205.63L100.64 204.62L91.7299 216.69L93.0999 217.7ZM116.81 219.04L120.53 215.58L119.5 214.82L115.28 217.92L116.81 219.04ZM116.02 226.15C116.11 226.76 116.36 227.36 116.75 227.95C117.13 228.55 117.67 229.11 118.39 229.64L120.87 231.47L117.65 235.83L119.02 236.84L127.93 224.77L124.08 221.93C123.42 221.44 122.75 221.09 122.09 220.88C121.43 220.68 120.8 220.61 120.19 220.67C119.57 220.75 118.99 220.95 118.45 221.28C117.9 221.6 117.4 222.05 116.97 222.64C116.57 223.18 116.29 223.75 116.14 224.34C115.96 224.94 115.92 225.54 116.02 226.15ZM118.37 223.68C118.96 222.87 119.68 222.42 120.54 222.32C121.38 222.23 122.24 222.51 123.11 223.15L125.63 225.01L121.8 230.21L119.29 228.36C118.42 227.72 117.9 226.98 117.74 226.15C117.56 225.3 117.77 224.48 118.37 223.68ZM130.29 245.16L131.21 243.9L127.35 241.05L135.34 230.24L133.97 229.23L125.99 240.04L122.11 237.18L121.18 238.43L130.29 245.16ZM132.43 244.8L131.51 246.06L138.94 251.55L147.85 239.48L140.26 233.87L139.33 235.13L145.56 239.72L142.24 244.21L137.91 241.02L136.99 242.27L141.32 245.47L138.5 249.28L132.43 244.8ZM142.84 254.43L150.63 260.17L152.85 257.29C153.55 256.4 154.18 255.61 154.75 254.94C155.3 254.25 155.81 253.67 156.27 253.18C156.71 252.69 157.12 252.29 157.49 251.96C157.84 251.64 158.17 251.39 158.47 251.2C158.73 251.03 159.01 250.88 159.29 250.76C159.57 250.65 159.86 250.56 160.14 250.49L161.19 251.26L164.25 247.11L162.93 246.14L160.79 249.03L151.54 242.2L153.68 239.31L152.36 238.33L149.3 242.48L150.82 243.61L142.84 254.43ZM152.18 244.61L158.74 249.46C158.16 249.66 157.58 249.96 157 250.36C156.42 250.76 155.8 251.31 155.12 252C154.66 252.48 154.15 253.04 153.59 253.71C153.03 254.37 152.42 255.13 151.76 255.99L150.24 257.95L145.12 254.17L152.18 244.61ZM156.43 264.46L170.69 259.55L163.31 269.54L164.65 270.53L173.56 258.46L172.25 257.5L158 262.39L165.37 252.41L164.03 251.43L155.12 263.49L156.43 264.46ZM169.5 272.82C169.59 273.3 169.8 273.76 170.11 274.21C170.41 274.66 170.81 275.08 171.33 275.46L175.91 278.84L184.82 266.78L179.98 263.2C179.41 262.78 178.85 262.48 178.29 262.3C177.72 262.13 177.16 262.07 176.63 262.12C176.08 262.18 175.58 262.35 175.1 262.63C174.62 262.92 174.19 263.33 173.81 263.84C173.25 264.6 172.98 265.38 173.01 266.18C173.01 266.98 173.31 267.76 173.89 268.52C173.17 268.35 172.49 268.38 171.86 268.61C171.22 268.84 170.67 269.28 170.19 269.92C169.85 270.38 169.63 270.86 169.51 271.36C169.39 271.85 169.39 272.34 169.5 272.82ZM175.2 264.86C175.7 264.19 176.3 263.81 177 263.73C177.7 263.66 178.43 263.89 179.17 264.44L182.58 266.96L179.3 271.4L175.89 268.88C175.17 268.35 174.75 267.72 174.63 266.98C174.5 266.26 174.69 265.55 175.2 264.86ZM171.66 270.8C172.13 270.16 172.69 269.79 173.32 269.69C173.95 269.6 174.59 269.79 175.24 270.26L178.41 272.6L175.43 276.64L172.32 274.35C171.67 273.87 171.28 273.31 171.17 272.68C171.04 272.04 171.21 271.41 171.66 270.8ZM179.28 281.33L188.31 276.54L186.65 286.77L188.16 287.89L190.19 275.54L193.97 273.53L192.52 272.46L177.83 280.26L179.28 281.33ZM196.03 292.67C196.53 293.86 197.35 294.87 198.5 295.72C199.64 296.56 200.85 297.04 202.15 297.17C203.43 297.3 204.66 297.08 205.84 296.52C207.03 295.95 208.05 295.07 208.92 293.89C209.79 292.71 210.33 291.47 210.52 290.18C210.71 288.87 210.55 287.62 210.06 286.43C209.56 285.24 208.74 284.23 207.6 283.39C206.45 282.55 205.24 282.06 203.96 281.93C202.67 281.8 201.44 282.03 200.26 282.6C199.08 283.17 198.05 284.04 197.18 285.22C196.31 286.4 195.77 287.64 195.58 288.94C195.37 290.24 195.52 291.49 196.03 292.67ZM197.28 289.22C197.45 288.21 197.89 287.22 198.59 286.27C199.3 285.31 200.11 284.6 201.03 284.14C201.94 283.67 202.89 283.47 203.88 283.55C204.85 283.65 205.78 284.02 206.66 284.67C207.55 285.32 208.18 286.1 208.56 287.01C208.92 287.92 209.01 288.88 208.84 289.9C208.66 290.91 208.21 291.89 207.51 292.85C206.8 293.8 205.99 294.51 205.08 294.99C204.16 295.45 203.22 295.64 202.25 295.55C201.27 295.47 200.33 295.11 199.44 294.45C198.56 293.8 197.94 293.02 197.57 292.1C197.19 291.19 197.1 290.23 197.28 289.22ZM208.6 302.98L212.32 297.94L219.31 303.1L215.59 308.14L216.96 309.15L225.86 297.08L224.5 296.07L220.23 301.84L213.25 296.69L217.51 290.91L216.15 289.9L207.24 301.97L208.6 302.98ZM220.66 311.88L228.1 309.52L229.76 310.74L226 315.83L227.36 316.82L231.11 311.74L232.75 312.95L232.71 320.78L234.27 321.93L234.34 313.16L243.33 309.97L241.78 308.83L233.67 311.67L232.05 310.47L236.27 304.76L234.91 303.76L230.7 309.47L229.1 308.3L229.46 299.73L227.87 298.56L227.43 308.1L219.09 310.72L220.66 311.88ZM238.59 324.1C239.09 325.28 239.92 326.3 241.07 327.15C242.2 327.99 243.42 328.47 244.72 328.6C246 328.73 247.23 328.51 248.41 327.94C249.59 327.37 250.62 326.5 251.49 325.32C252.36 324.14 252.89 322.9 253.09 321.6C253.27 320.3 253.12 319.05 252.62 317.85C252.12 316.67 251.3 315.66 250.17 314.82C249.02 313.97 247.81 313.48 246.53 313.35C245.24 313.23 244.01 313.46 242.82 314.02C241.64 314.59 240.61 315.47 239.74 316.65C238.87 317.83 238.34 319.07 238.14 320.36C237.94 321.67 238.09 322.92 238.59 324.1ZM239.85 320.65C240.02 319.63 240.45 318.65 241.16 317.69C241.86 316.74 242.68 316.03 243.6 315.57C244.51 315.1 245.46 314.9 246.44 314.98C247.42 315.07 248.35 315.44 249.23 316.09C250.12 316.75 250.75 317.53 251.13 318.44C251.48 319.35 251.57 320.31 251.4 321.33C251.22 322.34 250.78 323.32 250.07 324.27C249.37 325.23 248.56 325.94 247.65 326.41C246.73 326.88 245.78 327.07 244.82 326.98C243.83 326.9 242.9 326.53 242 325.87C241.13 325.23 240.5 324.44 240.14 323.52C239.76 322.62 239.66 321.66 239.85 320.65ZM251.29 334.49L259.53 332.15L259.78 340.77L261.25 341.85L270.16 329.78L268.84 328.81L261.33 338.98L261.09 330.45L260.79 330.22L252.52 332.52L260.05 322.32L258.73 321.35L249.83 333.41L251.29 334.49ZM266.04 344.22C266.2 344.77 266.48 345.3 266.87 345.82C267.26 346.36 267.77 346.86 268.4 347.33C268.92 347.71 269.47 348.01 270.05 348.22C270.62 348.44 271.18 348.56 271.75 348.58C272.3 348.59 272.85 348.5 273.39 348.3C273.93 348.12 274.44 347.82 274.93 347.4L273.86 346.16C273.2 346.77 272.47 347.05 271.67 347C270.87 346.96 270.09 346.66 269.31 346.09C268.47 345.46 267.93 344.78 267.71 344.05C267.48 343.33 267.61 342.64 268.08 342C268.56 341.35 269.12 341 269.78 340.94C270.43 340.87 271.12 341.11 271.86 341.66L273.63 342.96L274.56 341.71L272.73 340.35C271.89 339.73 271.4 339.08 271.26 338.4C271.1 337.72 271.27 337.03 271.78 336.35C272.33 335.6 273.04 335.22 273.9 335.23C274.75 335.22 275.62 335.55 276.52 336.22C277.43 336.89 278.02 337.64 278.29 338.47C278.55 339.29 278.44 340.18 277.96 341.14L279.55 341.79C280.2 340.51 280.32 339.28 279.93 338.11C279.52 336.93 278.7 335.89 277.47 334.98C276.81 334.49 276.15 334.14 275.49 333.92C274.82 333.68 274.17 333.58 273.56 333.61C272.94 333.63 272.36 333.79 271.82 334.07C271.28 334.35 270.82 334.76 270.42 335.29C269.9 336 269.63 336.73 269.6 337.48C269.58 338.23 269.8 338.96 270.29 339.65C269.54 339.52 268.85 339.58 268.23 339.81C267.6 340.06 267.06 340.48 266.63 341.07C266.28 341.54 266.05 342.05 265.95 342.59C265.85 343.13 265.88 343.67 266.04 344.22ZM277.9 353.13C278.41 354.31 279.23 355.32 280.38 356.17C281.52 357.01 282.73 357.5 284.03 357.62C285.31 357.76 286.54 357.54 287.72 356.97C288.9 356.4 289.93 355.52 290.8 354.35C291.67 353.17 292.21 351.93 292.4 350.63C292.59 349.32 292.43 348.07 291.94 346.88C291.44 345.7 290.62 344.69 289.48 343.85C288.33 343 287.12 342.51 285.84 342.38C284.55 342.26 283.32 342.48 282.14 343.05C280.95 343.62 279.93 344.49 279.06 345.67C278.19 346.85 277.65 348.09 277.46 349.39C277.25 350.7 277.4 351.94 277.9 353.13ZM279.16 349.68C279.33 348.66 279.77 347.67 280.47 346.72C281.18 345.76 281.99 345.06 282.91 344.59C283.82 344.12 284.77 343.93 285.76 344.01C286.73 344.1 287.66 344.47 288.54 345.12C289.43 345.78 290.06 346.56 290.44 347.46C290.79 348.37 290.89 349.34 290.72 350.35C290.53 351.36 290.09 352.34 289.39 353.3C288.68 354.25 287.87 354.97 286.96 355.44C286.04 355.9 285.1 356.09 284.13 356.01C283.15 355.93 282.21 355.56 281.32 354.9C280.44 354.25 279.82 353.47 279.45 352.55C279.07 351.64 278.98 350.69 279.16 349.68ZM290.31 362.02C290.41 362.5 290.61 362.96 290.93 363.41C291.22 363.86 291.63 364.28 292.14 364.66L296.73 368.04L305.64 355.98L300.79 352.4C300.23 351.98 299.66 351.68 299.1 351.5C298.53 351.33 297.98 351.27 297.44 351.32C296.9 351.38 296.39 351.55 295.92 351.83C295.44 352.12 295.01 352.53 294.63 353.04C294.07 353.8 293.8 354.58 293.82 355.38C293.83 356.18 294.12 356.96 294.7 357.72C293.98 357.55 293.3 357.58 292.67 357.81C292.04 358.04 291.48 358.48 291.01 359.12C290.67 359.58 290.44 360.06 290.32 360.56C290.21 361.05 290.2 361.54 290.31 362.02ZM296.01 354.06C296.51 353.39 297.11 353.01 297.81 352.93C298.52 352.86 299.24 353.09 299.98 353.64L303.39 356.16L300.11 360.6L296.7 358.08C295.98 357.55 295.56 356.92 295.44 356.18C295.31 355.46 295.5 354.75 296.01 354.06ZM292.47 360C292.95 359.36 293.5 358.99 294.14 358.89C294.77 358.8 295.41 358.99 296.05 359.46L299.22 361.8L296.24 365.84L293.13 363.55C292.48 363.07 292.1 362.51 291.98 361.88C291.86 361.24 292.02 360.61 292.47 360ZM300.15 368.63L299.23 369.89L306.66 375.38L315.57 363.31L307.97 357.7L307.05 358.96L313.27 363.55L309.96 368.04L305.63 364.85L304.7 366.1L309.03 369.3L306.22 373.11L300.15 368.63ZM311.68 379.08L315.4 374.05L322.38 379.2L318.66 384.24L320.03 385.25L328.94 373.18L327.57 372.17L323.31 377.95L316.32 372.79L320.59 367.01L319.22 366L310.31 378.07L311.68 379.08Z" fill="#010202"/>
<path d="M442.36 126.75L443.92 121.75L442.02 121.75L441.08 126.75L442.36 126.75ZM425.63 123.75L425.63 111.11L430.89 117.83L431.27 117.83L436.55 111.07L436.55 123.75L438.19 123.75L438.19 108.75L436.37 108.75L431.13 115.53L425.81 108.75L423.99 108.75L423.99 123.75L425.63 123.75ZM409.75 123.75L411.71 118.57L417.67 118.57L419.63 123.75L421.43 123.75L415.67 108.75L413.79 108.75L408.05 123.75L409.75 123.75ZM414.69 110.69L417.09 117.03L412.29 117.03L414.69 110.69ZM402.19 110.31L402.19 123.75L403.89 123.75L403.89 110.31L408.71 110.31L408.71 108.75L397.39 108.75L397.39 110.31L402.19 110.31ZM380.61 115.99C380.95 116.35 381.34 116.65 381.79 116.87C382.25 117.1 382.74 117.25 383.27 117.33L378.89 123.75L380.83 123.75L385.13 117.43L388.61 117.43L388.61 123.75L390.31 123.75L390.31 108.75L384.23 108.75C383.54 108.75 382.91 108.86 382.33 109.07C381.77 109.29 381.29 109.59 380.87 109.97C380.47 110.35 380.16 110.8 379.93 111.33C379.71 111.87 379.59 112.45 379.59 113.09C379.59 113.68 379.68 114.22 379.85 114.71C380.04 115.19 380.29 115.62 380.61 115.99ZM382.13 111.07C382.67 110.57 383.37 110.31 384.25 110.31L388.61 110.31L388.61 115.87L384.21 115.87C383.36 115.87 382.67 115.62 382.13 115.11C381.61 114.61 381.35 113.93 381.35 113.09C381.35 112.25 381.61 111.58 382.13 111.07ZM364.65 120.19C365.26 121.35 366.12 122.27 367.21 122.93C368.32 123.6 369.58 123.93 370.99 123.93C372.15 123.93 373.19 123.73 374.11 123.31C375.04 122.89 375.81 122.29 376.41 121.51C377.02 120.74 377.45 119.83 377.69 118.79L375.97 118.37C375.84 119.15 375.55 119.83 375.11 120.43C374.67 121.03 374.1 121.51 373.39 121.85C372.68 122.19 371.88 122.35 370.99 122.35C369.87 122.35 368.9 122.09 368.07 121.55C367.24 121.01 366.61 120.27 366.17 119.35C365.73 118.42 365.51 117.39 365.51 116.25C365.51 115.13 365.73 114.11 366.17 113.19C366.62 112.26 367.26 111.53 368.09 110.99C368.92 110.45 369.88 110.17 370.99 110.17C372.27 110.17 373.33 110.53 374.17 111.25C375.01 111.96 375.56 112.91 375.81 114.09L377.51 113.65C377.3 112.64 376.89 111.75 376.29 110.99C375.7 110.23 374.96 109.65 374.05 109.23C373.14 108.81 372.12 108.59 370.99 108.59C369.6 108.59 368.36 108.93 367.25 109.59C366.16 110.26 365.3 111.18 364.67 112.35C364.06 113.51 363.75 114.81 363.75 116.25C363.75 117.71 364.05 119.02 364.65 120.19ZM356.19 110.31L356.19 123.75L357.89 123.75L357.89 110.31L362.71 110.31L362.71 108.75L351.39 108.75L351.39 110.31L356.19 110.31ZM350.07 123.75L350.07 122.19L342.33 122.19L342.33 116.61L347.71 116.61L347.71 115.05L342.33 115.05L342.33 110.31L349.87 110.31L349.87 108.75L340.63 108.75L340.63 123.75L350.07 123.75ZM326.38 115.99C326.71 116.35 327.1 116.65 327.56 116.87C328.01 117.1 328.5 117.25 329.04 117.33L324.66 123.75L326.6 123.75L330.9 117.43L334.38 117.43L334.38 123.75L336.08 123.75L336.08 108.75L330 108.75C329.3 108.75 328.67 108.86 328.1 109.07C327.54 109.29 327.05 109.59 326.64 109.97C326.24 110.35 325.92 110.8 325.7 111.33C325.47 111.87 325.36 112.45 325.36 113.09C325.36 113.68 325.44 114.22 325.62 114.71C325.8 115.19 326.06 115.62 326.38 115.99ZM327.9 111.07C328.43 110.57 329.14 110.31 330.02 110.31L334.38 110.31L334.38 115.87L329.98 115.87C329.12 115.87 328.43 115.62 327.9 115.11C327.38 114.61 327.12 113.93 327.12 113.09C327.12 112.25 327.38 111.58 327.9 111.07ZM309.67 123.91C310.61 123.91 311.35 123.57 311.87 122.89C312.39 122.2 312.77 121.07 313.03 119.49C313.16 118.69 313.27 117.74 313.35 116.63C313.43 115.51 313.49 114.23 313.53 112.77L313.61 110.31L320.07 110.31L320.07 123.75L321.77 123.75L321.77 108.75L311.95 108.75L311.87 112.39C311.83 113.79 311.77 115.02 311.71 116.07C311.65 117.13 311.57 118.03 311.47 118.77C311.37 119.51 311.27 120.11 311.15 120.57C311.03 121.04 310.89 121.39 310.73 121.63C310.41 122.11 309.99 122.35 309.47 122.35C309.35 122.35 309.18 122.33 308.97 122.27L308.69 123.71C308.99 123.85 309.32 123.91 309.67 123.91ZM302.82 123.75C303.53 123.75 304.16 123.66 304.72 123.47C305.28 123.27 305.76 122.99 306.16 122.63C306.56 122.26 306.87 121.82 307.08 121.31C307.3 120.79 307.4 120.21 307.4 119.57C307.4 118.63 307.16 117.84 306.66 117.21C306.18 116.57 305.48 116.12 304.56 115.85C305.24 115.56 305.77 115.13 306.14 114.57C306.52 114.01 306.7 113.33 306.7 112.53C306.7 111.96 306.6 111.44 306.4 110.97C306.2 110.51 305.92 110.11 305.54 109.79C305.18 109.46 304.74 109.21 304.22 109.03C303.72 108.85 303.14 108.75 302.5 108.75L296.8 108.75L296.8 123.75L302.82 123.75V123.75ZM298.5 110.23L302.36 110.23C303.18 110.23 303.82 110.45 304.28 110.89C304.76 111.33 305 111.93 305 112.69C305 113.49 304.78 114.12 304.32 114.57C303.87 115.03 303.24 115.25 302.44 115.25L298.5 115.25L298.5 110.23ZM298.5 116.75L302.74 116.75C303.64 116.75 304.35 117.01 304.88 117.53C305.42 118.04 305.68 118.72 305.68 119.57C305.68 120.41 305.42 121.07 304.9 121.55C304.38 122.03 303.66 122.27 302.74 122.27L298.5 122.27L298.5 116.75ZM282.55 115.99C282.88 116.35 283.27 116.65 283.73 116.87C284.18 117.1 284.67 117.25 285.21 117.33L280.83 123.75L282.77 123.75L287.07 117.43L290.55 117.43L290.55 123.75L292.25 123.75L292.25 108.75L286.17 108.75C285.47 108.75 284.84 108.86 284.27 109.07C283.71 109.29 283.22 109.59 282.81 109.97C282.41 110.35 282.09 110.8 281.87 111.33C281.64 111.87 281.53 112.45 281.53 113.09C281.53 113.68 281.61 114.22 281.79 114.71C281.97 115.19 282.23 115.62 282.55 115.99ZM284.07 111.07C284.6 110.57 285.31 110.31 286.19 110.31L290.55 110.31L290.55 115.87L286.15 115.87C285.29 115.87 284.6 115.62 284.07 115.11C283.55 114.61 283.29 113.93 283.29 113.09C283.29 112.25 283.55 111.58 284.07 111.07ZM265.47 120.19C266.1 121.35 266.97 122.27 268.07 122.93C269.18 123.59 270.44 123.91 271.85 123.91C273.28 123.91 274.55 123.59 275.65 122.93C276.76 122.27 277.62 121.35 278.23 120.19C278.85 119.03 279.15 117.72 279.15 116.25C279.15 114.79 278.85 113.47 278.23 112.31C277.62 111.14 276.76 110.23 275.65 109.57C274.55 108.92 273.28 108.59 271.85 108.59C270.44 108.59 269.17 108.93 268.05 109.59C266.95 110.25 266.09 111.15 265.47 112.31C264.86 113.47 264.55 114.79 264.55 116.25C264.55 117.72 264.86 119.03 265.47 120.19ZM266.99 113.09C267.46 112.17 268.11 111.46 268.93 110.95C269.77 110.43 270.75 110.17 271.85 110.17C272.95 110.17 273.91 110.43 274.75 110.95C275.59 111.46 276.24 112.17 276.69 113.09C277.16 114.01 277.39 115.07 277.39 116.25C277.39 117.44 277.16 118.49 276.69 119.41C276.24 120.33 275.59 121.05 274.75 121.57C273.91 122.08 272.95 122.33 271.85 122.33C270.75 122.33 269.77 122.08 268.93 121.57C268.11 121.05 267.46 120.33 266.99 119.41C266.54 118.49 266.31 117.44 266.31 116.25C266.31 115.07 266.54 114.01 266.99 113.09ZM250.97 123.75L250.97 110.31L259.41 110.31L259.41 123.75L261.11 123.75L261.11 108.75L249.27 108.75L249.27 123.75L250.97 123.75ZM232.61 123.75L232.61 116.65L234.75 116.65L240.37 123.75L242.41 123.75L236.21 115.81L242.25 108.75L240.19 108.75L234.81 115.07L232.61 115.07L232.61 108.75L230.91 108.75L230.91 123.75L232.61 123.75ZM214.94 120.19C215.56 121.35 216.41 122.27 217.5 122.93C218.61 123.6 219.87 123.93 221.28 123.93C222.44 123.93 223.48 123.73 224.4 123.31C225.34 122.89 226.1 122.29 226.7 121.51C227.32 120.74 227.74 119.83 227.98 118.79L226.26 118.37C226.13 119.15 225.84 119.83 225.4 120.43C224.96 121.03 224.39 121.51 223.68 121.85C222.98 122.19 222.18 122.35 221.28 122.35C220.16 122.35 219.19 122.09 218.36 121.55C217.54 121.01 216.9 120.27 216.46 119.35C216.02 118.42 215.8 117.39 215.8 116.25C215.8 115.13 216.02 114.11 216.46 113.19C216.92 112.26 217.56 111.53 218.38 110.99C219.21 110.45 220.18 110.17 221.28 110.17C222.56 110.17 223.62 110.53 224.46 111.25C225.3 111.96 225.85 112.91 226.1 114.09L227.8 113.65C227.59 112.64 227.18 111.75 226.58 110.99C226 110.23 225.25 109.65 224.34 109.23C223.44 108.81 222.42 108.59 221.28 108.59C219.9 108.59 218.65 108.93 217.54 109.59C216.45 110.26 215.59 111.18 214.96 112.35C214.35 113.51 214.04 114.81 214.04 116.25C214.04 117.71 214.34 119.02 214.94 120.19ZM212.34 123.75L212.34 122.19L204.6 122.19L204.6 116.61L209.98 116.61L209.98 115.05L204.6 115.05L204.6 110.31L212.14 110.31L212.14 108.75L202.9 108.75L202.9 123.75L212.34 123.75ZM186.23 123.91C187.18 123.91 187.91 123.57 188.43 122.89C188.95 122.2 189.34 121.07 189.59 119.49C189.72 118.69 189.83 117.74 189.91 116.63C189.99 115.51 190.05 114.23 190.09 112.77L190.17 110.31L196.63 110.31L196.63 123.75L198.33 123.75L198.33 108.75L188.51 108.75L188.43 112.39C188.39 113.79 188.34 115.02 188.27 116.07C188.22 117.13 188.14 118.03 188.03 118.77C187.94 119.51 187.83 120.11 187.71 120.57C187.59 121.04 187.45 121.39 187.29 121.63C186.97 122.11 186.55 122.35 186.03 122.35C185.91 122.35 185.74 122.33 185.53 122.27L185.25 123.71C185.56 123.85 185.88 123.91 186.23 123.91ZM172.68 123.75L172.68 110.31L181.12 110.31L181.12 123.75L182.82 123.75L182.82 108.75L170.98 108.75L170.98 123.75L172.68 123.75ZM153.13 123.61C153.36 123.83 153.65 123.93 153.99 123.93C154.34 123.93 154.62 123.83 154.83 123.61C155.06 123.4 155.17 123.12 155.17 122.77C155.17 122.44 155.06 122.17 154.83 121.95C154.62 121.74 154.34 121.63 153.99 121.63C153.65 121.63 153.36 121.74 153.13 121.95C152.92 122.17 152.81 122.44 152.81 122.77C152.81 123.12 152.92 123.4 153.13 123.61ZM151.27 112.71C151.46 111.86 151.83 111.21 152.39 110.75C152.95 110.3 153.67 110.07 154.55 110.07C155.41 110.07 156.09 110.28 156.59 110.69C157.11 111.11 157.37 111.69 157.37 112.43C157.37 112.87 157.28 113.26 157.09 113.59C156.92 113.91 156.7 114.19 156.43 114.43C156.17 114.66 155.8 114.94 155.33 115.27C154.84 115.62 154.45 115.93 154.15 116.19C153.86 116.46 153.61 116.79 153.39 117.17C153.19 117.55 153.09 117.99 153.09 118.51L153.09 119.25L154.69 119.25L154.69 118.57C154.69 118.11 154.84 117.72 155.13 117.41C155.43 117.09 155.87 116.73 156.47 116.31C157.02 115.94 157.47 115.61 157.81 115.31C158.16 115.01 158.45 114.61 158.69 114.13C158.93 113.65 159.05 113.08 159.05 112.41C159.05 111.63 158.86 110.95 158.47 110.37C158.1 109.8 157.57 109.36 156.89 109.05C156.23 108.75 155.47 108.59 154.61 108.59C153.35 108.59 152.28 108.93 151.41 109.59C150.56 110.25 150 111.17 149.73 112.37L151.27 112.71ZM143.75 123.75C144.58 123.75 145.32 123.64 145.97 123.41C146.63 123.19 147.18 122.87 147.63 122.45C148.09 122.03 148.43 121.52 148.67 120.93C148.93 120.35 149.05 119.69 149.05 118.95C149.05 118.29 148.94 117.67 148.71 117.09C148.5 116.51 148.17 116 147.73 115.57C147.29 115.13 146.74 114.79 146.07 114.55C145.42 114.3 144.65 114.17 143.75 114.17L140.67 114.17L140.67 108.75L138.97 108.75L138.97 123.75L143.75 123.75ZM140.67 115.73L143.79 115.73C144.87 115.73 145.73 116.02 146.35 116.59C146.99 117.17 147.31 117.95 147.31 118.95C147.31 119.95 147 120.75 146.37 121.33C145.75 121.91 144.89 122.19 143.81 122.19L140.67 122.19L140.67 115.73ZM129.76 110.31L129.76 123.75L131.46 123.75L131.46 110.31L136.28 110.31L136.28 108.75L124.96 108.75L124.96 110.31L129.76 110.31ZM113.95 123.75L115.91 118.57L121.87 118.57L123.83 123.75L125.63 123.75L119.87 108.75L117.99 108.75L112.25 123.75L113.95 123.75ZM118.89 110.69L121.29 117.03L116.49 117.03L118.89 110.69ZM109.69 123.75L109.69 108.75L107.99 108.75L107.99 122.19L101.81 122.19L101.81 108.75L100.11 108.75L100.11 122.19L93.9299 122.19L93.9299 108.75L92.2299 108.75L92.2299 123.75L109.69 123.75ZM87.6799 123.75L87.6799 108.75L85.9799 108.75L85.9799 123.75L87.6799 123.75ZM78.3599 123.75C79.1899 123.75 79.93 123.64 80.58 123.41C81.24 123.19 81.7899 122.87 82.2399 122.45C82.6999 122.03 83.04 121.52 83.28 120.93C83.54 120.35 83.6599 119.69 83.6599 118.95C83.6599 118.29 83.5499 117.67 83.3199 117.09C83.1099 116.51 82.78 116 82.34 115.57C81.9 115.13 81.3499 114.79 80.6799 114.55C80.0299 114.3 79.2599 114.17 78.3599 114.17L75.28 114.17L75.28 108.75L73.58 108.75L73.58 123.75L78.3599 123.75ZM75.28 115.73L78.4 115.73C79.48 115.73 80.34 116.02 80.96 116.59C81.6 117.17 81.9199 117.95 81.9199 118.95C81.9199 119.95 81.6099 120.75 80.9799 121.33C80.3599 121.91 79.4999 122.19 78.4199 122.19L75.28 122.19L75.28 115.73ZM56.9099 123.91C57.8599 123.91 58.5899 123.57 59.1099 122.89C59.6299 122.2 60.02 121.07 60.27 119.49C60.41 118.69 60.51 117.74 60.59 116.63C60.67 115.51 60.73 114.23 60.77 112.77L60.8499 110.31L67.3099 110.31L67.3099 123.75L69.0099 123.75L69.01 108.75L59.1899 108.75L59.1099 112.39C59.0699 113.79 59.02 115.02 58.95 116.07C58.9 117.13 58.82 118.03 58.71 118.77C58.62 119.51 58.51 120.11 58.39 120.57C58.27 121.04 58.1299 121.39 57.9699 121.63C57.6499 122.11 57.23 122.35 56.71 122.35C56.59 122.35 56.43 122.33 56.21 122.27L55.9299 123.71C56.2399 123.85 56.5699 123.91 56.9099 123.91ZM42.1299 120.19C42.7499 121.35 43.5999 122.27 44.6899 122.93C45.7999 123.6 47.0599 123.93 48.4699 123.93C49.6299 123.93 50.67 123.73 51.59 123.31C52.53 122.89 53.29 122.29 53.89 121.51C54.51 120.74 54.9299 119.83 55.1699 118.79L53.45 118.37C53.32 119.15 53.03 119.83 52.59 120.43C52.15 121.03 51.5799 121.51 50.8699 121.85C50.1699 122.19 49.3699 122.35 48.4699 122.35C47.3499 122.35 46.3799 122.09 45.5499 121.55C44.7299 121.01 44.09 120.27 43.65 119.35C43.21 118.42 42.9899 117.39 42.9899 116.25C42.9899 115.13 43.21 114.11 43.65 113.19C44.11 112.26 44.7499 111.53 45.5699 110.99C46.3999 110.45 47.3699 110.17 48.4699 110.17C49.7499 110.17 50.81 110.53 51.65 111.25C52.49 111.96 53.0399 112.91 53.2899 114.09L54.9899 113.65C54.7799 112.64 54.37 111.75 53.77 110.99C53.19 110.23 52.44 109.65 51.53 109.23C50.63 108.81 49.6099 108.59 48.4699 108.59C47.0899 108.59 45.8399 108.93 44.7299 109.59C43.6399 110.26 42.78 111.18 42.15 112.35C41.54 113.51 41.2299 114.81 41.2299 116.25C41.2299 117.71 41.5299 119.02 42.1299 120.19ZM32.7999 119.89L30.96 123.75L32.7599 123.75L39.9399 108.75L38.14 108.75L33.7199 117.97L28.9799 108.75L27.0999 108.75L32.7999 119.89Z" fill="#010202"/>
<path d="M472.07 105.769C472.41 106.849 472.7 107.819 472.93 108.669C473.17 109.519 473.36 110.269 473.5 110.919C473.64 111.559 473.74 112.129 473.8 112.619C473.86 113.089 473.88 113.509 473.86 113.859C473.85 114.179 473.81 114.479 473.75 114.789C473.68 115.079 473.59 115.359 473.49 115.639L472.25 116.049L473.9 120.939L475.46 120.419L474.31 117.009L481 114.749L481 113.099L475.13 115.079C475.3 114.489 475.38 113.839 475.39 113.139C475.39 112.429 475.3 111.599 475.12 110.649C475 109.999 474.82 109.259 474.6 108.419C474.37 107.579 474.1 106.649 473.78 105.619L473.04 103.249L479.06 101.209L481 106.939L481 101.689L480.16 99.1995L470.99 102.289L472.07 105.769ZM464.6 120.279L466.21 119.739L461.91 106.999L468.81 104.679L468.31 103.199L459.8 106.069L464.6 120.279Z" fill="#010202"/>
<path d="M419.92 385.279L421.09 383.789L417.73 379.969L416.94 380.969L419.92 385.279ZM421.87 379.539L433.69 388.789L434.69 387.509L430.18 373.119L439.96 380.769L440.98 379.459L429.17 370.219L428.17 371.489L432.66 385.879L422.9 378.239L421.87 379.539ZM433.03 365.279L431.99 366.619L443.8 375.869L449.85 368.129L447.03 365.829C445.96 364.929 445.02 364.129 444.23 363.429C443.44 362.739 442.78 362.119 442.26 361.579C441.74 361.049 441.33 360.599 441.03 360.219C440.74 359.829 440.55 359.509 440.46 359.229C440.28 358.689 440.35 358.209 440.67 357.799C440.74 357.699 440.87 357.589 441.04 357.449L440.08 356.339C439.78 356.499 439.53 356.719 439.32 356.989C438.73 357.739 438.55 358.529 438.76 359.349C438.99 360.189 439.64 361.189 440.73 362.359C441.27 362.959 441.96 363.629 442.78 364.379C443.61 365.129 444.59 365.969 445.71 366.899L447.6 368.479L443.62 373.559L433.03 365.279ZM458.39 357.219L459.55 355.739L451.27 341.969L450.23 343.309L453.1 348.049L449.43 352.739L444.14 351.089L443.03 352.509L458.39 357.219ZM453.95 349.449L457.47 355.249L451 353.229L453.95 349.449ZM453.42 341.759L454.59 340.259L465.18 348.539L471.14 340.919L468.33 338.609C467.45 337.889 466.68 337.239 466.02 336.659C465.35 336.079 464.78 335.559 464.31 335.089C463.83 334.629 463.44 334.209 463.13 333.829C462.82 333.469 462.57 333.139 462.39 332.829C462.23 332.559 462.09 332.279 461.98 331.989C461.88 331.709 461.79 331.429 461.73 331.139L462.53 330.119L458.47 326.939L457.46 328.229L460.29 330.449L453.21 339.499L450.37 337.279L449.36 338.579L453.42 341.759ZM460.66 332.509C460.84 333.099 461.13 333.679 461.51 334.269C461.9 334.859 462.43 335.499 463.1 336.199C463.56 336.679 464.11 337.199 464.76 337.779C465.41 338.359 466.16 338.989 466.99 339.669L468.91 341.249L464.99 346.259L455.63 338.939L460.66 332.509ZM464.18 329.439C464.45 329.929 464.85 330.369 465.35 330.769C466.1 331.349 466.87 331.639 467.66 331.639C468.46 331.659 469.25 331.379 470.03 330.819C469.84 331.539 469.85 332.219 470.06 332.859C470.27 333.499 470.7 334.059 471.33 334.549C471.78 334.909 472.25 335.149 472.74 335.279C473.23 335.409 473.72 335.429 474.2 335.329C474.68 335.249 475.15 335.059 475.61 334.759C476.07 334.469 476.5 334.079 476.89 333.579L480.4 329.089L468.59 319.839L464.88 324.579C464.44 325.139 464.13 325.699 463.93 326.249C463.74 326.819 463.67 327.369 463.7 327.899C463.75 328.449 463.91 328.959 464.18 329.439ZM478.19 329.509L475.81 332.549C475.31 333.189 474.74 333.559 474.11 333.659C473.47 333.769 472.85 333.589 472.25 333.119C471.62 332.619 471.26 332.059 471.19 331.419C471.11 330.789 471.32 330.149 471.81 329.519L474.24 326.419L478.19 329.509ZM466.1 325.429L468.71 322.089L473.06 325.499L470.44 328.829C469.89 329.539 469.25 329.939 468.51 330.039C467.78 330.149 467.08 329.939 466.41 329.409C465.75 328.889 465.39 328.279 465.33 327.579C465.27 326.869 465.53 326.159 466.1 325.429ZM481 321.139L481 319.439L478.14 318.549L481 314.899L481 311.579L478.42 307.289L477.37 308.619L480.24 313.359L476.57 318.049L471.28 316.409L470.17 317.819L481 321.139Z" fill="#010202"/>
<path d="M403.75 390.75L481 291.97L481 290.35L402.49 390.75L403.75 390.75ZM242.35 390.75L245.16 390.75L1.00001 297.11L1.00001 298.18L242.35 390.75ZM346.36 376.25L336.18 390.75L337.4 390.75L347.18 376.83L347.74 376.03L16.4 131.75L456.94 131.75L457.1 131.73L481 123.78L481 122.72L456.86 130.75L13.36 130.75L346.36 376.25Z" fill="#010202"/>
</svg>
