<svg width="268" height="60" viewBox="0 0 268 60" fill="none" xmlns="http://www.w3.org/2000/svg">
<rect width="268" height="60" fill="black"/>
<path d="M41.34 23V29.04H49.28V23H51.48V38H49.28V31.08H41.34V38H39.12V23H41.34ZM53.8816 38L59.6216 23L62.0416 23L67.7816 38H65.4416L63.6416 33.16H57.9216L56.1216 38H53.8816ZM58.6616 31.18H62.9016L60.7816 25.5L58.6616 31.18ZM67.9256 27.6V23H70.1256V27.06C70.1256 28.1933 70.4123 29.0133 70.9856 29.52C71.559 30.0267 72.4323 30.28 73.6056 30.28C74.1923 30.28 74.7456 30.2267 75.2656 30.12C75.799 30.0133 76.3723 29.8333 76.9856 29.58V23H79.2056V38H76.9856V31.62C76.3056 31.8467 75.679 32.0267 75.1056 32.16C74.5456 32.28 73.9256 32.34 73.2456 32.34C71.4856 32.34 70.159 31.9333 69.2656 31.12C68.3723 30.3067 67.9256 29.1333 67.9256 27.6ZM81.5964 38L87.3364 23H89.7564L95.4964 38H93.1564L91.3564 33.16L85.6364 33.16L83.8364 38H81.5964ZM86.3764 31.18L90.6164 31.18L88.4964 25.5L86.3764 31.18ZM101.605 25.04V38L99.3847 38V25.04L94.8047 25.04V23L106.205 23V25.04H101.605ZM108.827 38V23H111.047V28.1H114.027C114.854 28.1 115.594 28.2267 116.247 28.48C116.9 28.72 117.447 29.06 117.887 29.5C118.34 29.94 118.687 30.4667 118.927 31.08C119.167 31.68 119.287 32.34 119.287 33.06C119.287 33.8067 119.16 34.4867 118.907 35.1C118.667 35.7 118.314 36.22 117.847 36.66C117.394 37.0867 116.84 37.42 116.187 37.66C115.547 37.8867 114.827 38 114.027 38H108.827ZM114.007 35.96C114.927 35.96 115.66 35.7 116.207 35.18C116.767 34.6467 117.047 33.94 117.047 33.06C117.047 32.1667 116.767 31.46 116.207 30.94C115.66 30.42 114.927 30.16 114.007 30.16H111.047V35.96H114.007ZM125.424 30.5C125.424 29.06 125.731 27.76 126.344 26.6C126.971 25.4267 127.844 24.5067 128.964 23.84C130.084 23.16 131.351 22.82 132.764 22.82C133.898 22.82 134.918 23.0267 135.824 23.44C136.744 23.8533 137.504 24.4333 138.104 25.18C138.704 25.9267 139.118 26.8067 139.344 27.82L137.144 28.42C136.891 27.3133 136.384 26.4467 135.624 25.82C134.878 25.18 133.924 24.86 132.764 24.86C131.738 24.86 130.844 25.1133 130.084 25.62C129.324 26.1267 128.738 26.8067 128.324 27.66C127.924 28.5133 127.724 29.46 127.724 30.5C127.724 31.54 127.924 32.4933 128.324 33.36C128.724 34.2133 129.298 34.8933 130.044 35.4C130.804 35.8933 131.711 36.14 132.764 36.14C133.564 36.14 134.278 35.9933 134.904 35.7C135.544 35.3933 136.064 34.9733 136.464 34.44C136.878 33.9067 137.158 33.2867 137.304 32.58L139.504 33.16C139.238 34.2 138.791 35.1 138.164 35.86C137.551 36.6067 136.784 37.1867 135.864 37.6C134.944 38 133.911 38.2 132.764 38.2C131.298 38.2 130.004 37.8667 128.884 37.2C127.778 36.52 126.924 35.6 126.324 34.44C125.724 33.2667 125.424 31.9533 125.424 30.5ZM144.406 23V29.04H152.346V23H154.546V38H152.346V31.08H144.406V38L142.186 38V23H144.406ZM156.948 38L162.688 23H165.108L170.848 38H168.508L166.708 33.16H160.988L159.188 38H156.948ZM161.728 31.18H165.968L163.848 25.5L161.728 31.18ZM170.992 27.6V23H173.192V27.06C173.192 28.1933 173.479 29.0133 174.052 29.52C174.625 30.0267 175.499 30.28 176.672 30.28C177.259 30.28 177.812 30.2267 178.332 30.12C178.865 30.0133 179.439 29.8333 180.052 29.58V23H182.272V38H180.052V31.62C179.372 31.8467 178.745 32.0267 178.172 32.16C177.612 32.28 176.992 32.34 176.312 32.34C174.552 32.34 173.225 31.9333 172.332 31.12C171.439 30.3067 170.992 29.1333 170.992 27.6ZM184.663 38L190.403 23H192.823L198.563 38H196.223L194.423 33.16H188.703L186.903 38H184.663ZM189.443 31.18H193.683L191.563 25.5L189.443 31.18ZM199.707 36.04C199.907 36.0933 200.087 36.12 200.247 36.12C200.753 36.12 201.16 35.8667 201.467 35.36C201.613 35.1067 201.74 34.7533 201.847 34.3C201.967 33.8467 202.067 33.2667 202.147 32.56C202.24 31.84 202.313 30.98 202.367 29.98C202.433 28.9667 202.487 27.78 202.527 26.42L202.607 23H212.707V38H210.487V25.04H204.727L204.667 27.1C204.573 29.9667 204.393 32.1933 204.127 33.78C203.847 35.3533 203.427 36.48 202.867 37.16C202.307 37.84 201.533 38.18 200.547 38.18C200.12 38.18 199.72 38.0933 199.347 37.92L199.707 36.04ZM215.112 38L220.852 23H223.272L229.012 38H226.672L224.872 33.16H219.152L217.352 38H215.112ZM219.892 31.18H224.132L222.012 25.5L219.892 31.18Z" fill="white"/>
</svg>
