<svg width="268" height="61" viewBox="0 0 268 61" fill="none" xmlns="http://www.w3.org/2000/svg">
<rect width="268" height="60" transform="translate(0 0.5)" fill="black"/>
<path d="M41.34 23.5V29.54H49.28V23.5H51.48V38.5H49.28V31.58H41.34V38.5H39.12V23.5H41.34ZM53.8816 38.5L59.6216 23.5L62.0416 23.5L67.7816 38.5H65.4416L63.6416 33.66H57.9216L56.1216 38.5H53.8816ZM58.6616 31.68H62.9016L60.7816 26L58.6616 31.68ZM67.9256 28.1V23.5H70.1256V27.56C70.1256 28.6933 70.4123 29.5133 70.9856 30.02C71.559 30.5267 72.4323 30.78 73.6056 30.78C74.1923 30.78 74.7456 30.7267 75.2656 30.62C75.799 30.5133 76.3723 30.3333 76.9856 30.08V23.5H79.2056V38.5H76.9856V32.12C76.3056 32.3467 75.679 32.5267 75.1056 32.66C74.5456 32.78 73.9256 32.84 73.2456 32.84C71.4856 32.84 70.159 32.4333 69.2656 31.62C68.3723 30.8067 67.9256 29.6333 67.9256 28.1ZM81.5964 38.5L87.3364 23.5H89.7564L95.4964 38.5H93.1564L91.3564 33.66L85.6364 33.66L83.8364 38.5H81.5964ZM86.3764 31.68L90.6164 31.68L88.4964 26L86.3764 31.68ZM101.605 25.54V38.5L99.3847 38.5V25.54L94.8047 25.54V23.5L106.205 23.5V25.54H101.605ZM108.827 38.5V23.5H111.047V28.6H114.027C114.854 28.6 115.594 28.7267 116.247 28.98C116.9 29.22 117.447 29.56 117.887 30C118.34 30.44 118.687 30.9667 118.927 31.58C119.167 32.18 119.287 32.84 119.287 33.56C119.287 34.3067 119.16 34.9867 118.907 35.6C118.667 36.2 118.314 36.72 117.847 37.16C117.394 37.5867 116.84 37.92 116.187 38.16C115.547 38.3867 114.827 38.5 114.027 38.5H108.827ZM114.007 36.46C114.927 36.46 115.66 36.2 116.207 35.68C116.767 35.1467 117.047 34.44 117.047 33.56C117.047 32.6667 116.767 31.96 116.207 31.44C115.66 30.92 114.927 30.66 114.007 30.66H111.047V36.46H114.007ZM125.424 31C125.424 29.56 125.731 28.26 126.344 27.1C126.971 25.9267 127.844 25.0067 128.964 24.34C130.084 23.66 131.351 23.32 132.764 23.32C133.898 23.32 134.918 23.5267 135.824 23.94C136.744 24.3533 137.504 24.9333 138.104 25.68C138.704 26.4267 139.118 27.3067 139.344 28.32L137.144 28.92C136.891 27.8133 136.384 26.9467 135.624 26.32C134.878 25.68 133.924 25.36 132.764 25.36C131.738 25.36 130.844 25.6133 130.084 26.12C129.324 26.6267 128.738 27.3067 128.324 28.16C127.924 29.0133 127.724 29.96 127.724 31C127.724 32.04 127.924 32.9933 128.324 33.86C128.724 34.7133 129.298 35.3933 130.044 35.9C130.804 36.3933 131.711 36.64 132.764 36.64C133.564 36.64 134.278 36.4933 134.904 36.2C135.544 35.8933 136.064 35.4733 136.464 34.94C136.878 34.4067 137.158 33.7867 137.304 33.08L139.504 33.66C139.238 34.7 138.791 35.6 138.164 36.36C137.551 37.1067 136.784 37.6867 135.864 38.1C134.944 38.5 133.911 38.7 132.764 38.7C131.298 38.7 130.004 38.3667 128.884 37.7C127.778 37.02 126.924 36.1 126.324 34.94C125.724 33.7667 125.424 32.4533 125.424 31ZM144.406 23.5V29.54H152.346V23.5H154.546V38.5H152.346V31.58H144.406V38.5L142.186 38.5V23.5H144.406ZM156.948 38.5L162.688 23.5H165.108L170.848 38.5H168.508L166.708 33.66H160.988L159.188 38.5H156.948ZM161.728 31.68H165.968L163.848 26L161.728 31.68ZM170.992 28.1V23.5H173.192V27.56C173.192 28.6933 173.479 29.5133 174.052 30.02C174.625 30.5267 175.499 30.78 176.672 30.78C177.259 30.78 177.812 30.7267 178.332 30.62C178.865 30.5133 179.439 30.3333 180.052 30.08V23.5H182.272V38.5H180.052V32.12C179.372 32.3467 178.745 32.5267 178.172 32.66C177.612 32.78 176.992 32.84 176.312 32.84C174.552 32.84 173.225 32.4333 172.332 31.62C171.439 30.8067 170.992 29.6333 170.992 28.1ZM184.663 38.5L190.403 23.5H192.823L198.563 38.5H196.223L194.423 33.66H188.703L186.903 38.5H184.663ZM189.443 31.68H193.683L191.563 26L189.443 31.68ZM199.707 36.54C199.907 36.5933 200.087 36.62 200.247 36.62C200.753 36.62 201.16 36.3667 201.467 35.86C201.613 35.6067 201.74 35.2533 201.847 34.8C201.967 34.3467 202.067 33.7667 202.147 33.06C202.24 32.34 202.313 31.48 202.367 30.48C202.433 29.4667 202.487 28.28 202.527 26.92L202.607 23.5H212.707V38.5H210.487V25.54H204.727L204.667 27.6C204.573 30.4667 204.393 32.6933 204.127 34.28C203.847 35.8533 203.427 36.98 202.867 37.66C202.307 38.34 201.533 38.68 200.547 38.68C200.12 38.68 199.72 38.5933 199.347 38.42L199.707 36.54ZM215.112 38.5L220.852 23.5H223.272L229.012 38.5H226.672L224.872 33.66H219.152L217.352 38.5H215.112ZM219.892 31.68H224.132L222.012 26L219.892 31.68Z" fill="white"/>
</svg>
