<svg width="133" height="40" viewBox="0 0 133 40" fill="none" xmlns="http://www.w3.org/2000/svg">
<rect width="133" height="40" fill="white"/>
<rect x="55" y="5" width="23" height="6" fill="white"/>
<rect x="14" y="11" width="5" height="19" fill="white"/>
<path d="M20.18 20.5C20.18 19.06 20.4867 17.76 21.1 16.6C21.7267 15.4267 22.5867 14.5067 23.68 13.84C24.7867 13.1733 26.0333 12.84 27.42 12.84C28.5533 12.84 29.5733 13.0533 30.48 13.48C31.3867 13.8933 32.1333 14.48 32.72 15.24C33.32 16 33.7267 16.8867 33.94 17.9L32.24 18.34C31.9867 17.1533 31.44 16.2067 30.6 15.5C29.76 14.78 28.7 14.42 27.42 14.42C26.3133 14.42 25.3467 14.6933 24.52 15.24C23.6933 15.7733 23.0533 16.5067 22.6 17.44C22.16 18.36 21.94 19.38 21.94 20.5C21.94 21.6333 22.16 22.6667 22.6 23.6C23.04 24.52 23.6733 25.2533 24.5 25.8C25.3267 26.3333 26.3 26.6 27.42 26.6C28.3133 26.6 29.1133 26.4333 29.82 26.1C30.5267 25.7533 31.1 25.28 31.54 24.68C31.98 24.08 32.2667 23.3933 32.4 22.62L34.12 23.04C33.88 24.08 33.4533 24.9867 32.84 25.76C32.24 26.5333 31.4733 27.1333 30.54 27.56C29.62 27.9733 28.58 28.18 27.42 28.18C26.0067 28.18 24.7467 27.8467 23.64 27.18C22.5467 26.5133 21.6933 25.6 21.08 24.44C20.48 23.2667 20.18 21.9533 20.18 20.5ZM41.6031 14.56V28H39.9031V14.56H35.1031V13H46.4231V14.56H41.6031ZM49.112 13H54.552C55.2987 13 55.972 13.1133 56.572 13.34C57.172 13.5667 57.6854 13.88 58.112 14.28C58.552 14.68 58.8854 15.16 59.112 15.72C59.352 16.2667 59.472 16.8667 59.472 17.52C59.472 18.16 59.352 18.76 59.112 19.32C58.872 19.88 58.5387 20.3667 58.112 20.78C57.6854 21.18 57.1654 21.5 56.552 21.74C55.952 21.9667 55.2854 22.08 54.552 22.08H50.812V28H49.112V13ZM54.552 20.52C55.552 20.52 56.332 20.2467 56.892 19.7C57.4654 19.14 57.752 18.4133 57.752 17.52C57.752 16.6 57.4654 15.88 56.892 15.36C56.332 14.8267 55.552 14.56 54.552 14.56H50.812V20.52H54.552ZM59.8464 28L65.5864 13H67.4664L73.2264 28H71.4264L69.4664 22.82H63.5064L61.5464 28H59.8464ZM64.0864 21.28H68.8864L66.4864 14.94L64.0864 21.28ZM74.1644 20.5C74.1644 19.06 74.471 17.76 75.0844 16.6C75.711 15.4267 76.571 14.5067 77.6644 13.84C78.771 13.1733 80.0177 12.84 81.4044 12.84C82.5377 12.84 83.5577 13.0533 84.4644 13.48C85.371 13.8933 86.1177 14.48 86.7044 15.24C87.3044 16 87.711 16.8867 87.9244 17.9L86.2244 18.34C85.971 17.1533 85.4244 16.2067 84.5844 15.5C83.7444 14.78 82.6844 14.42 81.4044 14.42C80.2977 14.42 79.331 14.6933 78.5044 15.24C77.6777 15.7733 77.0377 16.5067 76.5844 17.44C76.1444 18.36 75.9244 19.38 75.9244 20.5C75.9244 21.6333 76.1444 22.6667 76.5844 23.6C77.0244 24.52 77.6577 25.2533 78.4844 25.8C79.311 26.3333 80.2844 26.6 81.4044 26.6C82.2977 26.6 83.0977 26.4333 83.8044 26.1C84.511 25.7533 85.0844 25.28 85.5244 24.68C85.9644 24.08 86.251 23.3933 86.3844 22.62L88.1044 23.04C87.8644 24.08 87.4377 24.9867 86.8244 25.76C86.2244 26.5333 85.4577 27.1333 84.5244 27.56C83.6044 27.9733 82.5644 28.18 81.4044 28.18C79.991 28.18 78.731 27.8467 77.6244 27.18C76.531 26.5133 75.6777 25.6 75.0644 24.44C74.4644 23.2667 74.1644 21.9533 74.1644 20.5ZM95.5875 14.56V28H93.8875V14.56H89.0875V13H100.408V14.56H95.5875ZM103.096 28V13H104.796V18.42H107.876C108.77 18.42 109.543 18.5467 110.196 18.8C110.863 19.04 111.416 19.38 111.856 19.82C112.296 20.2467 112.623 20.7533 112.836 21.34C113.063 21.9133 113.176 22.5333 113.176 23.2C113.176 23.9333 113.05 24.5933 112.796 25.18C112.556 25.7667 112.21 26.2733 111.756 26.7C111.303 27.1133 110.75 27.4333 110.096 27.66C109.443 27.8867 108.703 28 107.876 28H103.096ZM107.936 26.44C109.016 26.44 109.87 26.1533 110.496 25.58C111.123 24.9933 111.436 24.2 111.436 23.2C111.436 22.2 111.116 21.4133 110.476 20.84C109.85 20.2667 108.996 19.98 107.916 19.98H104.796V26.44H107.936Z" fill="black"/>
<rect x="114" y="11" width="5" height="19" fill="white"/>
</svg>
