<svg width="248" height="40" viewBox="0 0 248 40" fill="none" xmlns="http://www.w3.org/2000/svg">
<rect width="248" height="40" fill="white"/>
<rect x="112.5" y="5" width="23" height="6" fill="white"/>
<rect x="14" y="11" width="5" height="19" fill="white"/>
<path d="M20.18 20.5C20.18 19.06 20.4867 17.76 21.1 16.6C21.7267 15.4267 22.5867 14.5067 23.68 13.84C24.7867 13.1733 26.0333 12.84 27.42 12.84C28.5533 12.84 29.5733 13.0533 30.48 13.48C31.3867 13.8933 32.1333 14.48 32.72 15.24C33.32 16 33.7267 16.8867 33.94 17.9L32.24 18.34C31.9867 17.1533 31.44 16.2067 30.6 15.5C29.76 14.78 28.7 14.42 27.42 14.42C26.3133 14.42 25.3467 14.6933 24.52 15.24C23.6933 15.7733 23.0533 16.5067 22.6 17.44C22.16 18.36 21.94 19.38 21.94 20.5C21.94 21.6333 22.16 22.6667 22.6 23.6C23.04 24.52 23.6733 25.2533 24.5 25.8C25.3267 26.3333 26.3 26.6 27.42 26.6C28.3133 26.6 29.1133 26.4333 29.82 26.1C30.5267 25.7533 31.1 25.28 31.54 24.68C31.98 24.08 32.2667 23.3933 32.4 22.62L34.12 23.04C33.88 24.08 33.4533 24.9867 32.84 25.76C32.24 26.5333 31.4733 27.1333 30.54 27.56C29.62 27.9733 28.58 28.18 27.42 28.18C26.0067 28.18 24.7467 27.8467 23.64 27.18C22.5467 26.5133 21.6933 25.6 21.08 24.44C20.48 23.2667 20.18 21.9533 20.18 20.5ZM37.0417 13H42.7417C43.3817 13 43.9551 13.0933 44.4617 13.28C44.9817 13.4533 45.4217 13.7067 45.7817 14.04C46.1551 14.36 46.4417 14.7533 46.6417 15.22C46.8417 15.6867 46.9417 16.2067 46.9417 16.78C46.9417 17.58 46.7551 18.26 46.3817 18.82C46.0084 19.38 45.4817 19.8067 44.8017 20.1C45.7217 20.3667 46.4217 20.82 46.9017 21.46C47.3951 22.0867 47.6417 22.8733 47.6417 23.82C47.6417 24.46 47.5351 25.04 47.3217 25.56C47.1084 26.0667 46.8017 26.5067 46.4017 26.88C46.0017 27.24 45.5217 27.52 44.9617 27.72C44.4017 27.9067 43.7684 28 43.0617 28H37.0417V13ZM42.9817 26.52C43.9017 26.52 44.6217 26.28 45.1417 25.8C45.6617 25.32 45.9217 24.66 45.9217 23.82C45.9217 22.9667 45.6551 22.2867 45.1217 21.78C44.5884 21.26 43.8751 21 42.9817 21H38.7417V26.52H42.9817ZM42.6817 19.5C43.4817 19.5 44.1084 19.2733 44.5617 18.82C45.0151 18.3667 45.2417 17.74 45.2417 16.94C45.2417 16.18 45.0017 15.58 44.5217 15.14C44.0551 14.7 43.4151 14.48 42.6017 14.48H38.7417V19.5H42.6817ZM60.2856 13V14.56H52.7456V19.3H58.1256V20.86H52.7456V26.44H60.4856V28H51.0456V13H60.2856ZM68.3023 14.56V28H66.6023V14.56H61.8023V13H73.1223V14.56H68.3023ZM78.3258 21.38H97.5258V22.88H78.3258V21.38ZM109.22 14.56V28H107.52V14.56H102.72V13H114.04V14.56H109.22ZM127.922 20.5C127.922 19.3133 127.689 18.26 127.222 17.34C126.769 16.42 126.122 15.7067 125.282 15.2C124.442 14.68 123.476 14.42 122.382 14.42C121.276 14.42 120.302 14.68 119.462 15.2C118.636 15.7067 117.989 16.42 117.522 17.34C117.069 18.26 116.842 19.3133 116.842 20.5C116.842 21.6867 117.069 22.74 117.522 23.66C117.989 24.58 118.636 25.3 119.462 25.82C120.302 26.3267 121.276 26.58 122.382 26.58C123.476 26.58 124.442 26.3267 125.282 25.82C126.122 25.3 126.769 24.58 127.222 23.66C127.689 22.74 127.922 21.6867 127.922 20.5ZM115.082 20.5C115.082 19.0333 115.389 17.72 116.002 16.56C116.616 15.4 117.476 14.4933 118.582 13.84C119.702 13.1733 120.969 12.84 122.382 12.84C123.809 12.84 125.076 13.1667 126.182 13.82C127.289 14.4733 128.149 15.3867 128.762 16.56C129.376 17.72 129.682 19.0333 129.682 20.5C129.682 21.9667 129.376 23.28 128.762 24.44C128.149 25.6 127.289 26.5133 126.182 27.18C125.076 27.8333 123.809 28.16 122.382 28.16C120.969 28.16 119.709 27.8333 118.602 27.18C117.496 26.5133 116.629 25.6 116.002 24.44C115.389 23.28 115.082 21.9667 115.082 20.5ZM136.103 20.1L130.943 13H132.883L137.503 19.32H139.543V13H141.223V19.32H143.283L147.863 13H149.823L144.663 20.06L149.983 28H148.003L143.203 20.9H141.223V28H139.543V20.9H137.523L132.683 28H130.763L136.103 20.1ZM161.809 13V14.56H154.269V19.3H159.649V20.86H154.269V26.44H162.009V28H152.569V13H161.809ZM168.207 20.5C168.207 19.06 168.514 17.76 169.127 16.6C169.754 15.4267 170.614 14.5067 171.707 13.84C172.814 13.1733 174.061 12.84 175.447 12.84C176.581 12.84 177.601 13.0533 178.507 13.48C179.414 13.8933 180.161 14.48 180.747 15.24C181.347 16 181.754 16.8867 181.967 17.9L180.267 18.34C180.014 17.1533 179.467 16.2067 178.627 15.5C177.787 14.78 176.727 14.42 175.447 14.42C174.341 14.42 173.374 14.6933 172.547 15.24C171.721 15.7733 171.081 16.5067 170.627 17.44C170.187 18.36 169.967 19.38 169.967 20.5C169.967 21.6333 170.187 22.6667 170.627 23.6C171.067 24.52 171.701 25.2533 172.527 25.8C173.354 26.3333 174.327 26.6 175.447 26.6C176.341 26.6 177.141 26.4333 177.847 26.1C178.554 25.7533 179.127 25.28 179.567 24.68C180.007 24.08 180.294 23.3933 180.427 22.62L182.147 23.04C181.907 24.08 181.481 24.9867 180.867 25.76C180.267 26.5333 179.501 27.1333 178.567 27.56C177.647 27.9733 176.607 28.18 175.447 28.18C174.034 28.18 172.774 27.8467 171.667 27.18C170.574 26.5133 169.721 25.6 169.107 24.44C168.507 23.2667 168.207 21.9533 168.207 20.5ZM185.069 13H186.729V25.42L195.289 13H196.909V28H195.249V15.6L186.689 28H185.069V13ZM199.635 26.52C199.849 26.5733 200.015 26.6 200.135 26.6C200.655 26.6 201.075 26.36 201.395 25.88C201.555 25.64 201.695 25.2867 201.815 24.82C201.935 24.3533 202.042 23.7533 202.135 23.02C202.242 22.2733 202.322 21.3733 202.375 20.32C202.442 19.2667 202.495 18.04 202.535 16.64L202.615 13H212.435V28H210.735V14.56H204.275L204.195 17.02C204.155 18.4733 204.095 19.76 204.015 20.88C203.935 21.9867 203.829 22.94 203.695 23.74C203.442 25.3133 203.055 26.4467 202.535 27.14C202.015 27.82 201.282 28.16 200.335 28.16C199.989 28.16 199.662 28.0933 199.355 27.96L199.635 26.52ZM215.003 28L220.743 13H222.623L228.383 28H226.583L224.623 22.82H218.663L216.703 28H215.003ZM219.243 21.28H224.043L221.643 14.94L219.243 21.28Z" fill="black"/>
<rect x="229" y="11" width="5" height="19" fill="white"/>
</svg>
