<svg width="146" height="40" viewBox="0 0 146 40" fill="none" xmlns="http://www.w3.org/2000/svg">
<rect width="146" height="40" fill="white"/>
<rect x="61.5" y="5" width="23" height="6" fill="white"/>
<rect x="14" y="11" width="5" height="19" fill="white"/>
<path d="M20.18 20.5C20.18 19.06 20.4867 17.76 21.1 16.6C21.7267 15.4267 22.5867 14.5067 23.68 13.84C24.7867 13.1733 26.0333 12.84 27.42 12.84C28.5533 12.84 29.5733 13.0533 30.48 13.48C31.3867 13.8933 32.1333 14.48 32.72 15.24C33.32 16 33.7267 16.8867 33.94 17.9L32.24 18.34C31.9867 17.1533 31.44 16.2067 30.6 15.5C29.76 14.78 28.7 14.42 27.42 14.42C26.3133 14.42 25.3467 14.6933 24.52 15.24C23.6933 15.7733 23.0533 16.5067 22.6 17.44C22.16 18.36 21.94 19.38 21.94 20.5C21.94 21.6333 22.16 22.6667 22.6 23.6C23.04 24.52 23.6733 25.2533 24.5 25.8C25.3267 26.3333 26.3 26.6 27.42 26.6C28.3133 26.6 29.1133 26.4333 29.82 26.1C30.5267 25.7533 31.1 25.28 31.54 24.68C31.98 24.08 32.2667 23.3933 32.4 22.62L34.12 23.04C33.88 24.08 33.4533 24.9867 32.84 25.76C32.24 26.5333 31.4733 27.1333 30.54 27.56C29.62 27.9733 28.58 28.18 27.42 28.18C26.0067 28.18 24.7467 27.8467 23.64 27.18C22.5467 26.5133 21.6933 25.6 21.08 24.44C20.48 23.2667 20.18 21.9533 20.18 20.5ZM37.0417 13H42.7417C43.3817 13 43.9551 13.0933 44.4617 13.28C44.9817 13.4533 45.4217 13.7067 45.7817 14.04C46.1551 14.36 46.4417 14.7533 46.6417 15.22C46.8417 15.6867 46.9417 16.2067 46.9417 16.78C46.9417 17.58 46.7551 18.26 46.3817 18.82C46.0084 19.38 45.4817 19.8067 44.8017 20.1C45.7217 20.3667 46.4217 20.82 46.9017 21.46C47.3951 22.0867 47.6417 22.8733 47.6417 23.82C47.6417 24.46 47.5351 25.04 47.3217 25.56C47.1084 26.0667 46.8017 26.5067 46.4017 26.88C46.0017 27.24 45.5217 27.52 44.9617 27.72C44.4017 27.9067 43.7684 28 43.0617 28H37.0417V13ZM42.9817 26.52C43.9017 26.52 44.6217 26.28 45.1417 25.8C45.6617 25.32 45.9217 24.66 45.9217 23.82C45.9217 22.9667 45.6551 22.2867 45.1217 21.78C44.5884 21.26 43.8751 21 42.9817 21H38.7417V26.52H42.9817ZM42.6817 19.5C43.4817 19.5 44.1084 19.2733 44.5617 18.82C45.0151 18.3667 45.2417 17.74 45.2417 16.94C45.2417 16.18 45.0017 15.58 44.5217 15.14C44.0551 14.7 43.4151 14.48 42.6017 14.48H38.7417V19.5H42.6817ZM62.7856 20.5C62.7856 19.3133 62.5523 18.26 62.0856 17.34C61.6323 16.42 60.9856 15.7067 60.1456 15.2C59.3056 14.68 58.339 14.42 57.2456 14.42C56.139 14.42 55.1656 14.68 54.3256 15.2C53.499 15.7067 52.8523 16.42 52.3856 17.34C51.9323 18.26 51.7056 19.3133 51.7056 20.5C51.7056 21.6867 51.9323 22.74 52.3856 23.66C52.8523 24.58 53.499 25.3 54.3256 25.82C55.1656 26.3267 56.139 26.58 57.2456 26.58C58.339 26.58 59.3056 26.3267 60.1456 25.82C60.9856 25.3 61.6323 24.58 62.0856 23.66C62.5523 22.74 62.7856 21.6867 62.7856 20.5ZM49.9456 20.5C49.9456 19.0333 50.2523 17.72 50.8656 16.56C51.479 15.4 52.339 14.4933 53.4456 13.84C54.5656 13.1733 55.8323 12.84 57.2456 12.84C58.6723 12.84 59.939 13.1667 61.0456 13.82C62.1523 14.4733 63.0123 15.3867 63.6256 16.56C64.239 17.72 64.5456 19.0333 64.5456 20.5C64.5456 21.9667 64.239 23.28 63.6256 24.44C63.0123 25.6 62.1523 26.5133 61.0456 27.18C59.939 27.8333 58.6723 28.16 57.2456 28.16C55.8323 28.16 54.5723 27.8333 53.4656 27.18C52.359 26.5133 51.4923 25.6 50.8656 24.44C50.2523 23.28 49.9456 21.9667 49.9456 20.5ZM67.9988 13H77.1788V14.56H69.6988V19.08H73.5188C74.3321 19.08 75.0454 19.1933 75.6588 19.42C76.2721 19.6467 76.7788 19.96 77.1788 20.36C77.5921 20.76 77.8988 21.2333 78.0988 21.78C78.3121 22.3267 78.4188 22.9133 78.4188 23.54C78.4188 24.2333 78.3054 24.8533 78.0788 25.4C77.8521 25.9467 77.5254 26.4133 77.0988 26.8C76.6854 27.1867 76.1721 27.4867 75.5588 27.7C74.9588 27.9 74.2788 28 73.5188 28H67.9988V13ZM73.5588 26.5C74.5188 26.5 75.2788 26.24 75.8388 25.72C76.3988 25.1867 76.6788 24.46 76.6788 23.54C76.6788 22.62 76.3988 21.9 75.8388 21.38C75.2788 20.8467 74.5188 20.58 73.5588 20.58H69.6988V26.5H73.5588ZM93.2544 20.5C93.2544 19.3133 93.021 18.26 92.5544 17.34C92.101 16.42 91.4544 15.7067 90.6144 15.2C89.7744 14.68 88.8077 14.42 87.7144 14.42C86.6077 14.42 85.6344 14.68 84.7944 15.2C83.9677 15.7067 83.321 16.42 82.8544 17.34C82.401 18.26 82.1744 19.3133 82.1744 20.5C82.1744 21.6867 82.401 22.74 82.8544 23.66C83.321 24.58 83.9677 25.3 84.7944 25.82C85.6344 26.3267 86.6077 26.58 87.7144 26.58C88.8077 26.58 89.7744 26.3267 90.6144 25.82C91.4544 25.3 92.101 24.58 92.5544 23.66C93.021 22.74 93.2544 21.6867 93.2544 20.5ZM80.4144 20.5C80.4144 19.0333 80.721 17.72 81.3344 16.56C81.9477 15.4 82.8077 14.4933 83.9144 13.84C85.0344 13.1733 86.301 12.84 87.7144 12.84C89.141 12.84 90.4077 13.1667 91.5144 13.82C92.621 14.4733 93.481 15.3867 94.0944 16.56C94.7077 17.72 95.0144 19.0333 95.0144 20.5C95.0144 21.9667 94.7077 23.28 94.0944 24.44C93.481 25.6 92.621 26.5133 91.5144 27.18C90.4077 27.8333 89.141 28.16 87.7144 28.16C86.301 28.16 85.041 27.8333 83.9344 27.18C82.8277 26.5133 81.961 25.6 81.3344 24.44C80.721 23.28 80.4144 21.9667 80.4144 20.5ZM96.2484 26.44H97.5484C97.7351 26.2133 97.9084 25.9733 98.0684 25.72C98.2284 25.4533 98.3618 25.1733 98.4684 24.88C98.6018 24.5467 98.7151 24.1467 98.8084 23.68C98.9151 23.2 99.0018 22.6333 99.0684 21.98C99.1484 21.3133 99.2084 20.54 99.2484 19.66C99.3018 18.78 99.3418 17.7733 99.3684 16.64L99.4484 13H109.128V26.44H111.028V31.6H109.388V28H97.8884V31.6H96.2484V26.44ZM107.448 26.44V14.56H101.088L101.028 17.04C101.002 18.12 100.962 19.0933 100.908 19.96C100.855 20.8267 100.782 21.5867 100.688 22.24C100.555 23.2 100.375 24.0133 100.148 24.68C99.9218 25.3467 99.6351 25.9333 99.2884 26.44H107.448ZM112.522 28L118.262 13H120.142L125.902 28H124.102L122.142 22.82H116.182L114.222 28H112.522ZM116.762 21.28H121.562L119.162 14.94L116.762 21.28Z" fill="black"/>
<rect x="127" y="11" width="5" height="19" fill="white"/>
</svg>
