<svg width="239" height="40" viewBox="0 0 239 40" fill="none" xmlns="http://www.w3.org/2000/svg">
<rect width="239" height="40" fill="white"/>
<rect x="108" y="5" width="23" height="6" fill="white"/>
<rect x="14" y="11" width="5" height="19" fill="white"/>
<path d="M19.1 13H20.98L25.72 22.22L30.14 13H31.94L24.76 28H22.96L24.8 24.14L19.1 13ZM34.3269 13H40.0269C40.6669 13 41.2402 13.0933 41.7469 13.28C42.2669 13.4533 42.7069 13.7067 43.0669 14.04C43.4402 14.36 43.7269 14.7533 43.9269 15.22C44.1269 15.6867 44.2269 16.2067 44.2269 16.78C44.2269 17.58 44.0402 18.26 43.6669 18.82C43.2935 19.38 42.7669 19.8067 42.0869 20.1C43.0069 20.3667 43.7069 20.82 44.1869 21.46C44.6802 22.0867 44.9269 22.8733 44.9269 23.82C44.9269 24.46 44.8202 25.04 44.6069 25.56C44.3935 26.0667 44.0869 26.5067 43.6869 26.88C43.2869 27.24 42.8069 27.52 42.2469 27.72C41.6869 27.9067 41.0535 28 40.3469 28H34.3269V13ZM40.2669 26.52C41.1869 26.52 41.9069 26.28 42.4269 25.8C42.9469 25.32 43.2069 24.66 43.2069 23.82C43.2069 22.9667 42.9402 22.2867 42.4069 21.78C41.8735 21.26 41.1602 21 40.2669 21H36.0269V26.52H40.2669ZM39.9669 19.5C40.7669 19.5 41.3935 19.2733 41.8469 18.82C42.3002 18.3667 42.5269 17.74 42.5269 16.94C42.5269 16.18 42.2869 15.58 41.8069 15.14C41.3402 14.7 40.7002 14.48 39.8869 14.48H36.0269V19.5H39.9669ZM57.5708 13V14.56H50.0308V19.3H55.4108V20.86H50.0308V26.44H57.7708V28H48.3308V13H57.5708ZM62.3745 13V19.32H64.5745L69.9545 13H72.0145L65.9745 20.06L72.1745 28H70.1345L64.5145 20.9H62.3745V28H60.6745V13H62.3745ZM86.0278 20.5C86.0278 19.3133 85.7945 18.26 85.3278 17.34C84.8745 16.42 84.2278 15.7067 83.3878 15.2C82.5478 14.68 81.5811 14.42 80.4878 14.42C79.3811 14.42 78.4078 14.68 77.5678 15.2C76.7411 15.7067 76.0945 16.42 75.6278 17.34C75.1745 18.26 74.9478 19.3133 74.9478 20.5C74.9478 21.6867 75.1745 22.74 75.6278 23.66C76.0945 24.58 76.7411 25.3 77.5678 25.82C78.4078 26.3267 79.3811 26.58 80.4878 26.58C81.5811 26.58 82.5478 26.3267 83.3878 25.82C84.2278 25.3 84.8745 24.58 85.3278 23.66C85.7945 22.74 86.0278 21.6867 86.0278 20.5ZM73.1878 20.5C73.1878 19.0333 73.4945 17.72 74.1078 16.56C74.7211 15.4 75.5811 14.4933 76.6878 13.84C77.8078 13.1733 79.0745 12.84 80.4878 12.84C81.9145 12.84 83.1811 13.1667 84.2878 13.82C85.3945 14.4733 86.2545 15.3867 86.8678 16.56C87.4811 17.72 87.7878 19.0333 87.7878 20.5C87.7878 21.9667 87.4811 23.28 86.8678 24.44C86.2545 25.6 85.3945 26.5133 84.2878 27.18C83.1811 27.8333 81.9145 28.16 80.4878 28.16C79.0745 28.16 77.8145 27.8333 76.7078 27.18C75.6011 26.5133 74.7345 25.6 74.1078 24.44C73.4945 23.28 73.1878 21.9667 73.1878 20.5ZM91.2409 13H96.9409C97.5809 13 98.1543 13.0933 98.6609 13.28C99.1809 13.4533 99.6209 13.7067 99.9809 14.04C100.354 14.36 100.641 14.7533 100.841 15.22C101.041 15.6867 101.141 16.2067 101.141 16.78C101.141 17.58 100.954 18.26 100.581 18.82C100.208 19.38 99.6809 19.8067 99.0009 20.1C99.9209 20.3667 100.621 20.82 101.101 21.46C101.594 22.0867 101.841 22.8733 101.841 23.82C101.841 24.46 101.734 25.04 101.521 25.56C101.308 26.0667 101.001 26.5067 100.601 26.88C100.201 27.24 99.7209 27.52 99.1609 27.72C98.6009 27.9067 97.9676 28 97.2609 28H91.2409V13ZM97.1809 26.52C98.1009 26.52 98.8209 26.28 99.3409 25.8C99.8609 25.32 100.121 24.66 100.121 23.82C100.121 22.9667 99.8543 22.2867 99.3209 21.78C98.7876 21.26 98.0743 21 97.1809 21H92.9409V26.52H97.1809ZM96.8809 19.5C97.6809 19.5 98.3076 19.2733 98.7609 18.82C99.2143 18.3667 99.4409 17.74 99.4409 16.94C99.4409 16.18 99.2009 15.58 98.7209 15.14C98.2543 14.7 97.6143 14.48 96.8009 14.48H92.9409V19.5H96.8809ZM114.485 13V14.56H106.945V19.3H112.325V20.86H106.945V26.44H114.685V28H105.245V13H114.485ZM116.549 13H118.249V17.14C118.249 18.3533 118.562 19.2333 119.189 19.78C119.829 20.3267 120.795 20.6 122.089 20.6C122.702 20.6 123.295 20.5467 123.869 20.44C124.455 20.32 125.089 20.1267 125.769 19.86V13H127.469V28H125.769V21.4C125.049 21.6533 124.375 21.8467 123.749 21.98C123.122 22.1133 122.489 22.18 121.849 22.18C120.169 22.18 118.862 21.8 117.929 21.04C117.009 20.2667 116.549 19.0933 116.549 17.52V13ZM132.022 13H133.682V25.42L142.242 13H143.862V28H142.202V15.6L133.642 28H132.022V13ZM148.428 13H154.128C154.768 13 155.342 13.0933 155.848 13.28C156.368 13.4533 156.808 13.7067 157.168 14.04C157.542 14.36 157.828 14.7533 158.028 15.22C158.228 15.6867 158.328 16.2067 158.328 16.78C158.328 17.58 158.142 18.26 157.768 18.82C157.395 19.38 156.868 19.8067 156.188 20.1C157.108 20.3667 157.808 20.82 158.288 21.46C158.782 22.0867 159.028 22.8733 159.028 23.82C159.028 24.46 158.922 25.04 158.708 25.56C158.495 26.0667 158.188 26.5067 157.788 26.88C157.388 27.24 156.908 27.52 156.348 27.72C155.788 27.9067 155.155 28 154.448 28H148.428V13ZM154.368 26.52C155.288 26.52 156.008 26.28 156.528 25.8C157.048 25.32 157.308 24.66 157.308 23.82C157.308 22.9667 157.042 22.2867 156.508 21.78C155.975 21.26 155.262 21 154.368 21H150.128V26.52H154.368ZM154.068 19.5C154.868 19.5 155.495 19.2733 155.948 18.82C156.402 18.3667 156.628 17.74 156.628 16.94C156.628 16.18 156.388 15.58 155.908 15.14C155.442 14.7 154.802 14.48 153.988 14.48H150.128V19.5H154.068ZM160.432 28L166.172 13H168.052L173.812 28H172.012L170.052 22.82H164.092L162.132 28H160.432ZM164.672 21.28H169.472L167.072 14.94L164.672 21.28ZM178.078 13V19.26H186.758V13H188.458V28H186.758V20.82H178.078V28H176.378V13H178.078ZM192.999 13H194.659V25.42L203.219 13H204.839V28H203.179V15.6L194.619 28H192.999V13ZM218.645 13V14.56H211.105V19.3H216.485V20.86H211.105V26.44H218.845V28H209.405V13H218.645Z" fill="black"/>
<rect x="220" y="11" width="5" height="19" fill="white"/>
</svg>
