<svg width="148" height="40" viewBox="0 0 148 40" fill="none" xmlns="http://www.w3.org/2000/svg">
<rect width="148" height="40" fill="white"/>
<rect x="62.5" y="5" width="23" height="6" fill="white"/>
<rect x="14" y="11" width="5" height="19" fill="white"/>
<path d="M21.28 13H26.98C27.62 13 28.1933 13.0933 28.7 13.28C29.22 13.4533 29.66 13.7067 30.02 14.04C30.3933 14.36 30.68 14.7533 30.88 15.22C31.08 15.6867 31.18 16.2067 31.18 16.78C31.18 17.58 30.9933 18.26 30.62 18.82C30.2467 19.38 29.72 19.8067 29.04 20.1C29.96 20.3667 30.66 20.82 31.14 21.46C31.6333 22.0867 31.88 22.8733 31.88 23.82C31.88 24.46 31.7733 25.04 31.56 25.56C31.3467 26.0667 31.04 26.5067 30.64 26.88C30.24 27.24 29.76 27.52 29.2 27.72C28.64 27.9067 28.0067 28 27.3 28H21.28V13ZM27.22 26.52C28.14 26.52 28.86 26.28 29.38 25.8C29.9 25.32 30.16 24.66 30.16 23.82C30.16 22.9667 29.8933 22.2867 29.36 21.78C28.8267 21.26 28.1133 21 27.22 21H22.98V26.52H27.22ZM26.92 19.5C27.72 19.5 28.3467 19.2733 28.8 18.82C29.2533 18.3667 29.48 17.74 29.48 16.94C29.48 16.18 29.24 15.58 28.76 15.14C28.2933 14.7 27.6533 14.48 26.84 14.48H22.98V19.5H26.92ZM35.2839 28V13H36.9839V18.42H40.0639C40.9572 18.42 41.7306 18.5467 42.3839 18.8C43.0506 19.04 43.6039 19.38 44.0439 19.82C44.4839 20.2467 44.8106 20.7533 45.0239 21.34C45.2506 21.9133 45.3639 22.5333 45.3639 23.2C45.3639 23.9333 45.2372 24.5933 44.9839 25.18C44.7439 25.7667 44.3972 26.2733 43.9439 26.7C43.4906 27.1133 42.9372 27.4333 42.2839 27.66C41.6306 27.8867 40.8906 28 40.0639 28H35.2839ZM40.1239 26.44C41.2039 26.44 42.0572 26.1533 42.6839 25.58C43.3106 24.9933 43.6239 24.2 43.6239 23.2C43.6239 22.2 43.3039 21.4133 42.6639 20.84C42.0372 20.2667 41.1839 19.98 40.1039 19.98H36.9839V26.44H40.1239ZM47.6839 28V13H49.3839V28H47.6839ZM51.9963 28L57.1763 20.32L52.0363 13H54.0363L58.2963 19.06L62.4363 13H64.3563L59.2363 20.4L64.5763 28H62.5763L58.1363 21.68L53.8563 28H51.9963ZM78.4497 20.5C78.4497 19.3133 78.2164 18.26 77.7497 17.34C77.2964 16.42 76.6497 15.7067 75.8097 15.2C74.9697 14.68 74.003 14.42 72.9097 14.42C71.803 14.42 70.8297 14.68 69.9897 15.2C69.163 15.7067 68.5164 16.42 68.0497 17.34C67.5964 18.26 67.3697 19.3133 67.3697 20.5C67.3697 21.6867 67.5964 22.74 68.0497 23.66C68.5164 24.58 69.163 25.3 69.9897 25.82C70.8297 26.3267 71.803 26.58 72.9097 26.58C74.003 26.58 74.9697 26.3267 75.8097 25.82C76.6497 25.3 77.2964 24.58 77.7497 23.66C78.2164 22.74 78.4497 21.6867 78.4497 20.5ZM65.6097 20.5C65.6097 19.0333 65.9164 17.72 66.5297 16.56C67.143 15.4 68.003 14.4933 69.1097 13.84C70.2297 13.1733 71.4964 12.84 72.9097 12.84C74.3364 12.84 75.603 13.1667 76.7097 13.82C77.8164 14.4733 78.6764 15.3867 79.2897 16.56C79.903 17.72 80.2097 19.0333 80.2097 20.5C80.2097 21.9667 79.903 23.28 79.2897 24.44C78.6764 25.6 77.8164 26.5133 76.7097 27.18C75.603 27.8333 74.3364 28.16 72.9097 28.16C71.4964 28.16 70.2364 27.8333 69.1297 27.18C68.023 26.5133 67.1564 25.6 66.5297 24.44C65.9164 23.28 65.6097 21.9667 65.6097 20.5ZM81.4438 26.44H82.7438C82.9304 26.2133 83.1038 25.9733 83.2638 25.72C83.4238 25.4533 83.5571 25.1733 83.6638 24.88C83.7971 24.5467 83.9104 24.1467 84.0038 23.68C84.1104 23.2 84.1971 22.6333 84.2638 21.98C84.3438 21.3133 84.4038 20.54 84.4438 19.66C84.4971 18.78 84.5371 17.7733 84.5638 16.64L84.6438 13H94.3238V26.44H96.2238V31.6H94.5838V28H83.0838V31.6H81.4438V26.44ZM92.6437 26.44V14.56H86.2838L86.2238 17.04C86.1971 18.12 86.1571 19.0933 86.1038 19.96C86.0504 20.8267 85.9771 21.5867 85.8838 22.24C85.7504 23.2 85.5704 24.0133 85.3438 24.68C85.1171 25.3467 84.8304 25.9333 84.4838 26.44H92.6437ZM102.025 23.92L103.685 23.5C103.872 24.5533 104.312 25.3333 105.005 25.84C105.712 26.3467 106.632 26.6 107.765 26.6C108.885 26.6 109.785 26.3467 110.465 25.84C111.158 25.3333 111.505 24.6133 111.505 23.68C111.505 22.8267 111.238 22.1733 110.705 21.72C110.185 21.2533 109.405 21.02 108.365 21.02H106.085V19.46H108.285C109.205 19.46 109.905 19.24 110.385 18.8C110.878 18.36 111.125 17.74 111.125 16.94C111.125 16.14 110.818 15.5133 110.205 15.06C109.592 14.6067 108.758 14.38 107.705 14.38C106.745 14.38 105.932 14.6 105.265 15.04C104.598 15.48 104.178 16.14 104.005 17.02L102.405 16.66C102.552 16.0333 102.785 15.4867 103.105 15.02C103.425 14.54 103.812 14.14 104.265 13.82C104.732 13.5 105.258 13.26 105.845 13.1C106.432 12.9267 107.052 12.84 107.705 12.84C108.492 12.84 109.198 12.94 109.825 13.14C110.452 13.3267 110.992 13.5933 111.445 13.94C111.898 14.2867 112.245 14.7067 112.485 15.2C112.725 15.6933 112.845 16.2333 112.845 16.82C112.845 17.5533 112.665 18.2067 112.305 18.78C111.945 19.34 111.425 19.7933 110.745 20.14C111.545 20.4067 112.158 20.8533 112.585 21.48C113.012 22.0933 113.225 22.84 113.225 23.72C113.225 24.3867 113.092 24.9933 112.825 25.54C112.558 26.0867 112.185 26.5533 111.705 26.94C111.225 27.3267 110.645 27.6267 109.965 27.84C109.298 28.0533 108.558 28.16 107.745 28.16C106.212 28.16 104.932 27.8067 103.905 27.1C102.892 26.3933 102.265 25.3333 102.025 23.92ZM114.612 28L120.352 13H122.232L127.992 28H126.192L124.232 22.82H118.272L116.312 28H114.612ZM118.852 21.28H123.652L121.252 14.94L118.852 21.28Z" fill="black"/>
<rect x="129" y="11" width="5" height="19" fill="white"/>
</svg>
