<svg width="157" height="40" viewBox="0 0 157 40" fill="none" xmlns="http://www.w3.org/2000/svg">
<rect width="157" height="40" fill="white"/>
<rect x="67" y="5" width="23" height="6" fill="white"/>
<rect x="14" y="11" width="5" height="19" fill="white"/>
<path d="M19.1 13H20.98L25.72 22.22L30.14 13H31.94L24.76 28H22.96L24.8 24.14L19.1 13ZM34.3269 13H46.1669V28H44.4669V14.56H36.0269V28H34.3269V13ZM62.4536 20.5C62.4536 19.3133 62.2203 18.26 61.7536 17.34C61.3003 16.42 60.6536 15.7067 59.8136 15.2C58.9736 14.68 58.0069 14.42 56.9136 14.42C55.8069 14.42 54.8336 14.68 53.9936 15.2C53.1669 15.7067 52.5203 16.42 52.0536 17.34C51.6003 18.26 51.3736 19.3133 51.3736 20.5C51.3736 21.6867 51.6003 22.74 52.0536 23.66C52.5203 24.58 53.1669 25.3 53.9936 25.82C54.8336 26.3267 55.8069 26.58 56.9136 26.58C58.0069 26.58 58.9736 26.3267 59.8136 25.82C60.6536 25.3 61.3003 24.58 61.7536 23.66C62.2203 22.74 62.4536 21.6867 62.4536 20.5ZM49.6136 20.5C49.6136 19.0333 49.9203 17.72 50.5336 16.56C51.1469 15.4 52.0069 14.4933 53.1136 13.84C54.2336 13.1733 55.5003 12.84 56.9136 12.84C58.3403 12.84 59.6069 13.1667 60.7136 13.82C61.8203 14.4733 62.6803 15.3867 63.2936 16.56C63.9069 17.72 64.2136 19.0333 64.2136 20.5C64.2136 21.9667 63.9069 23.28 63.2936 24.44C62.6803 25.6 61.8203 26.5133 60.7136 27.18C59.6069 27.8333 58.3403 28.16 56.9136 28.16C55.5003 28.16 54.2403 27.8333 53.1336 27.18C52.0269 26.5133 51.1603 25.6 50.5336 24.44C49.9203 23.28 49.6136 21.9667 49.6136 20.5ZM67.6667 13H73.1067C73.8534 13 74.5267 13.1133 75.1267 13.34C75.7267 13.5667 76.2401 13.88 76.6667 14.28C77.1067 14.68 77.4401 15.16 77.6667 15.72C77.9067 16.2667 78.0267 16.8667 78.0267 17.52C78.0267 18.16 77.9067 18.76 77.6667 19.32C77.4267 19.88 77.0934 20.3667 76.6667 20.78C76.2401 21.18 75.7201 21.5 75.1067 21.74C74.5067 21.9667 73.8401 22.08 73.1067 22.08H69.3667V28H67.6667V13ZM73.1067 20.52C74.1067 20.52 74.8867 20.2467 75.4467 19.7C76.0201 19.14 76.3067 18.4133 76.3067 17.52C76.3067 16.6 76.0201 15.88 75.4467 15.36C74.8867 14.8267 74.1067 14.56 73.1067 14.56H69.3667V20.52H73.1067ZM79.9652 20.5C79.9652 19.06 80.2718 17.76 80.8852 16.6C81.5118 15.4267 82.3718 14.5067 83.4652 13.84C84.5718 13.1733 85.8185 12.84 87.2052 12.84C88.3385 12.84 89.3585 13.0533 90.2652 13.48C91.1718 13.8933 91.9185 14.48 92.5052 15.24C93.1052 16 93.5118 16.8867 93.7252 17.9L92.0252 18.34C91.7718 17.1533 91.2252 16.2067 90.3852 15.5C89.5452 14.78 88.4852 14.42 87.2052 14.42C86.0985 14.42 85.1318 14.6933 84.3052 15.24C83.4785 15.7733 82.8385 16.5067 82.3852 17.44C81.9452 18.36 81.7252 19.38 81.7252 20.5C81.7252 21.6333 81.9452 22.6667 82.3852 23.6C82.8252 24.52 83.4585 25.2533 84.2852 25.8C85.1118 26.3333 86.0852 26.6 87.2052 26.6C88.0985 26.6 88.8985 26.4333 89.6052 26.1C90.3118 25.7533 90.8852 25.28 91.3252 24.68C91.7652 24.08 92.0518 23.3933 92.1852 22.62L93.9052 23.04C93.6652 24.08 93.2385 24.9867 92.6252 25.76C92.0252 26.5333 91.2585 27.1333 90.3252 27.56C89.4052 27.9733 88.3652 28.18 87.2052 28.18C85.7918 28.18 84.5318 27.8467 83.4252 27.18C82.3318 26.5133 81.4785 25.6 80.8652 24.44C80.2652 23.2667 79.9652 21.9533 79.9652 20.5ZM101.388 14.56V28H99.6883V14.56H94.8883V13H106.208V14.56H101.388ZM108.897 13H114.597C115.237 13 115.811 13.0933 116.317 13.28C116.837 13.4533 117.277 13.7067 117.637 14.04C118.011 14.36 118.297 14.7533 118.497 15.22C118.697 15.6867 118.797 16.2067 118.797 16.78C118.797 17.58 118.611 18.26 118.237 18.82C117.864 19.38 117.337 19.8067 116.657 20.1C117.577 20.3667 118.277 20.82 118.757 21.46C119.251 22.0867 119.497 22.8733 119.497 23.82C119.497 24.46 119.391 25.04 119.177 25.56C118.964 26.0667 118.657 26.5067 118.257 26.88C117.857 27.24 117.377 27.52 116.817 27.72C116.257 27.9067 115.624 28 114.917 28H108.897V13ZM114.837 26.52C115.757 26.52 116.477 26.28 116.997 25.8C117.517 25.32 117.777 24.66 117.777 23.82C117.777 22.9667 117.511 22.2867 116.977 21.78C116.444 21.26 115.731 21 114.837 21H110.597V26.52H114.837ZM114.537 19.5C115.337 19.5 115.964 19.2733 116.417 18.82C116.871 18.3667 117.097 17.74 117.097 16.94C117.097 16.18 116.857 15.58 116.377 15.14C115.911 14.7 115.271 14.48 114.457 14.48H110.597V19.5H114.537ZM134.641 20.5C134.641 19.3133 134.408 18.26 133.941 17.34C133.488 16.42 132.841 15.7067 132.001 15.2C131.161 14.68 130.194 14.42 129.101 14.42C127.994 14.42 127.021 14.68 126.181 15.2C125.354 15.7067 124.708 16.42 124.241 17.34C123.788 18.26 123.561 19.3133 123.561 20.5C123.561 21.6867 123.788 22.74 124.241 23.66C124.708 24.58 125.354 25.3 126.181 25.82C127.021 26.3267 127.994 26.58 129.101 26.58C130.194 26.58 131.161 26.3267 132.001 25.82C132.841 25.3 133.488 24.58 133.941 23.66C134.408 22.74 134.641 21.6867 134.641 20.5ZM121.801 20.5C121.801 19.0333 122.108 17.72 122.721 16.56C123.334 15.4 124.194 14.4933 125.301 13.84C126.421 13.1733 127.688 12.84 129.101 12.84C130.528 12.84 131.794 13.1667 132.901 13.82C134.008 14.4733 134.868 15.3867 135.481 16.56C136.094 17.72 136.401 19.0333 136.401 20.5C136.401 21.9667 136.094 23.28 135.481 24.44C134.868 25.6 134.008 26.5133 132.901 27.18C131.794 27.8333 130.528 28.16 129.101 28.16C127.688 28.16 126.428 27.8333 125.321 27.18C124.214 26.5133 123.348 25.6 122.721 24.44C122.108 23.28 121.801 21.9667 121.801 20.5Z" fill="black"/>
<rect x="138" y="11" width="5" height="19" fill="white"/>
</svg>
