<svg width="234" height="41" viewBox="0 0 234 41" fill="none" xmlns="http://www.w3.org/2000/svg">
<rect width="233" height="40" transform="translate(0.059082 0.65625)" fill="white"/>
<rect x="105.059" y="5.65625" width="23" height="6" fill="white"/>
<path d="M14.1591 13.6562H16.0391L20.7791 22.8762L25.1991 13.6562H26.9991L19.8191 28.6562H18.0191L19.8591 24.7962L14.1591 13.6562ZM29.386 13.6562L35.086 13.6562C35.726 13.6562 36.2993 13.7496 36.806 13.9362C37.326 14.1096 37.766 14.3629 38.126 14.6962C38.4993 15.0162 38.786 15.4096 38.986 15.8762C39.186 16.3429 39.286 16.8629 39.286 17.4362C39.286 18.2362 39.0993 18.9162 38.726 19.4762C38.3526 20.0362 37.826 20.4629 37.146 20.7562C38.066 21.0229 38.766 21.4762 39.246 22.1162C39.7393 22.7429 39.986 23.5296 39.986 24.4762C39.986 25.1162 39.8793 25.6962 39.666 26.2162C39.4526 26.7229 39.146 27.1629 38.746 27.5362C38.346 27.8962 37.866 28.1762 37.306 28.3762C36.746 28.5629 36.1126 28.6562 35.406 28.6562H29.386V13.6562ZM35.326 27.1762C36.246 27.1762 36.966 26.9362 37.486 26.4562C38.006 25.9762 38.266 25.3162 38.266 24.4762C38.266 23.6229 37.9993 22.9429 37.466 22.4362C36.9326 21.9162 36.2193 21.6562 35.326 21.6562H31.086V27.1762H35.326ZM35.026 20.1562C35.826 20.1562 36.4526 19.9296 36.906 19.4762C37.3593 19.0229 37.586 18.3962 37.586 17.5962C37.586 16.8362 37.346 16.2362 36.866 15.7962C36.3993 15.3562 35.7593 15.1362 34.946 15.1362L31.086 15.1362V20.1562H35.026ZM52.6299 13.6562V15.2162H45.0899V19.9562H50.4699V21.5162H45.0899V27.0962H52.8299V28.6563L43.3899 28.6562V13.6562H52.6299ZM57.4336 13.6562V19.9762H59.6336L65.0136 13.6562H67.0736L61.0336 20.7162L67.2336 28.6563H65.1936L59.5736 21.5562H57.4336V28.6563H55.7336V13.6562H57.4336ZM81.0869 21.1562C81.0869 19.9696 80.8536 18.9162 80.3869 17.9962C79.9336 17.0762 79.2869 16.3629 78.4469 15.8562C77.6069 15.3362 76.6402 15.0762 75.5469 15.0762C74.4402 15.0762 73.4669 15.3362 72.6269 15.8562C71.8002 16.3629 71.1536 17.0762 70.6869 17.9962C70.2336 18.9162 70.0069 19.9696 70.0069 21.1562C70.0069 22.3429 70.2336 23.3962 70.6869 24.3162C71.1536 25.2362 71.8002 25.9562 72.6269 26.4762C73.4669 26.9829 74.4402 27.2362 75.5469 27.2362C76.6402 27.2362 77.6069 26.9829 78.4469 26.4762C79.2869 25.9562 79.9336 25.2362 80.3869 24.3162C80.8536 23.3962 81.0869 22.3429 81.0869 21.1562ZM68.2469 21.1562C68.2469 19.6896 68.5536 18.3762 69.1669 17.2162C69.7802 16.0562 70.6402 15.1496 71.7469 14.4962C72.8669 13.8296 74.1336 13.4962 75.5469 13.4962C76.9736 13.4962 78.2402 13.8229 79.3469 14.4762C80.4536 15.1296 81.3136 16.0429 81.9269 17.2162C82.5402 18.3762 82.8469 19.6896 82.8469 21.1562C82.8469 22.6229 82.5402 23.9362 81.9269 25.0962C81.3136 26.2562 80.4536 27.1696 79.3469 27.8362C78.2402 28.4896 76.9736 28.8163 75.5469 28.8163C74.1336 28.8163 72.8736 28.4896 71.7669 27.8362C70.6602 27.1696 69.7936 26.2562 69.1669 25.0962C68.5536 23.9362 68.2469 22.6229 68.2469 21.1562ZM86.3 13.6562H92C92.64 13.6562 93.2134 13.7496 93.72 13.9362C94.24 14.1096 94.68 14.3629 95.04 14.6962C95.4134 15.0162 95.7 15.4096 95.9 15.8762C96.1 16.3429 96.2 16.8629 96.2 17.4362C96.2 18.2362 96.0134 18.9162 95.64 19.4762C95.2667 20.0362 94.74 20.4629 94.06 20.7562C94.98 21.0229 95.68 21.4762 96.16 22.1162C96.6534 22.7429 96.9 23.5296 96.9 24.4762C96.9 25.1162 96.7934 25.6962 96.58 26.2162C96.3667 26.7229 96.06 27.1629 95.66 27.5362C95.26 27.8962 94.78 28.1762 94.22 28.3762C93.66 28.5629 93.0267 28.6563 92.32 28.6563H86.3V13.6562ZM92.24 27.1762C93.16 27.1762 93.88 26.9362 94.4 26.4562C94.92 25.9762 95.18 25.3162 95.18 24.4762C95.18 23.6229 94.9134 22.9429 94.38 22.4362C93.8467 21.9162 93.1334 21.6562 92.24 21.6562H88V27.1762H92.24ZM91.94 20.1562C92.74 20.1562 93.3667 19.9296 93.82 19.4762C94.2734 19.0229 94.5 18.3962 94.5 17.5962C94.5 16.8362 94.26 16.2362 93.78 15.7962C93.3134 15.3562 92.6734 15.1362 91.86 15.1362H88V20.1562H91.94ZM109.544 13.6562V15.2162H102.004V19.9562H107.384V21.5162H102.004V27.0962H109.744V28.6563H100.304V13.6562H109.544ZM111.608 13.6562H113.308V17.7962C113.308 19.0096 113.621 19.8896 114.248 20.4362C114.888 20.9829 115.854 21.2562 117.148 21.2562C117.761 21.2562 118.354 21.2029 118.928 21.0962C119.514 20.9762 120.148 20.7829 120.828 20.5162V13.6562H122.528V28.6563H120.828V22.0562C120.108 22.3096 119.434 22.5029 118.808 22.6362C118.181 22.7696 117.548 22.8362 116.908 22.8362C115.228 22.8362 113.921 22.4562 112.988 21.6962C112.068 20.9229 111.608 19.7496 111.608 18.1762V13.6562ZM127.081 13.6562H128.741V26.0762L137.301 13.6562H138.921V28.6563H137.261V16.2562L128.701 28.6563H127.081V13.6562ZM143.488 13.6562H149.188C149.828 13.6562 150.401 13.7496 150.908 13.9362C151.428 14.1096 151.868 14.3629 152.228 14.6962C152.601 15.0162 152.888 15.4096 153.088 15.8762C153.288 16.3429 153.388 16.8629 153.388 17.4362C153.388 18.2362 153.201 18.9162 152.828 19.4762C152.454 20.0362 151.928 20.4629 151.248 20.7562C152.168 21.0229 152.868 21.4762 153.348 22.1162C153.841 22.7429 154.088 23.5296 154.088 24.4762C154.088 25.1162 153.981 25.6962 153.768 26.2162C153.554 26.7229 153.248 27.1629 152.848 27.5362C152.448 27.8962 151.968 28.1762 151.408 28.3762C150.848 28.5629 150.214 28.6563 149.508 28.6563H143.488V13.6562ZM149.428 27.1762C150.348 27.1762 151.068 26.9362 151.588 26.4562C152.108 25.9762 152.368 25.3162 152.368 24.4762C152.368 23.6229 152.101 22.9429 151.568 22.4362C151.034 21.9162 150.321 21.6562 149.428 21.6562H145.188V27.1762H149.428ZM149.128 20.1562C149.928 20.1562 150.554 19.9296 151.008 19.4762C151.461 19.0229 151.688 18.3962 151.688 17.5962C151.688 16.8362 151.448 16.2362 150.968 15.7962C150.501 15.3562 149.861 15.1362 149.048 15.1362H145.188V20.1562H149.128ZM155.491 28.6563L161.231 13.6562H163.111L168.871 28.6563H167.071L165.111 23.4762H159.151L157.191 28.6563H155.491ZM159.731 21.9362H164.531L162.131 15.5962L159.731 21.9362ZM173.137 13.6562V19.9162H181.817V13.6562H183.517V28.6563H181.817V21.4762H173.137V28.6563H171.437V13.6562H173.137ZM188.058 13.6562L189.718 13.6562V26.0762L198.278 13.6562H199.898V28.6563H198.238V16.2562L189.678 28.6563H188.058V13.6562ZM213.704 13.6562V15.2162H206.164V19.9562H211.544V21.5162H206.164V27.0962H213.904V28.6563H204.464V13.6562H213.704ZM216.408 31.6563H215.128L216.068 26.6562H217.968L216.408 31.6563Z" fill="black"/>
</svg>
